<svg width="647" height="510" viewBox="0 0 647 510" fill="none" xmlns="http://www.w3.org/2000/svg">
<path opacity="0.7" d="M67 474L67 45" stroke="#161C23" stroke-width="0.7"/>
<path opacity="0.7" d="M62.5 49.5L67 45L71.5 49.5" stroke="#161C23" stroke-width="0.7"/>
<path opacity="0.7" d="M641 469L646 474L641 479" stroke="#161C23" stroke-width="0.7"/>
<path d="M24.2875 52.4792C23.9208 51.8681 23.4166 51.3792 22.775 51.0125C22.1333 50.6306 21.4382 50.4396 20.6896 50.4396C20.0632 50.4396 19.475 50.5694 18.925 50.8292C18.375 51.0736 17.9166 51.4174 17.55 51.8604C17.1833 52.2576 16.9007 52.716 16.7021 53.2354C16.5034 53.7396 16.4041 54.2743 16.4041 54.8396V57.5667C16.9083 56.8792 17.5347 56.3368 18.2833 55.9396C19.0319 55.5424 19.834 55.3437 20.6896 55.3437C21.4229 55.3437 22.118 55.4812 22.775 55.7562C23.4319 56.0312 24.0201 56.4132 24.5396 56.9021C25.059 57.4215 25.4562 58.0174 25.7312 58.6896C26.0215 59.3618 26.1666 60.0799 26.1666 60.8437C26.1666 61.5618 26.0291 62.2493 25.7541 62.9062C25.4791 63.5479 25.0972 64.1208 24.6083 64.625C24.1041 65.175 23.5007 65.6028 22.7979 65.9083C22.1104 66.1986 21.3847 66.3438 20.6208 66.3438C19.8264 66.3438 19.0778 66.191 18.375 65.8854C17.6722 65.5646 17.0611 65.1215 16.5416 64.5562C15.5639 63.5174 15.075 62.2187 15.075 60.6604V54.8396C15.075 54.0299 15.2125 53.2812 15.4875 52.5937C15.7778 51.891 16.1903 51.2799 16.725 50.7604C17.2444 50.241 17.8403 49.8437 18.5125 49.5687C19.2 49.2937 19.9257 49.1562 20.6896 49.1562C21.6521 49.1562 22.5382 49.3854 23.3479 49.8437C24.1729 50.2868 24.8375 50.9056 25.3416 51.7L24.2875 52.4792ZM20.6666 64.9229C21.3083 64.9229 21.9041 64.7854 22.4541 64.5104C23.0041 64.2354 23.4625 63.8535 23.8291 63.3646C24.1041 63.0132 24.318 62.6236 24.4708 62.1958C24.6389 61.7528 24.7229 61.3097 24.7229 60.8667C24.7229 60.225 24.593 59.6292 24.3333 59.0792C24.0736 58.5292 23.7146 58.0632 23.2562 57.6812C22.5076 57.0549 21.6215 56.7417 20.5979 56.7417C19.9715 56.7417 19.3833 56.8792 18.8333 57.1542C18.2833 57.4139 17.8173 57.7729 17.4354 58.2312C16.8243 58.9646 16.5187 59.8201 16.5187 60.7979C16.5187 61.3785 16.6333 61.9285 16.8625 62.4479C17.1069 62.9674 17.4278 63.4257 17.825 63.8229C18.1916 64.1743 18.6194 64.4493 19.1083 64.6479C19.5972 64.8312 20.1166 64.9229 20.6666 64.9229ZM33.8727 66.3438C34.6213 66.3438 35.3317 66.1986 36.0039 65.9083C36.6761 65.6028 37.2567 65.1826 37.7456 64.6479C38.6317 63.6396 39.0747 62.4479 39.0747 61.0729V54.4042C39.0747 52.9528 38.5935 51.7306 37.631 50.7375C37.1421 50.2333 36.5768 49.8437 35.9352 49.5687C35.2935 49.2937 34.606 49.1562 33.8727 49.1562C33.1393 49.1562 32.4442 49.2937 31.7872 49.5687C31.1303 49.8437 30.565 50.2333 30.0914 50.7375C29.1442 51.7611 28.6706 52.9833 28.6706 54.4042V61.0729C28.6706 62.4785 29.1213 63.6778 30.0227 64.6708C30.4963 65.2056 31.0692 65.6181 31.7414 65.9083C32.4136 66.1986 33.124 66.3438 33.8727 66.3438ZM33.8727 50.4396C34.5143 50.4396 35.1178 50.5924 35.6831 50.8979C36.2484 51.2035 36.7143 51.616 37.081 52.1354C37.524 52.8076 37.7456 53.5639 37.7456 54.4042V61.0729C37.7456 61.9132 37.5317 62.6618 37.1039 63.3187C36.7372 63.8535 36.2713 64.2812 35.706 64.6021C35.1407 64.9076 34.5296 65.0528 33.8727 65.0375C33.2157 65.0528 32.6046 64.9076 32.0393 64.6021C31.474 64.2812 31.0157 63.8535 30.6643 63.3187C30.2213 62.6771 29.9997 61.9285 29.9997 61.0729V54.4042C29.9997 53.5333 30.2289 52.7771 30.6872 52.1354C31.0386 51.616 31.497 51.2035 32.0622 50.8979C32.6275 50.5924 33.231 50.4396 33.8727 50.4396Z" fill="#161C23" fill-opacity="0.9"/>
<path d="M26.3987 142.571V143.854H24.5195V147.2H23.1903V143.854H15.7195V142.571L21.3341 130.7H22.732L17.1403 142.571H23.1903V137.575H24.5195V142.571H26.3987ZM33.8727 147.544C34.6213 147.544 35.3317 147.399 36.0039 147.108C36.6761 146.803 37.2567 146.383 37.7456 145.848C38.6317 144.84 39.0747 143.648 39.0747 142.273V135.604C39.0747 134.153 38.5935 132.931 37.631 131.937C37.1421 131.433 36.5768 131.044 35.9352 130.769C35.2935 130.494 34.606 130.356 33.8727 130.356C33.1393 130.356 32.4442 130.494 31.7872 130.769C31.1303 131.044 30.565 131.433 30.0914 131.937C29.1442 132.961 28.6706 134.183 28.6706 135.604V142.273C28.6706 143.678 29.1213 144.878 30.0227 145.871C30.4963 146.406 31.0692 146.818 31.7414 147.108C32.4136 147.399 33.124 147.544 33.8727 147.544ZM33.8727 131.64C34.5143 131.64 35.1178 131.792 35.6831 132.098C36.2484 132.403 36.7143 132.816 37.081 133.335C37.524 134.008 37.7456 134.764 37.7456 135.604V142.273C37.7456 143.113 37.5317 143.862 37.1039 144.519C36.7372 145.053 36.2713 145.481 35.706 145.802C35.1407 146.108 34.5296 146.253 33.8727 146.237C33.2157 146.253 32.6046 146.108 32.0393 145.802C31.474 145.481 31.0157 145.053 30.6643 144.519C30.2213 143.877 29.9997 143.128 29.9997 142.273V135.604C29.9997 134.733 30.2289 133.977 30.6872 133.335C31.0386 132.816 31.497 132.403 32.0622 132.098C32.6275 131.792 33.231 131.64 33.8727 131.64Z" fill="#161C23" fill-opacity="0.9"/>
<path d="M16.4371 216.323C16.4218 215.651 16.544 215.017 16.8037 214.421C17.0787 213.81 17.4607 213.275 17.9496 212.817C18.3926 212.419 18.9044 212.114 19.485 211.9C20.0656 211.671 20.6614 211.556 21.2725 211.556C21.8989 211.556 22.4947 211.671 23.06 211.9C23.6253 212.129 24.1294 212.45 24.5725 212.862C25.0461 213.321 25.4128 213.856 25.6725 214.467C25.9322 215.062 26.0621 215.689 26.0621 216.346C26.0621 217.079 25.9017 217.782 25.5808 218.454C25.26 219.126 24.7635 219.814 24.0913 220.517L18.2017 227.094H26.1308V228.4H16.2996V227.094L23.2204 219.531C24.2287 218.431 24.7329 217.369 24.7329 216.346C24.7329 215.857 24.6336 215.399 24.435 214.971C24.2517 214.528 23.9919 214.146 23.6558 213.825C22.9683 213.168 22.1662 212.84 21.2496 212.84C20.8065 212.84 20.3787 212.924 19.9662 213.092C19.5537 213.26 19.1871 213.489 18.8662 213.779C18.5301 214.115 18.2628 214.505 18.0642 214.948C17.8656 215.391 17.7662 215.849 17.7662 216.323H16.4371ZM33.8727 228.744C34.6213 228.744 35.3317 228.599 36.0039 228.308C36.6761 228.003 37.2567 227.583 37.7456 227.048C38.6317 226.04 39.0747 224.848 39.0747 223.473V216.804C39.0747 215.353 38.5935 214.131 37.631 213.137C37.1421 212.633 36.5768 212.244 35.9352 211.969C35.2935 211.694 34.606 211.556 33.8727 211.556C33.1393 211.556 32.4442 211.694 31.7872 211.969C31.1303 212.244 30.565 212.633 30.0914 213.137C29.1442 214.161 28.6706 215.383 28.6706 216.804V223.473C28.6706 224.878 29.1213 226.078 30.0227 227.071C30.4963 227.606 31.0692 228.018 31.7414 228.308C32.4136 228.599 33.124 228.744 33.8727 228.744ZM33.8727 212.84C34.5143 212.84 35.1178 212.992 35.6831 213.298C36.2484 213.603 36.7143 214.016 37.081 214.535C37.524 215.208 37.7456 215.964 37.7456 216.804V223.473C37.7456 224.313 37.5317 225.062 37.1039 225.719C36.7372 226.253 36.2713 226.681 35.706 227.002C35.1407 227.308 34.5296 227.453 33.8727 227.437C33.2157 227.453 32.6046 227.308 32.0393 227.002C31.474 226.681 31.0157 226.253 30.6643 225.719C30.2213 225.077 29.9997 224.328 29.9997 223.473V216.804C29.9997 215.933 30.2289 215.177 30.6872 214.535C31.0386 214.016 31.497 213.603 32.0622 213.298C32.6275 212.992 33.231 212.84 33.8727 212.84Z" fill="#161C23" fill-opacity="0.9"/>
<path d="M33.8727 308.944C34.6213 308.944 35.3317 308.799 36.0039 308.508C36.6761 308.203 37.2567 307.783 37.7456 307.248C38.6317 306.24 39.0747 305.048 39.0747 303.673V297.004C39.0747 295.553 38.5935 294.331 37.631 293.337C37.1421 292.833 36.5768 292.444 35.9352 292.169C35.2935 291.894 34.606 291.756 33.8727 291.756C33.1393 291.756 32.4442 291.894 31.7872 292.169C31.1303 292.444 30.565 292.833 30.0914 293.337C29.1442 294.361 28.6706 295.583 28.6706 297.004V303.673C28.6706 305.078 29.1213 306.278 30.0227 307.271C30.4963 307.806 31.0692 308.218 31.7414 308.508C32.4136 308.799 33.124 308.944 33.8727 308.944ZM33.8727 293.04C34.5143 293.04 35.1178 293.192 35.6831 293.498C36.2484 293.803 36.7143 294.216 37.081 294.735C37.524 295.408 37.7456 296.164 37.7456 297.004V303.673C37.7456 304.513 37.5317 305.262 37.1039 305.919C36.7372 306.453 36.2713 306.881 35.706 307.202C35.1407 307.508 34.5296 307.653 33.8727 307.637C33.2157 307.653 32.6046 307.508 32.0393 307.202C31.474 306.881 31.0157 306.453 30.6643 305.919C30.2213 305.277 29.9997 304.528 29.9997 303.673V297.004C29.9997 296.133 30.2289 295.377 30.6872 294.735C31.0386 294.216 31.497 293.803 32.0622 293.498C32.6275 293.192 33.231 293.04 33.8727 293.04Z" fill="#161C23" fill-opacity="0.9"/>
<path d="M13.3387 382.787V383.979H6.46375V382.787H13.3387ZM16.4371 377.723C16.4218 377.051 16.544 376.417 16.8037 375.821C17.0787 375.21 17.4607 374.675 17.9496 374.217C18.3926 373.819 18.9044 373.514 19.485 373.3C20.0656 373.071 20.6614 372.956 21.2725 372.956C21.8989 372.956 22.4947 373.071 23.06 373.3C23.6253 373.529 24.1294 373.85 24.5725 374.262C25.0461 374.721 25.4128 375.256 25.6725 375.867C25.9322 376.462 26.0621 377.089 26.0621 377.746C26.0621 378.479 25.9017 379.182 25.5808 379.854C25.26 380.526 24.7635 381.214 24.0912 381.917L18.2017 388.494H26.1308V389.8H16.2996V388.494L23.2204 380.931C24.2287 379.831 24.7329 378.769 24.7329 377.746C24.7329 377.257 24.6336 376.799 24.435 376.371C24.2517 375.928 23.9919 375.546 23.6558 375.225C22.9683 374.568 22.1662 374.24 21.2496 374.24C20.8065 374.24 20.3787 374.324 19.9662 374.492C19.5537 374.66 19.1871 374.889 18.8662 375.179C18.5301 375.515 18.2628 375.905 18.0642 376.348C17.8656 376.791 17.7662 377.249 17.7662 377.723H16.4371ZM33.8727 390.144C34.6213 390.144 35.3317 389.999 36.0039 389.708C36.6761 389.403 37.2567 388.983 37.7456 388.448C38.6317 387.44 39.0747 386.248 39.0747 384.873V378.204C39.0747 376.753 38.5935 375.531 37.631 374.537C37.1421 374.033 36.5768 373.644 35.9352 373.369C35.2935 373.094 34.606 372.956 33.8727 372.956C33.1393 372.956 32.4442 373.094 31.7872 373.369C31.1303 373.644 30.565 374.033 30.0914 374.537C29.1442 375.561 28.6706 376.783 28.6706 378.204V384.873C28.6706 386.278 29.1213 387.478 30.0227 388.471C30.4963 389.006 31.0692 389.418 31.7414 389.708C32.4136 389.999 33.124 390.144 33.8727 390.144ZM33.8727 374.24C34.5143 374.24 35.1178 374.392 35.6831 374.698C36.2483 375.003 36.7143 375.416 37.081 375.935C37.524 376.608 37.7456 377.364 37.7456 378.204V384.873C37.7456 385.713 37.5317 386.462 37.1039 387.119C36.7372 387.653 36.2713 388.081 35.706 388.402C35.1407 388.708 34.5296 388.853 33.8727 388.837C33.2157 388.853 32.6046 388.708 32.0393 388.402C31.474 388.081 31.0157 387.653 30.6643 387.119C30.2213 386.477 29.9997 385.728 29.9997 384.873V378.204C29.9997 377.333 30.2289 376.577 30.6872 375.935C31.0386 375.416 31.497 375.003 32.0622 374.698C32.6275 374.392 33.231 374.24 33.8727 374.24Z" fill="#161C23" fill-opacity="0.9"/>
<path d="M12.0712 463.987V465.179H5.19617V463.987H12.0712ZM26.3987 466.371V467.654H24.5195V471H23.1903V467.654H15.7195V466.371L21.3341 454.5H22.732L17.1403 466.371H23.1903V461.375H24.5195V466.371H26.3987ZM33.8727 471.344C34.6213 471.344 35.3317 471.199 36.0039 470.908C36.6761 470.603 37.2567 470.183 37.7456 469.648C38.6317 468.64 39.0747 467.448 39.0747 466.073V459.404C39.0747 457.953 38.5935 456.731 37.631 455.737C37.1421 455.233 36.5768 454.844 35.9352 454.569C35.2935 454.294 34.606 454.156 33.8727 454.156C33.1393 454.156 32.4442 454.294 31.7872 454.569C31.1303 454.844 30.565 455.233 30.0914 455.737C29.1442 456.761 28.6706 457.983 28.6706 459.404V466.073C28.6706 467.478 29.1213 468.678 30.0227 469.671C30.4963 470.206 31.0692 470.618 31.7414 470.908C32.4136 471.199 33.124 471.344 33.8727 471.344ZM33.8727 455.44C34.5143 455.44 35.1178 455.592 35.6831 455.898C36.2483 456.203 36.7143 456.616 37.081 457.135C37.524 457.808 37.7456 458.564 37.7456 459.404V466.073C37.7456 466.913 37.5317 467.662 37.1039 468.319C36.7372 468.853 36.2713 469.281 35.706 469.602C35.1407 469.908 34.5296 470.053 33.8727 470.037C33.2157 470.053 32.6046 469.908 32.0393 469.602C31.474 469.281 31.0157 468.853 30.6643 468.319C30.2213 467.677 29.9997 466.928 29.9997 466.073V459.404C29.9997 458.533 30.2289 457.777 30.6872 457.135C31.0386 456.616 31.497 456.203 32.0622 455.898C32.6275 455.592 33.231 455.44 33.8727 455.44Z" fill="#161C23" fill-opacity="0.9"/>
<path d="M56.4188 9.875L56.4375 20H55.35V12.35L51.8438 18.65H50.9063L47.4188 12.35V20H46.3125V9.875H47.3625L51.375 17.1125L55.4063 9.875H56.4188ZM67.1041 9.875V20H66.0354V10.9062H61.9104L61.2541 16.2687C61.1666 17.0687 61.0416 17.7375 60.8791 18.275C60.7166 18.8 60.4479 19.225 60.0729 19.55C59.6979 19.875 59.1666 20.025 58.4791 20V18.9687C58.9166 18.9687 59.2479 18.8625 59.4729 18.65C59.6979 18.4375 59.8604 18.1437 59.9604 17.7687C60.0604 17.3812 60.1541 16.8187 60.2416 16.0812L60.9729 9.875H67.1041ZM78.3638 9.875V20H77.2762V15.0687H71.1825V20H70.095V9.875H71.1825V14H77.2762V9.875H78.3638ZM94.6779 7.7375C95.0529 8.1125 95.3466 8.55625 95.5591 9.06875C95.7716 9.56875 95.8841 10.0875 95.8966 10.625C95.8966 11.1125 95.8029 11.5937 95.6154 12.0687C95.4279 12.5312 95.1716 12.95 94.8466 13.325C94.4841 13.7625 94.0216 14.1062 93.4591 14.3562C92.9091 14.6062 92.3404 14.7312 91.7529 14.7312H87.3654V20H86.2779V6.5H91.7529C92.2279 6.5 92.7091 6.5875 93.1966 6.7625C93.7716 6.975 94.2654 7.3 94.6779 7.7375ZM94.0404 12.575C94.2654 12.3 94.4404 12 94.5654 11.675C94.6904 11.35 94.7529 11.025 94.7529 10.7C94.7529 10.2625 94.6716 9.85 94.5091 9.4625C94.3591 9.075 94.1404 8.7375 93.8529 8.45C93.5779 8.175 93.2529 7.95625 92.8779 7.79375C92.5029 7.63125 92.1279 7.55 91.7529 7.55H87.3654V13.6812H91.7529C92.1779 13.6812 92.5904 13.5812 92.9904 13.3812C93.4029 13.1812 93.7529 12.9125 94.0404 12.575Z" fill="#161C23" fill-opacity="0.9"/>
<path d="M347.156 494.962H341.4V504H340.313V493.875H347.156V494.962ZM353.166 504.281C352.441 504.281 351.766 504.144 351.141 503.869C350.516 503.581 349.991 503.169 349.566 502.631C348.828 501.694 348.46 500.456 348.46 498.919C348.46 497.406 348.828 496.175 349.566 495.225C349.978 494.7 350.497 494.3 351.122 494.025C351.76 493.737 352.441 493.594 353.166 493.594C353.903 493.594 354.585 493.731 355.21 494.006C355.835 494.281 356.353 494.687 356.766 495.225C357.516 496.15 357.891 497.381 357.891 498.919C357.891 500.469 357.516 501.706 356.766 502.631C356.341 503.181 355.822 503.594 355.21 503.869C354.597 504.144 353.916 504.281 353.166 504.281ZM355.903 501.975C356.453 501.262 356.728 500.244 356.728 498.919C356.728 497.606 356.453 496.594 355.903 495.881C355.603 495.481 355.21 495.175 354.722 494.962C354.247 494.75 353.728 494.644 353.166 494.644C352.616 494.644 352.097 494.75 351.61 494.962C351.135 495.175 350.753 495.481 350.466 495.881C349.903 496.606 349.622 497.619 349.622 498.919C349.622 500.231 349.903 501.25 350.466 501.975C350.753 502.375 351.135 502.687 351.61 502.912C352.097 503.125 352.616 503.231 353.166 503.231C353.716 503.231 354.235 503.125 354.722 502.912C355.21 502.687 355.603 502.375 355.903 501.975ZM368.734 502.95H369.653V505.444H368.603V504H360.428V505.444H359.378V502.95C360.541 502.95 361.247 501.85 361.497 499.65L362.172 493.875H368.734V502.95ZM367.684 494.906H363.091L362.528 499.762C362.353 501.237 361.978 502.3 361.403 502.95H367.684V494.906Z" fill="#161C23" fill-opacity="0.9"/>
<path opacity="0.8" d="M148.534 438.146V440.021H154.784V438.146H148.534ZM157.559 434.5H159.954C159.954 433.771 160.267 433.083 160.767 432.604C161.225 432.167 161.85 431.896 162.517 431.896C163.288 431.896 163.975 432.208 164.475 432.771C164.892 433.25 165.121 433.875 165.121 434.521C165.121 435.25 164.767 436.062 163.809 436.937L157.475 442.771V444.979H167.329V442.771H161.142L165.079 438.979C166.663 437.5 167.538 436.437 167.538 434.542C167.538 433.333 167.1 432.146 166.288 431.25C165.413 430.187 164.059 429.687 162.642 429.687C161.413 429.687 160.1 430.021 159.163 430.854C158.163 431.75 157.517 433.104 157.559 434.5ZM171.253 443.625C172.295 444.771 173.711 445.333 175.253 445.312C176.795 445.354 178.274 444.812 179.336 443.604C180.357 442.458 180.67 441.208 180.67 439.604V435.437C180.67 433.729 180.378 432.396 179.149 431.187C178.19 430.229 176.836 429.708 175.503 429.729C174.17 429.708 172.815 430.229 171.878 431.167C170.94 432.062 170.357 433.396 170.336 434.729C170.295 436.187 170.795 437.396 171.836 438.375C172.753 439.208 173.982 439.646 175.17 439.646C176.357 439.646 177.461 439.187 178.295 438.396V439.604C178.295 440.354 178.19 441 177.836 441.562C177.357 442.5 176.336 443.104 175.253 443.104C174.357 443.104 173.503 442.687 172.961 442L171.253 443.625ZM174.253 432.458C174.878 432.146 175.607 432.062 176.274 432.292C176.878 432.458 177.44 432.896 177.774 433.5C178.107 434.083 178.19 434.812 178.003 435.437C177.815 436.104 177.357 436.687 176.732 437.021C176.128 437.333 175.42 437.417 174.774 437.229C174.128 437.042 173.545 436.604 173.232 435.979C172.899 435.396 172.815 434.688 172.982 434.042C173.17 433.354 173.628 432.771 174.253 432.458Z" fill="#161C23" fill-opacity="0.9"/>
<path opacity="0.8" d="M257.011 75.25V71.2708H254.636V75.25H250.553L255.407 65H252.948L248.115 75.25V77.4583H254.636V80H257.011V77.4583H258.469V75.25H257.011ZM261.117 68.8958C261.137 69.5833 261.304 70.3125 261.721 70.9583C261.929 71.3333 262.2 71.6458 262.512 71.9375C262.033 72.3333 261.617 72.8333 261.346 73.3542C260.908 74.0625 260.742 74.875 260.742 75.6042C260.742 76.9375 261.283 78.2917 262.325 79.1458C263.242 79.9375 264.554 80.3125 265.804 80.3125C267.033 80.3125 268.346 79.9792 269.304 79.1458C270.367 78.2708 270.846 76.9792 270.888 75.6042C270.867 74.875 270.721 74.0625 270.283 73.3542C270.012 72.8333 269.596 72.3333 269.117 71.9375C269.429 71.6458 269.7 71.3333 269.888 70.9583C270.325 70.3125 270.492 69.5833 270.492 68.8958C270.492 67.625 269.971 66.3958 268.95 65.625C268.096 64.9583 266.95 64.6875 265.804 64.6875C264.721 64.6875 263.575 64.9375 262.679 65.625C261.637 66.4167 261.179 67.5417 261.117 68.8958ZM263.617 68.8958C263.617 68.2917 263.783 67.7708 264.221 67.4167C264.617 67.0625 265.221 66.9167 265.804 66.8958C266.408 66.9167 267.013 67.0625 267.408 67.4167C267.825 67.7708 268.013 68.2917 268.013 68.8958C268.033 69.4792 267.825 70.0208 267.429 70.375C267.013 70.7292 266.408 70.875 265.804 70.875C265.221 70.875 264.617 70.7292 264.2 70.375C263.783 70.0208 263.596 69.4792 263.617 68.8958ZM267.7 77.4375C267.242 77.875 266.533 78.0833 265.804 78.0833C265.096 78.0833 264.388 77.875 263.908 77.4375C263.429 76.9792 263.221 76.3125 263.221 75.6042C263.221 74.8958 263.429 74.2083 263.908 73.7708C264.388 73.3125 265.096 73.1042 265.804 73.1042C266.533 73.1042 267.242 73.3125 267.7 73.7708C268.2 74.2083 268.408 74.8958 268.408 75.6042C268.408 76.3125 268.2 76.9792 267.7 77.4375Z" fill="#161C23" fill-opacity="0.9"/>
<path opacity="0.8" d="M346.036 56L345.578 63.7083L347.64 64.875C347.765 64.6458 347.953 64.4167 348.161 64.2292C348.661 63.7708 349.328 63.5 350.015 63.5C350.745 63.5 351.432 63.7708 351.953 64.2708C352.495 64.7708 352.828 65.5208 352.828 66.2708C352.828 67.0417 352.515 67.75 351.995 68.25C351.474 68.75 350.765 69.0625 350.015 69.0625C349.307 69.0625 348.62 68.7708 348.099 68.2917C347.745 67.9375 347.474 67.4792 347.328 66.9792L345.078 67.5833C345.328 68.4792 345.828 69.2917 346.474 69.8958C347.411 70.7917 348.724 71.3125 350.015 71.2917C351.349 71.3125 352.682 70.7917 353.64 69.875C354.578 68.9583 355.161 67.625 355.182 66.2708C355.224 64.875 354.703 63.5625 353.62 62.5833C352.724 61.7917 351.515 61.375 350.328 61.375C349.515 61.375 348.62 61.625 347.89 62.125L348.12 58.2083H353.932V56H346.036ZM360.165 56L357.353 57.6875V60.2917L360.165 58.5625V71H362.561V56H360.165Z" fill="#161C23" fill-opacity="0.9"/>
<path opacity="0.8" d="M441.036 56L440.578 63.7083L442.64 64.875C442.765 64.6458 442.953 64.4167 443.161 64.2292C443.661 63.7708 444.328 63.5 445.015 63.5C445.745 63.5 446.432 63.7708 446.953 64.2708C447.495 64.7708 447.828 65.5208 447.828 66.2708C447.828 67.0417 447.515 67.75 446.995 68.25C446.474 68.75 445.765 69.0625 445.015 69.0625C444.307 69.0625 443.62 68.7708 443.099 68.2917C442.745 67.9375 442.474 67.4792 442.328 66.9792L440.078 67.5833C440.328 68.4792 440.828 69.2917 441.474 69.8958C442.411 70.7917 443.724 71.3125 445.015 71.2917C446.349 71.3125 447.682 70.7917 448.64 69.875C449.578 68.9583 450.161 67.625 450.182 66.2708C450.224 64.875 449.703 63.5625 448.62 62.5833C447.724 61.7917 446.515 61.375 445.328 61.375C444.515 61.375 443.62 61.625 442.89 62.125L443.12 58.2083H448.932V56H441.036ZM455.165 56L452.353 57.6875V60.2917L455.165 58.5625V71H457.561V56H455.165Z" fill="#161C23" fill-opacity="0.9"/>
<path opacity="0.8" d="M536.036 56L535.578 63.7083L537.64 64.875C537.765 64.6458 537.953 64.4167 538.161 64.2292C538.661 63.7708 539.328 63.5 540.015 63.5C540.745 63.5 541.432 63.7708 541.953 64.2708C542.495 64.7708 542.828 65.5208 542.828 66.2708C542.828 67.0417 542.515 67.75 541.995 68.25C541.474 68.75 540.765 69.0625 540.015 69.0625C539.307 69.0625 538.62 68.7708 538.099 68.2917C537.745 67.9375 537.474 67.4792 537.328 66.9792L535.078 67.5833C535.328 68.4792 535.828 69.2917 536.474 69.8958C537.411 70.7917 538.724 71.3125 540.015 71.2917C541.349 71.3125 542.682 70.7917 543.64 69.875C544.578 68.9583 545.161 67.625 545.182 66.2708C545.224 64.875 544.703 63.5625 543.62 62.5833C542.724 61.7917 541.515 61.375 540.328 61.375C539.515 61.375 538.62 61.625 537.89 62.125L538.12 58.2083H543.932V56H536.036ZM550.165 56L547.353 57.6875V60.2917L550.165 58.5625V71H552.561V56H550.165Z" fill="#161C23" fill-opacity="0.9"/>
<line opacity="0.3" x1="68" y1="416.75" x2="641" y2="416.75" stroke="black" stroke-width="0.5" stroke-dasharray="6 6"/>
<line opacity="0.3" x1="67" y1="96.75" x2="640" y2="96.75" stroke="black" stroke-width="0.5" stroke-dasharray="6 6"/>
<line opacity="0.3" x1="67" y1="90.75" x2="640" y2="90.75" stroke="black" stroke-width="0.5" stroke-dasharray="6 6"/>
<path opacity="0.3" d="M67 300H641" stroke="black" stroke-width="0.5" stroke-dasharray="6 6"/>
<line opacity="0.7" x1="67" y1="473.65" x2="644" y2="473.65" stroke="#161C23" stroke-width="0.7"/>
<path d="M150.492 276.5V287H149.646V277.448L147.663 278.644V277.681L149.646 276.5H150.492ZM162.312 279.971H157.834V287H156.989V279.125H162.312V279.971ZM166.986 287.219C166.422 287.219 165.897 287.112 165.411 286.898C164.925 286.674 164.516 286.353 164.186 285.935C163.612 285.206 163.325 284.244 163.325 283.048C163.325 281.872 163.612 280.914 164.186 280.175C164.506 279.767 164.91 279.456 165.396 279.242C165.892 279.018 166.422 278.906 166.986 278.906C167.559 278.906 168.089 279.013 168.575 279.227C169.061 279.441 169.465 279.757 169.786 280.175C170.369 280.894 170.661 281.852 170.661 283.048C170.661 284.253 170.369 285.216 169.786 285.935C169.455 286.363 169.052 286.684 168.575 286.898C168.099 287.112 167.569 287.219 166.986 287.219ZM169.115 285.425C169.543 284.871 169.756 284.078 169.756 283.048C169.756 282.027 169.543 281.24 169.115 280.685C168.881 280.374 168.575 280.136 168.196 279.971C167.827 279.806 167.423 279.723 166.986 279.723C166.558 279.723 166.154 279.806 165.775 279.971C165.406 280.136 165.109 280.374 164.886 280.685C164.448 281.249 164.229 282.037 164.229 283.048C164.229 284.069 164.448 284.861 164.886 285.425C165.109 285.736 165.406 285.979 165.775 286.154C166.154 286.319 166.558 286.402 166.986 286.402C167.413 286.402 167.817 286.319 168.196 286.154C168.575 285.979 168.881 285.736 169.115 285.425ZM179.095 286.183H179.809V288.123H178.992V287H172.634V288.123H171.817V286.183C172.722 286.183 173.271 285.328 173.465 283.617L173.99 279.125H179.095V286.183ZM178.278 279.927H174.705L174.267 283.704C174.131 284.851 173.84 285.678 173.392 286.183H178.278V279.927Z" fill="#161C23" fill-opacity="0.9"/>
<path d="M242.113 315.315C242.103 314.887 242.181 314.483 242.346 314.104C242.521 313.715 242.765 313.375 243.076 313.083C243.358 312.831 243.683 312.636 244.053 312.5C244.422 312.354 244.801 312.281 245.19 312.281C245.589 312.281 245.968 312.354 246.328 312.5C246.687 312.646 247.008 312.85 247.29 313.112C247.592 313.404 247.825 313.744 247.99 314.133C248.155 314.512 248.238 314.911 248.238 315.329C248.238 315.796 248.136 316.243 247.932 316.671C247.728 317.099 247.412 317.536 246.984 317.983L243.236 322.169H248.282V323H242.026V322.169L246.43 317.356C247.071 316.656 247.392 315.981 247.392 315.329C247.392 315.018 247.329 314.726 247.203 314.454C247.086 314.172 246.921 313.929 246.707 313.725C246.269 313.307 245.759 313.098 245.176 313.098C244.894 313.098 244.621 313.151 244.359 313.258C244.096 313.365 243.863 313.511 243.659 313.696C243.445 313.91 243.275 314.158 243.149 314.44C243.022 314.722 242.959 315.013 242.959 315.315H242.113ZM259.343 315.971H254.866V323H254.02V315.125H259.343V315.971ZM264.017 323.219C263.453 323.219 262.928 323.112 262.442 322.898C261.956 322.674 261.547 322.353 261.217 321.935C260.643 321.206 260.356 320.244 260.356 319.048C260.356 317.872 260.643 316.914 261.217 316.175C261.538 315.767 261.941 315.456 262.427 315.242C262.923 315.018 263.453 314.906 264.017 314.906C264.591 314.906 265.12 315.013 265.606 315.227C266.093 315.441 266.496 315.757 266.817 316.175C267.4 316.894 267.692 317.852 267.692 319.048C267.692 320.253 267.4 321.216 266.817 321.935C266.486 322.363 266.083 322.684 265.606 322.898C265.13 323.112 264.6 323.219 264.017 323.219ZM266.146 321.425C266.574 320.871 266.788 320.078 266.788 319.048C266.788 318.027 266.574 317.24 266.146 316.685C265.913 316.374 265.606 316.136 265.227 315.971C264.858 315.806 264.454 315.723 264.017 315.723C263.589 315.723 263.186 315.806 262.806 315.971C262.437 316.136 262.141 316.374 261.917 316.685C261.479 317.249 261.261 318.037 261.261 319.048C261.261 320.069 261.479 320.861 261.917 321.425C262.141 321.736 262.437 321.979 262.806 322.154C263.186 322.319 263.589 322.402 264.017 322.402C264.445 322.402 264.848 322.319 265.227 322.154C265.606 321.979 265.913 321.736 266.146 321.425ZM276.126 322.183H276.84V324.123H276.024V323H269.665V324.123H268.849V322.183C269.753 322.183 270.302 321.328 270.497 319.617L271.022 315.125H276.126V322.183ZM275.309 315.927H271.736L271.299 319.704C271.163 320.851 270.871 321.678 270.424 322.183H275.309V315.927Z" fill="#161C23" fill-opacity="0.9"/>
<path d="M342.455 317.269C342.795 317.57 343.048 317.944 343.213 318.392C343.388 318.839 343.476 319.315 343.476 319.821C343.466 320.394 343.354 320.919 343.14 321.396C342.936 321.872 342.63 322.261 342.221 322.562C341.677 322.981 341.001 323.199 340.194 323.219C339.407 323.219 338.726 323.015 338.153 322.606C337.608 322.198 337.224 321.658 337.001 320.987L337.803 320.725C337.978 321.25 338.264 321.658 338.663 321.95C339.081 322.242 339.587 322.387 340.18 322.387C340.792 322.368 341.298 322.208 341.696 321.906C342.289 321.459 342.586 320.764 342.586 319.821C342.586 319.422 342.518 319.048 342.382 318.698C342.255 318.348 342.056 318.056 341.784 317.823C341.356 317.453 340.817 317.269 340.165 317.269C339.961 317.269 339.747 317.298 339.523 317.356C339.3 317.405 339.091 317.478 338.896 317.575L338.444 316.89L342.178 313.317H337.423V312.5H343.359V313.346L340.048 316.51C340.505 316.481 340.943 316.53 341.361 316.656C341.779 316.783 342.144 316.987 342.455 317.269ZM354.514 315.971H350.037V323H349.191V315.125H354.514V315.971ZM359.188 323.219C358.624 323.219 358.099 323.112 357.613 322.898C357.127 322.674 356.718 322.353 356.388 321.935C355.814 321.206 355.527 320.244 355.527 319.048C355.527 317.872 355.814 316.914 356.388 316.175C356.709 315.767 357.112 315.456 357.598 315.242C358.094 315.018 358.624 314.906 359.188 314.906C359.761 314.906 360.291 315.013 360.777 315.227C361.264 315.441 361.667 315.757 361.988 316.175C362.571 316.894 362.863 317.852 362.863 319.048C362.863 320.253 362.571 321.216 361.988 321.935C361.657 322.363 361.254 322.684 360.777 322.898C360.301 323.112 359.771 323.219 359.188 323.219ZM361.317 321.425C361.745 320.871 361.959 320.078 361.959 319.048C361.959 318.027 361.745 317.24 361.317 316.685C361.084 316.374 360.777 316.136 360.398 315.971C360.029 315.806 359.625 315.723 359.188 315.723C358.76 315.723 358.357 315.806 357.977 315.971C357.608 316.136 357.311 316.374 357.088 316.685C356.65 317.249 356.432 318.037 356.432 319.048C356.432 320.069 356.65 320.861 357.088 321.425C357.311 321.736 357.608 321.979 357.977 322.154C358.357 322.319 358.76 322.402 359.188 322.402C359.616 322.402 360.019 322.319 360.398 322.154C360.777 321.979 361.084 321.736 361.317 321.425ZM371.297 322.183H372.011V324.123H371.195V323H364.836V324.123H364.02V322.183C364.924 322.183 365.473 321.328 365.668 319.617L366.193 315.125H371.297V322.183ZM370.48 315.927H366.907L366.47 319.704C366.334 320.851 366.042 321.678 365.595 322.183H370.48V315.927Z" fill="#161C23" fill-opacity="0.9"/>
<path d="M438.637 320.054V320.871H437.441V323H436.595V320.871H431.841V320.054L435.414 312.5H436.304L432.745 320.054H436.595V316.875H437.441V320.054H438.637ZM449.527 315.971H445.05V323H444.204V315.125H449.527V315.971ZM454.201 323.219C453.638 323.219 453.113 323.112 452.626 322.898C452.14 322.674 451.732 322.353 451.401 321.935C450.828 321.206 450.541 320.244 450.541 319.048C450.541 317.872 450.828 316.914 451.401 316.175C451.722 315.767 452.126 315.456 452.612 315.242C453.108 315.018 453.638 314.906 454.201 314.906C454.775 314.906 455.305 315.013 455.791 315.227C456.277 315.441 456.681 315.757 457.001 316.175C457.585 316.894 457.876 317.852 457.876 319.048C457.876 320.253 457.585 321.216 457.001 321.935C456.671 322.363 456.267 322.684 455.791 322.898C455.315 323.112 454.785 323.219 454.201 323.219ZM456.331 321.425C456.758 320.871 456.972 320.078 456.972 319.048C456.972 318.027 456.758 317.24 456.331 316.685C456.097 316.374 455.791 316.136 455.412 315.971C455.042 315.806 454.639 315.723 454.201 315.723C453.774 315.723 453.37 315.806 452.991 315.971C452.622 316.136 452.325 316.374 452.101 316.685C451.664 317.249 451.445 318.037 451.445 319.048C451.445 320.069 451.664 320.861 452.101 321.425C452.325 321.736 452.622 321.979 452.991 322.154C453.37 322.319 453.774 322.402 454.201 322.402C454.629 322.402 455.033 322.319 455.412 322.154C455.791 321.979 456.097 321.736 456.331 321.425ZM466.31 322.183H467.025V324.123H466.208V323H459.85V324.123H459.033V322.183C459.937 322.183 460.487 321.328 460.681 319.617L461.206 315.125H466.31V322.183ZM465.494 315.927H461.921L461.483 319.704C461.347 320.851 461.056 321.678 460.608 322.183H465.494V315.927Z" fill="#161C23" fill-opacity="0.9"/>
<path d="M533.344 312.5V313.317H528.59L528.356 317.123C528.658 316.841 529.008 316.622 529.406 316.467C529.805 316.301 530.223 316.219 530.661 316.219C531.098 316.219 531.516 316.297 531.915 316.452C532.313 316.608 532.668 316.826 532.979 317.108C533.349 317.439 533.631 317.828 533.825 318.275C534.029 318.722 534.131 319.199 534.131 319.704C534.131 320.171 534.039 320.618 533.854 321.046C533.679 321.474 533.431 321.848 533.111 322.169C532.79 322.499 532.411 322.757 531.973 322.942C531.545 323.126 531.088 323.219 530.602 323.219C530.155 323.219 529.727 323.141 529.319 322.985C528.911 322.82 528.541 322.587 528.211 322.285C527.715 321.799 527.379 321.235 527.204 320.594L528.006 320.375C528.133 320.89 528.405 321.333 528.823 321.702C529.066 321.916 529.338 322.081 529.64 322.198C529.951 322.315 530.272 322.373 530.602 322.373C530.962 322.373 531.302 322.305 531.623 322.169C531.954 322.033 532.24 321.848 532.483 321.615C532.736 321.362 532.931 321.075 533.067 320.754C533.213 320.424 533.286 320.074 533.286 319.704C533.286 319.315 533.203 318.946 533.038 318.596C532.882 318.246 532.663 317.944 532.381 317.692C531.856 317.244 531.263 317.021 530.602 317.021C529.97 317.021 529.411 317.22 528.925 317.619C528.663 317.842 528.454 318.09 528.298 318.362L527.481 317.896L527.802 312.5H533.344ZM545.164 315.971H540.687V323H539.841V315.125H545.164V315.971ZM549.838 323.219C549.274 323.219 548.749 323.112 548.263 322.898C547.777 322.674 547.369 322.353 547.038 321.935C546.465 321.206 546.178 320.244 546.178 319.048C546.178 317.872 546.465 316.914 547.038 316.175C547.359 315.767 547.763 315.456 548.249 315.242C548.744 315.018 549.274 314.906 549.838 314.906C550.412 314.906 550.942 315.013 551.428 315.227C551.914 315.441 552.317 315.757 552.638 316.175C553.222 316.894 553.513 317.852 553.513 319.048C553.513 320.253 553.222 321.216 552.638 321.935C552.308 322.363 551.904 322.684 551.428 322.898C550.951 323.112 550.422 323.219 549.838 323.219ZM551.967 321.425C552.395 320.871 552.609 320.078 552.609 319.048C552.609 318.027 552.395 317.24 551.967 316.685C551.734 316.374 551.428 316.136 551.049 315.971C550.679 315.806 550.276 315.723 549.838 315.723C549.41 315.723 549.007 315.806 548.628 315.971C548.258 316.136 547.962 316.374 547.738 316.685C547.301 317.249 547.082 318.037 547.082 319.048C547.082 320.069 547.301 320.861 547.738 321.425C547.962 321.736 548.258 321.979 548.628 322.154C549.007 322.319 549.41 322.402 549.838 322.402C550.266 322.402 550.669 322.319 551.049 322.154C551.428 321.979 551.734 321.736 551.967 321.425ZM561.947 322.183H562.662V324.123H561.845V323H555.487V324.123H554.67V322.183C555.574 322.183 556.123 321.328 556.318 319.617L556.843 315.125H561.947V322.183ZM561.13 315.927H557.558L557.12 319.704C556.984 320.851 556.692 321.678 556.245 322.183H561.13V315.927Z" fill="#161C23" fill-opacity="0.9"/>
<rect x="135" y="300" width="60" height="117" fill="#9DC7D5"/>
<rect width="60" height="203" transform="matrix(1 0 0 -1 230 300)" fill="#6DABBF"/>
<rect width="60" height="212" transform="matrix(1 0 0 -1 325 300)" fill="#3C8FAA"/>
<rect width="60" height="212" transform="matrix(1 0 0 -1 420 300)" fill="#0B7495"/>
<rect width="60" height="212" transform="matrix(1 0 0 -1 515 300)" fill="#0B7495"/>
</svg>
