<svg style="display: none" width="0" height="0">
    <symbol fill="none" xmlns="http://www.w3.org/2000/svg" viewBox="0 0 96 96" id="01">
        <path d="M86.3519 75.5519C83.2519 79.8519 79.4519 83.6519 74.8519 86.8519C53.4519 101.652 24.1519 96.2519 9.35194 74.8519C-5.44806 53.4519 -0.0480576 24.1519 21.3519 9.35194C42.7519 -5.44806 72.0519 -0.0480576 86.8519 21.3519C91.4519 28.0519 94.1519 35.5519 94.9519 43.0519" stroke="#020202" stroke-width="0.7564" stroke-miterlimit="10" stroke-linecap="round" stroke-linejoin="round"></path>
        <path d="M44.9523 9.25186C45.9523 9.15186 47.0523 9.15186 48.0523 9.15186C69.5523 9.15186 86.9523 26.5519 86.9523 48.0519C86.9523 69.5519 69.5523 86.9519 48.0523 86.9519C26.5523 86.9519 9.15234 69.5519 9.15234 48.0519C9.15234 37.9519 13.0523 28.6519 19.3523 21.7519" stroke="#020202" stroke-width="0.7564" stroke-miterlimit="10" stroke-linecap="round" stroke-linejoin="round"></path>
        <path d="M38.552 36.4517V42.0517L31.752 67.4517H39.352H41.252H48.852L42.152 42.0517V36.4517" stroke="#020202" stroke-width="0.7564" stroke-miterlimit="10" stroke-linecap="round" stroke-linejoin="round"></path>
        <path d="M40.3527 34.2519C41.8991 34.2519 43.1527 32.9983 43.1527 31.4519C43.1527 29.9055 41.8991 28.6519 40.3527 28.6519C38.8063 28.6519 37.5527 29.9055 37.5527 31.4519C37.5527 32.9983 38.8063 34.2519 40.3527 34.2519Z" stroke="#020202" stroke-width="0.7564" stroke-miterlimit="10" stroke-linecap="round" stroke-linejoin="round"></path>
        <path d="M53.7527 67.4517V61.9517L47.0527 36.4517H54.6527H56.5527H64.1527L57.4527 61.9517V67.4517" stroke="#020202" stroke-width="0.7564" stroke-miterlimit="10" stroke-linecap="round" stroke-linejoin="round"></path>
        <path d="M55.552 34.2519C57.0984 34.2519 58.352 32.9983 58.352 31.4519C58.352 29.9055 57.0984 28.6519 55.552 28.6519C54.0056 28.6519 52.752 29.9055 52.752 31.4519C52.752 32.9983 54.0056 34.2519 55.552 34.2519Z" stroke="#020202" stroke-width="0.7564" stroke-miterlimit="10" stroke-linecap="round" stroke-linejoin="round"></path>
    </symbol>

    <symbol fill="none" xmlns="http://www.w3.org/2000/svg" viewBox="0 0 95 96" id="02">
        <path d="M85.9812 75.2812C82.8812 79.5812 79.0812 83.3812 74.4812 86.4812C53.1812 101.181 23.9812 95.7812 9.28118 74.4812C-5.41882 53.1812 -0.0188198 23.9812 21.2812 9.28118C42.5812 -5.41882 71.7812 -0.0188198 86.4812 21.2812C91.0812 27.9812 93.6812 35.3812 94.4812 42.9812" stroke="#161C23" stroke-width="0.7564" stroke-miterlimit="10" stroke-linecap="round" stroke-linejoin="round"></path>
        <path d="M44.7816 9.38125C45.7816 9.28125 46.7817 9.28125 47.8817 9.28125C69.2817 9.28125 86.5817 26.5813 86.5817 47.9813C86.5817 69.3813 69.2817 86.6813 47.8817 86.6813C26.4817 86.6813 9.18164 69.3813 9.18164 47.9813C9.18164 37.8813 13.0817 28.6813 19.3817 21.7812" stroke="#161C23" stroke-width="0.7564" stroke-miterlimit="10" stroke-linecap="round" stroke-linejoin="round"></path>
        <path d="M47.882 34.1811C49.4284 34.1811 50.682 32.9275 50.682 31.3811C50.682 29.8347 49.4284 28.5811 47.882 28.5811C46.3356 28.5811 45.082 29.8347 45.082 31.3811C45.082 32.9275 46.3356 34.1811 47.882 34.1811Z" stroke="#161C23" stroke-width="0.7564" stroke-miterlimit="10" stroke-linecap="round" stroke-linejoin="round"></path>
        <path d="M49.5817 38.2812H46.1816V67.3812H49.5817V38.2812Z" stroke="#161C23" stroke-width="0.7564" stroke-miterlimit="10" stroke-linecap="round" stroke-linejoin="round"></path>
        <path d="M47.8805 78.8811C64.9461 78.8811 78.7805 65.0467 78.7805 47.9811C78.7805 30.9155 64.9461 17.0811 47.8805 17.0811C30.8149 17.0811 16.9805 30.9155 16.9805 47.9811C16.9805 65.0467 30.8149 78.8811 47.8805 78.8811Z" stroke="#161C23" stroke-width="0.7564" stroke-miterlimit="10" stroke-linecap="round" stroke-linejoin="round"></path>
    </symbol>

    <symbol fill="none" xmlns="http://www.w3.org/2000/svg" viewBox="0 0 96 96" id="03">
        <path d="M86.3519 75.5519C83.2519 79.8519 79.4519 83.6519 74.8519 86.8519C53.4519 101.652 24.1519 96.2519 9.35194 74.8519C-5.44806 53.4519 -0.0480576 24.1519 21.3519 9.35194C42.7519 -5.44806 72.0519 -0.0480576 86.8519 21.3519C91.4519 28.0519 94.152 35.5519 94.952 43.0519" stroke="#020202" stroke-width="0.7564" stroke-miterlimit="10" stroke-linecap="round" stroke-linejoin="round"></path>
        <path d="M44.9524 9.25186C45.9524 9.15186 47.0524 9.15186 48.0524 9.15186C69.5524 9.15186 86.9524 26.5519 86.9524 48.0519C86.9524 69.5519 69.5524 86.9519 48.0524 86.9519C26.5524 86.9519 9.15234 69.5519 9.15234 48.0519C9.15234 37.9519 13.0524 28.6519 19.3524 21.7519" stroke="#020202" stroke-width="0.7564" stroke-miterlimit="10" stroke-linecap="round" stroke-linejoin="round"></path>
        <path d="M67.9524 40.8522C67.9524 36.1522 64.1524 32.3522 59.4524 32.3522C58.2524 32.3522 57.1523 32.5522 56.1523 33.0522C55.1523 29.5522 51.8524 26.9521 48.0524 26.9521C44.1524 26.9521 40.9524 29.5522 39.9524 33.0522C38.9524 32.6522 37.8523 32.3522 36.6523 32.3522C31.9523 32.3522 28.1523 36.1522 28.1523 40.8522C28.1523 45.5522 31.9523 49.3522 36.6523 49.3522V62.6521H59.5524V49.3522C64.1524 49.3522 67.9524 45.5522 67.9524 40.8522Z" stroke="#020202" stroke-width="0.7564" stroke-miterlimit="10" stroke-linecap="round" stroke-linejoin="round"></path>
        <path d="M56.1523 33.0522C56.3523 33.8522 56.4524 34.6522 56.4524 35.4522" stroke="#020202" stroke-width="0.7564" stroke-miterlimit="10" stroke-linecap="round" stroke-linejoin="round"></path>
        <path d="M39.5527 35.4522C39.5527 34.6522 39.6527 33.8522 39.8527 33.0522" stroke="#020202" stroke-width="0.7564" stroke-miterlimit="10" stroke-linecap="round" stroke-linejoin="round"></path>
        <path d="M42.3516 62.6519V49.252" stroke="#020202" stroke-width="0.7564" stroke-miterlimit="10" stroke-linecap="round" stroke-linejoin="round"></path>
        <path d="M53.752 62.6519V49.252" stroke="#020202" stroke-width="0.7564" stroke-miterlimit="10" stroke-linecap="round" stroke-linejoin="round"></path>
        <path d="M48.0508 62.6519V49.252" stroke="#020202" stroke-width="0.7564" stroke-miterlimit="10" stroke-linecap="round" stroke-linejoin="round"></path>
        <path d="M59.4531 62.6523L59.5531 67.1523H36.4531L36.5531 62.6523" stroke="#020202" stroke-width="0.7564" stroke-miterlimit="10" stroke-linecap="round" stroke-linejoin="round"></path>
    </symbol>

    <symbol fill="none" xmlns="http://www.w3.org/2000/svg" viewBox="0 0 95 96" id="04">
        <path d="M85.9812 75.2812C82.8812 79.5812 79.0812 83.3812 74.4812 86.4812C53.1812 101.181 23.9812 95.7812 9.28118 74.4812C-5.41882 53.1812 -0.0188198 23.9812 21.2812 9.28118C42.5812 -5.41882 71.7812 -0.0188198 86.4812 21.2812C91.0812 27.9812 93.6812 35.3812 94.4812 42.9812" stroke="#020202" stroke-width="0.7564" stroke-miterlimit="10" stroke-linecap="round" stroke-linejoin="round"></path>
        <path d="M44.7816 9.28116C45.7816 9.18116 46.7816 9.18115 47.8816 9.18115C69.2816 9.18115 86.5816 26.4812 86.5816 47.8812C86.5816 69.2812 69.2816 86.6812 47.8816 86.6812C26.4816 86.6812 9.18164 69.3811 9.18164 47.9811C9.18164 37.8811 13.0816 28.6812 19.3816 21.7812" stroke="#020202" stroke-width="0.7564" stroke-miterlimit="10" stroke-linecap="round" stroke-linejoin="round"></path>
        <path d="M30.3809 36.2808H65.4809" stroke="#020202" stroke-width="0.7564" stroke-miterlimit="10" stroke-linecap="round" stroke-linejoin="round"></path>
        <path d="M54.3812 36.281H41.2812V34.981C41.2812 31.381 44.1813 28.481 47.7812 28.481C51.3812 28.481 54.2812 31.381 54.2812 34.981V36.281H54.3812Z" stroke="#020202" stroke-width="0.7564" stroke-miterlimit="10" stroke-linecap="round" stroke-linejoin="round"></path>
        <path d="M33.4805 36.2808L36.2805 67.3808H59.4805L62.2805 36.2808" stroke="#020202" stroke-width="0.7564" stroke-miterlimit="10" stroke-linecap="round" stroke-linejoin="round"></path>
        <path d="M41.3809 43.981L42.5809 59.381" stroke="#020202" stroke-width="0.7564" stroke-miterlimit="10" stroke-linecap="round" stroke-linejoin="round"></path>
        <path d="M54.3816 43.981L53.1816 59.381" stroke="#020202" stroke-width="0.7564" stroke-miterlimit="10" stroke-linecap="round" stroke-linejoin="round"></path>
        <path d="M47.8809 43.981V59.381" stroke="#020202" stroke-width="0.7564" stroke-miterlimit="10" stroke-linecap="round" stroke-linejoin="round"></path>
    </symbol>

    <symbol fill="none" xmlns="http://www.w3.org/2000/svg" viewBox="0 0 95 96" id="05">
        <path d="M85.9812 75.2812C82.8812 79.5812 79.0812 83.3812 74.4812 86.4812C53.1812 101.181 23.9812 95.7812 9.28118 74.4812C-5.41882 53.1812 -0.0188198 23.9812 21.2812 9.28118C42.5812 -5.41882 71.7812 -0.0188198 86.4812 21.2812C91.0812 27.9812 93.6812 35.3812 94.4812 42.9812" stroke="#020202" stroke-width="0.7564" stroke-miterlimit="10" stroke-linecap="round" stroke-linejoin="round"></path>
        <path d="M44.8812 9.28116C45.8812 9.18116 46.8813 9.18115 47.9813 9.18115C69.3813 9.18115 86.6813 26.4812 86.6813 47.8812C86.6813 69.2812 69.3813 86.5811 47.9813 86.5811C26.5813 86.5811 9.28125 69.2812 9.28125 47.8812C9.28125 37.7812 13.1813 28.5812 19.4813 21.6812" stroke="#020202" stroke-width="0.7564" stroke-miterlimit="10" stroke-linecap="round" stroke-linejoin="round"></path>
        <path d="M53.9809 48.8811V28.6811C53.9809 25.3811 51.2809 22.5811 47.8809 22.5811C44.5809 22.5811 41.7809 25.2811 41.7809 28.6811V48.8811C37.6809 51.0811 34.8809 55.3811 34.8809 60.2811C34.8809 67.3811 40.6809 73.1811 47.7809 73.1811C54.8809 73.1811 60.6809 67.3811 60.6809 60.2811C60.8809 55.2811 58.0809 50.9811 53.9809 48.8811Z" stroke="#020202" stroke-width="0.7564" stroke-miterlimit="10" stroke-linecap="round" stroke-linejoin="round"></path>
        <path d="M47.9801 66.1808C51.2386 66.1808 53.8801 63.5393 53.8801 60.2809C53.8801 57.0224 51.2386 54.3809 47.9801 54.3809C44.7216 54.3809 42.0801 57.0224 42.0801 60.2809C42.0801 63.5393 44.7216 66.1808 47.9801 66.1808Z" stroke="#020202" stroke-width="0.7564" stroke-miterlimit="10" stroke-linecap="round" stroke-linejoin="round"></path>
        <path d="M47.9805 54.3809V28.3809" stroke="#020202" stroke-width="0.7564" stroke-miterlimit="10" stroke-linecap="round" stroke-linejoin="round"></path>
        <path d="M53.9813 43.8813H50.7812" stroke="#020202" stroke-width="0.7564" stroke-miterlimit="10" stroke-linecap="round" stroke-linejoin="round"></path>
        <path d="M53.9813 38.0811H50.7812" stroke="#020202" stroke-width="0.7564" stroke-miterlimit="10" stroke-linecap="round" stroke-linejoin="round"></path>
        <path d="M53.9813 32.1812H50.7812" stroke="#020202" stroke-width="0.7564" stroke-miterlimit="10" stroke-linecap="round" stroke-linejoin="round"></path>
    </symbol>

    <symbol fill="none" xmlns="http://www.w3.org/2000/svg" viewBox="0 0 95 96" id="06">
        <path d="M85.9812 75.2812C82.8812 79.5812 79.0812 83.3812 74.4812 86.4812C53.1812 101.181 23.9812 95.7812 9.28118 74.4812C-5.41882 53.1812 -0.0188198 23.9812 21.2812 9.28118C42.5812 -5.41882 71.7812 -0.0188198 86.4812 21.2812C91.0812 27.9812 93.6812 35.3812 94.4812 42.9812" stroke="#020202" stroke-width="0.7564" stroke-miterlimit="10" stroke-linecap="round" stroke-linejoin="round"></path>
        <path d="M44.7816 9.28116C45.7816 9.18116 46.7816 9.18115 47.8816 9.18115C69.2816 9.18115 86.5816 26.4812 86.5816 47.8812C86.5816 69.2812 69.2816 86.5811 47.8816 86.5811C26.4816 86.5811 9.18164 69.2812 9.18164 47.8812C9.18164 37.7812 13.0816 28.5812 19.3816 21.6812" stroke="#020202" stroke-width="0.7564" stroke-miterlimit="10" stroke-linecap="round" stroke-linejoin="round"></path>
        <path d="M65.4805 61.9814H29.9805" stroke="#020202" stroke-width="0.7564" stroke-miterlimit="10" stroke-linecap="round" stroke-linejoin="round"></path>
        <path d="M29.9805 52.5811H65.4805" stroke="#020202" stroke-width="0.7564" stroke-miterlimit="10" stroke-linecap="round" stroke-linejoin="round"></path>
        <path d="M65.4805 43.1812H29.9805" stroke="#020202" stroke-width="0.7564" stroke-miterlimit="10" stroke-linecap="round" stroke-linejoin="round"></path>
        <path d="M29.9805 33.7812H65.4805" stroke="#020202" stroke-width="0.7564" stroke-miterlimit="10" stroke-linecap="round" stroke-linejoin="round"></path>
        <path d="M26.8809 30.0811V65.6811" stroke="#020202" stroke-width="0.7564" stroke-miterlimit="10" stroke-linecap="round" stroke-linejoin="round"></path>
        <path d="M68.4805 30.0811V65.6811" stroke="#020202" stroke-width="0.7564" stroke-miterlimit="10" stroke-linecap="round" stroke-linejoin="round"></path>
    </symbol>

    <symbol fill="none" xmlns="http://www.w3.org/2000/svg" viewBox="0 0 96 96" id="07">
        <path d="M86.2082 75.4082C83.1082 79.7082 79.3082 83.5082 74.7082 86.7082C53.3082 101.408 24.0082 96.1082 9.30816 74.7082C-5.39184 53.3082 -0.0918369 24.0082 21.3082 9.30816C42.7082 -5.39184 72.0082 -0.0918369 86.7082 21.3082C91.3082 28.0082 94.0082 35.5081 94.8082 43.0081" stroke="#020202" stroke-width="0.7564" stroke-miterlimit="10" stroke-linecap="round" stroke-linejoin="round"></path>
        <path d="M44.908 9.2084C45.908 9.1084 47.008 9.1084 48.008 9.1084C69.508 9.1084 86.808 26.5084 86.808 47.9084C86.808 69.4084 69.408 86.7084 48.008 86.7084C26.608 86.7084 9.20801 69.3084 9.20801 47.9084C9.20801 37.8084 13.108 28.5084 19.408 21.6084" stroke="#020202" stroke-width="0.7564" stroke-miterlimit="10" stroke-linecap="round" stroke-linejoin="round"></path>
        <path d="M33.8086 25.0083V36.4083L38.1086 41.0083L36.7086 68.8083C36.6086 70.5083 38.0086 72.0083 39.7086 72.0083C41.4086 72.0083 42.8086 70.5083 42.7086 68.8083L41.0086 41.1083L45.3086 36.5083V25.1083" stroke="#020202" stroke-width="0.7564" stroke-miterlimit="10" stroke-linecap="round" stroke-linejoin="round"></path>
        <path d="M37.8086 25.0083V32.8083" stroke="#020202" stroke-width="0.7564" stroke-miterlimit="10" stroke-linecap="round" stroke-linejoin="round"></path>
        <path d="M41.4082 25.0083V32.8083" stroke="#020202" stroke-width="0.7564" stroke-miterlimit="10" stroke-linecap="round" stroke-linejoin="round"></path>
        <path d="M63.1084 30.8082V33.8082C63.1084 35.5082 62.5084 37.1082 61.3084 38.3082L58.8084 41.0082L60.5084 68.7082C60.6084 70.4082 59.2084 71.9082 57.5084 71.9082C55.8084 71.9082 54.4084 70.5082 54.5084 68.7082L55.9084 40.9082L53.4084 38.2082C52.3084 37.0082 51.6084 35.4082 51.6084 33.7082V30.7082C51.6084 27.5082 54.2084 24.9082 57.4084 24.9082C60.5084 25.0082 63.1084 27.6082 63.1084 30.8082Z" stroke="#020202" stroke-width="0.7564" stroke-miterlimit="10" stroke-linecap="round" stroke-linejoin="round"></path>
    </symbol>

    <symbol fill="none" xmlns="http://www.w3.org/2000/svg" viewBox="0 0 96 96" id="08">
        <path d="M86.3519 75.5519C83.2519 79.8519 79.4519 83.6519 74.8519 86.8519C53.4519 101.652 24.1519 96.2519 9.35194 74.8519C-5.44806 53.4519 -0.0480576 24.1519 21.3519 9.35194C42.7519 -5.44806 72.0519 -0.0480556 86.8519 21.3519C91.4519 28.0519 94.152 35.5519 94.952 43.0519" stroke="#020202" stroke-width="0.7564" stroke-miterlimit="10" stroke-linecap="round" stroke-linejoin="round"></path>
        <path d="M45.052 9.35195C46.052 9.25195 47.152 9.25195 48.152 9.25195C69.652 9.25195 87.052 26.652 87.052 48.152C87.052 69.652 69.552 86.952 48.152 86.952C26.752 86.952 9.25195 69.552 9.25195 48.052C9.25195 37.952 13.1519 28.652 19.452 21.752" stroke="#020202" stroke-width="0.7564" stroke-miterlimit="10" stroke-linecap="round" stroke-linejoin="round"></path>
        <path d="M67.3516 45.1519H28.8516V53.5519H67.3516V45.1519Z" stroke="#020202" stroke-width="0.7564" stroke-miterlimit="10" stroke-linecap="round" stroke-linejoin="round"></path>
        <path d="M39.2516 42.2519H28.8516V36.6519H35.5516C37.5516 36.6519 39.2516 38.3519 39.2516 40.3519V42.2519Z" stroke="#020202" stroke-width="0.7564" stroke-miterlimit="10" stroke-linecap="round" stroke-linejoin="round"></path>
        <path d="M25.5518 36.5518V61.6518" stroke="#020202" stroke-width="0.7564" stroke-miterlimit="10" stroke-linecap="round" stroke-linejoin="round"></path>
        <path d="M70.752 36.5518V61.6518" stroke="#020202" stroke-width="0.7564" stroke-miterlimit="10" stroke-linecap="round" stroke-linejoin="round"></path>
    </symbol>

    <symbol fill="none" xmlns="http://www.w3.org/2000/svg" viewBox="0 0 95 96" id="09">
        <path d="M85.9812 75.2812C82.8812 79.5812 79.0812 83.3812 74.4812 86.4812C53.1812 101.181 23.9812 95.7812 9.28118 74.4812C-5.41882 53.1812 -0.0188198 23.9812 21.2812 9.28118C42.5812 -5.41882 71.7812 -0.0188198 86.4812 21.2812C91.0812 27.9812 93.6812 35.3812 94.4812 42.9812" stroke="#020202" stroke-width="0.7564" stroke-miterlimit="10" stroke-linecap="round" stroke-linejoin="round"></path>
        <path d="M44.7816 9.28116C45.7816 9.18116 46.7817 9.18115 47.8817 9.18115C69.2817 9.18115 86.5816 26.4812 86.5816 47.8812C86.5816 69.2812 69.2817 86.6812 47.8817 86.6812C26.4817 86.6812 9.18164 69.3811 9.18164 47.9811C9.18164 37.8811 13.0817 28.6812 19.3817 21.7812" stroke="#020202" stroke-width="0.7564" stroke-miterlimit="10" stroke-linecap="round" stroke-linejoin="round"></path>
        <path d="M66.0808 33.8809H29.3809V65.7809H66.0808V33.8809Z" stroke="#020202" stroke-width="0.7564" stroke-miterlimit="10" stroke-linecap="round" stroke-linejoin="round"></path>
        <path d="M42.9808 28.981H36.8809V33.981H42.9808V28.981Z" stroke="#020202" stroke-width="0.7564" stroke-miterlimit="10" stroke-linecap="round" stroke-linejoin="round"></path>
        <path d="M58.5805 28.981H52.4805V33.981H58.5805V28.981Z" stroke="#020202" stroke-width="0.7564" stroke-miterlimit="10" stroke-linecap="round" stroke-linejoin="round"></path>
        <path d="M60.2812 49.8809H50.7812" stroke="#020202" stroke-width="0.7564" stroke-miterlimit="10" stroke-linecap="round" stroke-linejoin="round"></path>
        <path d="M39.8809 45.1812V54.5811" stroke="#020202" stroke-width="0.7564" stroke-miterlimit="10" stroke-linecap="round" stroke-linejoin="round"></path>
        <path d="M44.6807 49.8813H35.1807" stroke="#020202" stroke-width="0.7564" stroke-miterlimit="10" stroke-linecap="round" stroke-linejoin="round"></path>
    </symbol>

    <symbol fill="none" xmlns="http://www.w3.org/2000/svg" viewBox="0 0 95 96" id="10">
        <path d="M85.9812 75.2812C82.8812 79.5812 79.0812 83.3812 74.4812 86.4812C53.1812 101.181 23.9812 95.7812 9.28118 74.4812C-5.41882 53.1812 -0.0188198 23.9812 21.2812 9.28119C42.5812 -5.41881 71.7812 -0.0188408 86.4812 21.2812C91.0812 27.9812 93.6812 35.3812 94.4812 42.9812" stroke="#020202" stroke-width="0.7564" stroke-miterlimit="10" stroke-linecap="round" stroke-linejoin="round"></path>
        <path d="M44.7816 9.28116C45.7816 9.18116 46.7817 9.18115 47.8817 9.18115C69.2817 9.18115 86.5816 26.4812 86.5816 47.8812C86.5816 69.2812 69.2817 86.5812 47.8817 86.5812C26.4817 86.5812 9.18164 69.2812 9.18164 47.8812C9.18164 37.7812 13.0817 28.5812 19.3817 21.6812" stroke="#020202" stroke-width="0.7564" stroke-miterlimit="10" stroke-linecap="round" stroke-linejoin="round"></path>
        <path d="M42.4807 38.4813C40.6807 36.9813 38.6807 35.6812 36.3807 34.7812L35.1807 34.2812L34.6807 35.4813C33.7807 37.6813 33.2807 40.0812 33.1807 42.2812" stroke="#020202" stroke-width="0.7564" stroke-miterlimit="10" stroke-linecap="round" stroke-linejoin="round"></path>
        <path d="M52.6807 38.3812C54.3807 36.8812 56.4807 35.6812 58.6807 34.6812L59.8807 34.1812L60.3807 35.3812C61.2807 37.6812 61.7807 40.0811 61.9807 42.4811" stroke="#020202" stroke-width="0.7564" stroke-miterlimit="10" stroke-linecap="round" stroke-linejoin="round"></path>
        <path d="M54.9808 46.8812C56.9808 45.0812 59.3808 43.5812 61.9808 42.5812C64.3808 41.6812 66.8808 41.1812 69.5808 41.1812H70.8809V42.4811C70.8809 54.4811 61.1808 64.1812 49.1808 64.1812H47.8809" stroke="#020202" stroke-width="0.7564" stroke-miterlimit="10" stroke-linecap="round" stroke-linejoin="round"></path>
        <path d="M40.1808 46.3812C36.3808 43.1812 31.4808 41.1812 26.1808 41.1812H24.8809V42.4811C24.8809 54.4811 34.5808 64.1812 46.5808 64.1812H47.8809" stroke="#020202" stroke-width="0.7564" stroke-miterlimit="10" stroke-linecap="round" stroke-linejoin="round"></path>
        <path d="M46.6805 63.2812L47.5805 64.1813L48.4805 63.2812C52.6805 59.0813 54.7805 53.4813 54.7805 47.9813C54.7805 47.6813 54.7805 47.2813 54.7805 46.9813C54.6805 44.0813 53.8805 41.1813 52.5805 38.4813C51.5805 36.3813 50.1805 34.3813 48.3805 32.6813L47.4805 31.7812L46.5805 32.6813C38.1805 41.0813 38.1805 54.7812 46.6805 63.2812Z" stroke="#020202" stroke-width="0.7564" stroke-miterlimit="10" stroke-linecap="round" stroke-linejoin="round"></path>
    </symbol>

    <symbol fill="none" xmlns="http://www.w3.org/2000/svg" viewBox="0 0 95 96" id="11">
        <path d="M85.9812 75.2812C82.8812 79.5812 79.0812 83.3812 74.4812 86.4812C53.1812 101.181 23.9812 95.7812 9.28118 74.4812C-5.41882 53.1812 -0.0188198 23.9812 21.2812 9.28118C42.5812 -5.41882 71.7812 -0.0188198 86.4812 21.2812C91.0812 27.9812 93.6812 35.3812 94.4812 42.9812" stroke="#161C23" stroke-width="0.7564" stroke-miterlimit="10" stroke-linecap="round" stroke-linejoin="round"></path>
        <path d="M44.7816 9.28119C45.7816 9.18119 46.7816 9.18115 47.8816 9.18115C69.2816 9.18115 86.5816 26.4812 86.5816 47.8812C86.5816 69.2812 69.2816 86.5812 47.8816 86.5812C26.4816 86.5812 9.18164 69.2812 9.18164 47.8812C9.18164 37.7812 13.0816 28.5812 19.3816 21.6812" stroke="#161C23" stroke-width="0.7564" stroke-miterlimit="10" stroke-linecap="round" stroke-linejoin="round"></path>
        <path d="M28.3809 47.1812V66.8812" stroke="#161C23" stroke-width="0.7564" stroke-miterlimit="10" stroke-linecap="round" stroke-linejoin="round"></path>
        <path d="M37.8809 66.8812V58.6812H28.3809" stroke="#161C23" stroke-width="0.7564" stroke-miterlimit="10" stroke-linecap="round" stroke-linejoin="round"></path>
        <path d="M67.1807 47.1812V66.8812" stroke="#161C23" stroke-width="0.7564" stroke-miterlimit="10" stroke-linecap="round" stroke-linejoin="round"></path>
        <path d="M57.5811 66.8812V58.6812H67.181" stroke="#161C23" stroke-width="0.7564" stroke-miterlimit="10" stroke-linecap="round" stroke-linejoin="round"></path>
        <path d="M67.1812 35.0814L47.8813 25.4814L28.2812 35.0814H67.1812Z" stroke="#161C23" stroke-width="0.7564" stroke-miterlimit="10" stroke-linecap="round" stroke-linejoin="round"></path>
        <path d="M38.7812 52.8813H56.7812" stroke="#161C23" stroke-width="0.7564" stroke-miterlimit="10" stroke-linecap="round" stroke-linejoin="round"></path>
        <path d="M47.7812 52.8813V66.8813" stroke="#161C23" stroke-width="0.7564" stroke-miterlimit="10" stroke-linecap="round" stroke-linejoin="round"></path>
        <path d="M47.7812 35.0811V46.381" stroke="#161C23" stroke-width="0.7564" stroke-miterlimit="10" stroke-linecap="round" stroke-linejoin="round"></path>
    </symbol>

    <symbol fill="none" xmlns="http://www.w3.org/2000/svg" viewBox="0 0 95 96" id="12">
        <path d="M85.9812 75.2812C82.8812 79.5812 79.0812 83.3812 74.4812 86.4812C53.1812 101.181 23.9812 95.7812 9.28118 74.4812C-5.41882 53.1812 -0.0188198 23.9812 21.2812 9.28118C42.5812 -5.41882 71.7812 -0.0188198 86.4812 21.2812C91.0812 27.9812 93.6812 35.3812 94.4812 42.9812" stroke="#020202" stroke-width="0.7564" stroke-miterlimit="10" stroke-linecap="round" stroke-linejoin="round"></path>
        <path d="M44.7816 9.28116C45.7816 9.18116 46.7816 9.18115 47.8816 9.18115C69.2816 9.18115 86.5816 26.4812 86.5816 47.8812C86.5816 69.2812 69.2816 86.5812 47.8816 86.5812C26.4816 86.5812 9.18164 69.2812 9.18164 47.8812C9.18164 37.7812 13.0816 28.5812 19.3816 21.6812" stroke="#020202" stroke-width="0.7564" stroke-miterlimit="10" stroke-linecap="round" stroke-linejoin="round"></path>
        <path d="M59.1811 47.7812C59.1811 53.9812 54.181 59.0813 47.881 59.0813C41.681 59.0813 36.5811 54.0813 36.5811 47.7812" stroke="#020202" stroke-width="0.7564" stroke-miterlimit="10" stroke-linecap="round" stroke-linejoin="round"></path>
        <path d="M63.1811 47.4814C63.1811 55.9814 56.281 62.7814 47.881 62.7814C39.381 62.7814 32.5811 55.8814 32.5811 47.4814" stroke="#020202" stroke-width="0.7564" stroke-miterlimit="10" stroke-linecap="round" stroke-linejoin="round"></path>
        <path d="M36.5811 35.7814C36.5811 29.5814 41.581 24.4814 47.881 24.4814C54.081 24.4814 59.1811 29.4814 59.1811 35.7814" stroke="#020202" stroke-width="0.7564" stroke-miterlimit="10" stroke-linecap="round" stroke-linejoin="round"></path>
        <path d="M59.1816 35.7812H55.1816C54.0816 35.7812 53.1816 36.2813 53.1816 36.9813C53.1816 37.5813 54.0816 38.1812 55.1816 38.1812H59.1816V40.7812H55.1816C54.0816 40.7812 53.1816 41.2813 53.1816 41.9813C53.1816 42.5813 54.0816 43.1812 55.1816 43.1812H59.1816V45.4813H55.1816C54.0816 45.4813 53.1816 45.9812 53.1816 46.6812C53.1816 47.2812 54.0816 47.8813 55.1816 47.8813H59.1816" stroke="#020202" stroke-width="0.7564" stroke-miterlimit="10" stroke-linecap="round" stroke-linejoin="round"></path>
        <path d="M36.5811 35.7812H40.5811C41.6811 35.7812 42.5811 36.2813 42.5811 36.9813C42.5811 37.5813 41.6811 38.1812 40.5811 38.1812H36.5811V40.7812H40.5811C41.6811 40.7812 42.5811 41.2813 42.5811 41.9813C42.5811 42.5813 41.6811 43.1812 40.5811 43.1812H36.5811V45.4813H40.5811C41.6811 45.4813 42.5811 45.9812 42.5811 46.6812C42.5811 47.2812 41.6811 47.8813 40.5811 47.8813H36.5811" stroke="#020202" stroke-width="0.7564" stroke-miterlimit="10" stroke-linecap="round" stroke-linejoin="round"></path>
        <path d="M47.8809 62.8813V71.3813" stroke="#020202" stroke-width="0.7564" stroke-miterlimit="10" stroke-linecap="round" stroke-linejoin="round"></path>
        <path d="M36.5811 71.3813H59.1811" stroke="#020202" stroke-width="0.7564" stroke-miterlimit="10" stroke-linecap="round" stroke-linejoin="round"></path>
    </symbol>

    <symbol fill="none" xmlns="http://www.w3.org/2000/svg" viewBox="0 0 95 96" id="13">
        <path d="M85.9812 75.2812C82.8812 79.5812 79.0812 83.3812 74.4812 86.4812C53.1812 101.181 23.9812 95.7812 9.28118 74.4812C-5.41882 53.1812 -0.0188198 23.9812 21.2812 9.28118C42.5812 -5.41882 71.7812 -0.0188198 86.4812 21.2812C91.0812 27.9812 93.6812 35.3812 94.4812 42.9812" stroke="#020202" stroke-width="0.7564" stroke-miterlimit="10" stroke-linecap="round" stroke-linejoin="round"></path>
        <path d="M44.7816 9.28119C45.7816 9.18119 46.7816 9.18115 47.8816 9.18115C69.2816 9.18115 86.5816 26.4812 86.5816 47.8812C86.5816 69.2812 69.2816 86.5812 47.8816 86.5812C26.4816 86.5812 9.18164 69.2812 9.18164 47.8812C9.18164 37.7812 13.0816 28.5812 19.3816 21.6812" stroke="#020202" stroke-width="0.7564" stroke-miterlimit="10" stroke-linecap="round" stroke-linejoin="round"></path>
        <path d="M64.8806 38.6812C64.8806 48.0812 57.2807 55.7812 47.7807 55.7812C38.3807 55.7812 30.6807 48.1812 30.6807 38.6812H64.8806Z" stroke="#020202" stroke-width="0.7564" stroke-miterlimit="10" stroke-linecap="round" stroke-linejoin="round"></path>
        <path d="M38.0811 70.3812V55.6812" stroke="#020202" stroke-width="0.7564" stroke-miterlimit="10" stroke-linecap="round" stroke-linejoin="round"></path>
        <path d="M57.4805 55.6812V70.3812" stroke="#020202" stroke-width="0.7564" stroke-miterlimit="10" stroke-linecap="round" stroke-linejoin="round"></path>
        <path d="M38.0811 63.0815H57.481" stroke="#020202" stroke-width="0.7564" stroke-miterlimit="10" stroke-linecap="round" stroke-linejoin="round"></path>
        <path d="M42.6807 42.2812H52.8806" stroke="#020202" stroke-width="0.7564" stroke-miterlimit="10" stroke-linecap="round" stroke-linejoin="round"></path>
        <path d="M38.0811 33.8813V25.3813" stroke="#020202" stroke-width="0.7564" stroke-miterlimit="10" stroke-linecap="round" stroke-linejoin="round"></path>
        <path d="M47.7803 33.8813V25.3813" stroke="#020202" stroke-width="0.7564" stroke-miterlimit="10" stroke-linecap="round" stroke-linejoin="round"></path>
        <path d="M57.4805 33.8813V25.3813" stroke="#020202" stroke-width="0.7564" stroke-miterlimit="10" stroke-linecap="round" stroke-linejoin="round"></path>
    </symbol>

    <symbol fill="none" xmlns="http://www.w3.org/2000/svg" viewBox="0 0 95 96" id="14">
        <path d="M85.9812 75.2812C82.8812 79.5812 79.0812 83.3812 74.4812 86.4812C53.1812 101.181 23.9812 95.7812 9.28118 74.4812C-5.41882 53.1812 -0.0188198 23.9812 21.2812 9.28118C42.5812 -5.41882 71.7812 -0.0188198 86.4812 21.2812C91.0812 27.9812 93.6812 35.3812 94.4812 42.9812" stroke="#020202" stroke-width="0.7564" stroke-miterlimit="10" stroke-linecap="round" stroke-linejoin="round"></path>
        <path d="M44.8812 9.28119C45.8812 9.18119 46.8813 9.18115 47.9813 9.18115C69.3813 9.18115 86.6813 26.4812 86.6813 47.8812C86.6813 69.2812 69.3813 86.5812 47.9813 86.5812C26.5813 86.5812 9.28125 69.2812 9.28125 47.8812C9.28125 37.7812 13.1813 28.5812 19.4813 21.6812" stroke="#020202" stroke-width="0.7564" stroke-miterlimit="10" stroke-linecap="round" stroke-linejoin="round"></path>
        <path d="M39.7816 68.5812H27.1816V55.9813C27.1816 40.0813 40.0816 27.2812 55.8816 27.2812H68.4816V39.8812C68.4816 55.6812 55.5816 68.5812 39.7816 68.5812Z" stroke="#020202" stroke-width="0.7564" stroke-miterlimit="10" stroke-linecap="round" stroke-linejoin="round"></path>
        <path d="M27.2812 53.0811L42.7812 68.381" stroke="#020202" stroke-width="0.7564" stroke-miterlimit="10" stroke-linecap="round" stroke-linejoin="round"></path>
        <path d="M52.9814 27.3813L68.4814 40.5814" stroke="#020202" stroke-width="0.7564" stroke-miterlimit="10" stroke-linecap="round" stroke-linejoin="round"></path>
        <path d="M56.5812 38.6812L39.7812 55.3812" stroke="#020202" stroke-width="0.7564" stroke-miterlimit="10" stroke-linecap="round" stroke-linejoin="round"></path>
        <path d="M39.4814 49.9814L45.0814 55.5814" stroke="#020202" stroke-width="0.7564" stroke-miterlimit="10" stroke-linecap="round" stroke-linejoin="round"></path>
        <path d="M45.3818 44.0811L50.9819 49.681" stroke="#020202" stroke-width="0.7564" stroke-miterlimit="10" stroke-linecap="round" stroke-linejoin="round"></path>
        <path d="M51.3818 38.2812L56.9819 43.8812" stroke="#020202" stroke-width="0.7564" stroke-miterlimit="10" stroke-linecap="round" stroke-linejoin="round"></path>
    </symbol>

    <symbol fill="none" xmlns="http://www.w3.org/2000/svg" viewBox="0 0 95 96" id="15">
        <path d="M85.9812 75.2812C82.8812 79.5812 79.0812 83.3812 74.4812 86.4812C53.1812 101.181 23.9812 95.7812 9.28118 74.4812C-5.41882 53.1812 -0.0188198 23.9812 21.2812 9.28118C42.5812 -5.41882 71.7812 -0.0188198 86.4812 21.2812C91.0812 27.9812 93.6812 35.3812 94.4812 42.9812" stroke="#161C23" stroke-width="0.7564" stroke-miterlimit="10" stroke-linecap="round" stroke-linejoin="round"></path>
        <path d="M44.8812 9.28119C45.8812 9.18119 46.8813 9.18115 47.9813 9.18115C69.3813 9.18115 86.6813 26.4812 86.6813 47.8812C86.6813 69.2812 69.3813 86.5812 47.9813 86.5812C26.5813 86.5812 9.28125 69.2812 9.28125 47.8812C9.28125 37.7812 13.1812 28.5812 19.4812 21.6812" stroke="#161C23" stroke-width="0.7564" stroke-miterlimit="10" stroke-linecap="round" stroke-linejoin="round"></path>
        <path d="M52.9806 45.3814C50.1806 48.1814 45.4806 48.1814 42.6806 45.3814C39.8806 42.5814 39.8806 37.8814 42.6806 35.0814L47.7806 29.9814L52.8806 35.0814C55.7806 37.8814 55.7806 42.4814 52.9806 45.3814Z" stroke="#161C23" stroke-width="0.7564" stroke-miterlimit="10" stroke-linecap="round" stroke-linejoin="round"></path>
        <path d="M43.5806 38.6816C43.5806 38.6816 42.6806 43.3816 47.6806 44.1816" stroke="#161C23" stroke-width="0.7564" stroke-miterlimit="10" stroke-linecap="round" stroke-linejoin="round"></path>
        <path d="M70.3807 67.681C64.6807 67.681 64.6807 64.0811 59.0807 64.0811C53.3807 64.0811 53.3807 67.681 47.7807 67.681C42.0807 67.681 42.0807 64.0811 36.4807 64.0811C30.8807 64.0811 30.7807 67.681 25.1807 67.681" stroke="#161C23" stroke-width="0.7564" stroke-miterlimit="10" stroke-linecap="round" stroke-linejoin="round"></path>
        <path d="M70.3807 56.3812C64.6807 56.3812 64.6807 52.7812 59.0807 52.7812C53.3807 52.7812 53.3807 56.3812 47.7807 56.3812C42.0807 56.3812 42.0807 52.7812 36.4807 52.7812C30.8807 52.7812 30.7807 56.3812 25.1807 56.3812" stroke="#161C23" stroke-width="0.7564" stroke-miterlimit="10" stroke-linecap="round" stroke-linejoin="round"></path>
    </symbol>

    <symbol fill="none" xmlns="http://www.w3.org/2000/svg" viewBox="0 0 95 96" id="16">
        <path d="M85.9812 75.2812C82.8812 79.5812 79.0812 83.3812 74.4812 86.4812C53.1812 101.181 23.9812 95.7812 9.28118 74.4812C-5.41882 53.1812 -0.0188198 23.9812 21.2812 9.28119C42.5812 -5.41881 71.7812 -0.0188408 86.4812 21.2812C91.0812 27.9812 93.6812 35.3812 94.4812 42.9812" stroke="#020202" stroke-width="0.7564" stroke-miterlimit="10" stroke-linecap="round" stroke-linejoin="round"></path>
        <path d="M44.7812 9.28116C45.7812 9.18116 46.7811 9.18115 47.8811 9.18115C69.2811 9.18115 86.5811 26.4812 86.5811 47.8812C86.5811 69.2812 69.2811 86.5812 47.8811 86.5812C26.4811 86.5812 9.18115 69.2812 9.18115 47.8812C9.18115 37.7812 13.0811 28.5812 19.3811 21.6812" stroke="#020202" stroke-width="0.7564" stroke-miterlimit="10" stroke-linecap="round" stroke-linejoin="round"></path>
        <path d="M66.0811 27.3813H29.6812V68.5814H66.0811V27.3813Z" stroke="#020202" stroke-width="0.7564" stroke-miterlimit="10" stroke-linecap="round" stroke-linejoin="round"></path>
        <path d="M47.8813 61.1812C52.8519 61.1812 56.8813 57.1517 56.8813 52.1812C56.8813 47.2106 52.8519 43.1812 47.8813 43.1812C42.9108 43.1812 38.8813 47.2106 38.8813 52.1812C38.8813 57.1517 42.9108 61.1812 47.8813 61.1812Z" stroke="#020202" stroke-width="0.7564" stroke-miterlimit="10" stroke-linecap="round" stroke-linejoin="round"></path>
        <path d="M29.6812 36.3813H66.0811" stroke="#020202" stroke-width="0.7564" stroke-miterlimit="10" stroke-linecap="round" stroke-linejoin="round"></path>
        <path d="M53.481 32.0815H56.881" stroke="#020202" stroke-width="0.7564" stroke-miterlimit="10" stroke-linecap="round" stroke-linejoin="round"></path>
        <path d="M47.8812 57.1815C45.0812 57.1815 42.7812 54.8815 42.7812 52.0815" stroke="#020202" stroke-width="0.7564" stroke-miterlimit="10" stroke-linecap="round" stroke-linejoin="round"></path>
    </symbol>

    <symbol fill="none" xmlns="http://www.w3.org/2000/svg" viewBox="0 0 96 96" id="17">
        <path d="M86.3519 75.552C83.2519 79.852 79.4519 83.6519 74.8519 86.8519C53.4519 101.652 24.1519 96.2519 9.35194 74.8519C-5.44806 53.4519 -0.0480576 24.1519 21.3519 9.35194C42.7519 -5.44806 72.0519 -0.0480576 86.8519 21.3519C91.4519 28.0519 94.1519 35.552 94.9519 43.052" stroke="#020202" stroke-width="0.7564" stroke-miterlimit="10" stroke-linecap="round" stroke-linejoin="round"></path>
        <path d="M44.9518 9.35196C45.9518 9.25196 47.0519 9.25195 48.0519 9.25195C69.5519 9.25195 86.9518 26.6519 86.9518 48.1519C86.9518 69.6519 69.5519 87.052 48.0519 87.052C26.5519 87.052 9.15186 69.6519 9.15186 48.1519C9.15186 38.0519 13.0519 28.752 19.3519 21.852" stroke="#020202" stroke-width="0.7564" stroke-miterlimit="10" stroke-linecap="round" stroke-linejoin="round"></path>
        <path d="M48.0519 22.252L35.7519 29.452L25.6519 35.1519V49.952C25.6519 56.852 29.3519 63.152 35.2519 66.552L48.0519 73.952L60.8519 66.552C66.7519 63.152 70.4518 56.752 70.4518 49.952V35.1519L48.0519 22.252Z" stroke="#020202" stroke-width="0.7564" stroke-miterlimit="10" stroke-linecap="round" stroke-linejoin="round"></path>
        <path d="M56.3519 46.252H39.752V58.952H56.3519V46.252Z" stroke="#020202" stroke-width="0.7564" stroke-miterlimit="10" stroke-linecap="round" stroke-linejoin="round"></path>
        <path d="M43.6519 46.252V41.752C43.6519 39.252 45.6519 37.252 48.1519 37.252C50.6519 37.252 52.6519 39.252 52.6519 41.752V46.252" stroke="#020202" stroke-width="0.7564" stroke-miterlimit="10" stroke-linecap="round" stroke-linejoin="round"></path>
        <path d="M48.0519 52.7519C48.7699 52.7519 49.3519 52.1698 49.3519 51.4519C49.3519 50.7339 48.7699 50.1519 48.0519 50.1519C47.334 50.1519 46.752 50.7339 46.752 51.4519C46.752 52.1698 47.334 52.7519 48.0519 52.7519Z" fill="#020202"></path>
        <path d="M48.0518 54.9517V51.4517" stroke="#020202" stroke-width="0.7564" stroke-miterlimit="10" stroke-linecap="round" stroke-linejoin="round"></path>
    </symbol>

    <symbol fill="none" xmlns="http://www.w3.org/2000/svg" viewBox="0 0 95 96" id="18">
        <path d="M85.9812 75.2812C82.8812 79.5812 79.0812 83.3812 74.4812 86.4812C53.1812 101.181 23.9812 95.7812 9.28118 74.4812C-5.41882 53.1812 -0.0188198 23.9812 21.2812 9.28118C42.5812 -5.41882 71.7812 -0.0188198 86.4812 21.2812C91.0812 27.9812 93.6812 35.3812 94.4812 42.9812" stroke="#020202" stroke-width="0.7564" stroke-miterlimit="10" stroke-linecap="round" stroke-linejoin="round"></path>
        <path d="M44.7811 9.28119C45.7811 9.18119 46.7811 9.18115 47.8811 9.18115C69.2811 9.18115 86.5811 26.4812 86.5811 47.8812C86.5811 69.2812 69.2811 86.5812 47.8811 86.5812C26.4811 86.5812 9.18115 69.2812 9.18115 47.8812C9.18115 37.7812 13.0811 28.5812 19.3811 21.6812" stroke="#020202" stroke-width="0.7564" stroke-miterlimit="10" stroke-linecap="round" stroke-linejoin="round"></path>
        <path d="M41.6816 68.8813H53.6816" stroke="#020202" stroke-width="0.7564" stroke-miterlimit="10" stroke-linecap="round" stroke-linejoin="round"></path>
        <path d="M70.9814 60.7812H47.6815H24.4814V31.7812H70.9814V60.7812Z" stroke="#020202" stroke-width="0.7564" stroke-miterlimit="10" stroke-linecap="round" stroke-linejoin="round"></path>
        <path d="M47.6816 68.8812V60.7812" stroke="#020202" stroke-width="0.7564" stroke-miterlimit="10" stroke-linecap="round" stroke-linejoin="round"></path>
        <path d="M24.4814 57.0811H70.9814" stroke="#020202" stroke-width="0.7564" stroke-miterlimit="10" stroke-linecap="round" stroke-linejoin="round"></path>
        <path d="M34.2812 35.8813L29.2812 39.7814" stroke="#020202" stroke-width="0.7564" stroke-miterlimit="10" stroke-linecap="round" stroke-linejoin="round"></path>
        <path d="M40.5812 35.8813L29.2812 44.6813" stroke="#020202" stroke-width="0.7564" stroke-miterlimit="10" stroke-linecap="round" stroke-linejoin="round"></path>
    </symbol>

    <symbol fill="none" xmlns="http://www.w3.org/2000/svg" viewBox="0 0 95 96" id="19">
        <path d="M85.9812 75.2812C82.8812 79.5812 79.0812 83.3812 74.4812 86.4812C53.1812 101.181 23.9812 95.7812 9.28118 74.4812C-5.41882 53.1812 -0.0188198 23.9812 21.2812 9.28118C42.5812 -5.41882 71.7812 -0.0188198 86.4812 21.2812C91.0812 27.9812 93.6812 35.3812 94.4812 42.9812" stroke="#161C23" stroke-width="0.7564" stroke-miterlimit="10" stroke-linecap="round" stroke-linejoin="round"></path>
        <path d="M44.8811 9.28119C45.8811 9.18119 46.8811 9.18115 47.9811 9.18115C69.3811 9.18115 86.6811 26.4812 86.6811 47.8812C86.6811 69.2812 69.3811 86.5812 47.9811 86.5812C26.5811 86.5812 9.28113 69.2812 9.28113 47.8812C9.28113 37.7812 13.1811 28.5812 19.4811 21.6812" stroke="#161C23" stroke-width="0.7564" stroke-miterlimit="10" stroke-linecap="round" stroke-linejoin="round"></path>
        <path d="M64.4811 41.8812H54.1811V31.1812H42.0811V41.8812H31.0811V53.9812H42.0811V64.5812H54.1811V53.9812H64.4811V41.8812Z" stroke="#161C23" stroke-width="0.7564" stroke-miterlimit="10" stroke-linecap="round" stroke-linejoin="round"></path>
    </symbol>
</svg>
