<svg width="8" height="13" viewBox="0 0 8 13" fill="none" xmlns="http://www.w3.org/2000/svg">
<path d="M7.73333 3.91667C7.73333 4.33889 7.65556 4.74444 7.5 5.13333C7.34444 5.51111 7.12778 5.84444 6.85 6.13333C6.72778 6.26667 6.44444 6.50556 6 6.85C5.7 7.06111 5.45556 7.25556 5.26667 7.43333C5.07778 7.6 4.93333 7.77778 4.83333 7.96667C4.73333 8.14444 4.66667 8.32222 4.63333 8.5C4.61111 8.67778 4.6 8.90556 4.6 9.18333V9.71667H3.58333C3.58333 9.17222 3.6 8.75556 3.63333 8.46667C3.67778 8.17778 3.77778 7.87778 3.93333 7.56667C4.07778 7.3 4.25 7.07778 4.45 6.9C4.65 6.71111 4.92222 6.48889 5.26667 6.23333C5.68889 5.92222 5.98889 5.67222 6.16667 5.48333C6.52222 5.07222 6.7 4.55 6.7 3.91667C6.7 3.28333 6.54444 2.79444 6.23333 2.45C5.8 1.93889 5.13889 1.68333 4.25 1.68333C3.86111 1.68333 3.5 1.74444 3.16667 1.86667C2.84444 1.97778 2.58333 2.14444 2.38333 2.36667C2.00556 2.73333 1.81667 3.24444 1.81667 3.9H0.833333C0.844444 3.46667 0.922222 3.05555 1.06667 2.66667C1.22222 2.27778 1.44444 1.94444 1.73333 1.66667C2.05556 1.36667 2.43889 1.13889 2.88333 0.983333C3.32778 0.827777 3.78889 0.749999 4.26667 0.749999C4.81111 0.749999 5.31667 0.833332 5.78333 0.999999C6.25 1.16667 6.63889 1.42222 6.95 1.76667C7.47222 2.33333 7.73333 3.05 7.73333 3.91667ZM3.58333 11.55H4.6V13H3.58333V11.55Z" fill="#161C23" fill-opacity="0.9"/>
</svg>
