<svg width="647" height="510" viewBox="0 0 647 510" fill="none" xmlns="http://www.w3.org/2000/svg">
<path opacity="0.7" d="M67 474L67 45" stroke="#161C23" stroke-width="0.7"/>
<path opacity="0.7" d="M62.5 49.5L67 45L71.5 49.5" stroke="#161C23" stroke-width="0.7"/>
<path opacity="0.7" d="M641 469L646 474L641 479" stroke="#161C23" stroke-width="0.7"/>
<path d="M26.3987 61.3708V62.6542H24.5195V66H23.1903V62.6542H15.7195V61.3708L21.3341 49.5H22.732L17.1403 61.3708H23.1903V56.375H24.5195V61.3708H26.3987ZM33.8727 66.3438C34.6213 66.3438 35.3317 66.1986 36.0039 65.9083C36.6761 65.6028 37.2567 65.1826 37.7456 64.6479C38.6317 63.6396 39.0747 62.4479 39.0747 61.0729V54.4042C39.0747 52.9528 38.5935 51.7306 37.631 50.7375C37.1421 50.2333 36.5768 49.8437 35.9352 49.5687C35.2935 49.2937 34.606 49.1562 33.8727 49.1562C33.1393 49.1562 32.4442 49.2937 31.7872 49.5687C31.1303 49.8437 30.565 50.2333 30.0914 50.7375C29.1442 51.7611 28.6706 52.9833 28.6706 54.4042V61.0729C28.6706 62.4785 29.1213 63.6778 30.0227 64.6708C30.4963 65.2056 31.0692 65.6181 31.7414 65.9083C32.4136 66.1986 33.124 66.3438 33.8727 66.3438ZM33.8727 50.4396C34.5143 50.4396 35.1178 50.5924 35.6831 50.8979C36.2484 51.2035 36.7143 51.616 37.081 52.1354C37.524 52.8076 37.7456 53.5639 37.7456 54.4042V61.0729C37.7456 61.9132 37.5317 62.6618 37.1039 63.3187C36.7372 63.8535 36.2713 64.2812 35.706 64.6021C35.1407 64.9076 34.5296 65.0528 33.8727 65.0375C33.2157 65.0528 32.6046 64.9076 32.0393 64.6021C31.474 64.2812 31.0157 63.8535 30.6643 63.3187C30.2213 62.6771 29.9997 61.9285 29.9997 61.0729V54.4042C29.9997 53.5333 30.2289 52.7771 30.6872 52.1354C31.0386 51.616 31.497 51.2035 32.0622 50.8979C32.6275 50.5924 33.231 50.4396 33.8727 50.4396Z" fill="#161C23" fill-opacity="0.9"/>
<path d="M24.5625 114.994C25.0972 115.467 25.4944 116.056 25.7541 116.758C26.0291 117.461 26.1666 118.21 26.1666 119.004C26.1514 119.906 25.9757 120.731 25.6396 121.479C25.3187 122.228 24.8375 122.839 24.1958 123.312C23.3403 123.969 22.2784 124.313 21.0104 124.344C19.7729 124.344 18.7034 124.023 17.8021 123.381C16.9465 122.74 16.343 121.892 15.9916 120.837L17.2521 120.425C17.5271 121.25 17.9778 121.892 18.6041 122.35C19.2611 122.808 20.0555 123.037 20.9875 123.037C21.95 123.007 22.7444 122.755 23.3708 122.281C24.3028 121.578 24.7687 120.486 24.7687 119.004C24.7687 118.378 24.6618 117.79 24.4479 117.24C24.2493 116.69 23.9361 116.231 23.5083 115.865C22.8361 115.284 21.9882 114.994 20.9646 114.994C20.6437 114.994 20.3076 115.04 19.9562 115.131C19.6048 115.208 19.2764 115.322 18.9708 115.475L18.2604 114.398L24.1271 108.783H16.6562V107.5H25.9833V108.829L20.7812 113.802C21.4993 113.756 22.1868 113.833 22.8437 114.031C23.5007 114.23 24.0736 114.551 24.5625 114.994ZM33.8727 124.344C34.6213 124.344 35.3317 124.199 36.0039 123.908C36.6761 123.603 37.2567 123.183 37.7456 122.648C38.6317 121.64 39.0747 120.448 39.0747 119.073V112.404C39.0747 110.953 38.5935 109.731 37.631 108.737C37.1421 108.233 36.5768 107.844 35.9352 107.569C35.2935 107.294 34.606 107.156 33.8727 107.156C33.1393 107.156 32.4442 107.294 31.7872 107.569C31.1303 107.844 30.565 108.233 30.0914 108.737C29.1442 109.761 28.6706 110.983 28.6706 112.404V119.073C28.6706 120.478 29.1213 121.678 30.0227 122.671C30.4963 123.206 31.0692 123.618 31.7414 123.908C32.4136 124.199 33.124 124.344 33.8727 124.344ZM33.8727 108.44C34.5143 108.44 35.1178 108.592 35.6831 108.898C36.2484 109.203 36.7143 109.616 37.081 110.135C37.524 110.808 37.7456 111.564 37.7456 112.404V119.073C37.7456 119.913 37.5317 120.662 37.1039 121.319C36.7372 121.853 36.2713 122.281 35.706 122.602C35.1407 122.908 34.5296 123.053 33.8727 123.037C33.2157 123.053 32.6046 122.908 32.0393 122.602C31.474 122.281 31.0157 121.853 30.6643 121.319C30.2213 120.677 29.9997 119.928 29.9997 119.073V112.404C29.9997 111.533 30.2289 110.777 30.6872 110.135C31.0386 109.616 31.497 109.203 32.0622 108.898C32.6275 108.592 33.231 108.44 33.8727 108.44Z" fill="#161C23" fill-opacity="0.9"/>
<path d="M16.4371 169.923C16.4218 169.251 16.544 168.617 16.8037 168.021C17.0787 167.41 17.4607 166.875 17.9496 166.417C18.3926 166.019 18.9044 165.714 19.485 165.5C20.0656 165.271 20.6614 165.156 21.2725 165.156C21.8989 165.156 22.4947 165.271 23.06 165.5C23.6253 165.729 24.1294 166.05 24.5725 166.462C25.0461 166.921 25.4128 167.456 25.6725 168.067C25.9322 168.662 26.0621 169.289 26.0621 169.946C26.0621 170.679 25.9017 171.382 25.5808 172.054C25.26 172.726 24.7635 173.414 24.0913 174.117L18.2017 180.694H26.1308V182H16.2996V180.694L23.2204 173.131C24.2287 172.031 24.7329 170.969 24.7329 169.946C24.7329 169.457 24.6336 168.999 24.435 168.571C24.2517 168.128 23.9919 167.746 23.6558 167.425C22.9683 166.768 22.1662 166.44 21.2496 166.44C20.8065 166.44 20.3787 166.524 19.9662 166.692C19.5537 166.86 19.1871 167.089 18.8662 167.379C18.5301 167.715 18.2628 168.105 18.0642 168.548C17.8656 168.991 17.7662 169.449 17.7662 169.923H16.4371ZM33.8727 182.344C34.6213 182.344 35.3317 182.199 36.0039 181.908C36.6761 181.603 37.2567 181.183 37.7456 180.648C38.6317 179.64 39.0747 178.448 39.0747 177.073V170.404C39.0747 168.953 38.5935 167.731 37.631 166.737C37.1421 166.233 36.5768 165.844 35.9352 165.569C35.2935 165.294 34.606 165.156 33.8727 165.156C33.1393 165.156 32.4442 165.294 31.7872 165.569C31.1303 165.844 30.565 166.233 30.0914 166.737C29.1442 167.761 28.6706 168.983 28.6706 170.404V177.073C28.6706 178.478 29.1213 179.678 30.0227 180.671C30.4963 181.206 31.0692 181.618 31.7414 181.908C32.4136 182.199 33.124 182.344 33.8727 182.344ZM33.8727 166.44C34.5143 166.44 35.1178 166.592 35.6831 166.898C36.2484 167.203 36.7143 167.616 37.081 168.135C37.524 168.808 37.7456 169.564 37.7456 170.404V177.073C37.7456 177.913 37.5317 178.662 37.1039 179.319C36.7372 179.853 36.2713 180.281 35.706 180.602C35.1407 180.908 34.5296 181.053 33.8727 181.037C33.2157 181.053 32.6046 180.908 32.0393 180.602C31.474 180.281 31.0157 179.853 30.6643 179.319C30.2213 178.677 29.9997 177.928 29.9997 177.073V170.404C29.9997 169.533 30.2289 168.777 30.6872 168.135C31.0386 167.616 31.497 167.203 32.0622 166.898C32.6275 166.592 33.231 166.44 33.8727 166.44Z" fill="#161C23" fill-opacity="0.9"/>
<path d="M24.9392 222.5V239H23.61V223.99L20.4933 225.869V224.356L23.61 222.5H24.9392ZM33.8727 239.344C34.6213 239.344 35.3317 239.199 36.0039 238.908C36.6761 238.603 37.2567 238.183 37.7456 237.648C38.6317 236.64 39.0747 235.448 39.0747 234.073V227.404C39.0747 225.953 38.5935 224.731 37.631 223.737C37.1421 223.233 36.5768 222.844 35.9352 222.569C35.2935 222.294 34.606 222.156 33.8727 222.156C33.1393 222.156 32.4442 222.294 31.7872 222.569C31.1303 222.844 30.565 223.233 30.0914 223.737C29.1442 224.761 28.6706 225.983 28.6706 227.404V234.073C28.6706 235.478 29.1213 236.678 30.0227 237.671C30.4963 238.206 31.0692 238.618 31.7414 238.908C32.4136 239.199 33.124 239.344 33.8727 239.344ZM33.8727 223.44C34.5143 223.44 35.1178 223.592 35.6831 223.898C36.2484 224.203 36.7143 224.616 37.081 225.135C37.524 225.808 37.7456 226.564 37.7456 227.404V234.073C37.7456 234.913 37.5317 235.662 37.1039 236.319C36.7372 236.853 36.2713 237.281 35.706 237.602C35.1407 237.908 34.5296 238.053 33.8727 238.037C33.2157 238.053 32.6046 237.908 32.0393 237.602C31.474 237.281 31.0157 236.853 30.6643 236.319C30.2213 235.677 29.9997 234.928 29.9997 234.073V227.404C29.9997 226.533 30.2289 225.777 30.6872 225.135C31.0386 224.616 31.497 224.203 32.0622 223.898C32.6275 223.592 33.231 223.44 33.8727 223.44Z" fill="#161C23" fill-opacity="0.9"/>
<path d="M33.8727 297.344C34.6213 297.344 35.3317 297.199 36.0039 296.908C36.6761 296.603 37.2567 296.183 37.7456 295.648C38.6317 294.64 39.0747 293.448 39.0747 292.073V285.404C39.0747 283.953 38.5935 282.731 37.631 281.737C37.1421 281.233 36.5768 280.844 35.9352 280.569C35.2935 280.294 34.606 280.156 33.8727 280.156C33.1393 280.156 32.4442 280.294 31.7872 280.569C31.1303 280.844 30.565 281.233 30.0914 281.737C29.1442 282.761 28.6706 283.983 28.6706 285.404V292.073C28.6706 293.478 29.1213 294.678 30.0227 295.671C30.4963 296.206 31.0692 296.618 31.7414 296.908C32.4136 297.199 33.124 297.344 33.8727 297.344ZM33.8727 281.44C34.5143 281.44 35.1178 281.592 35.6831 281.898C36.2484 282.203 36.7143 282.616 37.081 283.135C37.524 283.808 37.7456 284.564 37.7456 285.404V292.073C37.7456 292.913 37.5317 293.662 37.1039 294.319C36.7372 294.853 36.2713 295.281 35.706 295.602C35.1407 295.908 34.5296 296.053 33.8727 296.037C33.2157 296.053 32.6046 295.908 32.0393 295.602C31.474 295.281 31.0157 294.853 30.6643 294.319C30.2213 293.677 29.9997 292.928 29.9997 292.073V285.404C29.9997 284.533 30.2289 283.777 30.6872 283.135C31.0386 282.616 31.497 282.203 32.0622 281.898C32.6275 281.592 33.231 281.44 33.8727 281.44Z" fill="#161C23" fill-opacity="0.9"/>
<path d="M18.1513 347.987V349.179H11.2763V347.987H18.1513ZM24.9392 338.5V355H23.61V339.99L20.4933 341.869V340.356L23.61 338.5H24.9392ZM33.8727 355.344C34.6213 355.344 35.3317 355.199 36.0039 354.908C36.6761 354.603 37.2567 354.183 37.7456 353.648C38.6317 352.64 39.0747 351.448 39.0747 350.073V343.404C39.0747 341.953 38.5935 340.731 37.631 339.737C37.1421 339.233 36.5768 338.844 35.9352 338.569C35.2935 338.294 34.606 338.156 33.8727 338.156C33.1393 338.156 32.4442 338.294 31.7872 338.569C31.1303 338.844 30.565 339.233 30.0914 339.737C29.1442 340.761 28.6706 341.983 28.6706 343.404V350.073C28.6706 351.478 29.1213 352.678 30.0227 353.671C30.4963 354.206 31.0692 354.618 31.7414 354.908C32.4136 355.199 33.124 355.344 33.8727 355.344ZM33.8727 339.44C34.5143 339.44 35.1178 339.592 35.6831 339.898C36.2484 340.203 36.7143 340.616 37.081 341.135C37.524 341.808 37.7456 342.564 37.7456 343.404V350.073C37.7456 350.913 37.5317 351.662 37.1039 352.319C36.7372 352.853 36.2713 353.281 35.706 353.602C35.1407 353.908 34.5296 354.053 33.8727 354.037C33.2157 354.053 32.6046 353.908 32.0393 353.602C31.474 353.281 31.0157 352.853 30.6643 352.319C30.2213 351.677 29.9997 350.928 29.9997 350.073V343.404C29.9997 342.533 30.2289 341.777 30.6872 341.135C31.0386 340.616 31.497 340.203 32.0622 339.898C32.6275 339.592 33.231 339.44 33.8727 339.44Z" fill="#161C23" fill-opacity="0.9"/>
<path d="M13.3387 405.987V407.179H6.46375V405.987H13.3387ZM16.4371 400.923C16.4218 400.251 16.544 399.617 16.8037 399.021C17.0787 398.41 17.4607 397.875 17.9496 397.417C18.3926 397.019 18.9044 396.714 19.485 396.5C20.0656 396.271 20.6614 396.156 21.2725 396.156C21.8989 396.156 22.4947 396.271 23.06 396.5C23.6253 396.729 24.1294 397.05 24.5725 397.462C25.0461 397.921 25.4128 398.456 25.6725 399.067C25.9322 399.662 26.0621 400.289 26.0621 400.946C26.0621 401.679 25.9017 402.382 25.5808 403.054C25.26 403.726 24.7635 404.414 24.0912 405.117L18.2017 411.694H26.1308V413H16.2996V411.694L23.2204 404.131C24.2287 403.031 24.7329 401.969 24.7329 400.946C24.7329 400.457 24.6336 399.999 24.435 399.571C24.2517 399.128 23.9919 398.746 23.6558 398.425C22.9683 397.768 22.1662 397.44 21.2496 397.44C20.8065 397.44 20.3787 397.524 19.9662 397.692C19.5537 397.86 19.1871 398.089 18.8662 398.379C18.5301 398.715 18.2628 399.105 18.0642 399.548C17.8656 399.991 17.7662 400.449 17.7662 400.923H16.4371ZM33.8727 413.344C34.6213 413.344 35.3317 413.199 36.0039 412.908C36.6761 412.603 37.2567 412.183 37.7456 411.648C38.6317 410.64 39.0747 409.448 39.0747 408.073V401.404C39.0747 399.953 38.5935 398.731 37.631 397.737C37.1421 397.233 36.5768 396.844 35.9352 396.569C35.2935 396.294 34.606 396.156 33.8727 396.156C33.1393 396.156 32.4442 396.294 31.7872 396.569C31.1303 396.844 30.565 397.233 30.0914 397.737C29.1442 398.761 28.6706 399.983 28.6706 401.404V408.073C28.6706 409.478 29.1213 410.678 30.0227 411.671C30.4963 412.206 31.0692 412.618 31.7414 412.908C32.4136 413.199 33.124 413.344 33.8727 413.344ZM33.8727 397.44C34.5143 397.44 35.1178 397.592 35.6831 397.898C36.2483 398.203 36.7143 398.616 37.081 399.135C37.524 399.808 37.7456 400.564 37.7456 401.404V408.073C37.7456 408.913 37.5317 409.662 37.1039 410.319C36.7372 410.853 36.2713 411.281 35.706 411.602C35.1407 411.908 34.5296 412.053 33.8727 412.037C33.2157 412.053 32.6046 411.908 32.0393 411.602C31.474 411.281 31.0157 410.853 30.6643 410.319C30.2213 409.677 29.9997 408.928 29.9997 408.073V401.404C29.9997 400.533 30.2289 399.777 30.6872 399.135C31.0386 398.616 31.497 398.203 32.0622 397.898C32.6275 397.592 33.231 397.44 33.8727 397.44Z" fill="#161C23" fill-opacity="0.9"/>
<path d="M12.8016 463.987V465.179H5.92664V463.987H12.8016ZM24.5625 461.994C25.0972 462.467 25.4944 463.056 25.7541 463.758C26.0291 464.461 26.1666 465.21 26.1666 466.004C26.1514 466.906 25.9757 467.731 25.6396 468.479C25.3187 469.228 24.8375 469.839 24.1958 470.312C23.3403 470.969 22.2784 471.313 21.0104 471.344C19.7729 471.344 18.7034 471.023 17.8021 470.381C16.9465 469.74 16.343 468.892 15.9916 467.837L17.2521 467.425C17.5271 468.25 17.9778 468.892 18.6041 469.35C19.2611 469.808 20.0555 470.037 20.9875 470.037C21.95 470.007 22.7444 469.755 23.3708 469.281C24.3028 468.578 24.7687 467.486 24.7687 466.004C24.7687 465.378 24.6618 464.79 24.4479 464.24C24.2493 463.69 23.9361 463.231 23.5083 462.865C22.8361 462.284 21.9882 461.994 20.9646 461.994C20.6437 461.994 20.3076 462.04 19.9562 462.131C19.6048 462.208 19.2764 462.322 18.9708 462.475L18.2604 461.398L24.1271 455.783H16.6562V454.5H25.9833V455.829L20.7812 460.802C21.4993 460.756 22.1868 460.833 22.8437 461.031C23.5007 461.23 24.0736 461.551 24.5625 461.994ZM33.8727 471.344C34.6213 471.344 35.3317 471.199 36.0039 470.908C36.6761 470.603 37.2567 470.183 37.7456 469.648C38.6317 468.64 39.0747 467.448 39.0747 466.073V459.404C39.0747 457.953 38.5935 456.731 37.631 455.737C37.1421 455.233 36.5768 454.844 35.9352 454.569C35.2935 454.294 34.606 454.156 33.8727 454.156C33.1393 454.156 32.4442 454.294 31.7872 454.569C31.1303 454.844 30.565 455.233 30.0914 455.737C29.1442 456.761 28.6706 457.983 28.6706 459.404V466.073C28.6706 467.478 29.1213 468.678 30.0227 469.671C30.4963 470.206 31.0692 470.618 31.7414 470.908C32.4136 471.199 33.124 471.344 33.8727 471.344ZM33.8727 455.44C34.5143 455.44 35.1178 455.592 35.6831 455.898C36.2483 456.203 36.7143 456.616 37.081 457.135C37.524 457.808 37.7456 458.564 37.7456 459.404V466.073C37.7456 466.913 37.5317 467.662 37.1039 468.319C36.7372 468.853 36.2713 469.281 35.706 469.602C35.1407 469.908 34.5296 470.053 33.8727 470.037C33.2157 470.053 32.6046 469.908 32.0393 469.602C31.474 469.281 31.0157 468.853 30.6643 468.319C30.2213 467.677 29.9997 466.928 29.9997 466.073V459.404C29.9997 458.533 30.2289 457.777 30.6872 457.135C31.0386 456.616 31.497 456.203 32.0622 455.898C32.6275 455.592 33.231 455.44 33.8727 455.44Z" fill="#161C23" fill-opacity="0.9"/>
<path d="M56.4188 9.875L56.4375 20H55.35V12.35L51.8438 18.65H50.9063L47.4188 12.35V20H46.3125V9.875H47.3625L51.375 17.1125L55.4063 9.875H56.4188ZM67.1041 9.875V20H66.0354V10.9062H61.9104L61.2541 16.2687C61.1666 17.0687 61.0416 17.7375 60.8791 18.275C60.7166 18.8 60.4479 19.225 60.0729 19.55C59.6979 19.875 59.1666 20.025 58.4791 20V18.9687C58.9166 18.9687 59.2479 18.8625 59.4729 18.65C59.6979 18.4375 59.8604 18.1437 59.9604 17.7687C60.0604 17.3812 60.1541 16.8187 60.2416 16.0812L60.9729 9.875H67.1041ZM78.3638 9.875V20H77.2762V15.0687H71.1825V20H70.095V9.875H71.1825V14H77.2762V9.875H78.3638ZM94.6779 7.7375C95.0529 8.1125 95.3466 8.55625 95.5591 9.06875C95.7716 9.56875 95.8841 10.0875 95.8966 10.625C95.8966 11.1125 95.8029 11.5937 95.6154 12.0687C95.4279 12.5312 95.1716 12.95 94.8466 13.325C94.4841 13.7625 94.0216 14.1062 93.4591 14.3562C92.9091 14.6062 92.3404 14.7312 91.7529 14.7312H87.3654V20H86.2779V6.5H91.7529C92.2279 6.5 92.7091 6.5875 93.1966 6.7625C93.7716 6.975 94.2654 7.3 94.6779 7.7375ZM94.0404 12.575C94.2654 12.3 94.4404 12 94.5654 11.675C94.6904 11.35 94.7529 11.025 94.7529 10.7C94.7529 10.2625 94.6716 9.85 94.5091 9.4625C94.3591 9.075 94.1404 8.7375 93.8529 8.45C93.5779 8.175 93.2529 7.95625 92.8779 7.79375C92.5029 7.63125 92.1279 7.55 91.7529 7.55H87.3654V13.6812H91.7529C92.1779 13.6812 92.5904 13.5812 92.9904 13.3812C93.4029 13.1812 93.7529 12.9125 94.0404 12.575Z" fill="#161C23" fill-opacity="0.9"/>
<path d="M347.156 494.962H341.4V504H340.313V493.875H347.156V494.962ZM353.166 504.281C352.441 504.281 351.766 504.144 351.141 503.869C350.516 503.581 349.991 503.169 349.566 502.631C348.828 501.694 348.46 500.456 348.46 498.919C348.46 497.406 348.828 496.175 349.566 495.225C349.978 494.7 350.497 494.3 351.122 494.025C351.76 493.737 352.441 493.594 353.166 493.594C353.903 493.594 354.585 493.731 355.21 494.006C355.835 494.281 356.353 494.687 356.766 495.225C357.516 496.15 357.891 497.381 357.891 498.919C357.891 500.469 357.516 501.706 356.766 502.631C356.341 503.181 355.822 503.594 355.21 503.869C354.597 504.144 353.916 504.281 353.166 504.281ZM355.903 501.975C356.453 501.262 356.728 500.244 356.728 498.919C356.728 497.606 356.453 496.594 355.903 495.881C355.603 495.481 355.21 495.175 354.722 494.962C354.247 494.75 353.728 494.644 353.166 494.644C352.616 494.644 352.097 494.75 351.61 494.962C351.135 495.175 350.753 495.481 350.466 495.881C349.903 496.606 349.622 497.619 349.622 498.919C349.622 500.231 349.903 501.25 350.466 501.975C350.753 502.375 351.135 502.687 351.61 502.912C352.097 503.125 352.616 503.231 353.166 503.231C353.716 503.231 354.235 503.125 354.722 502.912C355.21 502.687 355.603 502.375 355.903 501.975ZM368.734 502.95H369.653V505.444H368.603V504H360.428V505.444H359.378V502.95C360.541 502.95 361.247 501.85 361.497 499.65L362.172 493.875H368.734V502.95ZM367.684 494.906H363.091L362.528 499.762C362.353 501.237 361.978 502.3 361.403 502.95H367.684V494.906Z" fill="#161C23" fill-opacity="0.9"/>
<path opacity="0.8" d="M149.731 451.146V453.021H155.981V451.146H149.731ZM158.756 447.5H161.152C161.152 446.771 161.464 446.083 161.964 445.604C162.423 445.167 163.048 444.896 163.714 444.896C164.485 444.896 165.173 445.208 165.673 445.771C166.089 446.25 166.318 446.875 166.318 447.521C166.318 448.25 165.964 449.062 165.006 449.937L158.673 455.771V457.979H168.527V455.771H162.339L166.277 451.979C167.86 450.5 168.735 449.437 168.735 447.542C168.735 446.333 168.298 445.146 167.485 444.25C166.61 443.187 165.256 442.687 163.839 442.687C162.61 442.687 161.298 443.021 160.36 443.854C159.36 444.75 158.714 446.104 158.756 447.5ZM173.721 443L170.908 444.687V447.292L173.721 445.562V458H176.117V443H173.721Z" fill="#161C23" fill-opacity="0.9"/>
<path opacity="0.8" d="M256.24 64.1667C255.532 63.375 254.615 62.8333 253.469 62.6458L257.032 59.2917V57H247.907V59.2083H253.886L249.74 63.1042L250.823 64.9375C251.24 64.7292 251.719 64.5833 252.178 64.5833C252.865 64.5833 253.532 64.7917 254.053 65.2708C254.615 65.8125 254.865 66.5625 254.865 67.3333C254.865 68.1042 254.594 68.8542 254.011 69.375C253.511 69.8125 252.865 70.0625 252.198 70.0625C251.511 70.0625 250.865 69.8333 250.365 69.3958C249.99 69.0625 249.74 68.625 249.594 68.1458L247.323 68.75C247.594 69.6458 248.094 70.4375 248.782 71.0417C249.719 71.875 250.969 72.3125 252.198 72.2917C253.407 72.3125 254.657 71.875 255.594 71.0417C256.657 70.125 257.219 68.75 257.261 67.3333C257.282 66.1875 256.948 65.0625 256.24 64.1667ZM268.638 67.25V63.2708H266.263V67.25H262.179L267.033 57H264.575L259.742 67.25V69.4583H266.263V72H268.638V69.4583H270.096V67.25H268.638Z" fill="#161C23" fill-opacity="0.9"/>
<path opacity="0.8" d="M352.633 52.1667C351.924 51.375 351.008 50.8333 349.862 50.6458L353.424 47.2917V45H344.299V47.2083H350.279L346.133 51.1042L347.216 52.9375C347.633 52.7292 348.112 52.5833 348.57 52.5833C349.258 52.5833 349.924 52.7917 350.445 53.2708C351.008 53.8125 351.258 54.5625 351.258 55.3333C351.258 56.1042 350.987 56.8542 350.404 57.375C349.904 57.8125 349.258 58.0625 348.591 58.0625C347.904 58.0625 347.258 57.8333 346.758 57.3958C346.383 57.0625 346.133 56.625 345.987 56.1458L343.716 56.75C343.987 57.6458 344.487 58.4375 345.174 59.0417C346.112 59.875 347.362 60.3125 348.591 60.2917C349.799 60.3125 351.049 59.875 351.987 59.0417C353.049 58.125 353.612 56.75 353.654 55.3333C353.674 54.1875 353.341 53.0625 352.633 52.1667ZM365.551 46.3958C364.509 45.25 363.113 44.6875 361.551 44.7083C360.009 44.6667 358.551 45.1875 357.468 46.4167C356.447 47.5625 356.134 48.7917 356.134 50.3958V54.5833C356.134 56.2917 356.447 57.625 357.676 58.8125C358.613 59.7708 359.968 60.3125 361.301 60.2917C362.655 60.3125 363.988 59.7917 364.926 58.8542C365.884 57.9375 366.468 56.625 366.488 55.2708C366.509 53.8333 366.009 52.6042 364.968 51.625C364.051 50.8125 362.843 50.3542 361.634 50.3542C360.468 50.3542 359.343 50.8333 358.53 51.625V50.3958C358.53 49.6458 358.634 49.0208 358.988 48.4375C359.447 47.5208 360.468 46.8958 361.551 46.8958C362.447 46.8958 363.301 47.3333 363.863 48.0208L365.551 46.3958ZM362.551 57.5417C361.926 57.875 361.197 57.9375 360.551 57.7292C359.926 57.5625 359.363 57.1042 359.051 56.5208C358.718 55.9167 358.634 55.2083 358.801 54.5625C358.988 53.8958 359.447 53.3333 360.072 53C360.676 52.6667 361.384 52.5833 362.051 52.7708C362.697 52.9583 363.259 53.4167 363.593 54.0208C363.926 54.625 364.009 55.3125 363.843 55.9792C363.655 56.6458 363.197 57.2292 362.551 57.5417Z" fill="#161C23" fill-opacity="0.9"/>
<path opacity="0.8" d="M447.633 52.1667C446.924 51.375 446.008 50.8333 444.862 50.6458L448.424 47.2917V45H439.299V47.2083H445.279L441.133 51.1042L442.216 52.9375C442.633 52.7292 443.112 52.5833 443.57 52.5833C444.258 52.5833 444.924 52.7917 445.445 53.2708C446.008 53.8125 446.258 54.5625 446.258 55.3333C446.258 56.1042 445.987 56.8542 445.404 57.375C444.904 57.8125 444.258 58.0625 443.591 58.0625C442.904 58.0625 442.258 57.8333 441.758 57.3958C441.383 57.0625 441.133 56.625 440.987 56.1458L438.716 56.75C438.987 57.6458 439.487 58.4375 440.174 59.0417C441.112 59.875 442.362 60.3125 443.591 60.2917C444.799 60.3125 446.049 59.875 446.987 59.0417C448.049 58.125 448.612 56.75 448.654 55.3333C448.674 54.1875 448.341 53.0625 447.633 52.1667ZM460.551 46.3958C459.509 45.25 458.113 44.6875 456.551 44.7083C455.009 44.6667 453.551 45.1875 452.468 46.4167C451.447 47.5625 451.134 48.7917 451.134 50.3958V54.5833C451.134 56.2917 451.447 57.625 452.676 58.8125C453.613 59.7708 454.968 60.3125 456.301 60.2917C457.655 60.3125 458.988 59.7917 459.926 58.8542C460.884 57.9375 461.468 56.625 461.488 55.2708C461.509 53.8333 461.009 52.6042 459.968 51.625C459.051 50.8125 457.843 50.3542 456.634 50.3542C455.468 50.3542 454.343 50.8333 453.53 51.625V50.3958C453.53 49.6458 453.634 49.0208 453.988 48.4375C454.447 47.5208 455.468 46.8958 456.551 46.8958C457.447 46.8958 458.301 47.3333 458.863 48.0208L460.551 46.3958ZM457.551 57.5417C456.926 57.875 456.197 57.9375 455.551 57.7292C454.926 57.5625 454.363 57.1042 454.051 56.5208C453.718 55.9167 453.634 55.2083 453.801 54.5625C453.988 53.8958 454.447 53.3333 455.072 53C455.676 52.6667 456.384 52.5833 457.051 52.7708C457.697 52.9583 458.259 53.4167 458.593 54.0208C458.926 54.625 459.009 55.3125 458.843 55.9792C458.655 56.6458 458.197 57.2292 457.551 57.5417Z" fill="#161C23" fill-opacity="0.9"/>
<path opacity="0.8" d="M542.633 52.1667C541.924 51.375 541.008 50.8333 539.862 50.6458L543.424 47.2917V45H534.299V47.2083H540.279L536.133 51.1042L537.216 52.9375C537.633 52.7292 538.112 52.5833 538.57 52.5833C539.258 52.5833 539.924 52.7917 540.445 53.2708C541.008 53.8125 541.258 54.5625 541.258 55.3333C541.258 56.1042 540.987 56.8542 540.404 57.375C539.904 57.8125 539.258 58.0625 538.591 58.0625C537.904 58.0625 537.258 57.8333 536.758 57.3958C536.383 57.0625 536.133 56.625 535.987 56.1458L533.716 56.75C533.987 57.6458 534.487 58.4375 535.174 59.0417C536.112 59.875 537.362 60.3125 538.591 60.2917C539.799 60.3125 541.049 59.875 541.987 59.0417C543.049 58.125 543.612 56.75 543.654 55.3333C543.674 54.1875 543.341 53.0625 542.633 52.1667ZM555.551 46.3958C554.509 45.25 553.113 44.6875 551.551 44.7083C550.009 44.6667 548.551 45.1875 547.468 46.4167C546.447 47.5625 546.134 48.7917 546.134 50.3958V54.5833C546.134 56.2917 546.447 57.625 547.676 58.8125C548.613 59.7708 549.968 60.3125 551.301 60.2917C552.655 60.3125 553.988 59.7917 554.926 58.8542C555.884 57.9375 556.468 56.625 556.488 55.2708C556.509 53.8333 556.009 52.6042 554.968 51.625C554.051 50.8125 552.843 50.3542 551.634 50.3542C550.468 50.3542 549.343 50.8333 548.53 51.625V50.3958C548.53 49.6458 548.634 49.0208 548.988 48.4375C549.447 47.5208 550.468 46.8958 551.551 46.8958C552.447 46.8958 553.301 47.3333 553.863 48.0208L555.551 46.3958ZM552.551 57.5417C551.926 57.875 551.197 57.9375 550.551 57.7292C549.926 57.5625 549.363 57.1042 549.051 56.5208C548.718 55.9167 548.634 55.2083 548.801 54.5625C548.988 53.8958 549.447 53.3333 550.072 53C550.676 52.6667 551.384 52.5833 552.051 52.7708C552.697 52.9583 553.259 53.4167 553.593 54.0208C553.926 54.625 554.009 55.3125 553.843 55.9792C553.655 56.6458 553.197 57.2292 552.551 57.5417Z" fill="#161C23" fill-opacity="0.9"/>
<line opacity="0.3" x1="67" y1="415.75" x2="640" y2="415.75" stroke="black" stroke-width="0.5" stroke-dasharray="6 6"/>
<line opacity="0.3" x1="67" y1="89.75" x2="640" y2="89.75" stroke="black" stroke-width="0.5" stroke-dasharray="6 6"/>
<line opacity="0.3" x1="67" y1="77.75" x2="640" y2="77.75" stroke="black" stroke-width="0.5" stroke-dasharray="6 6"/>
<path opacity="0.3" d="M67 288H641" stroke="black" stroke-width="0.5" stroke-dasharray="6 6"/>
<line opacity="0.7" x1="67" y1="473.65" x2="644" y2="473.65" stroke="#161C23" stroke-width="0.7"/>
<path d="M151.492 263.5V274H150.646V264.448L148.663 265.644V264.681L150.646 263.5H151.492ZM163.312 266.971H158.834V274H157.989V266.125H163.312V266.971ZM167.986 274.219C167.422 274.219 166.897 274.112 166.411 273.898C165.925 273.674 165.516 273.353 165.186 272.935C164.612 272.206 164.325 271.244 164.325 270.048C164.325 268.872 164.612 267.914 165.186 267.175C165.506 266.767 165.91 266.456 166.396 266.242C166.892 266.018 167.422 265.906 167.986 265.906C168.559 265.906 169.089 266.013 169.575 266.227C170.061 266.441 170.465 266.757 170.786 267.175C171.369 267.894 171.661 268.852 171.661 270.048C171.661 271.253 171.369 272.216 170.786 272.935C170.455 273.363 170.052 273.684 169.575 273.898C169.099 274.112 168.569 274.219 167.986 274.219ZM170.115 272.425C170.543 271.871 170.756 271.078 170.756 270.048C170.756 269.027 170.543 268.24 170.115 267.685C169.881 267.374 169.575 267.136 169.196 266.971C168.827 266.806 168.423 266.723 167.986 266.723C167.558 266.723 167.154 266.806 166.775 266.971C166.406 267.136 166.109 267.374 165.886 267.685C165.448 268.249 165.229 269.037 165.229 270.048C165.229 271.069 165.448 271.861 165.886 272.425C166.109 272.736 166.406 272.979 166.775 273.154C167.154 273.319 167.558 273.402 167.986 273.402C168.413 273.402 168.817 273.319 169.196 273.154C169.575 272.979 169.881 272.736 170.115 272.425ZM180.095 273.183H180.809V275.123H179.992V274H173.634V275.123H172.817V273.183C173.722 273.183 174.271 272.328 174.465 270.617L174.99 266.125H180.095V273.183ZM179.278 266.927H175.705L175.267 270.704C175.131 271.851 174.84 272.678 174.392 273.183H179.278V266.927Z" fill="#161C23" fill-opacity="0.9"/>
<path d="M242.113 304.315C242.103 303.887 242.181 303.483 242.346 303.104C242.521 302.715 242.765 302.375 243.076 302.083C243.358 301.831 243.683 301.636 244.053 301.5C244.422 301.354 244.801 301.281 245.19 301.281C245.589 301.281 245.968 301.354 246.328 301.5C246.687 301.646 247.008 301.85 247.29 302.112C247.592 302.404 247.825 302.744 247.99 303.133C248.155 303.512 248.238 303.911 248.238 304.329C248.238 304.796 248.136 305.243 247.932 305.671C247.728 306.099 247.412 306.536 246.984 306.983L243.236 311.169H248.282V312H242.026V311.169L246.43 306.356C247.071 305.656 247.392 304.981 247.392 304.329C247.392 304.018 247.329 303.726 247.203 303.454C247.086 303.172 246.921 302.929 246.707 302.725C246.269 302.307 245.759 302.098 245.176 302.098C244.894 302.098 244.621 302.151 244.359 302.258C244.096 302.365 243.863 302.511 243.659 302.696C243.445 302.91 243.275 303.158 243.149 303.44C243.022 303.722 242.959 304.013 242.959 304.315H242.113ZM259.343 304.971H254.866V312H254.02V304.125H259.343V304.971ZM264.017 312.219C263.453 312.219 262.928 312.112 262.442 311.898C261.956 311.674 261.547 311.353 261.217 310.935C260.643 310.206 260.356 309.244 260.356 308.048C260.356 306.872 260.643 305.914 261.217 305.175C261.538 304.767 261.941 304.456 262.427 304.242C262.923 304.018 263.453 303.906 264.017 303.906C264.591 303.906 265.12 304.013 265.606 304.227C266.093 304.441 266.496 304.757 266.817 305.175C267.4 305.894 267.692 306.852 267.692 308.048C267.692 309.253 267.4 310.216 266.817 310.935C266.486 311.363 266.083 311.684 265.606 311.898C265.13 312.112 264.6 312.219 264.017 312.219ZM266.146 310.425C266.574 309.871 266.788 309.078 266.788 308.048C266.788 307.027 266.574 306.24 266.146 305.685C265.913 305.374 265.606 305.136 265.227 304.971C264.858 304.806 264.454 304.723 264.017 304.723C263.589 304.723 263.186 304.806 262.806 304.971C262.437 305.136 262.141 305.374 261.917 305.685C261.479 306.249 261.261 307.037 261.261 308.048C261.261 309.069 261.479 309.861 261.917 310.425C262.141 310.736 262.437 310.979 262.806 311.154C263.186 311.319 263.589 311.402 264.017 311.402C264.445 311.402 264.848 311.319 265.227 311.154C265.606 310.979 265.913 310.736 266.146 310.425ZM276.126 311.183H276.84V313.123H276.024V312H269.665V313.123H268.849V311.183C269.753 311.183 270.302 310.328 270.497 308.617L271.022 304.125H276.126V311.183ZM275.309 304.927H271.736L271.299 308.704C271.163 309.851 270.871 310.678 270.424 311.183H275.309V304.927Z" fill="#161C23" fill-opacity="0.9"/>
<path d="M342.455 306.269C342.795 306.57 343.048 306.944 343.213 307.392C343.388 307.839 343.476 308.315 343.476 308.821C343.466 309.394 343.354 309.919 343.14 310.396C342.936 310.872 342.63 311.261 342.221 311.562C341.677 311.981 341.001 312.199 340.194 312.219C339.407 312.219 338.726 312.015 338.153 311.606C337.608 311.198 337.224 310.658 337.001 309.987L337.803 309.725C337.978 310.25 338.264 310.658 338.663 310.95C339.081 311.242 339.587 311.387 340.18 311.387C340.792 311.368 341.298 311.208 341.696 310.906C342.289 310.459 342.586 309.764 342.586 308.821C342.586 308.422 342.518 308.048 342.382 307.698C342.255 307.348 342.056 307.056 341.784 306.823C341.356 306.453 340.817 306.269 340.165 306.269C339.961 306.269 339.747 306.298 339.523 306.356C339.3 306.405 339.091 306.478 338.896 306.575L338.444 305.89L342.178 302.317H337.423V301.5H343.359V302.346L340.048 305.51C340.505 305.481 340.943 305.53 341.361 305.656C341.779 305.783 342.144 305.987 342.455 306.269ZM354.514 304.971H350.037V312H349.191V304.125H354.514V304.971ZM359.188 312.219C358.624 312.219 358.099 312.112 357.613 311.898C357.127 311.674 356.718 311.353 356.388 310.935C355.814 310.206 355.527 309.244 355.527 308.048C355.527 306.872 355.814 305.914 356.388 305.175C356.709 304.767 357.112 304.456 357.598 304.242C358.094 304.018 358.624 303.906 359.188 303.906C359.761 303.906 360.291 304.013 360.777 304.227C361.264 304.441 361.667 304.757 361.988 305.175C362.571 305.894 362.863 306.852 362.863 308.048C362.863 309.253 362.571 310.216 361.988 310.935C361.657 311.363 361.254 311.684 360.777 311.898C360.301 312.112 359.771 312.219 359.188 312.219ZM361.317 310.425C361.745 309.871 361.959 309.078 361.959 308.048C361.959 307.027 361.745 306.24 361.317 305.685C361.084 305.374 360.777 305.136 360.398 304.971C360.029 304.806 359.625 304.723 359.188 304.723C358.76 304.723 358.357 304.806 357.977 304.971C357.608 305.136 357.311 305.374 357.088 305.685C356.65 306.249 356.432 307.037 356.432 308.048C356.432 309.069 356.65 309.861 357.088 310.425C357.311 310.736 357.608 310.979 357.977 311.154C358.357 311.319 358.76 311.402 359.188 311.402C359.616 311.402 360.019 311.319 360.398 311.154C360.777 310.979 361.084 310.736 361.317 310.425ZM371.297 311.183H372.011V313.123H371.195V312H364.836V313.123H364.02V311.183C364.924 311.183 365.473 310.328 365.668 308.617L366.193 304.125H371.297V311.183ZM370.48 304.927H366.907L366.47 308.704C366.334 309.851 366.042 310.678 365.595 311.183H370.48V304.927Z" fill="#161C23" fill-opacity="0.9"/>
<path d="M438.637 309.054V309.871H437.441V312H436.595V309.871H431.841V309.054L435.414 301.5H436.304L432.745 309.054H436.595V305.875H437.441V309.054H438.637ZM449.527 304.971H445.05V312H444.204V304.125H449.527V304.971ZM454.201 312.219C453.638 312.219 453.113 312.112 452.626 311.898C452.14 311.674 451.732 311.353 451.401 310.935C450.828 310.206 450.541 309.244 450.541 308.048C450.541 306.872 450.828 305.914 451.401 305.175C451.722 304.767 452.126 304.456 452.612 304.242C453.108 304.018 453.638 303.906 454.201 303.906C454.775 303.906 455.305 304.013 455.791 304.227C456.277 304.441 456.681 304.757 457.001 305.175C457.585 305.894 457.876 306.852 457.876 308.048C457.876 309.253 457.585 310.216 457.001 310.935C456.671 311.363 456.267 311.684 455.791 311.898C455.315 312.112 454.785 312.219 454.201 312.219ZM456.331 310.425C456.758 309.871 456.972 309.078 456.972 308.048C456.972 307.027 456.758 306.24 456.331 305.685C456.097 305.374 455.791 305.136 455.412 304.971C455.042 304.806 454.639 304.723 454.201 304.723C453.774 304.723 453.37 304.806 452.991 304.971C452.622 305.136 452.325 305.374 452.101 305.685C451.664 306.249 451.445 307.037 451.445 308.048C451.445 309.069 451.664 309.861 452.101 310.425C452.325 310.736 452.622 310.979 452.991 311.154C453.37 311.319 453.774 311.402 454.201 311.402C454.629 311.402 455.033 311.319 455.412 311.154C455.791 310.979 456.097 310.736 456.331 310.425ZM466.31 311.183H467.025V313.123H466.208V312H459.85V313.123H459.033V311.183C459.937 311.183 460.487 310.328 460.681 308.617L461.206 304.125H466.31V311.183ZM465.494 304.927H461.921L461.483 308.704C461.347 309.851 461.056 310.678 460.608 311.183H465.494V304.927Z" fill="#161C23" fill-opacity="0.9"/>
<path d="M533.344 301.5V302.317H528.59L528.356 306.123C528.658 305.841 529.008 305.622 529.406 305.467C529.805 305.301 530.223 305.219 530.661 305.219C531.098 305.219 531.516 305.297 531.915 305.452C532.313 305.608 532.668 305.826 532.979 306.108C533.349 306.439 533.631 306.828 533.825 307.275C534.029 307.722 534.131 308.199 534.131 308.704C534.131 309.171 534.039 309.618 533.854 310.046C533.679 310.474 533.431 310.848 533.111 311.169C532.79 311.499 532.411 311.757 531.973 311.942C531.545 312.126 531.088 312.219 530.602 312.219C530.155 312.219 529.727 312.141 529.319 311.985C528.911 311.82 528.541 311.587 528.211 311.285C527.715 310.799 527.379 310.235 527.204 309.594L528.006 309.375C528.133 309.89 528.405 310.333 528.823 310.702C529.066 310.916 529.338 311.081 529.64 311.198C529.951 311.315 530.272 311.373 530.602 311.373C530.962 311.373 531.302 311.305 531.623 311.169C531.954 311.033 532.24 310.848 532.483 310.615C532.736 310.362 532.931 310.075 533.067 309.754C533.213 309.424 533.286 309.074 533.286 308.704C533.286 308.315 533.203 307.946 533.038 307.596C532.882 307.246 532.663 306.944 532.381 306.692C531.856 306.244 531.263 306.021 530.602 306.021C529.97 306.021 529.411 306.22 528.925 306.619C528.663 306.842 528.454 307.09 528.298 307.362L527.481 306.896L527.802 301.5H533.344ZM545.164 304.971H540.687V312H539.841V304.125H545.164V304.971ZM549.838 312.219C549.274 312.219 548.749 312.112 548.263 311.898C547.777 311.674 547.369 311.353 547.038 310.935C546.465 310.206 546.178 309.244 546.178 308.048C546.178 306.872 546.465 305.914 547.038 305.175C547.359 304.767 547.763 304.456 548.249 304.242C548.744 304.018 549.274 303.906 549.838 303.906C550.412 303.906 550.942 304.013 551.428 304.227C551.914 304.441 552.317 304.757 552.638 305.175C553.222 305.894 553.513 306.852 553.513 308.048C553.513 309.253 553.222 310.216 552.638 310.935C552.308 311.363 551.904 311.684 551.428 311.898C550.951 312.112 550.422 312.219 549.838 312.219ZM551.967 310.425C552.395 309.871 552.609 309.078 552.609 308.048C552.609 307.027 552.395 306.24 551.967 305.685C551.734 305.374 551.428 305.136 551.049 304.971C550.679 304.806 550.276 304.723 549.838 304.723C549.41 304.723 549.007 304.806 548.628 304.971C548.258 305.136 547.962 305.374 547.738 305.685C547.301 306.249 547.082 307.037 547.082 308.048C547.082 309.069 547.301 309.861 547.738 310.425C547.962 310.736 548.258 310.979 548.628 311.154C549.007 311.319 549.41 311.402 549.838 311.402C550.266 311.402 550.669 311.319 551.049 311.154C551.428 310.979 551.734 310.736 551.967 310.425ZM561.947 311.183H562.662V313.123H561.845V312H555.487V313.123H554.67V311.183C555.574 311.183 556.123 310.328 556.318 308.617L556.843 304.125H561.947V311.183ZM561.13 304.927H557.558L557.12 308.704C556.984 309.851 556.692 310.678 556.245 311.183H561.13V304.927Z" fill="#161C23" fill-opacity="0.9"/>
<rect x="135" y="287" width="60" height="129" fill="#9DC7D5"/>
<rect width="60" height="200" transform="matrix(1 0 0 -1 230 289)" fill="#6DABBF"/>
<rect width="60" height="212" transform="matrix(1 0 0 -1 325 289)" fill="#3C8FAA"/>
<rect width="60" height="212" transform="matrix(1 0 0 -1 420 289)" fill="#0B7495"/>
<rect width="60" height="212" transform="matrix(1 0 0 -1 515 289)" fill="#0B7495"/>
</svg>
