<svg width="647" height="510" viewBox="0 0 647 510" fill="none" xmlns="http://www.w3.org/2000/svg">
<path opacity="0.7" d="M67 474L67 45" stroke="#161C23" stroke-width="0.7"/>
<path opacity="0.7" d="M62.5 49.5L67 45L71.5 49.5" stroke="#161C23" stroke-width="0.7"/>
<path opacity="0.7" d="M641 469L646 474L641 479" stroke="#161C23" stroke-width="0.7"/>
<path d="M24.2875 52.4792C23.9208 51.8681 23.4166 51.3792 22.775 51.0125C22.1333 50.6306 21.4382 50.4396 20.6896 50.4396C20.0632 50.4396 19.475 50.5694 18.925 50.8292C18.375 51.0736 17.9166 51.4174 17.55 51.8604C17.1833 52.2576 16.9007 52.716 16.7021 53.2354C16.5034 53.7396 16.4041 54.2743 16.4041 54.8396V57.5667C16.9083 56.8792 17.5347 56.3368 18.2833 55.9396C19.0319 55.5424 19.834 55.3437 20.6896 55.3437C21.4229 55.3437 22.118 55.4812 22.775 55.7562C23.4319 56.0312 24.0201 56.4132 24.5396 56.9021C25.059 57.4215 25.4562 58.0174 25.7312 58.6896C26.0215 59.3618 26.1666 60.0799 26.1666 60.8437C26.1666 61.5618 26.0291 62.2493 25.7541 62.9062C25.4791 63.5479 25.0972 64.1208 24.6083 64.625C24.1041 65.175 23.5007 65.6028 22.7979 65.9083C22.1104 66.1986 21.3847 66.3438 20.6208 66.3438C19.8264 66.3438 19.0778 66.191 18.375 65.8854C17.6722 65.5646 17.0611 65.1215 16.5416 64.5562C15.5639 63.5174 15.075 62.2187 15.075 60.6604V54.8396C15.075 54.0299 15.2125 53.2812 15.4875 52.5937C15.7778 51.891 16.1903 51.2799 16.725 50.7604C17.2444 50.241 17.8403 49.8437 18.5125 49.5687C19.2 49.2937 19.9257 49.1562 20.6896 49.1562C21.6521 49.1562 22.5382 49.3854 23.3479 49.8437C24.1729 50.2868 24.8375 50.9056 25.3416 51.7L24.2875 52.4792ZM20.6666 64.9229C21.3083 64.9229 21.9041 64.7854 22.4541 64.5104C23.0041 64.2354 23.4625 63.8535 23.8291 63.3646C24.1041 63.0132 24.318 62.6236 24.4708 62.1958C24.6389 61.7528 24.7229 61.3097 24.7229 60.8667C24.7229 60.225 24.593 59.6292 24.3333 59.0792C24.0736 58.5292 23.7146 58.0632 23.2562 57.6812C22.5076 57.0549 21.6215 56.7417 20.5979 56.7417C19.9715 56.7417 19.3833 56.8792 18.8333 57.1542C18.2833 57.4139 17.8173 57.7729 17.4354 58.2312C16.8243 58.9646 16.5187 59.8201 16.5187 60.7979C16.5187 61.3785 16.6333 61.9285 16.8625 62.4479C17.1069 62.9674 17.4278 63.4257 17.825 63.8229C18.1916 64.1743 18.6194 64.4493 19.1083 64.6479C19.5972 64.8312 20.1166 64.9229 20.6666 64.9229ZM33.8727 66.3438C34.6213 66.3438 35.3317 66.1986 36.0039 65.9083C36.6761 65.6028 37.2567 65.1826 37.7456 64.6479C38.6317 63.6396 39.0747 62.4479 39.0747 61.0729V54.4042C39.0747 52.9528 38.5935 51.7306 37.631 50.7375C37.1421 50.2333 36.5768 49.8437 35.9352 49.5687C35.2935 49.2937 34.606 49.1562 33.8727 49.1562C33.1393 49.1562 32.4442 49.2937 31.7872 49.5687C31.1303 49.8437 30.565 50.2333 30.0914 50.7375C29.1442 51.7611 28.6706 52.9833 28.6706 54.4042V61.0729C28.6706 62.4785 29.1213 63.6778 30.0227 64.6708C30.4963 65.2056 31.0692 65.6181 31.7414 65.9083C32.4136 66.1986 33.124 66.3438 33.8727 66.3438ZM33.8727 50.4396C34.5143 50.4396 35.1178 50.5924 35.6831 50.8979C36.2484 51.2035 36.7143 51.616 37.081 52.1354C37.524 52.8076 37.7456 53.5639 37.7456 54.4042V61.0729C37.7456 61.9132 37.5317 62.6618 37.1039 63.3187C36.7372 63.8535 36.2713 64.2812 35.706 64.6021C35.1407 64.9076 34.5296 65.0528 33.8727 65.0375C33.2157 65.0528 32.6046 64.9076 32.0393 64.6021C31.474 64.2812 31.0157 63.8535 30.6643 63.3187C30.2213 62.6771 29.9997 61.9285 29.9997 61.0729V54.4042C29.9997 53.5333 30.2289 52.7771 30.6872 52.1354C31.0386 51.616 31.497 51.2035 32.0622 50.8979C32.6275 50.5924 33.231 50.4396 33.8727 50.4396Z" fill="#161C23" fill-opacity="0.9"/>
<path d="M26.3987 129.038V130.321H24.5195V133.667H23.1903V130.321H15.7195V129.038L21.3341 117.167H22.732L17.1403 129.038H23.1903V124.042H24.5195V129.038H26.3987ZM33.8727 134.01C34.6213 134.01 35.3317 133.865 36.0039 133.575C36.6761 133.269 37.2567 132.849 37.7456 132.315C38.6317 131.306 39.0747 130.115 39.0747 128.74V122.071C39.0747 120.619 38.5935 119.397 37.631 118.404C37.1421 117.9 36.5768 117.51 35.9352 117.235C35.2935 116.96 34.606 116.823 33.8727 116.823C33.1393 116.823 32.4442 116.96 31.7872 117.235C31.1303 117.51 30.565 117.9 30.0914 118.404C29.1442 119.428 28.6706 120.65 28.6706 122.071V128.74C28.6706 130.145 29.1213 131.344 30.0227 132.338C30.4963 132.872 31.0692 133.285 31.7414 133.575C32.4136 133.865 33.124 134.01 33.8727 134.01ZM33.8727 118.106C34.5143 118.106 35.1178 118.259 35.6831 118.565C36.2484 118.87 36.7143 119.283 37.081 119.802C37.524 120.474 37.7456 121.231 37.7456 122.071V128.74C37.7456 129.58 37.5317 130.328 37.1039 130.985C36.7372 131.52 36.2713 131.948 35.706 132.269C35.1407 132.574 34.5296 132.719 33.8727 132.704C33.2157 132.719 32.6046 132.574 32.0393 132.269C31.474 131.948 31.0157 131.52 30.6643 130.985C30.2213 130.344 29.9997 129.595 29.9997 128.74V122.071C29.9997 121.2 30.2289 120.444 30.6872 119.802C31.0386 119.283 31.497 118.87 32.0622 118.565C32.6275 118.259 33.231 118.106 33.8727 118.106Z" fill="#161C23" fill-opacity="0.9"/>
<path d="M16.4371 189.256C16.4218 188.584 16.544 187.95 16.8037 187.354C17.0787 186.743 17.4607 186.208 17.9496 185.75C18.3926 185.353 18.9044 185.047 19.485 184.833C20.0656 184.604 20.6614 184.49 21.2725 184.49C21.8989 184.49 22.4947 184.604 23.06 184.833C23.6253 185.063 24.1294 185.383 24.5725 185.796C25.0461 186.254 25.4128 186.789 25.6725 187.4C25.9322 187.996 26.0621 188.622 26.0621 189.279C26.0621 190.013 25.9017 190.715 25.5808 191.388C25.26 192.06 24.7635 192.747 24.0913 193.45L18.2017 200.027H26.1308V201.333H16.2996V200.027L23.2204 192.465C24.2287 191.365 24.7329 190.303 24.7329 189.279C24.7329 188.79 24.6336 188.332 24.435 187.904C24.2517 187.461 23.9919 187.079 23.6558 186.758C22.9683 186.101 22.1662 185.773 21.2496 185.773C20.8065 185.773 20.3787 185.857 19.9662 186.025C19.5537 186.193 19.1871 186.422 18.8662 186.713C18.5301 187.049 18.2628 187.438 18.0642 187.881C17.8656 188.324 17.7662 188.783 17.7662 189.256H16.4371ZM33.8727 201.677C34.6213 201.677 35.3317 201.532 36.0039 201.242C36.6761 200.936 37.2567 200.516 37.7456 199.981C38.6317 198.973 39.0747 197.781 39.0747 196.406V189.738C39.0747 188.286 38.5935 187.064 37.631 186.071C37.1421 185.567 36.5768 185.177 35.9352 184.902C35.2935 184.627 34.606 184.49 33.8727 184.49C33.1393 184.49 32.4442 184.627 31.7872 184.902C31.1303 185.177 30.565 185.567 30.0914 186.071C29.1442 187.094 28.6706 188.317 28.6706 189.738V196.406C28.6706 197.812 29.1213 199.011 30.0227 200.004C30.4963 200.539 31.0692 200.951 31.7414 201.242C32.4136 201.532 33.124 201.677 33.8727 201.677ZM33.8727 185.773C34.5143 185.773 35.1178 185.926 35.6831 186.231C36.2484 186.537 36.7143 186.949 37.081 187.469C37.524 188.141 37.7456 188.897 37.7456 189.738V196.406C37.7456 197.247 37.5317 197.995 37.1039 198.652C36.7372 199.187 36.2713 199.615 35.706 199.935C35.1407 200.241 34.5296 200.386 33.8727 200.371C33.2157 200.386 32.6046 200.241 32.0393 199.935C31.474 199.615 31.0157 199.187 30.6643 198.652C30.2213 198.01 29.9997 197.262 29.9997 196.406V189.738C29.9997 188.867 30.2289 188.11 30.6872 187.469C31.0386 186.949 31.497 186.537 32.0622 186.231C32.6275 185.926 33.231 185.773 33.8727 185.773Z" fill="#161C23" fill-opacity="0.9"/>
<path d="M33.8727 268.344C34.6213 268.344 35.3317 268.199 36.0039 267.908C36.6761 267.603 37.2567 267.183 37.7456 266.648C38.6317 265.64 39.0747 264.448 39.0747 263.073V256.404C39.0747 254.953 38.5935 253.731 37.631 252.738C37.1421 252.233 36.5768 251.844 35.9352 251.569C35.2935 251.294 34.606 251.156 33.8727 251.156C33.1393 251.156 32.4442 251.294 31.7872 251.569C31.1303 251.844 30.565 252.233 30.0914 252.738C29.1442 253.761 28.6706 254.983 28.6706 256.404V263.073C28.6706 264.478 29.1213 265.678 30.0227 266.671C30.4963 267.206 31.0692 267.618 31.7414 267.908C32.4136 268.199 33.124 268.344 33.8727 268.344ZM33.8727 252.44C34.5143 252.44 35.1178 252.592 35.6831 252.898C36.2484 253.203 36.7143 253.616 37.081 254.135C37.524 254.808 37.7456 255.564 37.7456 256.404V263.073C37.7456 263.913 37.5317 264.662 37.1039 265.319C36.7372 265.853 36.2713 266.281 35.706 266.602C35.1407 266.908 34.5296 267.053 33.8727 267.038C33.2157 267.053 32.6046 266.908 32.0393 266.602C31.474 266.281 31.0157 265.853 30.6643 265.319C30.2213 264.677 29.9997 263.928 29.9997 263.073V256.404C29.9997 255.533 30.2289 254.777 30.6872 254.135C31.0386 253.616 31.497 253.203 32.0622 252.898C32.6275 252.592 33.231 252.44 33.8727 252.44Z" fill="#161C23" fill-opacity="0.9"/>
<path d="M13.3387 328.654V329.846H6.46375V328.654H13.3387ZM16.4371 323.59C16.4218 322.917 16.544 322.283 16.8037 321.688C17.0787 321.076 17.4607 320.542 17.9496 320.083C18.3926 319.686 18.9044 319.381 19.485 319.167C20.0656 318.938 20.6614 318.823 21.2725 318.823C21.8989 318.823 22.4947 318.938 23.06 319.167C23.6253 319.396 24.1294 319.717 24.5725 320.129C25.0461 320.588 25.4128 321.122 25.6725 321.733C25.9322 322.329 26.0621 322.956 26.0621 323.613C26.0621 324.346 25.9017 325.049 25.5808 325.721C25.26 326.393 24.7635 327.081 24.0912 327.783L18.2017 334.36H26.1308V335.667H16.2996V334.36L23.2204 326.798C24.2287 325.698 24.7329 324.636 24.7329 323.613C24.7329 323.124 24.6336 322.665 24.435 322.238C24.2517 321.794 23.9919 321.413 23.6558 321.092C22.9683 320.435 22.1662 320.106 21.2496 320.106C20.8065 320.106 20.3787 320.19 19.9662 320.358C19.5537 320.526 19.1871 320.756 18.8662 321.046C18.5301 321.382 18.2628 321.772 18.0642 322.215C17.8656 322.658 17.7662 323.116 17.7662 323.59H16.4371ZM33.8727 336.01C34.6213 336.01 35.3317 335.865 36.0039 335.575C36.6761 335.269 37.2567 334.849 37.7456 334.315C38.6317 333.306 39.0747 332.115 39.0747 330.74V324.071C39.0747 322.619 38.5935 321.397 37.631 320.404C37.1421 319.9 36.5768 319.51 35.9352 319.235C35.2935 318.96 34.606 318.823 33.8727 318.823C33.1393 318.823 32.4442 318.96 31.7872 319.235C31.1303 319.51 30.565 319.9 30.0914 320.404C29.1442 321.428 28.6706 322.65 28.6706 324.071V330.74C28.6706 332.145 29.1213 333.344 30.0227 334.338C30.4963 334.872 31.0692 335.285 31.7414 335.575C32.4136 335.865 33.124 336.01 33.8727 336.01ZM33.8727 320.106C34.5143 320.106 35.1178 320.259 35.6831 320.565C36.2483 320.87 36.7143 321.283 37.081 321.802C37.524 322.474 37.7456 323.231 37.7456 324.071V330.74C37.7456 331.58 37.5317 332.328 37.1039 332.985C36.7372 333.52 36.2713 333.948 35.706 334.269C35.1407 334.574 34.5296 334.719 33.8727 334.704C33.2157 334.719 32.6046 334.574 32.0393 334.269C31.474 333.948 31.0157 333.52 30.6643 332.985C30.2213 332.344 29.9997 331.595 29.9997 330.74V324.071C29.9997 323.2 30.2289 322.444 30.6872 321.802C31.0386 321.283 31.497 320.87 32.0622 320.565C32.6275 320.259 33.231 320.106 33.8727 320.106Z" fill="#161C23" fill-opacity="0.9"/>
<path d="M12.0712 396.321V397.513H5.19617V396.321H12.0712ZM26.3987 398.704V399.988H24.5195V403.333H23.1903V399.988H15.7195V398.704L21.3341 386.833H22.732L17.1403 398.704H23.1903V393.708H24.5195V398.704H26.3987ZM33.8727 403.677C34.6213 403.677 35.3317 403.532 36.0039 403.242C36.6761 402.936 37.2567 402.516 37.7456 401.981C38.6317 400.973 39.0747 399.781 39.0747 398.406V391.738C39.0747 390.286 38.5935 389.064 37.631 388.071C37.1421 387.567 36.5768 387.177 35.9352 386.902C35.2935 386.627 34.606 386.49 33.8727 386.49C33.1393 386.49 32.4442 386.627 31.7872 386.902C31.1303 387.177 30.565 387.567 30.0914 388.071C29.1442 389.094 28.6706 390.317 28.6706 391.738V398.406C28.6706 399.812 29.1213 401.011 30.0227 402.004C30.4963 402.539 31.0692 402.951 31.7414 403.242C32.4136 403.532 33.124 403.677 33.8727 403.677ZM33.8727 387.773C34.5143 387.773 35.1178 387.926 35.6831 388.231C36.2483 388.537 36.7143 388.949 37.081 389.469C37.524 390.141 37.7456 390.897 37.7456 391.738V398.406C37.7456 399.247 37.5317 399.995 37.1039 400.652C36.7372 401.187 36.2713 401.615 35.706 401.935C35.1407 402.241 34.5296 402.386 33.8727 402.371C33.2157 402.386 32.6046 402.241 32.0393 401.935C31.474 401.615 31.0157 401.187 30.6643 400.652C30.2213 400.01 29.9997 399.262 29.9997 398.406V391.738C29.9997 390.867 30.2289 390.11 30.6872 389.469C31.0386 388.949 31.497 388.537 32.0622 388.231C32.6275 387.926 33.231 387.773 33.8727 387.773Z" fill="#161C23" fill-opacity="0.9"/>
<path d="M12.1141 463.987V465.179H5.23914V463.987H12.1141ZM24.2875 457.479C23.9208 456.868 23.4166 456.379 22.775 456.012C22.1333 455.631 21.4382 455.44 20.6896 455.44C20.0632 455.44 19.475 455.569 18.925 455.829C18.375 456.074 17.9166 456.417 17.55 456.86C17.1833 457.258 16.9007 457.716 16.7021 458.235C16.5034 458.74 16.4041 459.274 16.4041 459.84V462.567C16.9083 461.879 17.5347 461.337 18.2833 460.94C19.0319 460.542 19.834 460.344 20.6896 460.344C21.4229 460.344 22.118 460.481 22.775 460.756C23.4319 461.031 24.0201 461.413 24.5396 461.902C25.059 462.422 25.4562 463.017 25.7312 463.69C26.0215 464.362 26.1666 465.08 26.1666 465.844C26.1666 466.562 26.0291 467.249 25.7541 467.906C25.4791 468.548 25.0972 469.121 24.6083 469.625C24.1041 470.175 23.5007 470.603 22.7979 470.908C22.1104 471.199 21.3847 471.344 20.6208 471.344C19.8264 471.344 19.0778 471.191 18.375 470.885C17.6722 470.565 17.0611 470.122 16.5416 469.556C15.5639 468.517 15.075 467.219 15.075 465.66V459.84C15.075 459.03 15.2125 458.281 15.4875 457.594C15.7778 456.891 16.1903 456.28 16.725 455.76C17.2444 455.241 17.8403 454.844 18.5125 454.569C19.2 454.294 19.9257 454.156 20.6896 454.156C21.6521 454.156 22.5382 454.385 23.3479 454.844C24.1729 455.287 24.8375 455.906 25.3416 456.7L24.2875 457.479ZM20.6666 469.923C21.3083 469.923 21.9041 469.785 22.4541 469.51C23.0041 469.235 23.4625 468.853 23.8291 468.365C24.1041 468.013 24.318 467.624 24.4708 467.196C24.6389 466.753 24.7229 466.31 24.7229 465.867C24.7229 465.225 24.593 464.629 24.3333 464.079C24.0736 463.529 23.7146 463.063 23.2562 462.681C22.5076 462.055 21.6215 461.742 20.5979 461.742C19.9715 461.742 19.3833 461.879 18.8333 462.154C18.2833 462.414 17.8173 462.773 17.4354 463.231C16.8243 463.965 16.5187 464.82 16.5187 465.798C16.5187 466.378 16.6333 466.928 16.8625 467.448C17.1069 467.967 17.4278 468.426 17.825 468.823C18.1916 469.174 18.6194 469.449 19.1083 469.648C19.5972 469.831 20.1166 469.923 20.6666 469.923ZM33.8727 471.344C34.6213 471.344 35.3317 471.199 36.0039 470.908C36.6761 470.603 37.2567 470.183 37.7456 469.648C38.6317 468.64 39.0747 467.448 39.0747 466.073V459.404C39.0747 457.953 38.5935 456.731 37.631 455.737C37.1421 455.233 36.5768 454.844 35.9352 454.569C35.2935 454.294 34.606 454.156 33.8727 454.156C33.1393 454.156 32.4442 454.294 31.7872 454.569C31.1303 454.844 30.565 455.233 30.0914 455.737C29.1442 456.761 28.6706 457.983 28.6706 459.404V466.073C28.6706 467.478 29.1213 468.678 30.0227 469.671C30.4963 470.206 31.0692 470.618 31.7414 470.908C32.4136 471.199 33.124 471.344 33.8727 471.344ZM33.8727 455.44C34.5143 455.44 35.1178 455.592 35.6831 455.898C36.2483 456.203 36.7143 456.616 37.081 457.135C37.524 457.808 37.7456 458.564 37.7456 459.404V466.073C37.7456 466.913 37.5317 467.662 37.1039 468.319C36.7372 468.853 36.2713 469.281 35.706 469.602C35.1407 469.908 34.5296 470.053 33.8727 470.037C33.2157 470.053 32.6046 469.908 32.0393 469.602C31.474 469.281 31.0157 468.853 30.6643 468.319C30.2213 467.677 29.9997 466.928 29.9997 466.073V459.404C29.9997 458.533 30.2289 457.777 30.6872 457.135C31.0386 456.616 31.497 456.203 32.0622 455.898C32.6275 455.592 33.231 455.44 33.8727 455.44Z" fill="#161C23" fill-opacity="0.9"/>
<path d="M56.4188 9.875L56.4375 20H55.35V12.35L51.8438 18.65H50.9063L47.4188 12.35V20H46.3125V9.875H47.3625L51.375 17.1125L55.4063 9.875H56.4188ZM67.1041 9.875V20H66.0354V10.9062H61.9104L61.2541 16.2687C61.1666 17.0687 61.0416 17.7375 60.8791 18.275C60.7166 18.8 60.4479 19.225 60.0729 19.55C59.6979 19.875 59.1666 20.025 58.4791 20V18.9687C58.9166 18.9687 59.2479 18.8625 59.4729 18.65C59.6979 18.4375 59.8604 18.1437 59.9604 17.7687C60.0604 17.3812 60.1541 16.8187 60.2416 16.0812L60.9729 9.875H67.1041ZM78.3638 9.875V20H77.2762V15.0687H71.1825V20H70.095V9.875H71.1825V14H77.2762V9.875H78.3638ZM94.6779 7.7375C95.0529 8.1125 95.3466 8.55625 95.5591 9.06875C95.7716 9.56875 95.8841 10.0875 95.8966 10.625C95.8966 11.1125 95.8029 11.5937 95.6154 12.0687C95.4279 12.5312 95.1716 12.95 94.8466 13.325C94.4841 13.7625 94.0216 14.1062 93.4591 14.3562C92.9091 14.6062 92.3404 14.7312 91.7529 14.7312H87.3654V20H86.2779V6.5H91.7529C92.2279 6.5 92.7091 6.5875 93.1966 6.7625C93.7716 6.975 94.2654 7.3 94.6779 7.7375ZM94.0404 12.575C94.2654 12.3 94.4404 12 94.5654 11.675C94.6904 11.35 94.7529 11.025 94.7529 10.7C94.7529 10.2625 94.6716 9.85 94.5091 9.4625C94.3591 9.075 94.1404 8.7375 93.8529 8.45C93.5779 8.175 93.2529 7.95625 92.8779 7.79375C92.5029 7.63125 92.1279 7.55 91.7529 7.55H87.3654V13.6812H91.7529C92.1779 13.6812 92.5904 13.5812 92.9904 13.3812C93.4029 13.1812 93.7529 12.9125 94.0404 12.575Z" fill="#161C23" fill-opacity="0.9"/>
<path d="M347.156 494.962H341.4V504H340.313V493.875H347.156V494.962ZM353.166 504.281C352.441 504.281 351.766 504.144 351.141 503.869C350.516 503.581 349.991 503.169 349.566 502.631C348.828 501.694 348.46 500.456 348.46 498.919C348.46 497.406 348.828 496.175 349.566 495.225C349.978 494.7 350.497 494.3 351.122 494.025C351.76 493.737 352.441 493.594 353.166 493.594C353.903 493.594 354.585 493.731 355.21 494.006C355.835 494.281 356.353 494.687 356.766 495.225C357.516 496.15 357.891 497.381 357.891 498.919C357.891 500.469 357.516 501.706 356.766 502.631C356.341 503.181 355.822 503.594 355.21 503.869C354.597 504.144 353.916 504.281 353.166 504.281ZM355.903 501.975C356.453 501.262 356.728 500.244 356.728 498.919C356.728 497.606 356.453 496.594 355.903 495.881C355.603 495.481 355.21 495.175 354.722 494.962C354.247 494.75 353.728 494.644 353.166 494.644C352.616 494.644 352.097 494.75 351.61 494.962C351.135 495.175 350.753 495.481 350.466 495.881C349.903 496.606 349.622 497.619 349.622 498.919C349.622 500.231 349.903 501.25 350.466 501.975C350.753 502.375 351.135 502.687 351.61 502.912C352.097 503.125 352.616 503.231 353.166 503.231C353.716 503.231 354.235 503.125 354.722 502.912C355.21 502.687 355.603 502.375 355.903 501.975ZM368.734 502.95H369.653V505.444H368.603V504H360.428V505.444H359.378V502.95C360.541 502.95 361.247 501.85 361.497 499.65L362.172 493.875H368.734V502.95ZM367.684 494.906H363.091L362.528 499.762C362.353 501.237 361.978 502.3 361.403 502.95H367.684V494.906Z" fill="#161C23" fill-opacity="0.9"/>
<path opacity="0.8" d="M149.551 410.146V412.021H155.801V410.146H149.551ZM167.618 409.167C166.91 408.375 165.993 407.833 164.847 407.646L168.41 404.292V402H159.285V404.208H165.264L161.118 408.104L162.201 409.937C162.618 409.729 163.097 409.583 163.555 409.583C164.243 409.583 164.91 409.792 165.43 410.271C165.993 410.812 166.243 411.562 166.243 412.333C166.243 413.104 165.972 413.854 165.389 414.375C164.889 414.812 164.243 415.062 163.576 415.062C162.889 415.062 162.243 414.833 161.743 414.396C161.368 414.062 161.118 413.625 160.972 413.146L158.701 413.75C158.972 414.646 159.472 415.437 160.16 416.042C161.097 416.875 162.347 417.312 163.576 417.292C164.785 417.312 166.035 416.875 166.972 416.042C168.035 415.125 168.597 413.75 168.639 412.333C168.66 411.187 168.326 410.062 167.618 409.167ZM172.869 417H175.265L180.453 404.229V402H171.328V404.229H178.078L172.869 417Z" fill="#161C23" fill-opacity="0.9"/>
<path opacity="0.8" d="M249.396 34L248.937 41.7083L251 42.875C251.125 42.6458 251.312 42.4167 251.521 42.2292C252.021 41.7708 252.687 41.5 253.375 41.5C254.104 41.5 254.792 41.7708 255.312 42.2708C255.854 42.7708 256.187 43.5208 256.187 44.2708C256.187 45.0417 255.875 45.75 255.354 46.25C254.833 46.75 254.125 47.0625 253.375 47.0625C252.667 47.0625 251.979 46.7708 251.458 46.2917C251.104 45.9375 250.833 45.4792 250.687 44.9792L248.437 45.5833C248.687 46.4792 249.187 47.2917 249.833 47.8958C250.771 48.7917 252.083 49.3125 253.375 49.2917C254.708 49.3125 256.042 48.7917 257 47.875C257.937 46.9583 258.521 45.625 258.542 44.2708C258.583 42.875 258.062 41.5625 256.979 40.5833C256.083 39.7917 254.875 39.375 253.687 39.375C252.875 39.375 251.979 39.625 251.25 40.125L251.479 36.2083H257.292V34H249.396ZM262.775 49H265.171L270.358 36.2292V34H261.233V36.2292H267.983L262.775 49Z" fill="#161C23" fill-opacity="0.9"/>
<path opacity="0.8" d="M352.895 27.3958C351.853 26.25 350.458 25.6875 348.895 25.7083C347.353 25.6667 345.895 26.1875 344.812 27.4167C343.791 28.5625 343.478 29.7917 343.478 31.3958V35.5833C343.478 37.2917 343.791 38.625 345.02 39.8125C345.958 40.7708 347.312 41.3125 348.645 41.2917C349.999 41.3125 351.333 40.7917 352.27 39.8542C353.228 38.9375 353.812 37.625 353.833 36.2708C353.853 34.8333 353.353 33.6042 352.312 32.625C351.395 31.8125 350.187 31.3542 348.978 31.3542C347.812 31.3542 346.687 31.8333 345.874 32.625V31.3958C345.874 30.6458 345.978 30.0208 346.333 29.4375C346.791 28.5208 347.812 27.8958 348.895 27.8958C349.791 27.8958 350.645 28.3333 351.208 29.0208L352.895 27.3958ZM349.895 38.5417C349.27 38.875 348.541 38.9375 347.895 38.7292C347.27 38.5625 346.708 38.1042 346.395 37.5208C346.062 36.9167 345.978 36.2083 346.145 35.5625C346.333 34.8958 346.791 34.3333 347.416 34C348.02 33.6667 348.728 33.5833 349.395 33.7708C350.041 33.9583 350.603 34.4167 350.937 35.0208C351.27 35.625 351.353 36.3125 351.187 36.9792C350.999 37.6458 350.541 38.2292 349.895 38.5417ZM361.424 41.2917C359.903 41.2917 358.382 40.7292 357.382 39.5625C356.382 38.375 356.111 37.2708 356.111 35.6875V31.2917C356.111 29.7292 356.361 28.625 357.382 27.3958C358.341 26.2917 359.841 25.6458 361.424 25.6875C362.924 25.6458 364.445 26.2292 365.466 27.3958C366.466 28.5417 366.736 29.7083 366.736 31.2917V35.6875C366.736 37.2083 366.486 38.3958 365.486 39.5625C364.486 40.7083 363.028 41.2917 361.424 41.2917ZM361.424 27.8958C360.403 27.8958 359.445 28.4583 358.945 29.3125C358.591 29.875 358.507 30.5 358.507 31.2917V35.6875C358.507 36.3958 358.549 37.1042 358.966 37.75C359.507 38.5625 360.445 39.0833 361.424 39.0833C362.424 39.0833 363.361 38.5625 363.903 37.7292C364.299 37.125 364.341 36.5417 364.341 35.6875V31.2917C364.341 30.5208 364.32 30 363.945 29.3333C363.424 28.4583 362.445 27.8958 361.424 27.8958Z" fill="#161C23" fill-opacity="0.9"/>
<path opacity="0.8" d="M447.895 27.3958C446.853 26.25 445.458 25.6875 443.895 25.7083C442.353 25.6667 440.895 26.1875 439.812 27.4167C438.791 28.5625 438.478 29.7917 438.478 31.3958V35.5833C438.478 37.2917 438.791 38.625 440.02 39.8125C440.958 40.7708 442.312 41.3125 443.645 41.2917C444.999 41.3125 446.333 40.7917 447.27 39.8542C448.228 38.9375 448.812 37.625 448.833 36.2708C448.853 34.8333 448.353 33.6042 447.312 32.625C446.395 31.8125 445.187 31.3542 443.978 31.3542C442.812 31.3542 441.687 31.8333 440.874 32.625V31.3958C440.874 30.6458 440.978 30.0208 441.333 29.4375C441.791 28.5208 442.812 27.8958 443.895 27.8958C444.791 27.8958 445.645 28.3333 446.208 29.0208L447.895 27.3958ZM444.895 38.5417C444.27 38.875 443.541 38.9375 442.895 38.7292C442.27 38.5625 441.708 38.1042 441.395 37.5208C441.062 36.9167 440.978 36.2083 441.145 35.5625C441.333 34.8958 441.791 34.3333 442.416 34C443.02 33.6667 443.728 33.5833 444.395 33.7708C445.041 33.9583 445.603 34.4167 445.937 35.0208C446.27 35.625 446.353 36.3125 446.187 36.9792C445.999 37.6458 445.541 38.2292 444.895 38.5417ZM456.424 41.2917C454.903 41.2917 453.382 40.7292 452.382 39.5625C451.382 38.375 451.111 37.2708 451.111 35.6875V31.2917C451.111 29.7292 451.361 28.625 452.382 27.3958C453.341 26.2917 454.841 25.6458 456.424 25.6875C457.924 25.6458 459.445 26.2292 460.466 27.3958C461.466 28.5417 461.736 29.7083 461.736 31.2917V35.6875C461.736 37.2083 461.486 38.3958 460.486 39.5625C459.486 40.7083 458.028 41.2917 456.424 41.2917ZM456.424 27.8958C455.403 27.8958 454.445 28.4583 453.945 29.3125C453.591 29.875 453.507 30.5 453.507 31.2917V35.6875C453.507 36.3958 453.549 37.1042 453.966 37.75C454.507 38.5625 455.445 39.0833 456.424 39.0833C457.424 39.0833 458.361 38.5625 458.903 37.7292C459.299 37.125 459.341 36.5417 459.341 35.6875V31.2917C459.341 30.5208 459.32 30 458.945 29.3333C458.424 28.4583 457.445 27.8958 456.424 27.8958Z" fill="#161C23" fill-opacity="0.9"/>
<path opacity="0.8" d="M542.895 27.3958C541.853 26.25 540.458 25.6875 538.895 25.7083C537.353 25.6667 535.895 26.1875 534.812 27.4167C533.791 28.5625 533.478 29.7917 533.478 31.3958V35.5833C533.478 37.2917 533.791 38.625 535.02 39.8125C535.958 40.7708 537.312 41.3125 538.645 41.2917C539.999 41.3125 541.333 40.7917 542.27 39.8542C543.228 38.9375 543.812 37.625 543.833 36.2708C543.853 34.8333 543.353 33.6042 542.312 32.625C541.395 31.8125 540.187 31.3542 538.978 31.3542C537.812 31.3542 536.687 31.8333 535.874 32.625V31.3958C535.874 30.6458 535.978 30.0208 536.333 29.4375C536.791 28.5208 537.812 27.8958 538.895 27.8958C539.791 27.8958 540.645 28.3333 541.208 29.0208L542.895 27.3958ZM539.895 38.5417C539.27 38.875 538.541 38.9375 537.895 38.7292C537.27 38.5625 536.708 38.1042 536.395 37.5208C536.062 36.9167 535.978 36.2083 536.145 35.5625C536.333 34.8958 536.791 34.3333 537.416 34C538.02 33.6667 538.728 33.5833 539.395 33.7708C540.041 33.9583 540.603 34.4167 540.937 35.0208C541.27 35.625 541.353 36.3125 541.187 36.9792C540.999 37.6458 540.541 38.2292 539.895 38.5417ZM551.424 41.2917C549.903 41.2917 548.382 40.7292 547.382 39.5625C546.382 38.375 546.111 37.2708 546.111 35.6875V31.2917C546.111 29.7292 546.361 28.625 547.382 27.3958C548.341 26.2917 549.841 25.6458 551.424 25.6875C552.924 25.6458 554.445 26.2292 555.466 27.3958C556.466 28.5417 556.736 29.7083 556.736 31.2917V35.6875C556.736 37.2083 556.486 38.3958 555.486 39.5625C554.486 40.7083 553.028 41.2917 551.424 41.2917ZM551.424 27.8958C550.403 27.8958 549.445 28.4583 548.945 29.3125C548.591 29.875 548.507 30.5 548.507 31.2917V35.6875C548.507 36.3958 548.549 37.1042 548.966 37.75C549.507 38.5625 550.445 39.0833 551.424 39.0833C552.424 39.0833 553.361 38.5625 553.903 37.7292C554.299 37.125 554.341 36.5417 554.341 35.6875V31.2917C554.341 30.5208 554.32 30 553.945 29.3333C553.424 28.4583 552.445 27.8958 551.424 27.8958Z" fill="#161C23" fill-opacity="0.9"/>
<line opacity="0.3" x1="67" y1="383.75" x2="641" y2="383.75" stroke="black" stroke-width="0.5" stroke-dasharray="6 6"/>
<line opacity="0.3" x1="67" y1="65.75" x2="641" y2="65.75" stroke="black" stroke-width="0.5" stroke-dasharray="6 6"/>
<line opacity="0.3" x1="67" y1="58.75" x2="641" y2="58.75" stroke="black" stroke-width="0.5" stroke-dasharray="6 6"/>
<path opacity="0.3" d="M68 259L641 259" stroke="black" stroke-width="0.5" stroke-dasharray="6 6"/>
<line opacity="0.7" x1="67" y1="473.65" x2="644" y2="473.65" stroke="#161C23" stroke-width="0.7"/>
<path d="M151.492 235.5V246H150.646V236.448L148.663 237.644V236.681L150.646 235.5H151.492ZM163.312 238.971H158.834V246H157.989V238.125H163.312V238.971ZM167.986 246.219C167.422 246.219 166.897 246.112 166.411 245.898C165.925 245.674 165.516 245.353 165.186 244.935C164.612 244.206 164.325 243.244 164.325 242.048C164.325 240.872 164.612 239.914 165.186 239.175C165.506 238.767 165.91 238.456 166.396 238.242C166.892 238.018 167.422 237.906 167.986 237.906C168.559 237.906 169.089 238.013 169.575 238.227C170.061 238.441 170.465 238.757 170.786 239.175C171.369 239.894 171.661 240.852 171.661 242.048C171.661 243.253 171.369 244.216 170.786 244.935C170.455 245.363 170.052 245.684 169.575 245.898C169.099 246.112 168.569 246.219 167.986 246.219ZM170.115 244.425C170.543 243.871 170.756 243.078 170.756 242.048C170.756 241.027 170.543 240.24 170.115 239.685C169.881 239.374 169.575 239.136 169.196 238.971C168.827 238.806 168.423 238.723 167.986 238.723C167.558 238.723 167.154 238.806 166.775 238.971C166.406 239.136 166.109 239.374 165.886 239.685C165.448 240.249 165.229 241.037 165.229 242.048C165.229 243.069 165.448 243.861 165.886 244.425C166.109 244.736 166.406 244.979 166.775 245.154C167.154 245.319 167.558 245.402 167.986 245.402C168.413 245.402 168.817 245.319 169.196 245.154C169.575 244.979 169.881 244.736 170.115 244.425ZM180.095 245.183H180.809V247.123H179.992V246H173.634V247.123H172.817V245.183C173.722 245.183 174.271 244.328 174.465 242.617L174.99 238.125H180.095V245.183ZM179.278 238.927H175.705L175.267 242.704C175.131 243.851 174.84 244.678 174.392 245.183H179.278V238.927Z" fill="#161C23" fill-opacity="0.9"/>
<path d="M242.113 274.315C242.103 273.887 242.181 273.483 242.346 273.104C242.521 272.715 242.765 272.375 243.076 272.083C243.358 271.831 243.683 271.636 244.053 271.5C244.422 271.354 244.801 271.281 245.19 271.281C245.589 271.281 245.968 271.354 246.328 271.5C246.687 271.646 247.008 271.85 247.29 272.112C247.592 272.404 247.825 272.744 247.99 273.133C248.155 273.512 248.238 273.911 248.238 274.329C248.238 274.796 248.136 275.243 247.932 275.671C247.728 276.099 247.412 276.536 246.984 276.983L243.236 281.169H248.282V282H242.026V281.169L246.43 276.356C247.071 275.656 247.392 274.981 247.392 274.329C247.392 274.018 247.329 273.726 247.203 273.454C247.086 273.172 246.921 272.929 246.707 272.725C246.269 272.307 245.759 272.098 245.176 272.098C244.894 272.098 244.621 272.151 244.359 272.258C244.096 272.365 243.863 272.511 243.659 272.696C243.445 272.91 243.275 273.158 243.149 273.44C243.022 273.722 242.959 274.013 242.959 274.315H242.113ZM259.343 274.971H254.866V282H254.02V274.125H259.343V274.971ZM264.017 282.219C263.453 282.219 262.928 282.112 262.442 281.898C261.956 281.674 261.547 281.353 261.217 280.935C260.643 280.206 260.356 279.244 260.356 278.048C260.356 276.872 260.643 275.914 261.217 275.175C261.538 274.767 261.941 274.456 262.427 274.242C262.923 274.018 263.453 273.906 264.017 273.906C264.591 273.906 265.12 274.013 265.606 274.227C266.093 274.441 266.496 274.757 266.817 275.175C267.4 275.894 267.692 276.852 267.692 278.048C267.692 279.253 267.4 280.216 266.817 280.935C266.486 281.363 266.083 281.684 265.606 281.898C265.13 282.112 264.6 282.219 264.017 282.219ZM266.146 280.425C266.574 279.871 266.788 279.078 266.788 278.048C266.788 277.027 266.574 276.24 266.146 275.685C265.913 275.374 265.606 275.136 265.227 274.971C264.858 274.806 264.454 274.723 264.017 274.723C263.589 274.723 263.186 274.806 262.806 274.971C262.437 275.136 262.141 275.374 261.917 275.685C261.479 276.249 261.261 277.037 261.261 278.048C261.261 279.069 261.479 279.861 261.917 280.425C262.141 280.736 262.437 280.979 262.806 281.154C263.186 281.319 263.589 281.402 264.017 281.402C264.445 281.402 264.848 281.319 265.227 281.154C265.606 280.979 265.913 280.736 266.146 280.425ZM276.126 281.183H276.84V283.123H276.024V282H269.665V283.123H268.849V281.183C269.753 281.183 270.302 280.328 270.497 278.617L271.022 274.125H276.126V281.183ZM275.309 274.927H271.736L271.299 278.704C271.163 279.851 270.871 280.678 270.424 281.183H275.309V274.927Z" fill="#161C23" fill-opacity="0.9"/>
<path d="M342.455 276.269C342.795 276.57 343.048 276.944 343.213 277.392C343.388 277.839 343.476 278.315 343.476 278.821C343.466 279.394 343.354 279.919 343.14 280.396C342.936 280.872 342.63 281.261 342.221 281.562C341.677 281.981 341.001 282.199 340.194 282.219C339.407 282.219 338.726 282.015 338.153 281.606C337.608 281.198 337.224 280.658 337.001 279.987L337.803 279.725C337.978 280.25 338.264 280.658 338.663 280.95C339.081 281.242 339.587 281.387 340.18 281.387C340.792 281.368 341.298 281.208 341.696 280.906C342.289 280.459 342.586 279.764 342.586 278.821C342.586 278.422 342.518 278.048 342.382 277.698C342.255 277.348 342.056 277.056 341.784 276.823C341.356 276.453 340.817 276.269 340.165 276.269C339.961 276.269 339.747 276.298 339.523 276.356C339.3 276.405 339.091 276.478 338.896 276.575L338.444 275.89L342.178 272.317H337.423V271.5H343.359V272.346L340.048 275.51C340.505 275.481 340.943 275.53 341.361 275.656C341.779 275.783 342.144 275.987 342.455 276.269ZM354.514 274.971H350.037V282H349.191V274.125H354.514V274.971ZM359.188 282.219C358.624 282.219 358.099 282.112 357.613 281.898C357.127 281.674 356.718 281.353 356.388 280.935C355.814 280.206 355.527 279.244 355.527 278.048C355.527 276.872 355.814 275.914 356.388 275.175C356.709 274.767 357.112 274.456 357.598 274.242C358.094 274.018 358.624 273.906 359.188 273.906C359.761 273.906 360.291 274.013 360.777 274.227C361.264 274.441 361.667 274.757 361.988 275.175C362.571 275.894 362.863 276.852 362.863 278.048C362.863 279.253 362.571 280.216 361.988 280.935C361.657 281.363 361.254 281.684 360.777 281.898C360.301 282.112 359.771 282.219 359.188 282.219ZM361.317 280.425C361.745 279.871 361.959 279.078 361.959 278.048C361.959 277.027 361.745 276.24 361.317 275.685C361.084 275.374 360.777 275.136 360.398 274.971C360.029 274.806 359.625 274.723 359.188 274.723C358.76 274.723 358.357 274.806 357.977 274.971C357.608 275.136 357.311 275.374 357.088 275.685C356.65 276.249 356.432 277.037 356.432 278.048C356.432 279.069 356.65 279.861 357.088 280.425C357.311 280.736 357.608 280.979 357.977 281.154C358.357 281.319 358.76 281.402 359.188 281.402C359.616 281.402 360.019 281.319 360.398 281.154C360.777 280.979 361.084 280.736 361.317 280.425ZM371.297 281.183H372.011V283.123H371.195V282H364.836V283.123H364.02V281.183C364.924 281.183 365.473 280.328 365.668 278.617L366.193 274.125H371.297V281.183ZM370.48 274.927H366.907L366.47 278.704C366.334 279.851 366.042 280.678 365.595 281.183H370.48V274.927Z" fill="#161C23" fill-opacity="0.9"/>
<path d="M438.637 279.054V279.871H437.441V282H436.595V279.871H431.841V279.054L435.414 271.5H436.304L432.745 279.054H436.595V275.875H437.441V279.054H438.637ZM449.527 274.971H445.05V282H444.204V274.125H449.527V274.971ZM454.201 282.219C453.638 282.219 453.113 282.112 452.626 281.898C452.14 281.674 451.732 281.353 451.401 280.935C450.828 280.206 450.541 279.244 450.541 278.048C450.541 276.872 450.828 275.914 451.401 275.175C451.722 274.767 452.126 274.456 452.612 274.242C453.108 274.018 453.638 273.906 454.201 273.906C454.775 273.906 455.305 274.013 455.791 274.227C456.277 274.441 456.681 274.757 457.001 275.175C457.585 275.894 457.876 276.852 457.876 278.048C457.876 279.253 457.585 280.216 457.001 280.935C456.671 281.363 456.267 281.684 455.791 281.898C455.315 282.112 454.785 282.219 454.201 282.219ZM456.331 280.425C456.758 279.871 456.972 279.078 456.972 278.048C456.972 277.027 456.758 276.24 456.331 275.685C456.097 275.374 455.791 275.136 455.412 274.971C455.042 274.806 454.639 274.723 454.201 274.723C453.774 274.723 453.37 274.806 452.991 274.971C452.622 275.136 452.325 275.374 452.101 275.685C451.664 276.249 451.445 277.037 451.445 278.048C451.445 279.069 451.664 279.861 452.101 280.425C452.325 280.736 452.622 280.979 452.991 281.154C453.37 281.319 453.774 281.402 454.201 281.402C454.629 281.402 455.033 281.319 455.412 281.154C455.791 280.979 456.097 280.736 456.331 280.425ZM466.31 281.183H467.025V283.123H466.208V282H459.85V283.123H459.033V281.183C459.937 281.183 460.487 280.328 460.681 278.617L461.206 274.125H466.31V281.183ZM465.494 274.927H461.921L461.483 278.704C461.347 279.851 461.056 280.678 460.608 281.183H465.494V274.927Z" fill="#161C23" fill-opacity="0.9"/>
<path d="M533.344 271.5V272.317H528.59L528.356 276.123C528.658 275.841 529.008 275.622 529.406 275.467C529.805 275.301 530.223 275.219 530.661 275.219C531.098 275.219 531.516 275.297 531.915 275.452C532.313 275.608 532.668 275.826 532.979 276.108C533.349 276.439 533.631 276.828 533.825 277.275C534.029 277.722 534.131 278.199 534.131 278.704C534.131 279.171 534.039 279.618 533.854 280.046C533.679 280.474 533.431 280.848 533.111 281.169C532.79 281.499 532.411 281.757 531.973 281.942C531.545 282.126 531.088 282.219 530.602 282.219C530.155 282.219 529.727 282.141 529.319 281.985C528.911 281.82 528.541 281.587 528.211 281.285C527.715 280.799 527.379 280.235 527.204 279.594L528.006 279.375C528.133 279.89 528.405 280.333 528.823 280.702C529.066 280.916 529.338 281.081 529.64 281.198C529.951 281.315 530.272 281.373 530.602 281.373C530.962 281.373 531.302 281.305 531.623 281.169C531.954 281.033 532.24 280.848 532.483 280.615C532.736 280.362 532.931 280.075 533.067 279.754C533.213 279.424 533.286 279.074 533.286 278.704C533.286 278.315 533.203 277.946 533.038 277.596C532.882 277.246 532.663 276.944 532.381 276.692C531.856 276.244 531.263 276.021 530.602 276.021C529.97 276.021 529.411 276.22 528.925 276.619C528.663 276.842 528.454 277.09 528.298 277.362L527.481 276.896L527.802 271.5H533.344ZM545.164 274.971H540.687V282H539.841V274.125H545.164V274.971ZM549.838 282.219C549.274 282.219 548.749 282.112 548.263 281.898C547.777 281.674 547.369 281.353 547.038 280.935C546.465 280.206 546.178 279.244 546.178 278.048C546.178 276.872 546.465 275.914 547.038 275.175C547.359 274.767 547.763 274.456 548.249 274.242C548.744 274.018 549.274 273.906 549.838 273.906C550.412 273.906 550.942 274.013 551.428 274.227C551.914 274.441 552.317 274.757 552.638 275.175C553.222 275.894 553.513 276.852 553.513 278.048C553.513 279.253 553.222 280.216 552.638 280.935C552.308 281.363 551.904 281.684 551.428 281.898C550.951 282.112 550.422 282.219 549.838 282.219ZM551.967 280.425C552.395 279.871 552.609 279.078 552.609 278.048C552.609 277.027 552.395 276.24 551.967 275.685C551.734 275.374 551.428 275.136 551.049 274.971C550.679 274.806 550.276 274.723 549.838 274.723C549.41 274.723 549.007 274.806 548.628 274.971C548.258 275.136 547.962 275.374 547.738 275.685C547.301 276.249 547.082 277.037 547.082 278.048C547.082 279.069 547.301 279.861 547.738 280.425C547.962 280.736 548.258 280.979 548.628 281.154C549.007 281.319 549.41 281.402 549.838 281.402C550.266 281.402 550.669 281.319 551.049 281.154C551.428 280.979 551.734 280.736 551.967 280.425ZM561.947 281.183H562.662V283.123H561.845V282H555.487V283.123H554.67V281.183C555.574 281.183 556.123 280.328 556.318 278.617L556.843 274.125H561.947V281.183ZM561.13 274.927H557.558L557.12 278.704C556.984 279.851 556.692 280.678 556.245 281.183H561.13V274.927Z" fill="#161C23" fill-opacity="0.9"/>
<rect x="135" y="259" width="60" height="125" fill="#9DC7D5"/>
<rect width="60" height="193" transform="matrix(1 0 0 -1 230 259)" fill="#6DABBF"/>
<rect width="60" height="201" transform="matrix(1 0 0 -1 325 259)" fill="#3C8FAA"/>
<rect width="60" height="201" transform="matrix(1 0 0 -1 420 259)" fill="#0B7495"/>
<rect width="60" height="201" transform="matrix(1 0 0 -1 515 259)" fill="#0B7495"/>
</svg>
