<svg width="647" height="510" viewBox="0 0 647 510" fill="none" xmlns="http://www.w3.org/2000/svg">
<path opacity="0.7" d="M67 474L67 45" stroke="#161C23" stroke-width="0.7"/>
<path opacity="0.7" d="M62.5 49.5L67 45L71.5 49.5" stroke="#161C23" stroke-width="0.7"/>
<path opacity="0.7" d="M641 469L646 474L641 479" stroke="#161C23" stroke-width="0.7"/>
<path d="M25.0251 49.5V66H23.6959V50.9896L20.5793 52.8687V51.3562L23.6959 49.5H25.0251ZM29.1232 53.9229C29.1079 53.2507 29.2301 52.6167 29.4898 52.0208C29.7648 51.4097 30.1468 50.875 30.6357 50.4167C31.0787 50.0194 31.5905 49.7139 32.1711 49.5C32.7516 49.2708 33.3475 49.1562 33.9586 49.1562C34.585 49.1562 35.1808 49.2708 35.7461 49.5C36.3114 49.7292 36.8155 50.05 37.2586 50.4625C37.7322 50.9208 38.0989 51.4556 38.3586 52.0667C38.6183 52.6625 38.7482 53.2889 38.7482 53.9458C38.7482 54.6792 38.5878 55.3819 38.2669 56.0542C37.9461 56.7264 37.4496 57.4139 36.7773 58.1167L30.8878 64.6937H38.8169V66H28.9857V64.6937L35.9065 57.1312C36.9148 56.0312 37.419 54.9694 37.419 53.9458C37.419 53.4569 37.3197 52.9986 37.1211 52.5708C36.9378 52.1278 36.678 51.7458 36.3419 51.425C35.6544 50.7681 34.8523 50.4396 33.9357 50.4396C33.4926 50.4396 33.0648 50.5236 32.6523 50.6917C32.2398 50.8597 31.8732 51.0889 31.5523 51.3792C31.2162 51.7153 30.9489 52.1049 30.7503 52.5479C30.5516 52.991 30.4523 53.4493 30.4523 53.9229H29.1232Z" fill="#161C23" fill-opacity="0.9"/>
<path d="M24.9392 86.4091V102.909H23.61V87.8987L20.4933 89.7778V88.2653L23.61 86.4091H24.9392ZM33.8727 103.253C34.6213 103.253 35.3317 103.108 36.0039 102.817C36.6761 102.512 37.2567 102.092 37.7456 101.557C38.6317 100.549 39.0747 99.357 39.0747 97.982V91.3133C39.0747 89.8619 38.5935 88.6396 37.631 87.6466C37.1421 87.1424 36.5768 86.7528 35.9352 86.4778C35.2935 86.2028 34.606 86.0653 33.8727 86.0653C33.1393 86.0653 32.4442 86.2028 31.7872 86.4778C31.1303 86.7528 30.565 87.1424 30.0914 87.6466C29.1442 88.6702 28.6706 89.8924 28.6706 91.3133V97.982C28.6706 99.3876 29.1213 100.587 30.0227 101.58C30.4963 102.115 31.0692 102.527 31.7414 102.817C32.4136 103.108 33.124 103.253 33.8727 103.253ZM33.8727 87.3487C34.5143 87.3487 35.1178 87.5014 35.6831 87.807C36.2484 88.1126 36.7143 88.5251 37.081 89.0445C37.524 89.7167 37.7456 90.473 37.7456 91.3133V97.982C37.7456 98.8223 37.5317 99.5709 37.1039 100.228C36.7372 100.763 36.2713 101.19 35.706 101.511C35.1407 101.817 34.5296 101.962 33.8727 101.947C33.2157 101.962 32.6046 101.817 32.0393 101.511C31.474 101.19 31.0157 100.763 30.6643 100.228C30.2213 99.5862 29.9997 98.8376 29.9997 97.982V91.3133C29.9997 90.4424 30.2289 89.6862 30.6872 89.0445C31.0386 88.5251 31.497 88.1126 32.0622 87.807C32.6275 87.5014 33.231 87.3487 33.8727 87.3487Z" fill="#161C23" fill-opacity="0.9"/>
<path d="M28.9241 127.329C28.9241 126.656 29.0387 126.045 29.2678 125.495C29.5123 124.93 29.8789 124.449 30.3678 124.052C31.2081 123.333 32.3081 122.974 33.6678 122.974C35.0428 122.974 36.1505 123.333 36.9908 124.052C37.4796 124.418 37.8387 124.892 38.0678 125.472C38.3123 126.053 38.4345 126.672 38.4345 127.329C38.4345 127.924 38.3276 128.482 38.1137 129.002C37.9151 129.506 37.6171 129.941 37.2199 130.308C36.9755 130.567 36.6852 130.797 36.3491 130.995C36.8074 131.255 37.2123 131.568 37.5637 131.935C37.9915 132.363 38.3123 132.874 38.5262 133.47C38.7401 134.051 38.847 134.647 38.847 135.258C38.8317 135.961 38.7019 136.633 38.4574 137.274C38.213 137.916 37.8387 138.458 37.3345 138.902C36.8609 139.329 36.3033 139.642 35.6616 139.841C35.0199 140.055 34.3553 140.162 33.6678 140.162C32.9956 140.162 32.3387 140.055 31.697 139.841C31.0553 139.642 30.4977 139.329 30.0241 138.902C29.5199 138.443 29.138 137.893 28.8783 137.252C28.6338 136.595 28.5192 135.93 28.5345 135.258C28.5192 134.647 28.6185 134.051 28.8324 133.47C29.0463 132.874 29.3671 132.363 29.7949 131.935C30.1463 131.568 30.5512 131.255 31.0095 130.995C30.6734 130.797 30.3831 130.567 30.1387 130.308C29.7414 129.941 29.4359 129.506 29.222 129.002C29.0234 128.482 28.9241 127.924 28.9241 127.329ZM30.322 127.42C30.322 127.863 30.3984 128.276 30.5512 128.658C30.7039 129.024 30.9331 129.33 31.2387 129.574C31.5442 129.834 31.9109 130.033 32.3387 130.17C32.7665 130.308 33.2095 130.377 33.6678 130.377C34.6762 130.377 35.4935 130.109 36.1199 129.574C36.4255 129.33 36.6546 129.024 36.8074 128.658C36.9602 128.276 37.0366 127.863 37.0366 127.42C37.0366 126.381 36.7234 125.602 36.097 125.083C35.5317 124.579 34.722 124.327 33.6678 124.327C32.6289 124.327 31.8269 124.579 31.2616 125.083C30.6352 125.602 30.322 126.381 30.322 127.42ZM36.4178 137.916C36.754 137.595 37.006 137.206 37.1741 136.747C37.3421 136.289 37.4262 135.792 37.4262 135.258C37.4262 134.723 37.3421 134.227 37.1741 133.768C37.006 133.31 36.754 132.92 36.4178 132.599C36.0817 132.279 35.6769 132.042 35.2033 131.889C34.7296 131.736 34.2178 131.66 33.6678 131.66C33.1331 131.66 32.629 131.736 32.1553 131.889C31.6817 132.042 31.2769 132.279 30.9408 132.599C30.6046 132.92 30.3526 133.31 30.1845 133.768C30.0164 134.227 29.9324 134.723 29.9324 135.258C29.9324 135.792 30.0164 136.289 30.1845 136.747C30.3526 137.206 30.6046 137.595 30.9408 137.916C31.2769 138.222 31.6817 138.458 32.1553 138.627C32.6442 138.795 33.1484 138.879 33.6678 138.879C34.2026 138.879 34.7067 138.802 35.1803 138.649C35.6692 138.481 36.0817 138.237 36.4178 137.916Z" fill="#161C23" fill-opacity="0.9"/>
<path d="M36.9736 163.206C36.6069 162.595 36.1027 162.106 35.4611 161.74C34.8194 161.358 34.1243 161.167 33.3757 161.167C32.7493 161.167 32.1611 161.297 31.6111 161.556C31.0611 161.801 30.6027 162.145 30.2361 162.588C29.8694 162.985 29.5868 163.443 29.3882 163.963C29.1895 164.467 29.0902 165.002 29.0902 165.567V168.294C29.5944 167.606 30.2208 167.064 30.9694 166.667C31.718 166.27 32.5201 166.071 33.3757 166.071C34.109 166.071 34.8041 166.209 35.4611 166.484C36.118 166.759 36.7062 167.14 37.2257 167.629C37.7451 168.149 38.1423 168.745 38.4173 169.417C38.7076 170.089 38.8527 170.807 38.8527 171.571C38.8527 172.289 38.7152 172.977 38.4402 173.634C38.1652 174.275 37.7833 174.848 37.2944 175.352C36.7902 175.902 36.1868 176.33 35.484 176.636C34.7965 176.926 34.0708 177.071 33.3069 177.071C32.5125 177.071 31.7638 176.918 31.0611 176.613C30.3583 176.292 29.7472 175.849 29.2277 175.284C28.25 174.245 27.7611 172.946 27.7611 171.388V165.567C27.7611 164.757 27.8986 164.009 28.1736 163.321C28.4638 162.618 28.8763 162.007 29.4111 161.488C29.9305 160.968 30.5263 160.571 31.1986 160.296C31.8861 160.021 32.6118 159.884 33.3757 159.884C34.3382 159.884 35.2243 160.113 36.034 160.571C36.859 161.014 37.5236 161.633 38.0277 162.427L36.9736 163.206ZM33.3527 175.65C33.9944 175.65 34.5902 175.513 35.1402 175.238C35.6902 174.963 36.1486 174.581 36.5152 174.092C36.7902 173.74 37.0041 173.351 37.1569 172.923C37.325 172.48 37.409 172.037 37.409 171.594C37.409 170.952 37.2791 170.356 37.0194 169.806C36.7597 169.256 36.4007 168.79 35.9423 168.409C35.1937 167.782 34.3076 167.469 33.284 167.469C32.6576 167.469 32.0694 167.606 31.5194 167.881C30.9694 168.141 30.5034 168.5 30.1215 168.959C29.5104 169.692 29.2048 170.547 29.2048 171.525C29.2048 172.106 29.3194 172.656 29.5486 173.175C29.793 173.695 30.1138 174.153 30.5111 174.55C30.8777 174.902 31.3055 175.177 31.7944 175.375C32.2833 175.559 32.8027 175.65 33.3527 175.65Z" fill="#161C23" fill-opacity="0.9"/>
<path d="M39.0848 209.007V210.291H37.2056V213.636H35.8764V210.291H28.4056V209.007L34.0202 197.136H35.4181L29.8264 209.007H35.8764V204.011H37.2056V209.007H39.0848Z" fill="#161C23" fill-opacity="0.9"/>
<path d="M29.1232 237.468C29.1079 236.796 29.2301 236.162 29.4898 235.566C29.7648 234.955 30.1468 234.42 30.6357 233.962C31.0787 233.565 31.5905 233.259 32.1711 233.045C32.7516 232.816 33.3475 232.702 33.9586 232.702C34.585 232.702 35.1808 232.816 35.7461 233.045C36.3114 233.275 36.8155 233.595 37.2586 234.008C37.7322 234.466 38.0989 235.001 38.3586 235.612C38.6183 236.208 38.7482 236.834 38.7482 237.491C38.7482 238.225 38.5878 238.927 38.2669 239.6C37.9461 240.272 37.4496 240.959 36.7773 241.662L30.8878 248.239H38.8169V249.545H28.9857V248.239L35.9065 240.677C36.9148 239.577 37.419 238.515 37.419 237.491C37.419 237.002 37.3197 236.544 37.1211 236.116C36.9378 235.673 36.678 235.291 36.3419 234.97C35.6544 234.314 34.8523 233.985 33.9357 233.985C33.4926 233.985 33.0648 234.069 32.6523 234.237C32.2398 234.405 31.8732 234.634 31.5523 234.925C31.2162 235.261 30.9489 235.65 30.7503 236.093C30.5516 236.536 30.4523 236.995 30.4523 237.468H29.1232Z" fill="#161C23" fill-opacity="0.9"/>
<path d="M33.8727 286.798C34.6213 286.798 35.3317 286.653 36.0039 286.363C36.6761 286.057 37.2567 285.637 37.7456 285.102C38.6317 284.094 39.0747 282.902 39.0747 281.527V274.859C39.0747 273.407 38.5935 272.185 37.631 271.192C37.1421 270.688 36.5768 270.298 35.9352 270.023C35.2935 269.748 34.606 269.611 33.8727 269.611C33.1393 269.611 32.4442 269.748 31.7872 270.023C31.1303 270.298 30.565 270.688 30.0914 271.192C29.1442 272.216 28.6706 273.438 28.6706 274.859V281.527C28.6706 282.933 29.1213 284.132 30.0227 285.125C30.4963 285.66 31.0692 286.073 31.7414 286.363C32.4136 286.653 33.124 286.798 33.8727 286.798ZM33.8727 270.894C34.5143 270.894 35.1178 271.047 35.6831 271.352C36.2484 271.658 36.7143 272.071 37.081 272.59C37.524 273.262 37.7456 274.018 37.7456 274.859V281.527C37.7456 282.368 37.5317 283.116 37.1039 283.773C36.7372 284.308 36.2713 284.736 35.706 285.057C35.1407 285.362 34.5296 285.507 33.8727 285.492C33.2157 285.507 32.6046 285.362 32.0393 285.057C31.474 284.736 31.0157 284.308 30.6643 283.773C30.2213 283.132 29.9997 282.383 29.9997 281.527V274.859C29.9997 273.988 30.2289 273.232 30.6872 272.59C31.0386 272.071 31.497 271.658 32.0622 271.352C32.6275 271.047 33.231 270.894 33.8727 270.894Z" fill="#161C23" fill-opacity="0.9"/>
<path d="M26.0248 316.351V317.543H19.1498V316.351H26.0248ZM29.1232 311.287C29.1079 310.614 29.2301 309.98 29.4898 309.384C29.7648 308.773 30.1468 308.239 30.6357 307.78C31.0787 307.383 31.5905 307.078 32.1711 306.864C32.7516 306.634 33.3475 306.52 33.9586 306.52C34.585 306.52 35.1808 306.634 35.7461 306.864C36.3114 307.093 36.8155 307.414 37.2586 307.826C37.7322 308.284 38.0989 308.819 38.3586 309.43C38.6183 310.026 38.7482 310.653 38.7482 311.309C38.7482 312.043 38.5878 312.746 38.2669 313.418C37.9461 314.09 37.4496 314.778 36.7773 315.48L30.8878 322.057H38.8169V323.364H28.9857V322.057L35.9065 314.495C36.9148 313.395 37.419 312.333 37.419 311.309C37.419 310.821 37.3197 310.362 37.1211 309.934C36.9378 309.491 36.678 309.109 36.3419 308.789C35.6544 308.132 34.8523 307.803 33.9357 307.803C33.4926 307.803 33.0648 307.887 32.6523 308.055C32.2398 308.223 31.8732 308.453 31.5523 308.743C31.2162 309.079 30.9489 309.469 30.7503 309.912C30.5516 310.355 30.4523 310.813 30.4523 311.287H29.1232Z" fill="#161C23" fill-opacity="0.9"/>
<path d="M24.7573 353.26V354.452H17.8823V353.26H24.7573ZM39.0848 355.644V356.927H37.2056V360.273H35.8764V356.927H28.4056V355.644L34.0202 343.773H35.4181L29.8264 355.644H35.8764V350.648H37.2056V355.644H39.0848Z" fill="#161C23" fill-opacity="0.9"/>
<path d="M24.8002 390.169V391.361H17.9252V390.169H24.8002ZM36.9736 383.661C36.6069 383.05 36.1027 382.561 35.4611 382.194C34.8194 381.812 34.1243 381.621 33.3757 381.621C32.7493 381.621 32.1611 381.751 31.6111 382.011C31.0611 382.255 30.6027 382.599 30.2361 383.042C29.8694 383.439 29.5868 383.898 29.3882 384.417C29.1895 384.921 29.0902 385.456 29.0902 386.021V388.748C29.5944 388.061 30.2208 387.519 30.9694 387.121C31.718 386.724 32.5201 386.526 33.3757 386.526C34.109 386.526 34.8041 386.663 35.4611 386.938C36.118 387.213 36.7062 387.595 37.2257 388.084C37.7451 388.603 38.1423 389.199 38.4173 389.871C38.7076 390.544 38.8527 391.262 38.8527 392.026C38.8527 392.744 38.7152 393.431 38.4402 394.088C38.1652 394.73 37.7833 395.303 37.2944 395.807C36.7902 396.357 36.1868 396.785 35.484 397.09C34.7965 397.38 34.0708 397.526 33.3069 397.526C32.5125 397.526 31.7638 397.373 31.0611 397.067C30.3583 396.746 29.7472 396.303 29.2277 395.738C28.25 394.699 27.7611 393.401 27.7611 391.842V386.021C27.7611 385.212 27.8986 384.463 28.1736 383.776C28.4638 383.073 28.8763 382.462 29.4111 381.942C29.9305 381.423 30.5263 381.026 31.1986 380.751C31.8861 380.476 32.6118 380.338 33.3757 380.338C34.3382 380.338 35.2243 380.567 36.034 381.026C36.859 381.469 37.5236 382.087 38.0277 382.882L36.9736 383.661ZM33.3527 396.105C33.9944 396.105 34.5902 395.967 35.1402 395.692C35.6902 395.417 36.1486 395.035 36.5152 394.546C36.7902 394.195 37.0041 393.805 37.1569 393.378C37.325 392.935 37.409 392.492 37.409 392.048C37.409 391.407 37.2791 390.811 37.0194 390.261C36.7597 389.711 36.4007 389.245 35.9423 388.863C35.1937 388.237 34.3076 387.923 33.284 387.923C32.6576 387.923 32.0694 388.061 31.5194 388.336C30.9694 388.596 30.5034 388.955 30.1215 389.413C29.5104 390.146 29.2048 391.002 29.2048 391.98C29.2048 392.56 29.3194 393.11 29.5486 393.63C29.793 394.149 30.1138 394.608 30.5111 395.005C30.8777 395.356 31.3055 395.631 31.7944 395.83C32.2833 396.013 32.8027 396.105 33.3527 396.105Z" fill="#161C23" fill-opacity="0.9"/>
<path d="M25.5737 427.078V428.27H18.6987V427.078H25.5737ZM28.9241 421.601C28.9241 420.929 29.0387 420.318 29.2678 419.768C29.5123 419.203 29.8789 418.721 30.3678 418.324C31.2081 417.606 32.3081 417.247 33.6678 417.247C35.0428 417.247 36.1505 417.606 36.9908 418.324C37.4796 418.691 37.8387 419.165 38.0678 419.745C38.3123 420.326 38.4345 420.944 38.4345 421.601C38.4345 422.197 38.3276 422.755 38.1137 423.274C37.9151 423.778 37.6171 424.214 37.2199 424.58C36.9755 424.84 36.6852 425.069 36.3491 425.268C36.8074 425.528 37.2123 425.841 37.5637 426.208C37.9915 426.635 38.3123 427.147 38.5262 427.743C38.7401 428.324 38.847 428.919 38.847 429.53C38.8317 430.233 38.7019 430.905 38.4574 431.547C38.213 432.189 37.8387 432.731 37.3345 433.174C36.8609 433.602 36.3033 433.915 35.6616 434.114C35.0199 434.328 34.3553 434.435 33.6678 434.435C32.9956 434.435 32.3387 434.328 31.697 434.114C31.0553 433.915 30.4977 433.602 30.0241 433.174C29.5199 432.716 29.138 432.166 28.8783 431.524C28.6338 430.867 28.5192 430.203 28.5345 429.53C28.5192 428.919 28.6185 428.324 28.8324 427.743C29.0463 427.147 29.3671 426.635 29.7949 426.208C30.1463 425.841 30.5512 425.528 31.0095 425.268C30.6734 425.069 30.3831 424.84 30.1387 424.58C29.7414 424.214 29.4359 423.778 29.222 423.274C29.0234 422.755 28.9241 422.197 28.9241 421.601ZM30.322 421.693C30.322 422.136 30.3984 422.549 30.5512 422.93C30.7039 423.297 30.9331 423.603 31.2387 423.847C31.5442 424.107 31.9109 424.305 32.3387 424.443C32.7665 424.58 33.2095 424.649 33.6678 424.649C34.6762 424.649 35.4935 424.382 36.1199 423.847C36.4255 423.603 36.6546 423.297 36.8074 422.93C36.9602 422.549 37.0366 422.136 37.0366 421.693C37.0366 420.654 36.7234 419.875 36.097 419.355C35.5317 418.851 34.722 418.599 33.6678 418.599C32.6289 418.599 31.8269 418.851 31.2616 419.355C30.6352 419.875 30.322 420.654 30.322 421.693ZM36.4178 432.189C36.754 431.868 37.006 431.478 37.1741 431.02C37.3421 430.562 37.4262 430.065 37.4262 429.53C37.4262 428.996 37.3421 428.499 37.1741 428.041C37.006 427.583 36.754 427.193 36.4178 426.872C36.0817 426.551 35.6769 426.315 35.2033 426.162C34.7296 426.009 34.2178 425.933 33.6678 425.933C33.1331 425.933 32.629 426.009 32.1553 426.162C31.6817 426.315 31.2769 426.551 30.9408 426.872C30.6046 427.193 30.3526 427.583 30.1845 428.041C30.0164 428.499 29.9324 428.996 29.9324 429.53C29.9324 430.065 30.0164 430.562 30.1845 431.02C30.3526 431.478 30.6046 431.868 30.9408 432.189C31.2769 432.494 31.6817 432.731 32.1553 432.899C32.6442 433.067 33.1484 433.151 33.6678 433.151C34.2026 433.151 34.7067 433.075 35.1803 432.922C35.6692 432.754 36.0817 432.51 36.4178 432.189Z" fill="#161C23" fill-opacity="0.9"/>
<path d="M18.1513 463.987V465.179H11.2763V463.987H18.1513ZM24.9392 454.5V471H23.61V455.99L20.4933 457.869V456.356L23.61 454.5H24.9392ZM33.8727 471.344C34.6213 471.344 35.3317 471.199 36.0039 470.908C36.6761 470.603 37.2567 470.183 37.7456 469.648C38.6317 468.64 39.0747 467.448 39.0747 466.073V459.404C39.0747 457.953 38.5935 456.731 37.631 455.737C37.1421 455.233 36.5768 454.844 35.9352 454.569C35.2935 454.294 34.606 454.156 33.8727 454.156C33.1393 454.156 32.4442 454.294 31.7872 454.569C31.1303 454.844 30.565 455.233 30.0914 455.737C29.1442 456.761 28.6706 457.983 28.6706 459.404V466.073C28.6706 467.478 29.1213 468.678 30.0227 469.671C30.4963 470.206 31.0692 470.618 31.7414 470.908C32.4136 471.199 33.124 471.344 33.8727 471.344ZM33.8727 455.44C34.5143 455.44 35.1178 455.592 35.6831 455.898C36.2484 456.203 36.7143 456.616 37.081 457.135C37.524 457.808 37.7456 458.564 37.7456 459.404V466.073C37.7456 466.913 37.5317 467.662 37.1039 468.319C36.7372 468.853 36.2713 469.281 35.706 469.602C35.1407 469.908 34.5296 470.053 33.8727 470.037C33.2157 470.053 32.6046 469.908 32.0393 469.602C31.474 469.281 31.0157 468.853 30.6643 468.319C30.2213 467.677 29.9997 466.928 29.9997 466.073V459.404C29.9997 458.533 30.2289 457.777 30.6872 457.135C31.0386 456.616 31.497 456.203 32.0622 455.898C32.6275 455.592 33.231 455.44 33.8727 455.44Z" fill="#161C23" fill-opacity="0.9"/>
<path d="M56.4188 9.875L56.4375 20H55.35V12.35L51.8438 18.65H50.9063L47.4188 12.35V20H46.3125V9.875H47.3625L51.375 17.1125L55.4063 9.875H56.4188ZM67.1041 9.875V20H66.0354V10.9062H61.9104L61.2541 16.2687C61.1666 17.0687 61.0416 17.7375 60.8791 18.275C60.7166 18.8 60.4479 19.225 60.0729 19.55C59.6979 19.875 59.1666 20.025 58.4791 20V18.9687C58.9166 18.9687 59.2479 18.8625 59.4729 18.65C59.6979 18.4375 59.8604 18.1437 59.9604 17.7687C60.0604 17.3812 60.1541 16.8187 60.2416 16.0812L60.9729 9.875H67.1041ZM78.3638 9.875V20H77.2762V15.0687H71.1825V20H70.095V9.875H71.1825V14H77.2762V9.875H78.3638ZM94.6779 7.7375C95.0529 8.1125 95.3466 8.55625 95.5591 9.06875C95.7716 9.56875 95.8841 10.0875 95.8966 10.625C95.8966 11.1125 95.8029 11.5937 95.6154 12.0687C95.4279 12.5312 95.1716 12.95 94.8466 13.325C94.4841 13.7625 94.0216 14.1062 93.4591 14.3562C92.9091 14.6062 92.3404 14.7312 91.7529 14.7312H87.3654V20H86.2779V6.5H91.7529C92.2279 6.5 92.7091 6.5875 93.1966 6.7625C93.7716 6.975 94.2654 7.3 94.6779 7.7375ZM94.0404 12.575C94.2654 12.3 94.4404 12 94.5654 11.675C94.6904 11.35 94.7529 11.025 94.7529 10.7C94.7529 10.2625 94.6716 9.85 94.5091 9.4625C94.3591 9.075 94.1404 8.7375 93.8529 8.45C93.5779 8.175 93.2529 7.95625 92.8779 7.79375C92.5029 7.63125 92.1279 7.55 91.7529 7.55H87.3654V13.6812H91.7529C92.1779 13.6812 92.5904 13.5812 92.9904 13.3812C93.4029 13.1812 93.7529 12.9125 94.0404 12.575Z" fill="#161C23" fill-opacity="0.9"/>
<path d="M347.156 494.962H341.4V504H340.313V493.875H347.156V494.962ZM353.166 504.281C352.441 504.281 351.766 504.144 351.141 503.869C350.516 503.581 349.991 503.169 349.566 502.631C348.828 501.694 348.46 500.456 348.46 498.919C348.46 497.406 348.828 496.175 349.566 495.225C349.978 494.7 350.497 494.3 351.122 494.025C351.76 493.737 352.441 493.594 353.166 493.594C353.903 493.594 354.585 493.731 355.21 494.006C355.835 494.281 356.353 494.687 356.766 495.225C357.516 496.15 357.891 497.381 357.891 498.919C357.891 500.469 357.516 501.706 356.766 502.631C356.341 503.181 355.822 503.594 355.21 503.869C354.597 504.144 353.916 504.281 353.166 504.281ZM355.903 501.975C356.453 501.262 356.728 500.244 356.728 498.919C356.728 497.606 356.453 496.594 355.903 495.881C355.603 495.481 355.21 495.175 354.722 494.962C354.247 494.75 353.728 494.644 353.166 494.644C352.616 494.644 352.097 494.75 351.61 494.962C351.135 495.175 350.753 495.481 350.466 495.881C349.903 496.606 349.622 497.619 349.622 498.919C349.622 500.231 349.903 501.25 350.466 501.975C350.753 502.375 351.135 502.687 351.61 502.912C352.097 503.125 352.616 503.231 353.166 503.231C353.716 503.231 354.235 503.125 354.722 502.912C355.21 502.687 355.603 502.375 355.903 501.975ZM368.734 502.95H369.653V505.444H368.603V504H360.428V505.444H359.378V502.95C360.541 502.95 361.247 501.85 361.497 499.65L362.172 493.875H368.734V502.95ZM367.684 494.906H363.091L362.528 499.762C362.353 501.237 361.978 502.3 361.403 502.95H367.684V494.906Z" fill="#161C23" fill-opacity="0.9"/>
<path d="M151.492 252.5V263H150.646V253.448L148.663 254.644V253.681L150.646 252.5H151.492ZM163.312 255.971H158.834V263H157.989V255.125H163.312V255.971ZM167.986 263.219C167.422 263.219 166.897 263.112 166.411 262.898C165.925 262.674 165.516 262.353 165.186 261.935C164.612 261.206 164.325 260.244 164.325 259.048C164.325 257.872 164.612 256.914 165.186 256.175C165.506 255.767 165.91 255.456 166.396 255.242C166.892 255.018 167.422 254.906 167.986 254.906C168.559 254.906 169.089 255.013 169.575 255.227C170.061 255.441 170.465 255.757 170.786 256.175C171.369 256.894 171.661 257.852 171.661 259.048C171.661 260.253 171.369 261.216 170.786 261.935C170.455 262.363 170.052 262.684 169.575 262.898C169.099 263.112 168.569 263.219 167.986 263.219ZM170.115 261.425C170.543 260.871 170.756 260.078 170.756 259.048C170.756 258.027 170.543 257.24 170.115 256.685C169.881 256.374 169.575 256.136 169.196 255.971C168.827 255.806 168.423 255.723 167.986 255.723C167.558 255.723 167.154 255.806 166.775 255.971C166.406 256.136 166.109 256.374 165.886 256.685C165.448 257.249 165.229 258.037 165.229 259.048C165.229 260.069 165.448 260.861 165.886 261.425C166.109 261.736 166.406 261.979 166.775 262.154C167.154 262.319 167.558 262.402 167.986 262.402C168.413 262.402 168.817 262.319 169.196 262.154C169.575 261.979 169.881 261.736 170.115 261.425ZM180.095 262.183H180.809V264.123H179.992V263H173.634V264.123H172.817V262.183C173.722 262.183 174.271 261.328 174.465 259.617L174.99 255.125H180.095V262.183ZM179.278 255.927H175.705L175.267 259.704C175.131 260.851 174.84 261.678 174.392 262.183H179.278V255.927Z" fill="#161C23" fill-opacity="0.9"/>
<path d="M242.113 292.315C242.103 291.887 242.181 291.483 242.346 291.104C242.521 290.715 242.765 290.375 243.076 290.083C243.358 289.831 243.683 289.636 244.053 289.5C244.422 289.354 244.801 289.281 245.19 289.281C245.589 289.281 245.968 289.354 246.328 289.5C246.687 289.646 247.008 289.85 247.29 290.112C247.592 290.404 247.825 290.744 247.99 291.133C248.155 291.512 248.238 291.911 248.238 292.329C248.238 292.796 248.136 293.243 247.932 293.671C247.728 294.099 247.412 294.536 246.984 294.983L243.236 299.169H248.282V300H242.026V299.169L246.43 294.356C247.071 293.656 247.392 292.981 247.392 292.329C247.392 292.018 247.329 291.726 247.203 291.454C247.086 291.172 246.921 290.929 246.707 290.725C246.269 290.307 245.759 290.098 245.176 290.098C244.894 290.098 244.621 290.151 244.359 290.258C244.096 290.365 243.863 290.511 243.659 290.696C243.445 290.91 243.275 291.158 243.149 291.44C243.022 291.722 242.959 292.013 242.959 292.315H242.113ZM259.343 292.971H254.866V300H254.02V292.125H259.343V292.971ZM264.017 300.219C263.453 300.219 262.928 300.112 262.442 299.898C261.956 299.674 261.547 299.353 261.217 298.935C260.643 298.206 260.356 297.244 260.356 296.048C260.356 294.872 260.643 293.914 261.217 293.175C261.538 292.767 261.941 292.456 262.427 292.242C262.923 292.018 263.453 291.906 264.017 291.906C264.591 291.906 265.12 292.013 265.606 292.227C266.093 292.441 266.496 292.757 266.817 293.175C267.4 293.894 267.692 294.852 267.692 296.048C267.692 297.253 267.4 298.216 266.817 298.935C266.486 299.363 266.083 299.684 265.606 299.898C265.13 300.112 264.6 300.219 264.017 300.219ZM266.146 298.425C266.574 297.871 266.788 297.078 266.788 296.048C266.788 295.027 266.574 294.24 266.146 293.685C265.913 293.374 265.606 293.136 265.227 292.971C264.858 292.806 264.454 292.723 264.017 292.723C263.589 292.723 263.186 292.806 262.806 292.971C262.437 293.136 262.141 293.374 261.917 293.685C261.479 294.249 261.261 295.037 261.261 296.048C261.261 297.069 261.479 297.861 261.917 298.425C262.141 298.736 262.437 298.979 262.806 299.154C263.186 299.319 263.589 299.402 264.017 299.402C264.445 299.402 264.848 299.319 265.227 299.154C265.606 298.979 265.913 298.736 266.146 298.425ZM276.126 299.183H276.84V301.123H276.024V300H269.665V301.123H268.849V299.183C269.753 299.183 270.302 298.328 270.497 296.617L271.022 292.125H276.126V299.183ZM275.309 292.927H271.736L271.299 296.704C271.163 297.851 270.871 298.678 270.424 299.183H275.309V292.927Z" fill="#161C23" fill-opacity="0.9"/>
<path d="M342.455 294.269C342.795 294.57 343.048 294.944 343.213 295.392C343.388 295.839 343.476 296.315 343.476 296.821C343.466 297.394 343.354 297.919 343.14 298.396C342.936 298.872 342.63 299.261 342.221 299.562C341.677 299.981 341.001 300.199 340.194 300.219C339.407 300.219 338.726 300.015 338.153 299.606C337.608 299.198 337.224 298.658 337.001 297.987L337.803 297.725C337.978 298.25 338.264 298.658 338.663 298.95C339.081 299.242 339.587 299.387 340.18 299.387C340.792 299.368 341.298 299.208 341.696 298.906C342.289 298.459 342.586 297.764 342.586 296.821C342.586 296.422 342.518 296.048 342.382 295.698C342.255 295.348 342.056 295.056 341.784 294.823C341.356 294.453 340.817 294.269 340.165 294.269C339.961 294.269 339.747 294.298 339.523 294.356C339.3 294.405 339.091 294.478 338.896 294.575L338.444 293.89L342.178 290.317H337.423V289.5H343.359V290.346L340.048 293.51C340.505 293.481 340.943 293.53 341.361 293.656C341.779 293.783 342.144 293.987 342.455 294.269ZM354.514 292.971H350.037V300H349.191V292.125H354.514V292.971ZM359.188 300.219C358.624 300.219 358.099 300.112 357.613 299.898C357.127 299.674 356.718 299.353 356.388 298.935C355.814 298.206 355.527 297.244 355.527 296.048C355.527 294.872 355.814 293.914 356.388 293.175C356.709 292.767 357.112 292.456 357.598 292.242C358.094 292.018 358.624 291.906 359.188 291.906C359.761 291.906 360.291 292.013 360.777 292.227C361.264 292.441 361.667 292.757 361.988 293.175C362.571 293.894 362.863 294.852 362.863 296.048C362.863 297.253 362.571 298.216 361.988 298.935C361.657 299.363 361.254 299.684 360.777 299.898C360.301 300.112 359.771 300.219 359.188 300.219ZM361.317 298.425C361.745 297.871 361.959 297.078 361.959 296.048C361.959 295.027 361.745 294.24 361.317 293.685C361.084 293.374 360.777 293.136 360.398 292.971C360.029 292.806 359.625 292.723 359.188 292.723C358.76 292.723 358.357 292.806 357.977 292.971C357.608 293.136 357.311 293.374 357.088 293.685C356.65 294.249 356.432 295.037 356.432 296.048C356.432 297.069 356.65 297.861 357.088 298.425C357.311 298.736 357.608 298.979 357.977 299.154C358.357 299.319 358.76 299.402 359.188 299.402C359.616 299.402 360.019 299.319 360.398 299.154C360.777 298.979 361.084 298.736 361.317 298.425ZM371.297 299.183H372.011V301.123H371.195V300H364.836V301.123H364.02V299.183C364.924 299.183 365.473 298.328 365.668 296.617L366.193 292.125H371.297V299.183ZM370.48 292.927H366.907L366.47 296.704C366.334 297.851 366.042 298.678 365.595 299.183H370.48V292.927Z" fill="#161C23" fill-opacity="0.9"/>
<path d="M438.637 297.054V297.871H437.441V300H436.595V297.871H431.841V297.054L435.414 289.5H436.304L432.745 297.054H436.595V293.875H437.441V297.054H438.637ZM449.527 292.971H445.05V300H444.204V292.125H449.527V292.971ZM454.201 300.219C453.638 300.219 453.113 300.112 452.626 299.898C452.14 299.674 451.732 299.353 451.401 298.935C450.828 298.206 450.541 297.244 450.541 296.048C450.541 294.872 450.828 293.914 451.401 293.175C451.722 292.767 452.126 292.456 452.612 292.242C453.108 292.018 453.638 291.906 454.201 291.906C454.775 291.906 455.305 292.013 455.791 292.227C456.277 292.441 456.681 292.757 457.001 293.175C457.585 293.894 457.876 294.852 457.876 296.048C457.876 297.253 457.585 298.216 457.001 298.935C456.671 299.363 456.267 299.684 455.791 299.898C455.315 300.112 454.785 300.219 454.201 300.219ZM456.331 298.425C456.758 297.871 456.972 297.078 456.972 296.048C456.972 295.027 456.758 294.24 456.331 293.685C456.097 293.374 455.791 293.136 455.412 292.971C455.042 292.806 454.639 292.723 454.201 292.723C453.774 292.723 453.37 292.806 452.991 292.971C452.622 293.136 452.325 293.374 452.101 293.685C451.664 294.249 451.445 295.037 451.445 296.048C451.445 297.069 451.664 297.861 452.101 298.425C452.325 298.736 452.622 298.979 452.991 299.154C453.37 299.319 453.774 299.402 454.201 299.402C454.629 299.402 455.033 299.319 455.412 299.154C455.791 298.979 456.097 298.736 456.331 298.425ZM466.31 299.183H467.025V301.123H466.208V300H459.85V301.123H459.033V299.183C459.937 299.183 460.487 298.328 460.681 296.617L461.206 292.125H466.31V299.183ZM465.494 292.927H461.921L461.483 296.704C461.347 297.851 461.056 298.678 460.608 299.183H465.494V292.927Z" fill="#161C23" fill-opacity="0.9"/>
<path d="M533.344 289.5V290.317H528.59L528.356 294.123C528.658 293.841 529.008 293.622 529.406 293.467C529.805 293.301 530.223 293.219 530.661 293.219C531.098 293.219 531.516 293.297 531.915 293.452C532.313 293.608 532.668 293.826 532.979 294.108C533.349 294.439 533.631 294.828 533.825 295.275C534.029 295.722 534.131 296.199 534.131 296.704C534.131 297.171 534.039 297.618 533.854 298.046C533.679 298.474 533.431 298.848 533.111 299.169C532.79 299.499 532.411 299.757 531.973 299.942C531.545 300.126 531.088 300.219 530.602 300.219C530.155 300.219 529.727 300.141 529.319 299.985C528.911 299.82 528.541 299.587 528.211 299.285C527.715 298.799 527.379 298.235 527.204 297.594L528.006 297.375C528.133 297.89 528.405 298.333 528.823 298.702C529.066 298.916 529.338 299.081 529.64 299.198C529.951 299.315 530.272 299.373 530.602 299.373C530.962 299.373 531.302 299.305 531.623 299.169C531.954 299.033 532.24 298.848 532.483 298.615C532.736 298.362 532.931 298.075 533.067 297.754C533.213 297.424 533.286 297.074 533.286 296.704C533.286 296.315 533.203 295.946 533.038 295.596C532.882 295.246 532.663 294.944 532.381 294.692C531.856 294.244 531.263 294.021 530.602 294.021C529.97 294.021 529.411 294.22 528.925 294.619C528.663 294.842 528.454 295.09 528.298 295.362L527.481 294.896L527.802 289.5H533.344ZM545.164 292.971H540.687V300H539.841V292.125H545.164V292.971ZM549.838 300.219C549.274 300.219 548.749 300.112 548.263 299.898C547.777 299.674 547.369 299.353 547.038 298.935C546.465 298.206 546.178 297.244 546.178 296.048C546.178 294.872 546.465 293.914 547.038 293.175C547.359 292.767 547.763 292.456 548.249 292.242C548.744 292.018 549.274 291.906 549.838 291.906C550.412 291.906 550.942 292.013 551.428 292.227C551.914 292.441 552.317 292.757 552.638 293.175C553.222 293.894 553.513 294.852 553.513 296.048C553.513 297.253 553.222 298.216 552.638 298.935C552.308 299.363 551.904 299.684 551.428 299.898C550.951 300.112 550.422 300.219 549.838 300.219ZM551.967 298.425C552.395 297.871 552.609 297.078 552.609 296.048C552.609 295.027 552.395 294.24 551.967 293.685C551.734 293.374 551.428 293.136 551.049 292.971C550.679 292.806 550.276 292.723 549.838 292.723C549.41 292.723 549.007 292.806 548.628 292.971C548.258 293.136 547.962 293.374 547.738 293.685C547.301 294.249 547.082 295.037 547.082 296.048C547.082 297.069 547.301 297.861 547.738 298.425C547.962 298.736 548.258 298.979 548.628 299.154C549.007 299.319 549.41 299.402 549.838 299.402C550.266 299.402 550.669 299.319 551.049 299.154C551.428 298.979 551.734 298.736 551.967 298.425ZM561.947 299.183H562.662V301.123H561.845V300H555.487V301.123H554.67V299.183C555.574 299.183 556.123 298.328 556.318 296.617L556.843 292.125H561.947V299.183ZM561.13 292.927H557.558L557.12 296.704C556.984 297.851 556.692 298.678 556.245 299.183H561.13V292.927Z" fill="#161C23" fill-opacity="0.9"/>
<path opacity="0.8" d="M155.562 451.146V453.021H161.812V451.146H155.562ZM164.878 446.896C164.899 447.583 165.066 448.312 165.483 448.958C165.691 449.333 165.962 449.646 166.274 449.937C165.795 450.333 165.378 450.833 165.108 451.354C164.67 452.062 164.503 452.875 164.503 453.604C164.503 454.937 165.045 456.292 166.087 457.146C167.003 457.937 168.316 458.312 169.566 458.312C170.795 458.312 172.108 457.979 173.066 457.146C174.128 456.271 174.608 454.979 174.649 453.604C174.628 452.875 174.483 452.062 174.045 451.354C173.774 450.833 173.358 450.333 172.878 449.937C173.191 449.646 173.462 449.333 173.649 448.958C174.087 448.312 174.253 447.583 174.253 446.896C174.253 445.625 173.733 444.396 172.712 443.625C171.858 442.958 170.712 442.687 169.566 442.687C168.483 442.687 167.337 442.937 166.441 443.625C165.399 444.417 164.941 445.542 164.878 446.896ZM167.378 446.896C167.378 446.292 167.545 445.771 167.983 445.417C168.378 445.062 168.983 444.917 169.566 444.896C170.17 444.917 170.774 445.062 171.17 445.417C171.587 445.771 171.774 446.292 171.774 446.896C171.795 447.479 171.587 448.021 171.191 448.375C170.774 448.729 170.17 448.875 169.566 448.875C168.983 448.875 168.378 448.729 167.962 448.375C167.545 448.021 167.358 447.479 167.378 446.896ZM171.462 455.437C171.003 455.875 170.295 456.083 169.566 456.083C168.858 456.083 168.149 455.875 167.67 455.437C167.191 454.979 166.983 454.312 166.983 453.604C166.983 452.896 167.191 452.208 167.67 451.771C168.149 451.312 168.858 451.104 169.566 451.104C170.295 451.104 171.003 451.312 171.462 451.771C171.962 452.208 172.17 452.896 172.17 453.604C172.17 454.312 171.962 454.979 171.462 455.437Z" fill="#161C23" fill-opacity="0.9"/>
<path opacity="0.8" d="M253.598 27L250.785 28.6875V31.2917L253.598 29.5625V42H255.993V27H253.598ZM259.921 31.5H262.317C262.317 30.7708 262.629 30.0833 263.129 29.6042C263.587 29.1667 264.212 28.8958 264.879 28.8958C265.65 28.8958 266.337 29.2083 266.837 29.7708C267.254 30.25 267.483 30.875 267.483 31.5208C267.483 32.25 267.129 33.0625 266.171 33.9375L259.837 39.7708V41.9792H269.692V39.7708H263.504L267.442 35.9792C269.025 34.5 269.9 33.4375 269.9 31.5417C269.9 30.3333 269.462 29.1458 268.65 28.25C267.775 27.1875 266.421 26.6875 265.004 26.6875C263.775 26.6875 262.462 27.0208 261.525 27.8542C260.525 28.75 259.879 30.1042 259.921 31.5Z" fill="#161C23" fill-opacity="0.9"/>
<path opacity="0.8" d="M347.598 27L344.785 28.6875V31.2917L347.598 29.5625V42H349.993V27H347.598ZM353.921 31.5H356.317C356.317 30.7708 356.629 30.0833 357.129 29.6042C357.587 29.1667 358.212 28.8958 358.879 28.8958C359.65 28.8958 360.337 29.2083 360.837 29.7708C361.254 30.25 361.483 30.875 361.483 31.5208C361.483 32.25 361.129 33.0625 360.171 33.9375L353.837 39.7708V41.9792H363.692V39.7708H357.504L361.442 35.9792C363.025 34.5 363.9 33.4375 363.9 31.5417C363.9 30.3333 363.462 29.1458 362.65 28.25C361.775 27.1875 360.421 26.6875 359.004 26.6875C357.775 26.6875 356.462 27.0208 355.525 27.8542C354.525 28.75 353.879 30.1042 353.921 31.5Z" fill="#161C23" fill-opacity="0.9"/>
<path opacity="0.8" d="M442.598 27L439.785 28.6875V31.2917L442.598 29.5625V42H444.993V27H442.598ZM448.921 31.5H451.317C451.317 30.7708 451.629 30.0833 452.129 29.6042C452.587 29.1667 453.212 28.8958 453.879 28.8958C454.65 28.8958 455.337 29.2083 455.837 29.7708C456.254 30.25 456.483 30.875 456.483 31.5208C456.483 32.25 456.129 33.0625 455.171 33.9375L448.837 39.7708V41.9792H458.692V39.7708H452.504L456.442 35.9792C458.025 34.5 458.9 33.4375 458.9 31.5417C458.9 30.3333 458.462 29.1458 457.65 28.25C456.775 27.1875 455.421 26.6875 454.004 26.6875C452.775 26.6875 451.462 27.0208 450.525 27.8542C449.525 28.75 448.879 30.1042 448.921 31.5Z" fill="#161C23" fill-opacity="0.9"/>
<path opacity="0.8" d="M537.598 27L534.785 28.6875V31.2917L537.598 29.5625V42H539.993V27H537.598ZM543.921 31.5H546.317C546.317 30.7708 546.629 30.0833 547.129 29.6042C547.587 29.1667 548.212 28.8958 548.879 28.8958C549.65 28.8958 550.337 29.2083 550.837 29.7708C551.254 30.25 551.483 30.875 551.483 31.5208C551.483 32.25 551.129 33.0625 550.171 33.9375L543.837 39.7708V41.9792H553.692V39.7708H547.504L551.442 35.9792C553.025 34.5 553.9 33.4375 553.9 31.5417C553.9 30.3333 553.462 29.1458 552.65 28.25C551.775 27.1875 550.421 26.6875 549.004 26.6875C547.775 26.6875 546.462 27.0208 545.525 27.8542C544.525 28.75 543.879 30.1042 543.921 31.5Z" fill="#161C23" fill-opacity="0.9"/>
<line opacity="0.4" x1="67" y1="276.75" x2="644" y2="276.75" stroke="black" stroke-width="0.5" stroke-dasharray="6 6"/>
<line opacity="0.4" x1="67" y1="424.75" x2="644" y2="424.75" stroke="black" stroke-width="0.5" stroke-dasharray="6 6"/>
<line opacity="0.4" x1="67" y1="58.75" x2="644" y2="58.75" stroke="black" stroke-width="0.5" stroke-dasharray="6 6"/>
<line opacity="0.7" x1="67" y1="473.65" x2="644" y2="473.65" stroke="#161C23" stroke-width="0.7"/>
<rect x="135" y="276" width="60" height="149" fill="#9DC7D5"/>
<rect width="60" height="219" transform="matrix(1 0 0 -1 230 277)" fill="#6DABBF"/>
<rect width="60" height="219" transform="matrix(1 0 0 -1 325 277)" fill="#3C8FAA"/>
<rect width="60" height="219" transform="matrix(1 0 0 -1 420 277)" fill="#0B7495"/>
<rect width="60" height="219" transform="matrix(1 0 0 -1 515 277)" fill="#0B7495"/>
</svg>
