<svg width="724" height="138" viewBox="0 0 724 138" fill="none" xmlns="http://www.w3.org/2000/svg">
<g clip-path="url(#clip0)">
<path d="M58.18 47.61C57.4463 46.1099 56.5866 44.6747 55.61 43.32C51.32 37.46 44.32 34.6 36.74 34.6C29.45 34.6 22.3 37.46 18.16 43.32C13.72 49.04 12.44 56.75 12.29 64.32C12.44 71.9 13.72 79.62 18.16 85.32C22.3 91.04 29.45 93.89 36.74 93.89C44.32 93.89 51.32 91.04 55.61 85.32C56.4908 83.9973 57.289 82.6213 58 81.2L69 86.06C67.7536 88.2439 66.3674 90.3449 64.85 92.35C58.13 100.79 47.85 105.08 36.69 105.08C25.53 105.08 15.39 100.93 8.69 92.35C2.29 84.35 0.14 74.2 0 64.33C0.14 54.33 2.29 44.33 8.72 36.17C15.72 27.45 25.72 23.59 36.72 23.59C47.72 23.59 58 27.73 64.9 36.17C66.504 38.266 67.8942 40.5172 69.05 42.89L58.18 47.61Z" fill="black"/>
<path d="M148.25 25.73V102.93H138V94.07C137.222 95.0442 136.362 95.9508 135.43 96.78C129.805 101.735 122.624 104.565 115.13 104.78C107.41 105.172 99.7887 102.902 93.5405 98.35C82.9105 90.21 81.0605 77.91 81.2005 63.76V25.76H92.9205V63.76C92.9205 74.76 94.2105 83.92 101.5 89.35C105.36 92.35 110.36 93.64 116.08 93.5C120.772 93.4783 125.294 91.7468 128.8 88.63C132.524 85.3367 134.958 80.8294 135.67 75.91C136.67 71.19 136.67 65.48 136.67 59.61V25.73H148.25Z" fill="black"/>
<path d="M240 64.19C240 74.34 238 84.49 231.56 92.64C225.12 100.79 215.41 105.08 204.83 105.08C194.25 105.08 184.83 101.08 178.67 93.21V102.93H168.26V0H180V33.88C186.15 27.3 195.44 23.59 205 23.59C215.58 23.59 225.3 28.02 231.59 36.03C237.74 43.89 240 54.18 240 64.19ZM227.7 64.19C227.7 56.33 226.13 48.61 222.13 43.03C217.84 37.03 210.83 34.31 203.13 34.31C195.84 34.31 189.13 36.88 184.83 42.46C180.53 48.04 178.69 56.18 178.69 64.19C178.69 72.2 180.4 80.49 184.83 86.06C189.26 91.63 196.13 94.35 203.42 94.35C210.71 94.35 217.86 91.35 222.15 85.35C226.3 79.91 227.73 72.19 227.73 64.19H227.7Z" fill="black"/>
<path d="M264.61 0V12.44H253V0H264.61ZM264.61 25.73V102.93H253V25.73H264.61Z" fill="black"/>
<path d="M349.38 25.73V137.24H337.8V94.64C331.8 101.5 322.93 105.08 312.93 105.08C302.35 105.08 292.63 100.79 286.19 92.64C279.75 84.49 277.62 74.34 277.62 64.19C277.62 54.04 279.9 43.89 286.19 36.03C292.34 28.03 302.19 23.59 312.64 23.59C323.09 23.59 332.8 27.88 339.09 35.45V25.73H349.38ZM339.09 64.19C339.09 56.19 337.37 48.03 332.8 42.46C328.65 36.88 321.8 34.31 314.5 34.31C306.78 34.31 299.92 37.03 295.63 43.03C291.48 48.61 289.91 56.33 289.91 64.19C289.91 72.05 291.34 79.91 295.48 85.35C299.77 91.35 306.92 94.35 314.21 94.35C321.65 94.35 328.51 91.49 332.8 86.06C337.37 80.49 339.09 72.34 339.09 64.19Z" fill="black"/>
<path d="M372.9 94.35V102.93H364.33V94.35H372.9Z" fill="black"/>
<path d="M444.86 45.17C443.987 43.2338 442.882 41.4105 441.57 39.74C436.57 32.88 428.28 29.45 419.57 29.59C410.85 29.45 402.57 32.88 397.57 39.74C392.57 46.6 390.85 55.47 390.71 64.33C390.85 73.2 392.43 82.2 397.57 88.92C402.71 95.64 410.87 99.07 419.57 99.07C428.27 99.07 436.57 95.64 441.57 88.92C442.838 87.2962 443.897 85.5188 444.72 83.63L450.58 86.2C449.47 88.4778 448.13 90.6357 446.58 92.64C440.14 101.07 430.42 105.08 419.58 105.08C408.74 105.08 398.99 101.08 392.58 92.64C386.17 84.2 384.43 73.91 384.29 64.33C384.43 54.61 386.15 44.33 392.58 35.88C399.01 27.43 408.58 23.59 419.58 23.59C430.58 23.59 440.02 27.59 446.58 35.88C448.184 38.0011 449.527 40.3077 450.58 42.75L444.86 45.17Z" fill="black"/>
<path d="M462 40.17C462.798 38.7164 463.7 37.3227 464.7 36C471.28 27.7 480.85 23.7 491.7 23.7C505.85 23.7 517.58 29.28 522.58 42.14C523.983 46.1381 524.706 50.3429 524.72 54.58V102.9H519.15V86.06C515.283 92.4813 509.547 97.5682 502.71 100.64C495.85 103.79 489.27 105.5 481.71 104.79C473.71 104.07 465.71 99.93 461.56 93.21C459.26 89.3635 458.031 84.9717 458 80.49C458 72.34 461.58 66.05 468.58 61.76C476.71 57 487 55.9 499.73 54L518.17 51.42C517.6 45.42 515.45 39.85 511.17 36.13C506.17 31.55 498.88 29.7 491.73 29.7C483.01 29.7 474.57 33.13 469.73 39.85C469.02 40.85 468.3 41.85 467.73 42.85L462 40.17ZM496.89 60.47C481.3 62.62 464.29 65.33 464.29 80.34C464.29 89.49 472.01 97.64 481.45 99.07C493.17 100.79 508.04 93.64 514.18 82.92C518.9 74.48 518.76 67.92 518.76 57.47L496.89 60.47Z" fill="black"/>
<path d="M637.22 58.47L637.08 102.93H631.36L631.5 58.47C631.5 48.47 631.36 42.47 623.93 36.6C620.583 33.8499 616.392 32.3351 612.06 32.31C608.967 32.2623 605.905 32.9202 603.104 34.2337C600.304 35.5471 597.84 37.4815 595.9 39.89C592.19 44.75 591.62 49.46 591.62 54.89V58.46L591.47 102.92H585.75L585.9 58.46C585.9 48.46 585.75 42.46 578.32 36.59C574.976 33.8414 570.788 32.3266 566.46 32.3C563.367 32.2501 560.303 32.907 557.503 34.2206C554.702 35.5342 552.239 37.4698 550.3 39.88C546.58 44.74 546.01 49.45 546.01 54.88V102.88H540.01V25.73H545.58V37.46L546.3 36.6C548.706 33.5255 551.79 31.0486 555.311 29.3625C558.833 27.6764 562.696 26.8268 566.6 26.88C572.196 26.8265 577.66 28.58 582.18 31.88C585.232 34.1091 587.688 37.056 589.33 40.46C590.049 39.0869 590.91 37.7932 591.9 36.6C594.306 33.5255 597.39 31.0486 600.911 29.3625C604.433 27.6764 608.296 26.8268 612.2 26.88C617.796 26.8265 623.26 28.58 627.78 31.88C637.08 39 637.22 46.6 637.22 58.47Z" fill="black"/>
<path d="M723.85 64.19C723.85 73.91 721.99 84.19 715.7 92.49C709.13 100.79 699.7 105.08 688.83 105.08C677.96 105.08 668.67 100.36 662.67 91.78C661.82 90.5956 661.054 89.3525 660.38 88.06V137.24H654.38V25.73H660V41.32C660.786 39.6802 661.695 38.1024 662.72 36.6C668.86 28.16 679.16 23.6 690.02 23.6C694.967 23.5477 699.858 24.6397 704.313 26.7907C708.768 28.9418 712.665 32.0936 715.7 36C722 44.17 723.85 54.61 723.85 64.19ZM717.42 64.19C717.42 55.33 715.85 46.32 710.7 39.74C705.55 33.16 697.4 29.59 688.83 29.59C680.11 29.59 671.67 32.88 666.67 39.74C661.67 46.32 659.95 55.33 659.95 64.19C659.95 73.05 661.66 82.19 666.67 88.78C671.68 95.37 680.11 99.07 688.83 99.07C697.4 99.07 705.7 95.35 710.7 88.63C715.85 82.06 717.42 73.05 717.42 64.19Z" fill="black"/>
</g>
<defs>
<clipPath id="clip0">
<rect width="723.85" height="137.24" fill="white"/>
</clipPath>
</defs>
</svg>
