<svg style="display: none" width="0" height="0">
    <symbol fill="none" xmlns="http://www.w3.org/2000/svg" viewBox="0 0 42 42" id="01">
        <path d="M37.7725 4H4V37.7725H37.7725V4Z" stroke="#161C23"></path>
        <path d="M12.2148 11.9106L29.5575 28.949" stroke="#161C23"></path>
        <path d="M11.609 17.996H12.826L12.5217 12.2151L18.3026 12.5193V11.3023L11.3047 10.998L11.609 17.996Z" fill="#161C23"></path>
        <path d="M23.4746 29.5574V28.6446H29.2555L28.9512 23.168L30.1683 22.8638L30.4725 29.8617L23.4746 29.5574Z" fill="#161C23"></path>
    </symbol>
    <symbol fill="none" xmlns="http://www.w3.org/2000/svg" viewBox="0 0 34 34" id="02">
        <path d="M16 1H1V16H16V1Z" stroke="#161C23"></path>
        <path d="M16 18H1V33H16V18Z" stroke="#161C23"></path>
        <path d="M33 1H18V16H33V1Z" stroke="#161C23"></path>
        <path d="M33 18H18V33H33V18Z" stroke="#161C23"></path>
    </symbol>
    <symbol fill="none" xmlns="http://www.w3.org/2000/svg" viewBox="0 0 35 36" id="03">
        <path d="M25.5923 1L16.0795 13.1703H32.9572L4.72538 35.381L14.2383 19.5597H1.04297L14.2383 1H25.5923Z" stroke="#161C23"></path>
    </symbol>
    <symbol fill="none" xmlns="http://www.w3.org/2000/svg" viewBox="0 0 34 34" id="04">
        <path d="M32.6427 5.25977H1V32.6428H32.6427V5.25977Z" stroke="#161C23"></path>
        <path d="M12.5591 1H7.38672V5.25962H12.5591V1Z" stroke="#161C23"></path>
        <path d="M26.2524 1H21.0801V5.25962H26.2524V1Z" stroke="#161C23"></path>
        <path d="M27.4673 18.9512H19.5566" stroke="#161C23"></path>
        <path d="M10.127 14.9956V23.2105" stroke="#161C23"></path>
        <path d="M14.0845 18.9512H6.17383" stroke="#161C23"></path>
    </symbol>
</svg>
