<svg width="34" height="35" viewBox="0 0 34 35" fill="none" xmlns="http://www.w3.org/2000/svg">
<rect width="34" height="35" rx="9" fill="#4ED4A9"/>
<path d="M12.622 26V22.7619H10.5V21.2143H12.622V19.0952H10.5V17.2857H12.622V9H17.2073C19.3374 9 20.9146 9.42064 21.939 10.2619C22.9797 11.1032 23.5 12.3254 23.5 13.9286C23.5 15.5476 22.939 16.8175 21.8171 17.7381C20.6951 18.6429 19.0447 19.0952 16.8659 19.0952H14.8171V21.2143H18.8415V22.7619H14.8171V26H12.622ZM16.5488 17.2857C18.0285 17.2857 19.1748 17.0476 19.9878 16.5714C20.8171 16.0952 21.2317 15.2381 21.2317 14C21.2317 12.9206 20.8902 12.119 20.2073 11.5952C19.5244 11.0714 18.4593 10.8095 17.0122 10.8095H14.8171V17.2857H16.5488Z" fill="white"/>
</svg>
