<svg style="display: none" width="0" height="0">
    <symbol fill="none" xmlns="http://www.w3.org/2000/svg" viewBox="0 0 143 143" id="01">
        <path d="M129.093 112.586C124.441 119.022 118.738 124.71 111.835 129.499C79.7182 151.651 35.7457 143.569 13.5343 111.538C-8.67704 79.5076 -0.572891 35.6528 31.5435 13.5008C63.66 -8.65115 107.632 -0.568684 129.844 31.4618C136.747 41.4901 140.799 52.7157 142 63.9414" stroke="#020202" stroke-width="0.7564" stroke-miterlimit="10" stroke-linecap="round" stroke-linejoin="round"></path>
        <path d="M66.9618 13.3509C68.4626 13.2012 70.1135 13.2012 71.6142 13.2012C103.881 13.2012 129.994 39.2447 129.994 71.4249C129.994 103.605 103.881 129.649 71.6142 129.649C39.3477 129.649 13.2344 103.605 13.2344 71.4249C13.2344 56.3077 19.0874 42.3879 28.5422 32.0603" stroke="#020202" stroke-width="0.7564" stroke-miterlimit="10" stroke-linecap="round" stroke-linejoin="round"></path>
        <path d="M57.3576 54.0625V62.4443L47.1523 100.462H58.5582H61.4096H72.8155L62.7603 62.4443V54.0625" stroke="#020202" stroke-width="0.7564" stroke-miterlimit="10" stroke-linecap="round" stroke-linejoin="round"></path>
        <path d="M60.0596 50.77C62.3804 50.77 64.2617 48.8937 64.2617 46.5791C64.2617 44.2645 62.3804 42.3882 60.0596 42.3882C57.7388 42.3882 55.8574 44.2645 55.8574 46.5791C55.8574 48.8937 57.7388 50.77 60.0596 50.77Z" stroke="#020202" stroke-width="0.7564" stroke-miterlimit="10" stroke-linecap="round" stroke-linejoin="round"></path>
        <path d="M80.1684 100.462V92.2297L70.1133 54.0625H81.5191H84.3706H95.7764L85.7213 92.2297V100.462" stroke="#020202" stroke-width="0.7564" stroke-miterlimit="10" stroke-linecap="round" stroke-linejoin="round"></path>
        <path d="M82.8701 50.77C85.1909 50.77 87.0723 48.8937 87.0723 46.5791C87.0723 44.2645 85.1909 42.3882 82.8701 42.3882C80.5493 42.3882 78.668 44.2645 78.668 46.5791C78.668 48.8937 80.5493 50.77 82.8701 50.77Z" stroke="#020202" stroke-width="0.7564" stroke-miterlimit="10" stroke-linecap="round" stroke-linejoin="round"></path>
    </symbol>
    
    <symbol fill="none" xmlns="http://www.w3.org/2000/svg" viewBox="0 0 143 143" id="02">
        <path d="M129.179 112.704C124.503 119.171 118.772 124.885 111.834 129.547C79.7062 151.653 35.6631 143.532 13.4907 111.501C-8.68167 79.4701 -0.536711 35.5591 31.5906 13.4533C63.7179 -8.65263 107.761 -0.532103 129.933 31.4989C136.872 41.5743 140.793 52.7025 142 64.1314" stroke="#020202" stroke-width="0.7564" stroke-miterlimit="10" stroke-linecap="round" stroke-linejoin="round"></path>
        <path d="M67.0362 13.4531C68.5445 13.3027 70.0529 13.3027 71.712 13.3027C103.99 13.3027 130.084 39.3185 130.084 71.4999C130.084 103.681 103.99 129.697 71.712 129.697C39.4339 129.697 13.3398 103.681 13.3398 71.4999C13.3398 56.3115 19.2223 42.4765 28.7248 32.1003" stroke="#020202" stroke-width="0.7564" stroke-miterlimit="10" stroke-linecap="round" stroke-linejoin="round"></path>
        <path d="M80.6103 71.1992L75.6328 57.6649V49.0933" stroke="#020202" stroke-width="0.7564" stroke-miterlimit="10" stroke-linecap="round" stroke-linejoin="round"></path>
        <path d="M67.79 49.0933V57.6649L62.8125 71.0488" stroke="#020202" stroke-width="0.7564" stroke-miterlimit="10" stroke-linecap="round" stroke-linejoin="round"></path>
        <path d="M71.7127 44.8826C74.6283 44.8826 76.9919 42.5261 76.9919 39.6193C76.9919 36.7124 74.6283 34.356 71.7127 34.356C68.7971 34.356 66.4336 36.7124 66.4336 39.6193C66.4336 42.5261 68.7971 44.8826 71.7127 44.8826Z" stroke="#020202" stroke-width="0.7564" stroke-miterlimit="10" stroke-linecap="round" stroke-linejoin="round"></path>
        <path d="M53.7629 102.478H37.3223V71.1992H106.253V102.478H90.4152" stroke="#020202" stroke-width="0.7564" stroke-miterlimit="10" stroke-linecap="round" stroke-linejoin="round"></path>
        <path d="M53.9141 86.8389H89.5105" stroke="#020202" stroke-width="0.7564" stroke-miterlimit="10" stroke-linecap="round" stroke-linejoin="round"></path>
    </symbol>

    <symbol fill="none" xmlns="http://www.w3.org/2000/svg" viewBox="0 0 143 143" id="03">
        <path d="M129.093 112.586C124.441 119.022 118.738 124.71 111.835 129.499C79.7182 151.651 35.7457 143.569 13.5343 111.538C-8.67703 79.5076 -0.57289 35.6528 31.5435 13.5008C63.6599 -8.65115 107.632 -0.568684 129.844 31.4618C136.747 41.4901 140.799 52.7157 142 63.9414" stroke="#020202" stroke-width="0.7564" stroke-miterlimit="10" stroke-linecap="round" stroke-linejoin="round"></path>
        <path d="M66.9619 13.3509C68.4626 13.2012 70.1135 13.2012 71.6143 13.2012C103.881 13.2012 129.994 39.2447 129.994 71.4249C129.994 103.605 103.881 129.649 71.6143 129.649C39.3478 129.649 13.2344 103.605 13.2344 71.4249C13.2344 56.3077 19.0874 42.3879 28.5422 32.0603" stroke="#020202" stroke-width="0.7564" stroke-miterlimit="10" stroke-linecap="round" stroke-linejoin="round"></path>
        <path d="M101.479 60.6486C101.479 53.6139 95.7757 47.9262 88.7221 47.9262C86.9212 47.9262 85.2703 48.2256 83.7695 48.974C82.2688 43.7353 77.3163 39.8438 71.6133 39.8438C65.7604 39.8438 60.9579 43.7353 59.4571 48.974C57.9564 48.3753 56.3055 47.9262 54.5046 47.9262C47.451 47.9262 41.748 53.6139 41.748 60.6486C41.748 67.6834 47.451 73.371 54.5046 73.371V93.2778H88.8722V73.371C95.7757 73.371 101.479 67.6834 101.479 60.6486Z" stroke="#020202" stroke-width="0.7564" stroke-miterlimit="10" stroke-linecap="round" stroke-linejoin="round"></path>
        <path d="M83.7695 48.9741C84.0697 50.1715 84.2198 51.3689 84.2198 52.5663" stroke="#020202" stroke-width="0.7564" stroke-miterlimit="10" stroke-linecap="round" stroke-linejoin="round"></path>
        <path d="M58.8574 52.5663C58.8574 51.3689 59.0075 50.1715 59.3076 48.9741" stroke="#020202" stroke-width="0.7564" stroke-miterlimit="10" stroke-linecap="round" stroke-linejoin="round"></path>
        <path d="M63.0586 93.2777V73.2212" stroke="#020202" stroke-width="0.7564" stroke-miterlimit="10" stroke-linecap="round" stroke-linejoin="round"></path>
        <path d="M80.168 93.2777V73.2212" stroke="#020202" stroke-width="0.7564" stroke-miterlimit="10" stroke-linecap="round" stroke-linejoin="round"></path>
        <path d="M71.6133 93.2777V73.2212" stroke="#020202" stroke-width="0.7564" stroke-miterlimit="10" stroke-linecap="round" stroke-linejoin="round"></path>
        <path d="M88.7227 93.2778L88.8728 100.013H54.2051L54.3552 93.2778" stroke="#020202" stroke-width="0.7564" stroke-miterlimit="10" stroke-linecap="round" stroke-linejoin="round"></path>
    </symbol>

    <symbol fill="none" xmlns="http://www.w3.org/2000/svg" viewBox="0 0 143 143" id="04">
        <path d="M129.179 112.704C124.503 119.171 118.772 124.885 111.833 129.547C79.7062 151.653 35.6631 143.532 13.4907 111.501C-8.68167 79.4701 -0.536712 35.5591 31.5906 13.4533C63.7179 -8.65263 107.761 -0.532103 129.933 31.4989C136.872 41.5743 140.793 52.7025 142 64.1314" stroke="#020202" stroke-width="0.7564" stroke-miterlimit="10" stroke-linecap="round" stroke-linejoin="round"></path>
        <path d="M67.0362 13.4531C68.5446 13.3027 70.0528 13.3027 71.712 13.3027C103.99 13.3027 130.084 39.3185 130.084 71.4999C130.084 103.681 103.99 129.847 71.712 129.847C39.4338 129.847 13.3398 103.832 13.3398 71.6502C13.3398 56.4618 19.2223 42.6269 28.7247 32.2506" stroke="#020202" stroke-width="0.7564" stroke-miterlimit="10" stroke-linecap="round" stroke-linejoin="round"></path>
        <path d="M45.3164 54.0557H98.2586" stroke="#020202" stroke-width="0.7564" stroke-miterlimit="10" stroke-linecap="round" stroke-linejoin="round"></path>
        <path d="M81.5168 54.0559H61.7578V52.1009C61.7578 46.6872 66.132 42.3262 71.5619 42.3262C76.9919 42.3262 81.366 46.6872 81.366 52.1009V54.0559H81.5168Z" stroke="#020202" stroke-width="0.7564" stroke-miterlimit="10" stroke-linecap="round" stroke-linejoin="round"></path>
        <path d="M49.9922 54.0557L54.2155 100.824H89.2086L93.432 54.0557" stroke="#020202" stroke-width="0.7564" stroke-miterlimit="10" stroke-linecap="round" stroke-linejoin="round"></path>
        <path d="M61.9082 65.6353L63.7182 88.7938" stroke="#020202" stroke-width="0.7564" stroke-miterlimit="10" stroke-linecap="round" stroke-linejoin="round"></path>
        <path d="M81.517 65.6353L79.707 88.7938" stroke="#020202" stroke-width="0.7564" stroke-miterlimit="10" stroke-linecap="round" stroke-linejoin="round"></path>
        <path d="M71.7129 65.6353V88.7938" stroke="#020202" stroke-width="0.7564" stroke-miterlimit="10" stroke-linecap="round" stroke-linejoin="round"></path>
    </symbol>

    <symbol fill="none" xmlns="http://www.w3.org/2000/svg" viewBox="0 0 143 143" id="05">
        <path d="M129.179 112.704C124.503 119.17 118.772 124.885 111.834 129.547C79.7062 151.653 35.6631 143.532 13.4907 111.501C-8.68167 79.4702 -0.536711 35.5591 31.5906 13.4532C63.7179 -8.65263 107.761 -0.532103 129.933 31.4989C136.872 41.5743 140.793 52.7025 142 64.1314" stroke="#161C23" stroke-width="0.7564" stroke-miterlimit="10" stroke-linecap="round" stroke-linejoin="round"></path>
        <path d="M67.0362 13.4531C68.5445 13.3027 70.0528 13.3027 71.7119 13.3027C103.99 13.3027 130.084 39.3185 130.084 71.4999C130.084 103.681 103.99 129.697 71.7119 129.697C39.4338 129.697 13.3398 103.681 13.3398 71.4999C13.3398 56.3115 19.2222 42.4765 28.7247 32.1003" stroke="#161C23" stroke-width="0.7564" stroke-miterlimit="10" stroke-linecap="round" stroke-linejoin="round"></path>
        <path d="M88.7562 71.3496C88.7562 80.6732 81.2145 88.3426 71.712 88.3426C62.3604 88.3426 54.668 80.8236 54.668 71.3496" stroke="#161C23" stroke-width="0.7564" stroke-miterlimit="10" stroke-linecap="round" stroke-linejoin="round"></path>
        <path d="M94.7896 70.8984C94.7896 83.6808 84.382 93.9066 71.7121 93.9066C58.8914 93.9066 48.6348 83.5304 48.6348 70.8984" stroke="#161C23" stroke-width="0.7564" stroke-miterlimit="10" stroke-linecap="round" stroke-linejoin="round"></path>
        <path d="M54.668 53.304C54.668 43.9804 62.2096 36.311 71.712 36.311C81.0636 36.311 88.7562 43.83 88.7562 53.304" stroke="#161C23" stroke-width="0.7564" stroke-miterlimit="10" stroke-linecap="round" stroke-linejoin="round"></path>
        <path d="M88.756 53.3042H82.7227C81.0635 53.3042 79.7061 54.0561 79.7061 55.1088C79.7061 56.0111 81.0635 56.9133 82.7227 56.9133H88.756V60.8232H82.7227C81.0635 60.8232 79.7061 61.5751 79.7061 62.6278C79.7061 63.5301 81.0635 64.4323 82.7227 64.4323H88.756V67.8911H82.7227C81.0635 67.8911 79.7061 68.643 79.7061 69.6956C79.7061 70.5979 81.0635 71.5002 82.7227 71.5002H88.756" stroke="#161C23" stroke-width="0.7564" stroke-miterlimit="10" stroke-linecap="round" stroke-linejoin="round"></path>
        <path d="M54.668 53.3042H60.7013C62.3604 53.3042 63.7179 54.0561 63.7179 55.1088C63.7179 56.0111 62.3604 56.9133 60.7013 56.9133H54.668V60.8232H60.7013C62.3604 60.8232 63.7179 61.5751 63.7179 62.6278C63.7179 63.5301 62.3604 64.4323 60.7013 64.4323H54.668V67.8911H60.7013C62.3604 67.8911 63.7179 68.643 63.7179 69.6956C63.7179 70.5979 62.3604 71.5002 60.7013 71.5002H54.668" stroke="#161C23" stroke-width="0.7564" stroke-miterlimit="10" stroke-linecap="round" stroke-linejoin="round"></path>
        <path d="M71.7119 94.0571V106.839" stroke="#161C23" stroke-width="0.7564" stroke-miterlimit="10" stroke-linecap="round" stroke-linejoin="round"></path>
        <path d="M54.668 106.839H88.7562" stroke="#161C23" stroke-width="0.7564" stroke-miterlimit="10" stroke-linecap="round" stroke-linejoin="round"></path>
    </symbol>

    <symbol fill="none" xmlns="http://www.w3.org/2000/svg" viewBox="0 0 143 143" id="06">
        <path d="M129.074 112.593C124.414 119.042 118.702 124.741 111.788 129.54C79.6227 151.586 35.5828 143.637 13.4877 111.543C-8.60736 79.4486 -0.641105 35.5063 31.5245 13.4601C63.6902 -8.58609 107.73 -0.637471 129.825 31.457C136.739 41.5052 140.798 52.7532 142 64.0013" stroke="#020202" stroke-width="0.7564" stroke-miterlimit="10" stroke-linecap="round" stroke-linejoin="round"></path>
        <path d="M66.9964 13.3101C68.4995 13.1602 70.1529 13.1602 71.6559 13.1602C103.972 13.1602 129.975 39.2557 129.975 71.3501C129.975 103.594 103.822 129.54 71.6559 129.54C39.4903 129.54 13.3369 103.445 13.3369 71.3501C13.3369 56.2027 19.1989 42.2551 28.6682 31.9069" stroke="#020202" stroke-width="0.7564" stroke-miterlimit="10" stroke-linecap="round" stroke-linejoin="round"></path>
        <path d="M50.3135 37.0059V54.1029L56.7767 61.0017L54.6724 102.694C54.5221 105.244 56.6264 107.494 59.1816 107.494C61.7368 107.494 63.8411 105.244 63.6908 102.694L61.1356 61.1517L67.5988 54.2529V37.1558" stroke="#020202" stroke-width="0.7564" stroke-miterlimit="10" stroke-linecap="round" stroke-linejoin="round"></path>
        <path d="M56.3262 37.0059V48.7039" stroke="#020202" stroke-width="0.7564" stroke-miterlimit="10" stroke-linecap="round" stroke-linejoin="round"></path>
        <path d="M61.7363 37.0059V48.7039" stroke="#020202" stroke-width="0.7564" stroke-miterlimit="10" stroke-linecap="round" stroke-linejoin="round"></path>
        <path d="M94.3536 45.7044V50.2036C94.3536 52.7532 93.4518 55.1528 91.6481 56.9525L87.8904 61.0017L90.4457 102.545C90.596 105.094 88.4917 107.344 85.9364 107.344C83.3812 107.344 81.2769 105.244 81.4272 102.545L83.5315 60.8518L79.7739 56.8025C78.1205 55.0028 77.0684 52.6032 77.0684 50.0536V45.5544C77.0684 40.7553 80.9763 36.856 85.7861 36.856C90.4456 37.0059 94.3536 40.9052 94.3536 45.7044Z" stroke="#020202" stroke-width="0.7564" stroke-miterlimit="10" stroke-linecap="round" stroke-linejoin="round"></path>
    </symbol>

    <symbol fill="none" xmlns="http://www.w3.org/2000/svg" viewBox="0 0 143 143" id="07">
        <path d="M129.093 112.586C124.441 119.022 118.738 124.71 111.835 129.499C79.7182 151.651 35.7457 143.569 13.5343 111.538C-8.67703 79.5076 -0.57289 35.6527 31.5435 13.5008C63.6599 -8.65115 107.632 -0.568681 129.844 31.4618C136.747 41.4901 140.799 52.7157 142 63.9414" stroke="#020202" stroke-width="0.7564" stroke-miterlimit="10" stroke-linecap="round" stroke-linejoin="round"></path>
        <path d="M67.1113 13.5008C68.612 13.3511 70.2629 13.3511 71.7636 13.3511C104.03 13.3511 130.143 39.3946 130.143 71.5748C130.143 103.755 103.88 129.649 71.7636 129.649C39.6472 129.649 13.3838 103.605 13.3838 71.4251C13.3838 56.3079 19.2368 42.3881 28.6916 32.0605" stroke="#020202" stroke-width="0.7564" stroke-miterlimit="10" stroke-linecap="round" stroke-linejoin="round"></path>
        <path d="M100.578 67.0845H42.7988V79.6572H100.578V67.0845Z" stroke="#020202" stroke-width="0.7564" stroke-miterlimit="10" stroke-linecap="round" stroke-linejoin="round"></path>
        <path d="M58.4068 62.7441H42.7988V54.3623H52.854C55.8555 54.3623 58.4068 56.9068 58.4068 59.9003V62.7441Z" stroke="#020202" stroke-width="0.7564" stroke-miterlimit="10" stroke-linecap="round" stroke-linejoin="round"></path>
        <path d="M37.8467 54.2124V91.7809" stroke="#020202" stroke-width="0.7564" stroke-miterlimit="10" stroke-linecap="round" stroke-linejoin="round"></path>
        <path d="M105.682 54.2124V91.7809" stroke="#020202" stroke-width="0.7564" stroke-miterlimit="10" stroke-linecap="round" stroke-linejoin="round"></path>
    </symbol>

    <symbol fill="none" xmlns="http://www.w3.org/2000/svg" viewBox="0 0 143 143" id="08">
        <path d="M129.179 112.704C124.503 119.171 118.772 124.885 111.833 129.547C79.7062 151.653 35.6631 143.532 13.4907 111.501C-8.68167 79.4701 -0.536712 35.5591 31.5906 13.4533C63.7179 -8.65263 107.761 -0.532103 129.933 31.4989C136.872 41.5743 140.793 52.7025 142 64.1314" stroke="#020202" stroke-width="0.7564" stroke-miterlimit="10" stroke-linecap="round" stroke-linejoin="round"></path>
        <path d="M67.0362 13.4531C68.5446 13.3027 70.0529 13.3027 71.712 13.3027C103.99 13.3027 130.084 39.3185 130.084 71.4999C130.084 103.681 103.99 129.847 71.712 129.847C39.4339 129.847 13.3398 103.832 13.3398 71.6502C13.3398 56.4618 19.2223 42.6269 28.7248 32.2506" stroke="#020202" stroke-width="0.7564" stroke-miterlimit="10" stroke-linecap="round" stroke-linejoin="round"></path>
        <path d="M99.1641 50.4468H43.8086V98.4181H99.1641V50.4468Z" stroke="#020202" stroke-width="0.7564" stroke-miterlimit="10" stroke-linecap="round" stroke-linejoin="round"></path>
        <path d="M64.3218 43.0781H55.1211V50.5971H64.3218V43.0781Z" stroke="#020202" stroke-width="0.7564" stroke-miterlimit="10" stroke-linecap="round" stroke-linejoin="round"></path>
        <path d="M87.8522 43.0781H78.6514V50.5971H87.8522V43.0781Z" stroke="#020202" stroke-width="0.7564" stroke-miterlimit="10" stroke-linecap="round" stroke-linejoin="round"></path>
        <path d="M90.416 74.5078H76.0869" stroke="#020202" stroke-width="0.7564" stroke-miterlimit="10" stroke-linecap="round" stroke-linejoin="round"></path>
        <path d="M59.6455 67.4399V81.5757" stroke="#020202" stroke-width="0.7564" stroke-miterlimit="10" stroke-linecap="round" stroke-linejoin="round"></path>
        <path d="M66.8857 74.5078H52.5566" stroke="#020202" stroke-width="0.7564" stroke-miterlimit="10" stroke-linecap="round" stroke-linejoin="round"></path>
    </symbol>

    <symbol fill="none" xmlns="http://www.w3.org/2000/svg" viewBox="0 0 95 96" id="09">
        <path d="M85.9812 75.2812C82.8812 79.5812 79.0812 83.3812 74.4812 86.4812C53.1812 101.181 23.9812 95.7812 9.28118 74.4812C-5.41882 53.1812 -0.0188198 23.9812 21.2812 9.28118C42.5812 -5.41882 71.7812 -0.0188198 86.4812 21.2812C91.0812 27.9812 93.6812 35.3812 94.4812 42.9812" stroke="#161C23" stroke-width="0.7564" stroke-miterlimit="10" stroke-linecap="round" stroke-linejoin="round"></path>
        <path d="M44.7816 9.38125C45.7816 9.28125 46.7817 9.28125 47.8817 9.28125C69.2817 9.28125 86.5817 26.5813 86.5817 47.9813C86.5817 69.3813 69.2817 86.6813 47.8817 86.6813C26.4817 86.6813 9.18164 69.3813 9.18164 47.9813C9.18164 37.8813 13.0817 28.6813 19.3817 21.7812" stroke="#161C23" stroke-width="0.7564" stroke-miterlimit="10" stroke-linecap="round" stroke-linejoin="round"></path>
        <path d="M47.882 34.1811C49.4284 34.1811 50.682 32.9275 50.682 31.3811C50.682 29.8347 49.4284 28.5811 47.882 28.5811C46.3356 28.5811 45.082 29.8347 45.082 31.3811C45.082 32.9275 46.3356 34.1811 47.882 34.1811Z" stroke="#161C23" stroke-width="0.7564" stroke-miterlimit="10" stroke-linecap="round" stroke-linejoin="round"></path>
        <path d="M49.5822 38.2812H46.1821V67.3812H49.5822V38.2812Z" stroke="#161C23" stroke-width="0.7564" stroke-miterlimit="10" stroke-linecap="round" stroke-linejoin="round"></path>
        <path d="M47.8815 78.8811C64.9471 78.8811 78.7814 65.0467 78.7814 47.9811C78.7814 30.9155 64.9471 17.0811 47.8815 17.0811C30.8159 17.0811 16.9814 30.9155 16.9814 47.9811C16.9814 65.0467 30.8159 78.8811 47.8815 78.8811Z" stroke="#161C23" stroke-width="0.7564" stroke-miterlimit="10" stroke-linecap="round" stroke-linejoin="round"></path>
    </symbol>

    <symbol fill="none" xmlns="http://www.w3.org/2000/svg" viewBox="0 0 95 96" id="10">
        <path d="M85.9812 75.2812C82.8812 79.5812 79.0812 83.3812 74.4812 86.4812C53.1812 101.181 23.9812 95.7812 9.28118 74.4812C-5.41882 53.1812 -0.0188198 23.9812 21.2812 9.28119C42.5812 -5.41881 71.7812 -0.0188408 86.4812 21.2812C91.0812 27.9812 93.6812 35.3812 94.4812 42.9812" stroke="#020202" stroke-width="0.7564" stroke-miterlimit="10" stroke-linecap="round" stroke-linejoin="round"></path>
        <path d="M44.7812 9.28116C45.7812 9.18116 46.7811 9.18115 47.8811 9.18115C69.2811 9.18115 86.5811 26.4812 86.5811 47.8812C86.5811 69.2812 69.2811 86.5812 47.8811 86.5812C26.4811 86.5812 9.18115 69.2812 9.18115 47.8812C9.18115 37.7812 13.0811 28.5812 19.3811 21.6812" stroke="#020202" stroke-width="0.7564" stroke-miterlimit="10" stroke-linecap="round" stroke-linejoin="round"></path>
        <path d="M66.0811 27.3813H29.6812V68.5814H66.0811V27.3813Z" stroke="#020202" stroke-width="0.7564" stroke-miterlimit="10" stroke-linecap="round" stroke-linejoin="round"></path>
        <path d="M47.8813 61.1812C52.8519 61.1812 56.8813 57.1517 56.8813 52.1812C56.8813 47.2106 52.8519 43.1812 47.8813 43.1812C42.9108 43.1812 38.8813 47.2106 38.8813 52.1812C38.8813 57.1517 42.9108 61.1812 47.8813 61.1812Z" stroke="#020202" stroke-width="0.7564" stroke-miterlimit="10" stroke-linecap="round" stroke-linejoin="round"></path>
        <path d="M29.6812 36.3813H66.0811" stroke="#020202" stroke-width="0.7564" stroke-miterlimit="10" stroke-linecap="round" stroke-linejoin="round"></path>
        <path d="M53.481 32.0815H56.881" stroke="#020202" stroke-width="0.7564" stroke-miterlimit="10" stroke-linecap="round" stroke-linejoin="round"></path>
        <path d="M47.8812 57.1815C45.0812 57.1815 42.7812 54.8815 42.7812 52.0815" stroke="#020202" stroke-width="0.7564" stroke-miterlimit="10" stroke-linecap="round" stroke-linejoin="round"></path>
    </symbol>

    <symbol fill="none" xmlns="http://www.w3.org/2000/svg" viewBox="0 0 96 96" id="11">
        <path d="M86.3519 75.552C83.2519 79.852 79.4519 83.6519 74.8519 86.8519C53.4519 101.652 24.1519 96.2519 9.35194 74.8519C-5.44806 53.4519 -0.0480576 24.1519 21.3519 9.35194C42.7519 -5.44806 72.0519 -0.0480576 86.8519 21.3519C91.4519 28.0519 94.1519 35.552 94.9519 43.052" stroke="#020202" stroke-width="0.7564" stroke-miterlimit="10" stroke-linecap="round" stroke-linejoin="round"></path>
        <path d="M44.9518 9.35196C45.9518 9.25196 47.0519 9.25195 48.0519 9.25195C69.5519 9.25195 86.9518 26.6519 86.9518 48.1519C86.9518 69.6519 69.5519 87.052 48.0519 87.052C26.5519 87.052 9.15186 69.6519 9.15186 48.1519C9.15186 38.0519 13.0519 28.752 19.3519 21.852" stroke="#020202" stroke-width="0.7564" stroke-miterlimit="10" stroke-linecap="round" stroke-linejoin="round"></path>
        <path d="M48.0519 22.252L35.7519 29.452L25.6519 35.1519V49.952C25.6519 56.852 29.3519 63.152 35.2519 66.552L48.0519 73.952L60.8519 66.552C66.7519 63.152 70.4518 56.752 70.4518 49.952V35.1519L48.0519 22.252Z" stroke="#020202" stroke-width="0.7564" stroke-miterlimit="10" stroke-linecap="round" stroke-linejoin="round"></path>
        <path d="M56.3519 46.252H39.752V58.952H56.3519V46.252Z" stroke="#020202" stroke-width="0.7564" stroke-miterlimit="10" stroke-linecap="round" stroke-linejoin="round"></path>
        <path d="M43.6519 46.252V41.752C43.6519 39.252 45.6519 37.252 48.1519 37.252C50.6519 37.252 52.6519 39.252 52.6519 41.752V46.252" stroke="#020202" stroke-width="0.7564" stroke-miterlimit="10" stroke-linecap="round" stroke-linejoin="round"></path>
        <path d="M48.0519 52.7519C48.7699 52.7519 49.3519 52.1698 49.3519 51.4519C49.3519 50.7339 48.7699 50.1519 48.0519 50.1519C47.334 50.1519 46.752 50.7339 46.752 51.4519C46.752 52.1698 47.334 52.7519 48.0519 52.7519Z" fill="#020202"></path>
        <path d="M48.0518 54.9517V51.4517" stroke="#020202" stroke-width="0.7564" stroke-miterlimit="10" stroke-linecap="round" stroke-linejoin="round"></path>
    </symbol>
</svg>
