<svg style="display: none" width="0" height="0">
    <symbol fill="none" xmlns="http://www.w3.org/2000/svg" viewBox="0 0 36 36" id="01">
        <path d="M34.7725 1H1V34.7725H34.7725V1Z" stroke="#161C23" stroke-width="0.76"></path>
        <path d="M9 9L27 27" stroke="#161C23" stroke-width="0.76"></path>
        <path d="M9 15V9H15" stroke="#161C23" stroke-width="0.76"></path>
        <path d="M27 21L27 27L21 27" stroke="#161C23" stroke-width="0.76"></path>
    </symbol>
    <symbol fill="none" xmlns="http://www.w3.org/2000/svg" viewBox="0 0 33 40" id="02">
        <path d="M5.52651 5.56385C11.6116 -0.521282 21.6521 -0.521282 27.7372 5.56385C33.8224 11.649 33.8224 21.6894 27.7372 27.7746L16.784 38.7278L5.83077 27.7746C-0.558615 21.6894 -0.558622 11.649 5.52651 5.56385Z" stroke="#161C23" stroke-width="0.76"></path>
        <path d="M16.4792 22.6025C20.008 22.6025 22.8686 19.7419 22.8686 16.2131C22.8686 12.6844 20.008 9.82373 16.4792 9.82373C12.9505 9.82373 10.0898 12.6844 10.0898 16.2131C10.0898 19.7419 12.9505 22.6025 16.4792 22.6025Z" stroke="#161C23" stroke-width="0.76"></path>
    </symbol>
    <symbol fill="none" xmlns="http://www.w3.org/2000/svg" viewBox="0 0 40 39" id="03">
        <path d="M31.7337 23.5381C29.3433 23.5381 27.2944 24.5625 25.9284 26.27C24.5625 24.5625 22.5136 23.5381 20.1232 23.5381C17.7328 23.5381 15.6839 24.5625 14.3179 26.27C12.952 24.5625 10.9031 23.5381 8.51268 23.5381C4.41486 23.5381 1 26.9529 1 31.0508V38.2219H38.9049V30.7093C38.9049 26.6115 35.8315 23.5381 31.7337 23.5381Z" stroke="#161C23" stroke-width="0.76" stroke-linecap="round" stroke-linejoin="round"></path>
        <path d="M23.8774 14.6594H20.1211V10.9031C20.1211 5.43929 24.5604 1 30.0242 1H33.7805V4.75634C33.7805 10.2201 29.3412 14.6594 23.8774 14.6594Z" stroke="#161C23" stroke-width="0.76" stroke-linecap="round" stroke-linejoin="round"></path>
        <path d="M16.3679 14.6594H20.1243V10.9031C20.1243 5.43929 15.685 1 10.2212 1H6.46484V4.75634C6.46484 10.2201 10.9042 14.6594 16.3679 14.6594Z" stroke="#161C23" stroke-width="0.76" stroke-linecap="round" stroke-linejoin="round"></path>
        <path d="M13.293 7.82959L20.1227 14.6593V23.5379" stroke="#161C23" stroke-width="0.76" stroke-linecap="round" stroke-linejoin="round"></path>
        <path d="M26.9508 7.82959L20.1211 14.6593" stroke="#161C23" stroke-width="0.76" stroke-linecap="round" stroke-linejoin="round"></path>
    </symbol>
    <symbol fill="none" xmlns="http://www.w3.org/2000/svg" viewBox="0 0 36 36" id="04">
        <path d="M34.7725 1H1V34.7725H34.7725V1Z" stroke="#161C23" stroke-width="0.76"></path>
        <path d="M17.7341 29.2957C23.9514 29.2957 28.9915 24.2556 28.9915 18.0383C28.9915 11.8209 23.9514 6.78076 17.7341 6.78076C11.5167 6.78076 6.47656 11.8209 6.47656 18.0383C6.47656 24.2556 11.5167 29.2957 17.7341 29.2957Z" stroke="#161C23" stroke-width="0.76"></path>
        <path d="M21.3889 19.2548C22.0611 19.2548 22.6059 18.71 22.6059 18.0378C22.6059 17.3657 22.0611 16.8208 21.3889 16.8208C20.7168 16.8208 20.1719 17.3657 20.1719 18.0378C20.1719 18.71 20.7168 19.2548 21.3889 19.2548Z" fill="#161C23"></path>
        <path d="M14.0842 19.2548C14.7564 19.2548 15.3012 18.71 15.3012 18.0378C15.3012 17.3657 14.7564 16.8208 14.0842 16.8208C13.4121 16.8208 12.8672 17.3657 12.8672 18.0378C12.8672 18.71 13.4121 19.2548 14.0842 19.2548Z" fill="#161C23"></path>
    </symbol>
    <symbol fill="none" xmlns="http://www.w3.org/2000/svg" viewBox="0 0 33 40" id="05">
        <path d="M27.7746 34.1639C21.6894 40.2491 11.649 40.2491 5.56385 34.1639C-0.521282 28.0788 -0.521282 18.0383 5.56385 11.9532L16.5171 1L27.4703 11.9532C33.8597 18.0383 33.8597 28.0788 27.7746 34.1639Z" stroke="#161C23" stroke-width="0.76"></path>
        <path d="M7.69322 19.8638C7.69322 19.8638 5.86769 29.9042 16.5167 31.7298" stroke="#161C23" stroke-width="0.76"></path>
    </symbol>
    <symbol fill="none" xmlns="http://www.w3.org/2000/svg" viewBox="0 0 34 36" id="06">
        <path d="M25.3405 1L15.9086 13.1703H32.6427L4.65108 35.381L14.083 19.5597H1L14.083 1H25.3405Z" stroke="#161C23" stroke-width="0.76"></path>
    </symbol>
    <symbol fill="none" xmlns="http://www.w3.org/2000/svg" viewBox="0 0 34 34" id="07">
        <path d="M32.6427 5.25977H1V32.6428H32.6427V5.25977Z" stroke="#161C23" stroke-width="0.76"></path>
        <path d="M12.5601 1H7.3877V5.25962H12.5601V1Z" stroke="#161C23" stroke-width="0.76"></path>
        <path d="M26.2524 1H21.0801V5.25962H26.2524V1Z" stroke="#161C23" stroke-width="0.76"></path>
        <path d="M27.4683 18.9512H19.5576" stroke="#161C23" stroke-width="0.76"></path>
        <path d="M10.1279 14.9956V23.2105" stroke="#161C23" stroke-width="0.76"></path>
        <path d="M14.0845 18.9512H6.17383" stroke="#161C23" stroke-width="0.76"></path>
    </symbol>
</svg>
