<svg style="display: none" width="0" height="0" >
    <symbol fill="none" xmlns="http://www.w3.org/2000/svg" viewBox="0 0 69 69" id="01">
        <path d="M61.9079 54.0793C59.686 57.1519 56.9625 59.8673 53.6656 62.0825C38.3994 72.5867 17.4711 68.728 6.9353 53.5076C-3.60051 38.2872 0.26979 17.4217 15.536 6.9175C30.8021 -3.58671 51.7304 0.271979 62.2662 15.4924C65.5631 20.28 67.4266 25.5678 68 30.9986" stroke="#161C23" stroke-width="0.76" stroke-miterlimit="10" stroke-linecap="round" stroke-linejoin="round"></path>
        <path d="M32.3786 6.9174C33.0953 6.84595 33.812 6.84595 34.6004 6.84595C49.9383 6.84595 62.3375 19.208 62.3375 34.4999C62.3375 49.7917 49.9383 62.1538 34.6004 62.1538C19.2626 62.1538 6.86328 49.7917 6.86328 34.4999C6.86328 27.2827 9.65849 20.7087 14.1738 15.7781" stroke="#161C23" stroke-width="0.76" stroke-miterlimit="10" stroke-linecap="round" stroke-linejoin="round"></path>
        <path d="M50.2988 30.2126H18.6914V41.8602H50.2988V30.2126Z" stroke="#161C23" stroke-width="0.76" stroke-miterlimit="10" stroke-linecap="round" stroke-linejoin="round"></path>
        <path d="M27.0765 27.2114H22.6328V30.2126H27.0765V27.2114Z" stroke="#161C23" stroke-width="0.76" stroke-miterlimit="10" stroke-linecap="round" stroke-linejoin="round"></path>
        <path d="M36.8245 27.2114H32.3809V30.2126H36.8245V27.2114Z" stroke="#161C23" stroke-width="0.76" stroke-miterlimit="10" stroke-linecap="round" stroke-linejoin="round"></path>
        <path d="M46.5003 27.2114H42.0566V30.2126H46.5003V27.2114Z" stroke="#161C23" stroke-width="0.76" stroke-miterlimit="10" stroke-linecap="round" stroke-linejoin="round"></path>
    </symbol>

    <symbol fill="none" xmlns="http://www.w3.org/2000/svg" viewBox="0 0 69 69" id="02">
        <path d="M61.9079 54.0793C59.686 57.1519 56.9625 59.8673 53.6656 62.0825C38.3994 72.5867 17.4711 68.728 6.9353 53.5076C-3.60051 38.2872 0.26979 17.4217 15.536 6.9175C30.8021 -3.58671 51.7304 0.271979 62.2662 15.4924C65.5631 20.28 67.4266 25.5678 68 30.9986" stroke="#161C23" stroke-width="0.76" stroke-miterlimit="10" stroke-linecap="round" stroke-linejoin="round"></path>
        <path d="M32.3786 6.91741C33.0953 6.84595 33.812 6.84595 34.6004 6.84595C49.9383 6.84595 62.3375 19.208 62.3375 34.4999C62.3375 49.7917 49.9383 62.1539 34.6004 62.1539C19.2626 62.1539 6.86328 49.7917 6.86328 34.4999C6.86328 27.2827 9.65849 20.7087 14.1738 15.7781" stroke="#161C23" stroke-width="0.76" stroke-miterlimit="10" stroke-linecap="round" stroke-linejoin="round"></path>
        <path d="M50.7273 40.7169C50.7273 40.7169 50.7273 40.6454 50.7273 40.7169C50.7273 31.7847 43.4884 24.4961 34.5294 24.4961C25.5703 24.4961 18.2598 31.7133 18.2598 40.6454C18.2598 40.6454 18.2598 40.6454 18.2598 40.7169H50.7273Z" stroke="#161C23" stroke-width="0.76" stroke-miterlimit="10" stroke-linecap="round" stroke-linejoin="round"></path>
        <path d="M20.123 20.9231L26.0718 26.854" stroke="#161C23" stroke-width="0.76" stroke-miterlimit="10" stroke-linecap="round" stroke-linejoin="round"></path>
        <path d="M48.8642 20.9231L42.8438 26.854" stroke="#161C23" stroke-width="0.76" stroke-miterlimit="10" stroke-linecap="round" stroke-linejoin="round"></path>
        <path d="M19.2633 21.138C19.9363 21.138 20.4818 20.5942 20.4818 19.9233C20.4818 19.2524 19.9363 18.7085 19.2633 18.7085C18.5904 18.7085 18.0449 19.2524 18.0449 19.9233C18.0449 20.5942 18.5904 21.138 19.2633 21.138Z" stroke="#161C23" stroke-width="0.76" stroke-miterlimit="10" stroke-linecap="round" stroke-linejoin="round"></path>
        <path d="M49.7965 21.1375C50.4695 21.1375 51.015 20.5937 51.015 19.9228C51.015 19.2519 50.4695 18.708 49.7965 18.708C49.1236 18.708 48.5781 19.2519 48.5781 19.9228C48.5781 20.5937 49.1236 21.1375 49.7965 21.1375Z" stroke="#161C23" stroke-width="0.76" stroke-miterlimit="10" stroke-linecap="round" stroke-linejoin="round"></path>
        <path d="M40.0485 35.8578C40.7214 35.8578 41.2669 35.3139 41.2669 34.643C41.2669 33.9721 40.7214 33.4282 40.0485 33.4282C39.3756 33.4282 38.8301 33.9721 38.8301 34.643C38.8301 35.3139 39.3756 35.8578 40.0485 35.8578Z" stroke="#161C23" stroke-width="0.76" stroke-miterlimit="10" stroke-linecap="round" stroke-linejoin="round"></path>
        <path d="M28.9391 35.8578C29.612 35.8578 30.1576 35.3139 30.1576 34.643C30.1576 33.9721 29.612 33.4282 28.9391 33.4282C28.2662 33.4282 27.7207 33.9721 27.7207 34.643C27.7207 35.3139 28.2662 35.8578 28.9391 35.8578Z" stroke="#161C23" stroke-width="0.76" stroke-miterlimit="10" stroke-linecap="round" stroke-linejoin="round"></path>
        <path d="M18.0449 48.0054V43.6465H50.7274V48.0054" stroke="#161C23" stroke-width="0.76" stroke-miterlimit="10" stroke-linecap="round" stroke-linejoin="round"></path>
    </symbol>

    <symbol fill="none" xmlns="http://www.w3.org/2000/svg" viewBox="0 0 69 69" id="03">
        <path d="M61.9079 54.0793C59.686 57.1519 56.9625 59.8673 53.6656 62.0825C38.3994 72.5867 17.4711 68.728 6.9353 53.5076C-3.60051 38.2872 0.26979 17.4217 15.536 6.9175C30.8021 -3.58671 51.7304 0.271979 62.2662 15.4924C65.5631 20.28 67.4266 25.5678 68 30.9986" stroke="#161C23" stroke-width="0.76" stroke-miterlimit="10" stroke-linecap="round" stroke-linejoin="round"></path>
        <path d="M32.3805 6.9174C33.0973 6.84595 33.814 6.84595 34.6024 6.84595C49.9402 6.84595 62.3395 19.208 62.3395 34.4999C62.3395 49.7917 49.9402 62.1538 34.6024 62.1538C19.2645 62.1538 6.86523 49.7917 6.86523 34.4999C6.86523 27.2827 9.66045 20.7087 14.1758 15.7781" stroke="#161C23" stroke-width="0.76" stroke-miterlimit="10" stroke-linecap="round" stroke-linejoin="round"></path>
        <path d="M17.4844 33.0977L29.1862 21.7517L45.1224 37.277" stroke="#161C23" stroke-width="0.76" stroke-linecap="round" stroke-linejoin="round"></path>
        <path d="M23.6699 32.4599L31.7347 24.6553" stroke="#161C23" stroke-width="0.76" stroke-linecap="round" stroke-linejoin="round"></path>
        <path d="M31.7324 29.6906L34.3679 27.1394" stroke="#161C23" stroke-width="0.76" stroke-linecap="round" stroke-linejoin="round"></path>
        <path d="M44.7207 33.3159H51.765L48.2031 21.1865L44.7207 33.3159Z" stroke="#161C23" stroke-width="0.76" stroke-linecap="round" stroke-linejoin="round"></path>
        <path d="M51.8869 42.0604C47.5822 42.0604 47.5822 39.4253 43.2951 39.4253C38.9904 39.4253 38.9904 42.0604 34.7032 42.0604C30.3985 42.0604 30.3985 39.4253 26.1114 39.4253C21.8067 39.4253 21.8067 42.0604 17.5195 42.0604" stroke="#161C23" stroke-width="0.76" stroke-linecap="round" stroke-linejoin="round"></path>
        <path d="M51.8869 46.9107C47.5822 46.9107 47.5822 44.2756 43.2951 44.2756C38.9904 44.2756 38.9904 46.9107 34.7032 46.9107C30.3985 46.9107 30.3985 44.2756 26.1114 44.2756C21.8067 44.2756 21.8067 46.9107 17.5195 46.9107" stroke="#161C23" stroke-width="0.76" stroke-linecap="round" stroke-linejoin="round"></path>
        <path d="M48.2012 33.3159V37.277" stroke="#161C23" stroke-width="0.76" stroke-linecap="round" stroke-linejoin="round"></path>
    </symbol>

    <symbol fill="none" xmlns="http://www.w3.org/2000/svg" viewBox="0 0 69 69" id="04">
        <path d="M61.9079 54.0793C59.686 57.1519 56.9625 59.8673 53.6656 62.0825C38.3994 72.5867 17.4711 68.728 6.9353 53.5076C-3.60051 38.2872 0.26979 17.4217 15.536 6.9175C30.8021 -3.58671 51.7304 0.27198 62.2662 15.4924C65.5631 20.28 67.4266 25.5679 68 30.9986" stroke="#161C23" stroke-width="0.76" stroke-miterlimit="10" stroke-linecap="round" stroke-linejoin="round"></path>
        <path d="M32.3786 6.91739C33.0953 6.84593 33.812 6.84595 34.6004 6.84595C49.9383 6.84595 62.3375 19.208 62.3375 34.4999C62.3375 49.7917 49.9383 62.1538 34.6004 62.1538C19.2626 62.1538 6.86328 49.7917 6.86328 34.4999C6.86328 27.2827 9.65849 20.7087 14.1738 15.7781" stroke="#161C23" stroke-width="0.76" stroke-miterlimit="10" stroke-linecap="round" stroke-linejoin="round"></path>
        <path d="M50.4537 29.3046L34.6858 36.3451L18.918 29.3046L34.6858 21.7227L50.4537 29.3046Z" stroke="#161C23" stroke-width="0.7" stroke-linecap="round" stroke-linejoin="round"></path>
        <path d="M50.4537 34.4495L34.6858 42.0314L18.918 34.4495" stroke="#161C23" stroke-width="0.7" stroke-linecap="round" stroke-linejoin="round"></path>
        <path d="M50.4537 39.8652L34.6858 47.4472L18.918 39.8652" stroke="#161C23" stroke-width="0.7" stroke-linecap="round" stroke-linejoin="round"></path>
    </symbol>

    <symbol fill="none" xmlns="http://www.w3.org/2000/svg" viewBox="0 0 69 69" id="05">
        <path d="M61.9079 54.0793C59.686 57.1519 56.9625 59.8673 53.6656 62.0825C38.3994 72.5867 17.4711 68.728 6.9353 53.5076C-3.60051 38.2872 0.26979 17.4217 15.536 6.9175C30.8021 -3.58671 51.7304 0.27198 62.2662 15.4924C65.5631 20.28 67.4266 25.5679 68 30.9986" stroke="#161C23" stroke-width="0.76" stroke-miterlimit="10" stroke-linecap="round" stroke-linejoin="round"></path>
        <path d="M32.3786 6.91739C33.0953 6.84593 33.812 6.84595 34.6004 6.84595C49.9383 6.84595 62.3375 19.2081 62.3375 34.4999C62.3375 49.7918 49.9383 62.1538 34.6004 62.1538C19.2626 62.1538 6.86328 49.7918 6.86328 34.4999C6.86328 27.2827 9.65849 20.7087 14.1738 15.7781" stroke="#161C23" stroke-width="0.76" stroke-miterlimit="10" stroke-linecap="round" stroke-linejoin="round"></path>
        <path d="M29.0214 49.4594V48.3545C29.0214 45.8106 27.9954 43.3685 26.3539 41.3333C24.6097 39.1964 23.6863 36.449 23.9941 33.3963C24.6097 28.512 28.611 24.5435 33.5358 23.9329C39.9995 23.2206 45.4372 28.3085 45.4372 34.6174C45.4372 37.1613 44.5138 39.6035 42.8722 41.5368C41.2307 43.4702 40.3073 45.9124 40.3073 48.4563V49.4594M29.0214 49.4594V53.1637H40.3073V49.4594M29.0214 49.4594H34.6643H40.3073" stroke="#161C23" stroke-width="0.76" stroke-linejoin="round"></path>
        <path d="M32.6133 49.4183L32.6133 36.6968C32.6133 37.8161 33.5367 38.8337 34.7679 38.8337C35.999 38.8337 36.9224 37.9179 36.9224 36.6968V49.4183" stroke="#161C23" stroke-width="0.76" stroke-linecap="round" stroke-linejoin="round"></path>
        <path d="M34.6854 14.5769V19.9362M23.6536 24.7976L19.8526 21.0081M45.4362 24.7976L49.2372 21.0081M19.9926 35.2995H14.6172M54.3952 35.2995H49.0198" stroke="#161C23" stroke-width="0.76" stroke-linecap="round" stroke-linejoin="round"></path>
    </symbol>

    <symbol fill="none" xmlns="http://www.w3.org/2000/svg" viewBox="0 0 69 69" id="06">
        <path d="M61.9079 54.0793C59.686 57.1519 56.9625 59.8673 53.6656 62.0825C38.3994 72.5867 17.4711 68.728 6.9353 53.5076C-3.60051 38.2872 0.26979 17.4217 15.536 6.9175C30.8021 -3.58671 51.7304 0.27198 62.2662 15.4924C65.5631 20.28 67.4266 25.5679 68 30.9986" stroke="#161C23" stroke-width="0.76" stroke-miterlimit="10" stroke-linecap="round" stroke-linejoin="round"></path>
        <path d="M32.3805 6.91739C33.0973 6.84593 33.814 6.84595 34.6024 6.84595C49.9402 6.84595 62.3395 19.208 62.3395 34.4999C62.3395 49.7917 49.9402 62.1538 34.6024 62.1538C19.2645 62.1538 6.86523 49.7917 6.86523 34.4999C6.86523 27.2827 9.66045 20.7087 14.1758 15.7781" stroke="#161C23" stroke-width="0.76" stroke-miterlimit="10" stroke-linecap="round" stroke-linejoin="round"></path>
        <path d="M34.6864 18.8643V49.5909M23.9355 39.7845H34.6864M23.9355 34.5544H34.6864M23.9355 29.3244H34.6864M23.9355 24.0943H34.6864M37.3741 36.5157V32.5932M23.9355 18.8643H45.4372V49.5909H23.9355V18.8643Z" stroke="#161C23" stroke-width="0.76" stroke-linecap="round" stroke-linejoin="round"></path>
    </symbol>

    <symbol fill="none" xmlns="http://www.w3.org/2000/svg" viewBox="0 0 69 69" id="07">
        <path d="M61.9079 54.0793C59.686 57.1519 56.9625 59.8673 53.6656 62.0825C38.3994 72.5867 17.4711 68.728 6.9353 53.5076C-3.60051 38.2872 0.26979 17.4217 15.536 6.9175C30.8021 -3.58671 51.7304 0.27198 62.2662 15.4924C65.5631 20.28 67.4266 25.5679 68 30.9986" stroke="#161C23" stroke-width="0.76" stroke-miterlimit="10" stroke-linecap="round" stroke-linejoin="round"></path>
        <path d="M32.3805 6.91739C33.0973 6.84593 33.814 6.84595 34.6024 6.84595C49.9402 6.84595 62.3395 19.208 62.3395 34.4999C62.3395 49.7917 49.9402 62.1538 34.6024 62.1538C19.2645 62.1538 6.86523 49.7917 6.86523 34.4999C6.86523 27.2827 9.66045 20.7087 14.1758 15.7781" stroke="#161C23" stroke-width="0.76" stroke-miterlimit="10" stroke-linecap="round" stroke-linejoin="round"></path>
        <path d="M42.1291 21.3522H26.9346L19.2656 34.5003L26.9346 47.7199H42.1291L49.798 34.5003L42.1291 21.3522Z" stroke="#161C23" stroke-width="0.76" stroke-miterlimit="10" stroke-linecap="round" stroke-linejoin="round"></path>
        <path d="M34.5324 40.7171C37.9761 40.7171 40.7678 37.9338 40.7678 34.5003C40.7678 31.0669 37.9761 28.2836 34.5324 28.2836C31.0886 28.2836 28.2969 31.0669 28.2969 34.5003C28.2969 37.9338 31.0886 40.7171 34.5324 40.7171Z" stroke="#161C23" stroke-width="0.76" stroke-miterlimit="10" stroke-linecap="round" stroke-linejoin="round"></path>
    </symbol>

    <symbol fill="none" xmlns="http://www.w3.org/2000/svg" viewBox="0 0 69 69" id="08">
        <path d="M61.9079 54.0793C59.686 57.1519 56.9625 59.8673 53.6656 62.0825C38.3994 72.5867 17.4711 68.728 6.9353 53.5076C-3.60051 38.2872 0.26979 17.4217 15.536 6.9175C30.8021 -3.58671 51.7304 0.271979 62.2662 15.4924C65.5631 20.28 67.4266 25.5678 68 30.9986" stroke="#161C23" stroke-width="0.76" stroke-miterlimit="10" stroke-linecap="round" stroke-linejoin="round"></path>
        <path d="M32.3786 6.91753C33.0953 6.84607 33.812 6.84607 34.6004 6.84607C49.9383 6.84607 62.3375 19.2082 62.3375 34.5C62.3375 49.7919 49.9383 62.154 34.6004 62.154C19.2626 62.154 6.86328 49.7919 6.86328 34.5C6.86328 27.2828 9.65849 20.7088 14.1738 15.7782" stroke="#161C23" stroke-width="0.76" stroke-miterlimit="10" stroke-linecap="round" stroke-linejoin="round"></path>
        <path d="M35.045 51.0199C39.5971 51.0199 43.2873 47.4339 43.2873 43.0104C43.2873 40.1748 41.7709 37.6834 39.4832 36.2601V29.4122V22.1202C39.4832 19.963 37.2644 18.1495 35.0444 18.1495C32.8245 18.1495 30.6069 19.963 30.6069 22.1202V36.2601C28.3191 37.6834 26.8027 40.1748 26.8027 43.0104C26.8027 47.4339 30.4929 51.0199 35.045 51.0199Z" stroke="#161C23" stroke-width="0.76" stroke-linecap="round" stroke-linejoin="round"></path>
        <ellipse cx="35.0451" cy="42.8023" rx="3.17012" ry="3.16061" stroke="#161C23" stroke-width="0.76" stroke-linecap="round"></ellipse>
        <path d="M35.0449 39.6416V24.4707" stroke="#161C23" stroke-width="0.76" stroke-linecap="round"></path>
    </symbol>

    <symbol fill="none" xmlns="http://www.w3.org/2000/svg" viewBox="0 0 69 69" id="09">
        <path d="M61.9079 54.0793C59.686 57.1519 56.9625 59.8673 53.6656 62.0825C38.3994 72.5867 17.4711 68.728 6.9353 53.5076C-3.60051 38.2872 0.26979 17.4217 15.536 6.9175C30.8021 -3.58671 51.7304 0.271979 62.2662 15.4924C65.5631 20.28 67.4266 25.5678 68 30.9986" stroke="#161C23" stroke-width="0.76" stroke-miterlimit="10" stroke-linecap="round" stroke-linejoin="round"></path>
        <path d="M32.3786 6.91753C33.0953 6.84607 33.812 6.84607 34.6004 6.84607C49.9383 6.84607 62.3375 19.2082 62.3375 34.5C62.3375 49.7919 49.9383 62.154 34.6004 62.154C19.2626 62.154 6.86328 49.7919 6.86328 34.5C6.86328 27.2828 9.65849 20.7088 14.1738 15.7782" stroke="#161C23" stroke-width="0.76" stroke-miterlimit="10" stroke-linecap="round" stroke-linejoin="round"></path>
        <path d="M41.2455 46.0179H40.8655C40.8655 46.2278 41.0357 46.3979 41.2455 46.3979V46.0179ZM41.2455 22.437V22.057C41.1447 22.057 41.0481 22.0971 40.9768 22.1683C40.9056 22.2396 40.8655 22.3362 40.8655 22.437L41.2455 22.437ZM50.4543 22.437H50.8343C50.8343 22.3362 50.7943 22.2396 50.723 22.1683C50.6518 22.0971 50.5551 22.057 50.4543 22.057V22.437ZM50.4543 46.0179V46.3979C50.6642 46.3979 50.8343 46.2278 50.8343 46.0179H50.4543ZM18.918 46.0179H18.538C18.538 46.2278 18.7081 46.3979 18.918 46.3979V46.0179ZM18.918 22.437L18.918 22.057C18.8172 22.057 18.7205 22.097 18.6493 22.1683C18.578 22.2396 18.538 22.3362 18.538 22.437L18.918 22.437ZM28.1268 22.437L28.5068 22.437C28.5068 22.2271 28.3366 22.057 28.1268 22.057V22.437ZM28.1268 46.0179V46.3979C28.2275 46.3979 28.3242 46.3579 28.3955 46.2866C28.4667 46.2153 28.5068 46.1187 28.5068 46.0179H28.1268ZM40.0613 35.2226C40.2712 35.2226 40.4413 35.0525 40.4413 34.8426C40.4413 34.6328 40.2712 34.4626 40.0613 34.4626L40.0613 35.2226ZM29.7891 34.4627C29.5792 34.4627 29.4091 34.6328 29.4091 34.8427C29.4091 35.0526 29.5792 35.2227 29.7891 35.2227L29.7891 34.4627ZM38.5235 32.873C38.3674 32.7327 38.1272 32.7455 37.9869 32.9016C37.8466 33.0576 37.8593 33.2979 38.0154 33.4382L38.5235 32.873ZM40.1255 34.8241L40.3688 35.116C40.4535 35.0454 40.5034 34.9415 40.5055 34.8312C40.5075 34.721 40.4616 34.6153 40.3796 34.5415L40.1255 34.8241ZM38.0262 36.0793C37.8649 36.2136 37.8432 36.4533 37.9776 36.6145C38.1119 36.7757 38.3515 36.7974 38.5128 36.6631L38.0262 36.0793ZM31.2044 36.6518C31.3594 36.7933 31.5998 36.7824 31.7413 36.6274C31.8827 36.4724 31.8718 36.232 31.7168 36.0905L31.2044 36.6518ZM29.7861 34.8427L30.0423 34.562C29.9791 34.5043 29.8983 34.4696 29.8129 34.4636L29.7861 34.8427ZM29.7853 34.8426L29.5156 34.5748C29.4109 34.6803 29.3773 34.8371 29.4295 34.9762C29.4817 35.1153 29.6103 35.2112 29.7585 35.2216L29.7853 34.8426ZM31.7302 33.4234C31.8781 33.2745 31.8773 33.0338 31.7284 32.886C31.5795 32.7381 31.3389 32.7389 31.191 32.8878L31.7302 33.4234ZM31.1997 28.5919C31.0471 28.736 31.0402 28.9765 31.1843 29.1291C31.3285 29.2817 31.569 29.2885 31.7215 29.1444L31.1997 28.5919ZM38.5304 22.7133C38.683 22.5692 38.6898 22.3287 38.5457 22.1761C38.4016 22.0235 38.1611 22.0167 38.0085 22.1608L38.5304 22.7133ZM38.0085 29.1444C38.1611 29.2885 38.4016 29.2817 38.5457 29.1291C38.6898 28.9765 38.683 28.736 38.5304 28.5919L38.0085 29.1444ZM31.7215 22.1608C31.569 22.0167 31.3285 22.0235 31.1843 22.1761C31.0402 22.3287 31.0471 22.5692 31.1997 22.7133L31.7215 22.1608ZM41.6255 46.0179L41.6255 22.437L40.8655 22.437L40.8655 46.0179H41.6255ZM41.2455 22.817L50.4543 22.817V22.057L41.2455 22.057V22.817ZM50.4543 45.6379H41.2455V46.3979H50.4543V45.6379ZM19.298 46.0179L19.298 22.437L18.538 22.437L18.538 46.0179H19.298ZM18.918 22.817L28.1268 22.817V22.057L18.918 22.057L18.918 22.817ZM28.1268 45.6379H18.918V46.3979H28.1268V45.6379ZM40.0613 34.4626L29.7891 34.4627L29.7891 35.2227L40.0613 35.2226L40.0613 34.4626ZM38.0154 33.4382L39.8715 35.1067L40.3796 34.5415L38.5235 32.873L38.0154 33.4382ZM39.8822 34.5322L38.0262 36.0793L38.5128 36.6631L40.3688 35.116L39.8822 34.5322ZM31.7168 36.0905L30.0423 34.562L29.53 35.1233L31.2044 36.6518L31.7168 36.0905ZM29.8129 34.4636L29.812 34.4635L29.7585 35.2216L29.7594 35.2217L29.8129 34.4636ZM30.0549 35.1104L31.7302 33.4234L31.191 32.8878L29.5156 34.5748L30.0549 35.1104ZM31.7215 29.1444L38.5304 22.7133L38.0085 22.1608L31.1997 28.5919L31.7215 29.1444ZM50.0743 22.437V46.0179H50.8343V22.437H50.0743ZM27.7468 22.437L27.7468 46.0179H28.5068L28.5068 22.437L27.7468 22.437ZM38.5304 28.5919L31.7215 22.1608L31.1997 22.7133L38.0085 29.1444L38.5304 28.5919Z" fill="#161C23"></path>
    </symbol>

    <symbol fill="none" xmlns="http://www.w3.org/2000/svg" viewBox="0 0 69 69" id="10">
        <path d="M61.9079 54.0793C59.686 57.1519 56.9625 59.8673 53.6656 62.0825C38.3994 72.5867 17.4711 68.728 6.9353 53.5076C-3.60051 38.2872 0.26979 17.4217 15.536 6.9175C30.8021 -3.58671 51.7304 0.271979 62.2662 15.4924C65.5631 20.28 67.4266 25.5678 68 30.9986" stroke="#161C23" stroke-width="0.76" stroke-miterlimit="10" stroke-linecap="round" stroke-linejoin="round"></path>
        <path d="M32.3805 6.91753C33.0973 6.84607 33.814 6.84607 34.6024 6.84607C49.9402 6.84607 62.3395 19.2082 62.3395 34.5C62.3395 49.7919 49.9402 62.154 34.6024 62.154C19.2645 62.154 6.86523 49.7919 6.86523 34.5C6.86523 27.2828 9.66045 20.7088 14.1758 15.7782" stroke="#161C23" stroke-width="0.76" stroke-miterlimit="10" stroke-linecap="round" stroke-linejoin="round"></path>
        <path d="M39.7033 37.2649V44.7679H22.502V27.6182H35.4029" stroke="#161C23" stroke-width="0.76" stroke-linecap="round" stroke-linejoin="round"></path>
        <path d="M40.0619 19.5791L50.3034 37.2648H29.8203L40.0619 19.5791Z" stroke="#161C23" stroke-width="0.76" stroke-linecap="round" stroke-linejoin="round"></path>
    </symbol>

    <symbol fill="none" xmlns="http://www.w3.org/2000/svg" viewBox="0 0 69 69" id="11">
        <path d="M61.9079 54.0793C59.686 57.1519 56.9625 59.8673 53.6656 62.0825C38.3994 72.5867 17.4711 68.728 6.9353 53.5076C-3.60051 38.2872 0.26979 17.4217 15.536 6.9175C30.8021 -3.58671 51.7304 0.27198 62.2662 15.4924C65.5631 20.28 67.4266 25.5678 68 30.9986" stroke="#161C23" stroke-width="0.76" stroke-miterlimit="10" stroke-linecap="round" stroke-linejoin="round"></path>
        <path d="M32.3786 6.91741C33.0953 6.84595 33.812 6.84595 34.6004 6.84595C49.9383 6.84595 62.3375 19.208 62.3375 34.4999C62.3375 49.7917 49.9383 62.1538 34.6004 62.1538C19.2626 62.1538 6.86328 49.7917 6.86328 34.4999C6.86328 27.2827 9.65849 20.7087 14.1738 15.7781" stroke="#161C23" stroke-width="0.76" stroke-miterlimit="10" stroke-linecap="round" stroke-linejoin="round"></path>
        <path d="M45.7113 19.4225H23.3496L33.312 34.4999L23.3496 49.6489H45.7113L35.7489 34.4999L45.7113 19.4225Z" stroke="#161C23" stroke-width="0.76" stroke-miterlimit="10" stroke-linecap="round" stroke-linejoin="round"></path>
        <path d="M34.5309 30.9988L39.763 23.1385H29.2988L34.5309 30.9988Z" stroke="#161C23" stroke-width="0.76" stroke-miterlimit="10" stroke-linecap="round" stroke-linejoin="round"></path>
        <path d="M31.5923 42.4316L29.2988 45.79H39.763L37.4695 42.3601L31.5923 42.4316Z" stroke="#161C23" stroke-width="0.76" stroke-miterlimit="10" stroke-linecap="round" stroke-linejoin="round"></path>
    </symbol>

    <symbol fill="none" xmlns="http://www.w3.org/2000/svg" viewBox="0 0 69 69" id="12">
        <path d="M61.9079 54.0793C59.686 57.1519 56.9625 59.8673 53.6656 62.0825C38.3994 72.5867 17.4711 68.728 6.9353 53.5076C-3.60051 38.2872 0.26979 17.4217 15.536 6.9175C30.8021 -3.58671 51.7304 0.27198 62.2662 15.4924C65.5631 20.28 67.4266 25.5679 68 30.9986" stroke="#161C23" stroke-width="0.76" stroke-miterlimit="10" stroke-linecap="round" stroke-linejoin="round"></path>
        <path d="M32.3786 6.91739C33.0953 6.84593 33.812 6.84595 34.6004 6.84595C49.9383 6.84595 62.3375 19.2081 62.3375 34.4999C62.3375 49.7918 49.9383 62.1538 34.6004 62.1538C19.2626 62.1538 6.86328 49.7918 6.86328 34.4999C6.86328 27.2827 9.65849 20.7087 14.1738 15.7781" stroke="#161C23" stroke-width="0.76" stroke-miterlimit="10" stroke-linecap="round" stroke-linejoin="round"></path>
        <path d="M36.752 28.8549C39.4039 29.7838 41.2673 32.2848 41.2673 35.2146C41.2673 38.9303 38.2571 41.9315 34.5302 41.9315C30.8032 41.9315 27.793 38.9303 27.793 35.2146C27.793 32.2848 29.6564 29.8553 32.2366 28.8549" stroke="#161C23" stroke-width="0.76" stroke-miterlimit="10" stroke-linecap="round" stroke-linejoin="round"></path>
        <path d="M34.5293 25.282V32.4277" stroke="#161C23" stroke-width="0.76" stroke-miterlimit="10" stroke-linecap="round" stroke-linejoin="round"></path>
        <path d="M34.5269 17.8235L17.8027 34.4976L34.5269 51.1716L51.2511 34.4976L34.5269 17.8235Z" stroke="#161C23" stroke-width="0.76" stroke-miterlimit="10" stroke-linecap="round" stroke-linejoin="round"></path>
        <path d="M40.1934 23.4956L43.8486 19.7798" stroke="#161C23" stroke-width="0.76" stroke-miterlimit="10" stroke-linecap="round" stroke-linejoin="round"></path>
        <path d="M45.5684 28.8549L49.2953 25.2106" stroke="#161C23" stroke-width="0.76" stroke-miterlimit="10" stroke-linecap="round" stroke-linejoin="round"></path>
        <path d="M19.7656 43.7894L23.4926 40.145" stroke="#161C23" stroke-width="0.76" stroke-miterlimit="10" stroke-linecap="round" stroke-linejoin="round"></path>
        <path d="M25.2129 49.2203L28.8682 45.5045" stroke="#161C23" stroke-width="0.76" stroke-miterlimit="10" stroke-linecap="round" stroke-linejoin="round"></path>
        <path d="M23.4926 28.8549L19.7656 25.2106" stroke="#161C23" stroke-width="0.76" stroke-miterlimit="10" stroke-linecap="round" stroke-linejoin="round"></path>
        <path d="M28.8682 23.4957L25.2129 19.7799" stroke="#161C23" stroke-width="0.76" stroke-miterlimit="10" stroke-linecap="round" stroke-linejoin="round"></path>
        <path d="M43.8467 49.2203L40.1914 45.5045" stroke="#161C23" stroke-width="0.76" stroke-miterlimit="10" stroke-linecap="round" stroke-linejoin="round"></path>
        <path d="M49.2934 43.7896L45.5664 40.1453" stroke="#161C23" stroke-width="0.76" stroke-miterlimit="10" stroke-linecap="round" stroke-linejoin="round"></path>
    </symbol>
</svg>
