<svg width="457" height="1061" viewBox="0 0 457 1061" fill="none" xmlns="http://www.w3.org/2000/svg">
<path d="M469.094 269.736L625.075 269.507M624.846 359.878L702.722 224.78M781.057 270.195L702.951 135.327M781.287 90.3702L625.305 90.5996M625.304 0.229004L547.658 135.097M469.325 89.9112L547.43 224.55M624.613 539.702L780.595 539.473M780.593 629.843L858.469 494.975M936.576 540.161L858.471 405.293M937.036 360.336L780.825 360.566M781.054 270.195L703.178 405.063M624.844 359.877L703.18 494.745M312.652 539.243L468.634 539.013M468.632 629.384L546.278 494.516M546.51 404.833L624.616 539.701L546.739 674.798M624.845 359.877L468.864 360.106M469.093 269.736L391.217 404.833M312.883 359.418L390.989 494.286M0.691406 538.785L156.673 538.556M156.444 628.926L234.32 494.058M312.655 539.244L234.549 404.376M312.884 359.419L156.903 359.649M157.132 269.278L79.2558 404.376M0.922357 358.96L79.0279 493.828M468.402 809.208L624.384 808.979M624.155 899.349L702.031 764.481M780.364 809.667L702.029 674.799M780.595 629.842L624.614 630.072M468.633 629.383L546.739 764.251M1092.79 539.931L936.578 540.161L858.932 675.029M1092.56 630.302L1170.43 495.205M1248.77 540.619L1170.44 405.751M1249 360.795L1093.02 361.024M1093.02 270.653L1015.14 405.522M937.037 360.336L1015.14 494.974M780.367 809.668L936.349 809.438M936.12 899.809L1014 764.941M1092.33 810.127L1014.22 675.258M1092.56 630.302L936.579 630.531M780.598 629.843L858.704 764.711M935.887 1079.63L1091.87 1079.4M1091.87 1169.77L1169.74 1034.91M1248.08 1080.09L1169.74 945.224M1248.31 900.267L1092.1 900.497M1092.33 810.126L1014.45 945.223M936.118 899.808L1014.45 1034.68M156.211 808.749H312.422M312.19 899.12L390.066 764.023M468.404 809.208L390.069 674.57M468.635 629.384L312.653 629.613M312.651 539.243L234.775 674.34M156.442 628.925L234.777 763.793M311.965 1078.95L467.946 1078.72M623.928 1079.4L545.822 944.536M624.158 899.58H468.176M468.405 809.438L390.529 944.307M312.196 899.121L390.531 1033.76M0 1078.49L155.981 1078.26M155.98 1168.63L233.626 1033.53M311.963 1078.94L233.858 944.077M312.193 899.12L156.211 899.35M156.44 808.979L78.5644 943.847M0.230951 898.661L78.3365 1033.53M623.93 1079.4L779.911 1079.17M779.909 1169.55L857.785 1034.45M935.893 1079.63L857.787 944.994M936.123 899.809L780.141 900.038M780.37 809.668L702.494 944.765M624.161 899.35L702.496 1034.22M779.908 1169.54H623.927M623.925 1079.4L546.049 1214.27" stroke="url(#paint0_linear_2:697)" stroke-width="0.25" stroke-miterlimit="10"/>
<defs>
<linearGradient id="paint0_linear_2:697" x1="1120.5" y1="0.229004" x2="-567.5" y2="0.229004" gradientUnits="userSpaceOnUse">
<stop/>
<stop offset="1" stop-opacity="0"/>
</linearGradient>
</defs>
</svg>
