<svg width="195" height="462" viewBox="0 0 195 462" fill="none" xmlns="http://www.w3.org/2000/svg">
<path d="M196.241 112.431L131.051 112.527L98.5031 168.886M228.692 93.7724L196.145 150.131L130.955 150.227M261.431 112.718L228.788 56.4549M261.527 37.7002L196.337 37.7959M196.336 0.0957031L163.885 56.359M131.147 37.5087L163.79 93.6764M196.048 225.149L261.238 225.054M261.237 262.754L293.784 206.491M326.428 225.341L293.785 169.077M326.428 225.341L391.714 225.245M326.428 225.341L293.977 281.604M261.334 150.418L326.62 150.323L359.263 206.49M261.429 112.718L228.882 168.982M196.144 150.131L228.883 206.395M130.858 224.862L65.6684 224.958L33.1209 281.317M163.309 206.299L130.858 262.562L163.501 318.825M163.406 168.886L196.049 225.149L163.501 281.508M65.7649 149.94L98.4079 206.203M0.383669 262.371L32.9307 206.108M65.6694 224.958L33.0263 168.695M195.952 337.484L130.762 337.58L98.0233 281.412M195.856 375.185L228.403 318.921M261.141 337.772L228.402 281.508M261.238 262.753L196.048 262.849M391.618 262.945L424.165 206.586M456.905 225.532L424.166 169.269M457.001 150.514L391.811 150.61M391.81 112.91L359.263 169.173M261.142 337.772L326.332 337.676M326.237 375.376L358.784 319.113M391.523 337.963L358.88 281.7M391.619 262.945L326.429 263.041M261.239 262.754L293.882 319.017M326.139 450.394L391.329 450.299M391.329 487.999L423.876 431.735M456.616 450.586L423.877 394.322M456.712 375.567L391.426 375.663M391.521 337.963L358.974 394.322M326.236 375.376L358.975 431.639M0.286153 337.389H65.5721M65.4754 375.089L98.0224 318.73M130.859 262.562L65.6688 262.658M0.382675 262.371L33.1217 318.634M65.3811 450.107L130.571 450.012M163.118 394.035L195.761 450.299L260.952 450.203M195.857 375.281H130.667M130.763 337.676L98.2158 393.94M65.4776 375.089L98.2166 431.257M0.189453 487.52L32.6404 431.161M65.3804 450.107L32.7374 393.844M65.4764 375.089L0.286377 375.185M293.498 431.544L260.951 487.903L195.761 487.903M326.142 450.394L293.499 394.226M326.238 375.376L261.048 375.472M261.144 337.772L228.597 394.131M195.858 375.185L228.597 431.448M195.76 450.298L163.213 506.561" stroke="url(#paint0_linear_204:3851)" stroke-width="0.25" stroke-miterlimit="10"/>
<defs>
<linearGradient id="paint0_linear_204:3851" x1="394.5" y1="165" x2="-16.5" y2="171" gradientUnits="userSpaceOnUse">
<stop/>
<stop offset="1" stop-opacity="0"/>
</linearGradient>
</defs>
</svg>
