<svg width="647" height="510" viewBox="0 0 647 510" fill="none" xmlns="http://www.w3.org/2000/svg">
<path opacity="0.7" d="M67 474L67 45" stroke="#161C23" stroke-width="0.7"/>
<path opacity="0.7" d="M62.5 49.5L67 45L71.5 49.5" stroke="#161C23" stroke-width="0.7"/>
<path opacity="0.7" d="M641 469L646 474L641 479" stroke="#161C23" stroke-width="0.7"/>
<path d="M16.4371 57.9229C16.4218 57.2507 16.544 56.6167 16.8037 56.0208C17.0787 55.4097 17.4607 54.875 17.9496 54.4167C18.3926 54.0194 18.9044 53.7139 19.485 53.5C20.0656 53.2708 20.6614 53.1562 21.2725 53.1562C21.8989 53.1562 22.4947 53.2708 23.06 53.5C23.6253 53.7292 24.1294 54.05 24.5725 54.4625C25.0461 54.9208 25.4128 55.4556 25.6725 56.0667C25.9322 56.6625 26.0621 57.2889 26.0621 57.9458C26.0621 58.6792 25.9017 59.3819 25.5808 60.0542C25.26 60.7264 24.7635 61.4139 24.0913 62.1167L18.2017 68.6937H26.1308V70H16.2996V68.6937L23.2204 61.1312C24.2287 60.0312 24.7329 58.9694 24.7329 57.9458C24.7329 57.4569 24.6336 56.9986 24.435 56.5708C24.2517 56.1278 23.9919 55.7458 23.6558 55.425C22.9683 54.7681 22.1662 54.4396 21.2496 54.4396C20.8065 54.4396 20.3787 54.5236 19.9662 54.6917C19.5537 54.8597 19.1871 55.0889 18.8662 55.3792C18.5301 55.7153 18.2628 56.1049 18.0642 56.5479C17.8656 56.991 17.7662 57.4493 17.7662 57.9229H16.4371ZM33.8727 70.3438C34.6213 70.3438 35.3317 70.1986 36.0039 69.9083C36.6761 69.6028 37.2567 69.1826 37.7456 68.6479C38.6317 67.6396 39.0747 66.4479 39.0747 65.0729V58.4042C39.0747 56.9528 38.5935 55.7306 37.631 54.7375C37.1421 54.2333 36.5768 53.8437 35.9352 53.5687C35.2935 53.2937 34.606 53.1562 33.8727 53.1562C33.1393 53.1562 32.4442 53.2937 31.7872 53.5687C31.1303 53.8437 30.565 54.2333 30.0914 54.7375C29.1442 55.7611 28.6706 56.9833 28.6706 58.4042V65.0729C28.6706 66.4785 29.1213 67.6778 30.0227 68.6708C30.4963 69.2056 31.0692 69.6181 31.7414 69.9083C32.4136 70.1986 33.124 70.3438 33.8727 70.3438ZM33.8727 54.4396C34.5143 54.4396 35.1178 54.5924 35.6831 54.8979C36.2484 55.2035 36.7143 55.616 37.081 56.1354C37.524 56.8076 37.7456 57.5639 37.7456 58.4042V65.0729C37.7456 65.9132 37.5317 66.6618 37.1039 67.3187C36.7372 67.8535 36.2713 68.2812 35.706 68.6021C35.1407 68.9076 34.5296 69.0528 33.8727 69.0375C33.2157 69.0528 32.6046 68.9076 32.0393 68.6021C31.474 68.2812 31.0157 67.8535 30.6643 67.3187C30.2213 66.6771 29.9997 65.9285 29.9997 65.0729V58.4042C29.9997 57.5333 30.2289 56.7771 30.6872 56.1354C31.0386 55.616 31.497 55.2035 32.0622 54.8979C32.6275 54.5924 33.231 54.4396 33.8727 54.4396Z" fill="#161C23" fill-opacity="0.9"/>
<path d="M24.0153 110.929V127.429H22.6862V112.418L19.5695 114.297V112.785L22.6862 110.929H24.0153ZM37.6238 110.929V112.212H30.153L29.7863 118.193C30.2599 117.75 30.8099 117.406 31.4363 117.162C32.0627 116.902 32.7197 116.772 33.4072 116.772C34.0947 116.772 34.7516 116.895 35.378 117.139C36.0044 117.383 36.562 117.727 37.0509 118.17C37.6315 118.69 38.0745 119.301 38.3801 120.004C38.7009 120.706 38.8613 121.455 38.8613 122.249C38.8613 122.983 38.7162 123.686 38.4259 124.358C38.1509 125.03 37.7613 125.618 37.2572 126.122C36.753 126.642 36.1572 127.047 35.4697 127.337C34.7974 127.627 34.0794 127.772 33.3155 127.772C32.6127 127.772 31.9405 127.65 31.2988 127.406C30.6572 127.146 30.0766 126.779 29.5572 126.306C28.778 125.542 28.2509 124.656 27.9759 123.647L29.2363 123.304C29.4349 124.113 29.8627 124.808 30.5197 125.389C30.9016 125.725 31.3294 125.985 31.803 126.168C32.2919 126.351 32.7961 126.443 33.3155 126.443C33.8808 126.443 34.4155 126.336 34.9197 126.122C35.4391 125.908 35.8898 125.618 36.2717 125.251C36.669 124.854 36.9745 124.404 37.1884 123.899C37.4176 123.38 37.5322 122.83 37.5322 122.249C37.5322 121.638 37.4023 121.058 37.1426 120.508C36.8981 119.958 36.5544 119.484 36.1113 119.087C35.2863 118.384 34.3544 118.033 33.3155 118.033C32.3224 118.033 31.444 118.346 30.6801 118.972C30.2676 119.324 29.9391 119.713 29.6947 120.141L28.4113 119.408L28.9155 110.929H37.6238Z" fill="#161C23" fill-opacity="0.9"/>
<path d="M24.9392 168.357V184.857H23.61V169.847L20.4933 171.726V170.213L23.61 168.357H24.9392ZM33.8727 185.201C34.6213 185.201 35.3317 185.056 36.0039 184.765C36.6761 184.46 37.2567 184.04 37.7456 183.505C38.6317 182.497 39.0747 181.305 39.0747 179.93V173.261C39.0747 171.81 38.5935 170.588 37.631 169.595C37.1421 169.09 36.5768 168.701 35.9352 168.426C35.2935 168.151 34.606 168.013 33.8727 168.013C33.1393 168.013 32.4442 168.151 31.7872 168.426C31.1303 168.701 30.565 169.09 30.0914 169.595C29.1442 170.618 28.6706 171.84 28.6706 173.261V179.93C28.6706 181.336 29.1213 182.535 30.0227 183.528C30.4963 184.063 31.0692 184.475 31.7414 184.765C32.4136 185.056 33.124 185.201 33.8727 185.201ZM33.8727 169.297C34.5143 169.297 35.1178 169.45 35.6831 169.755C36.2484 170.061 36.7143 170.473 37.081 170.993C37.524 171.665 37.7456 172.421 37.7456 173.261V179.93C37.7456 180.77 37.5317 181.519 37.1039 182.176C36.7372 182.711 36.2713 183.138 35.706 183.459C35.1407 183.765 34.5296 183.91 33.8727 183.895C33.2157 183.91 32.6046 183.765 32.0393 183.459C31.474 183.138 31.0157 182.711 30.6643 182.176C30.2213 181.534 29.9997 180.786 29.9997 179.93V173.261C29.9997 172.39 30.2289 171.634 30.6872 170.993C31.0386 170.473 31.497 170.061 32.0622 169.755C32.6275 169.45 33.231 169.297 33.8727 169.297Z" fill="#161C23" fill-opacity="0.9"/>
<path d="M37.6238 224.786V226.069H30.153L29.7863 232.05C30.2599 231.607 30.8099 231.263 31.4363 231.019C32.0627 230.759 32.7197 230.629 33.4072 230.629C34.0947 230.629 34.7516 230.752 35.378 230.996C36.0044 231.241 36.562 231.584 37.0509 232.027C37.6315 232.547 38.0745 233.158 38.3801 233.861C38.7009 234.563 38.8613 235.312 38.8613 236.107C38.8613 236.84 38.7162 237.543 38.4259 238.215C38.1509 238.887 37.7613 239.475 37.2572 239.979C36.753 240.499 36.1572 240.904 35.4697 241.194C34.7974 241.484 34.0794 241.629 33.3155 241.629C32.6127 241.629 31.9405 241.507 31.2988 241.263C30.6572 241.003 30.0766 240.636 29.5572 240.163C28.778 239.399 28.2509 238.513 27.9759 237.504L29.2363 237.161C29.4349 237.97 29.8627 238.666 30.5197 239.246C30.9016 239.582 31.3294 239.842 31.803 240.025C32.2919 240.209 32.7961 240.3 33.3155 240.3C33.8808 240.3 34.4155 240.193 34.9197 239.979C35.4391 239.766 35.8898 239.475 36.2717 239.109C36.669 238.711 36.9745 238.261 37.1884 237.757C37.4176 237.237 37.5322 236.687 37.5322 236.107C37.5322 235.495 37.4023 234.915 37.1426 234.365C36.8981 233.815 36.5544 233.341 36.1113 232.944C35.2863 232.241 34.3544 231.89 33.3155 231.89C32.3224 231.89 31.444 232.203 30.6801 232.829C30.2676 233.181 29.9391 233.57 29.6947 233.998L28.4113 233.265L28.9155 224.786H37.6238Z" fill="#161C23" fill-opacity="0.9"/>
<path d="M33.8727 299.058C34.6213 299.058 35.3317 298.913 36.0039 298.623C36.6761 298.317 37.2567 297.897 37.7456 297.362C38.6317 296.354 39.0747 295.162 39.0747 293.787V287.118C39.0747 285.667 38.5935 284.445 37.631 283.452C37.1421 282.948 36.5768 282.558 35.9352 282.283C35.2935 282.008 34.606 281.871 33.8727 281.871C33.1393 281.871 32.4442 282.008 31.7872 282.283C31.1303 282.558 30.565 282.948 30.0914 283.452C29.1442 284.475 28.6706 285.698 28.6706 287.118V293.787C28.6706 295.193 29.1213 296.392 30.0227 297.385C30.4963 297.92 31.0692 298.332 31.7414 298.623C32.4136 298.913 33.124 299.058 33.8727 299.058ZM33.8727 283.154C34.5143 283.154 35.1178 283.307 35.6831 283.612C36.2484 283.918 36.7143 284.33 37.081 284.85C37.524 285.522 37.7456 286.278 37.7456 287.118V293.787C37.7456 294.627 37.5317 295.376 37.1039 296.033C36.7372 296.568 36.2713 296.996 35.706 297.316C35.1407 297.622 34.5296 297.767 33.8727 297.752C33.2157 297.767 32.6046 297.622 32.0393 297.316C31.474 296.996 31.0157 296.568 30.6643 296.033C30.2213 295.391 29.9997 294.643 29.9997 293.787V287.118C29.9997 286.248 30.2289 285.491 30.6872 284.85C31.0386 284.33 31.497 283.918 32.0622 283.612C32.6275 283.307 33.231 283.154 33.8727 283.154Z" fill="#161C23" fill-opacity="0.9"/>
<path d="M25.0151 349.13V350.322H18.1401V349.13H25.0151ZM37.6238 339.643V340.926H30.153L29.7863 346.907C30.2599 346.464 30.8099 346.121 31.4363 345.876C32.0627 345.616 32.7197 345.487 33.4072 345.487C34.0947 345.487 34.7516 345.609 35.378 345.853C36.0044 346.098 36.562 346.441 37.0509 346.885C37.6315 347.404 38.0745 348.015 38.3801 348.718C38.7009 349.421 38.8613 350.169 38.8613 350.964C38.8613 351.697 38.7162 352.4 38.4259 353.072C38.1509 353.744 37.7613 354.332 37.2572 354.837C36.753 355.356 36.1572 355.761 35.4697 356.051C34.7974 356.341 34.0794 356.487 33.3155 356.487C32.6127 356.487 31.9405 356.364 31.2988 356.12C30.6572 355.86 30.0766 355.494 29.5572 355.02C28.778 354.256 28.2509 353.37 27.9759 352.362L29.2363 352.018C29.4349 352.828 29.8627 353.523 30.5197 354.103C30.9016 354.439 31.3294 354.699 31.803 354.882C32.2919 355.066 32.7961 355.157 33.3155 355.157C33.8808 355.157 34.4155 355.05 34.9197 354.837C35.4391 354.623 35.8898 354.332 36.2717 353.966C36.669 353.569 36.9745 353.118 37.1884 352.614C37.4176 352.094 37.5322 351.544 37.5322 350.964C37.5322 350.353 37.4023 349.772 37.1426 349.222C36.8981 348.672 36.5544 348.198 36.1113 347.801C35.2863 347.098 34.3544 346.747 33.3155 346.747C32.3224 346.747 31.444 347.06 30.6801 347.687C30.2676 348.038 29.9391 348.428 29.6947 348.855L28.4113 348.122L28.9155 339.643H37.6238Z" fill="#161C23" fill-opacity="0.9"/>
<path d="M18.1513 406.559V407.751H11.2763V406.559H18.1513ZM24.9392 397.071V413.571H23.61V398.561L20.4933 400.44V398.928L23.61 397.071H24.9392ZM33.8727 413.915C34.6213 413.915 35.3317 413.77 36.0039 413.48C36.6761 413.174 37.2567 412.754 37.7456 412.219C38.6317 411.211 39.0747 410.019 39.0747 408.644V401.976C39.0747 400.524 38.5935 399.302 37.631 398.309C37.1421 397.805 36.5768 397.415 35.9352 397.14C35.2935 396.865 34.606 396.728 33.8727 396.728C33.1393 396.728 32.4442 396.865 31.7872 397.14C31.1303 397.415 30.565 397.805 30.0914 398.309C29.1442 399.333 28.6706 400.555 28.6706 401.976V408.644C28.6706 410.05 29.1213 411.249 30.0227 412.242C30.4963 412.777 31.0692 413.189 31.7414 413.48C32.4136 413.77 33.124 413.915 33.8727 413.915ZM33.8727 398.011C34.5143 398.011 35.1178 398.164 35.6831 398.469C36.2484 398.775 36.7143 399.187 37.081 399.707C37.524 400.379 37.7456 401.135 37.7456 401.976V408.644C37.7456 409.485 37.5317 410.233 37.1039 410.89C36.7372 411.425 36.2713 411.853 35.706 412.173C35.1407 412.479 34.5296 412.624 33.8727 412.609C33.2157 412.624 32.6046 412.479 32.0393 412.173C31.474 411.853 31.0157 411.425 30.6643 410.89C30.2213 410.248 29.9997 409.5 29.9997 408.644V401.976C29.9997 401.105 30.2289 400.348 30.6872 399.707C31.0386 399.187 31.497 398.775 32.0622 398.469C32.6275 398.164 33.231 398.011 33.8727 398.011Z" fill="#161C23" fill-opacity="0.9"/>
<path d="M17.2274 463.987V465.179H10.3524V463.987H17.2274ZM24.0153 454.5V471H22.6862V455.99L19.5695 457.869V456.356L22.6862 454.5H24.0153ZM37.6238 454.5V455.783H30.153L29.7863 461.765C30.2599 461.322 30.8099 460.978 31.4363 460.733C32.0627 460.474 32.7197 460.344 33.4072 460.344C34.0947 460.344 34.7516 460.466 35.378 460.71C36.0044 460.955 36.562 461.299 37.0509 461.742C37.6315 462.261 38.0745 462.872 38.3801 463.575C38.7009 464.278 38.8613 465.026 38.8613 465.821C38.8613 466.554 38.7162 467.257 38.4259 467.929C38.1509 468.601 37.7613 469.19 37.2572 469.694C36.753 470.213 36.1572 470.618 35.4697 470.908C34.7974 471.199 34.0794 471.344 33.3155 471.344C32.6127 471.344 31.9405 471.222 31.2988 470.977C30.6572 470.717 30.0766 470.351 29.5572 469.877C28.778 469.113 28.2509 468.227 27.9759 467.219L29.2363 466.875C29.4349 467.685 29.8627 468.38 30.5197 468.96C30.9016 469.297 31.3294 469.556 31.803 469.74C32.2919 469.923 32.7961 470.015 33.3155 470.015C33.8808 470.015 34.4155 469.908 34.9197 469.694C35.4391 469.48 35.8898 469.19 36.2717 468.823C36.669 468.426 36.9745 467.975 37.1884 467.471C37.4176 466.951 37.5322 466.401 37.5322 465.821C37.5322 465.21 37.4023 464.629 37.1426 464.079C36.8981 463.529 36.5544 463.056 36.1113 462.658C35.2863 461.956 34.3544 461.604 33.3155 461.604C32.3224 461.604 31.444 461.917 30.6801 462.544C30.2676 462.895 29.9391 463.285 29.6947 463.712L28.4113 462.979L28.9155 454.5H37.6238Z" fill="#161C23" fill-opacity="0.9"/>
<path d="M56.4188 9.875L56.4375 20H55.35V12.35L51.8438 18.65H50.9063L47.4188 12.35V20H46.3125V9.875H47.3625L51.375 17.1125L55.4063 9.875H56.4188ZM67.1041 9.875V20H66.0354V10.9062H61.9104L61.2541 16.2687C61.1666 17.0687 61.0416 17.7375 60.8791 18.275C60.7166 18.8 60.4479 19.225 60.0729 19.55C59.6979 19.875 59.1666 20.025 58.4791 20V18.9687C58.9166 18.9687 59.2479 18.8625 59.4729 18.65C59.6979 18.4375 59.8604 18.1437 59.9604 17.7687C60.0604 17.3812 60.1541 16.8187 60.2416 16.0812L60.9729 9.875H67.1041ZM78.3638 9.875V20H77.2762V15.0687H71.1825V20H70.095V9.875H71.1825V14H77.2762V9.875H78.3638ZM94.6779 7.7375C95.0529 8.1125 95.3466 8.55625 95.5591 9.06875C95.7716 9.56875 95.8841 10.0875 95.8966 10.625C95.8966 11.1125 95.8029 11.5937 95.6154 12.0687C95.4279 12.5312 95.1716 12.95 94.8466 13.325C94.4841 13.7625 94.0216 14.1062 93.4591 14.3562C92.9091 14.6062 92.3404 14.7312 91.7529 14.7312H87.3654V20H86.2779V6.5H91.7529C92.2279 6.5 92.7091 6.5875 93.1966 6.7625C93.7716 6.975 94.2654 7.3 94.6779 7.7375ZM94.0404 12.575C94.2654 12.3 94.4404 12 94.5654 11.675C94.6904 11.35 94.7529 11.025 94.7529 10.7C94.7529 10.2625 94.6716 9.85 94.5091 9.4625C94.3591 9.075 94.1404 8.7375 93.8529 8.45C93.5779 8.175 93.2529 7.95625 92.8779 7.79375C92.5029 7.63125 92.1279 7.55 91.7529 7.55H87.3654V13.6812H91.7529C92.1779 13.6812 92.5904 13.5812 92.9904 13.3812C93.4029 13.1812 93.7529 12.9125 94.0404 12.575Z" fill="#161C23" fill-opacity="0.9"/>
<path d="M347.156 494.962H341.4V504H340.313V493.875H347.156V494.962ZM353.166 504.281C352.441 504.281 351.766 504.144 351.141 503.869C350.516 503.581 349.991 503.169 349.566 502.631C348.828 501.694 348.46 500.456 348.46 498.919C348.46 497.406 348.828 496.175 349.566 495.225C349.978 494.7 350.497 494.3 351.122 494.025C351.76 493.737 352.441 493.594 353.166 493.594C353.903 493.594 354.585 493.731 355.21 494.006C355.835 494.281 356.353 494.687 356.766 495.225C357.516 496.15 357.891 497.381 357.891 498.919C357.891 500.469 357.516 501.706 356.766 502.631C356.341 503.181 355.822 503.594 355.21 503.869C354.597 504.144 353.916 504.281 353.166 504.281ZM355.903 501.975C356.453 501.262 356.728 500.244 356.728 498.919C356.728 497.606 356.453 496.594 355.903 495.881C355.603 495.481 355.21 495.175 354.722 494.962C354.247 494.75 353.728 494.644 353.166 494.644C352.616 494.644 352.097 494.75 351.61 494.962C351.135 495.175 350.753 495.481 350.466 495.881C349.903 496.606 349.622 497.619 349.622 498.919C349.622 500.231 349.903 501.25 350.466 501.975C350.753 502.375 351.135 502.687 351.61 502.912C352.097 503.125 352.616 503.231 353.166 503.231C353.716 503.231 354.235 503.125 354.722 502.912C355.21 502.687 355.603 502.375 355.903 501.975ZM368.734 502.95H369.653V505.444H368.603V504H360.428V505.444H359.378V502.95C360.541 502.95 361.247 501.85 361.497 499.65L362.172 493.875H368.734V502.95ZM367.684 494.906H363.091L362.528 499.762C362.353 501.237 361.978 502.3 361.403 502.95H367.684V494.906Z" fill="#161C23" fill-opacity="0.9"/>
<path opacity="0.8" d="M150.663 431.146V433.021H156.913V431.146H150.663ZM162.104 423L159.292 424.687V427.292L162.104 425.562V438H164.5V423H162.104ZM173.448 438.292C171.927 438.292 170.407 437.729 169.407 436.562C168.407 435.375 168.136 434.271 168.136 432.688V428.292C168.136 426.729 168.386 425.625 169.407 424.396C170.365 423.292 171.865 422.646 173.448 422.687C174.948 422.646 176.469 423.229 177.49 424.396C178.49 425.542 178.761 426.708 178.761 428.292V432.688C178.761 434.208 178.511 435.396 177.511 436.562C176.511 437.708 175.052 438.292 173.448 438.292ZM173.448 424.896C172.427 424.896 171.469 425.458 170.969 426.312C170.615 426.875 170.532 427.5 170.532 428.292V432.688C170.532 433.396 170.573 434.104 170.99 434.75C171.532 435.562 172.469 436.083 173.448 436.083C174.448 436.083 175.386 435.562 175.927 434.729C176.323 434.125 176.365 433.542 176.365 432.688V428.292C176.365 427.521 176.344 427 175.969 426.333C175.448 425.458 174.469 424.896 173.448 424.896Z" fill="#161C23" fill-opacity="0.9"/>
<path opacity="0.8" d="M252.558 123L249.746 124.687V127.292L252.558 125.562V138H254.954V123H252.558ZM267.923 130.167C267.215 129.375 266.298 128.833 265.152 128.646L268.715 125.292V123H259.59V125.208H265.569L261.423 129.104L262.507 130.937C262.923 130.729 263.402 130.583 263.861 130.583C264.548 130.583 265.215 130.792 265.736 131.271C266.298 131.812 266.548 132.562 266.548 133.333C266.548 134.104 266.277 134.854 265.694 135.375C265.194 135.812 264.548 136.062 263.882 136.062C263.194 136.062 262.548 135.833 262.048 135.396C261.673 135.062 261.423 134.625 261.277 134.146L259.007 134.75C259.277 135.646 259.777 136.437 260.465 137.042C261.402 137.875 262.652 138.312 263.882 138.292C265.09 138.312 266.34 137.875 267.277 137.042C268.34 136.125 268.902 134.75 268.944 133.333C268.965 132.187 268.632 131.062 267.923 130.167Z" fill="#161C23" fill-opacity="0.9"/>
<path opacity="0.8" d="M347.558 115L344.746 116.687V119.292L347.558 117.562V130H349.954V115H347.558ZM362.694 125.25V121.271H360.319V125.25H356.236L361.09 115H358.632L353.798 125.25V127.458H360.319V130H362.694V127.458H364.152V125.25H362.694Z" fill="#161C23" fill-opacity="0.9"/>
<path opacity="0.8" d="M442.558 115L439.746 116.687V119.292L442.558 117.562V130H444.954V115H442.558ZM457.694 125.25V121.271H455.319V125.25H451.236L456.09 115H453.632L448.798 125.25V127.458H455.319V130H457.694V127.458H459.152V125.25H457.694Z" fill="#161C23" fill-opacity="0.9"/>
<path opacity="0.8" d="M537.558 115L534.746 116.687V119.292L537.558 117.562V130H539.954V115H537.558ZM552.694 125.25V121.271H550.319V125.25H546.236L551.09 115H548.632L543.798 125.25V127.458H550.319V130H552.694V127.458H554.152V125.25H552.694Z" fill="#161C23" fill-opacity="0.9"/>
<line opacity="0.3" x1="67" y1="290.75" x2="646" y2="290.75" stroke="black" stroke-width="0.5" stroke-dasharray="6 6"/>
<line opacity="0.3" x1="67" y1="404.75" x2="646" y2="404.75" stroke="black" stroke-width="0.5" stroke-dasharray="6 6"/>
<line opacity="0.3" x1="67" y1="155.75" x2="646" y2="155.75" stroke="black" stroke-width="0.5" stroke-dasharray="6 6"/>
<line opacity="0.3" x1="67" y1="147.75" x2="646" y2="147.75" stroke="black" stroke-width="0.5" stroke-dasharray="6 6"/>
<line opacity="0.7" x1="67" y1="473.65" x2="644" y2="473.65" stroke="#161C23" stroke-width="0.7"/>
<path d="M151.492 267.5V278H150.646V268.448L148.663 269.644V268.681L150.646 267.5H151.492ZM163.312 270.971H158.834V278H157.989V270.125H163.312V270.971ZM167.986 278.219C167.422 278.219 166.897 278.112 166.411 277.898C165.925 277.674 165.516 277.353 165.186 276.935C164.612 276.206 164.325 275.244 164.325 274.048C164.325 272.872 164.612 271.914 165.186 271.175C165.506 270.767 165.91 270.456 166.396 270.242C166.892 270.018 167.422 269.906 167.986 269.906C168.559 269.906 169.089 270.013 169.575 270.227C170.061 270.441 170.465 270.757 170.786 271.175C171.369 271.894 171.661 272.852 171.661 274.048C171.661 275.253 171.369 276.216 170.786 276.935C170.455 277.363 170.052 277.684 169.575 277.898C169.099 278.112 168.569 278.219 167.986 278.219ZM170.115 276.425C170.543 275.871 170.756 275.078 170.756 274.048C170.756 273.027 170.543 272.24 170.115 271.685C169.881 271.374 169.575 271.136 169.196 270.971C168.827 270.806 168.423 270.723 167.986 270.723C167.558 270.723 167.154 270.806 166.775 270.971C166.406 271.136 166.109 271.374 165.886 271.685C165.448 272.249 165.229 273.037 165.229 274.048C165.229 275.069 165.448 275.861 165.886 276.425C166.109 276.736 166.406 276.979 166.775 277.154C167.154 277.319 167.558 277.402 167.986 277.402C168.413 277.402 168.817 277.319 169.196 277.154C169.575 276.979 169.881 276.736 170.115 276.425ZM180.095 277.183H180.809V279.123H179.992V278H173.634V279.123H172.817V277.183C173.722 277.183 174.271 276.328 174.465 274.617L174.99 270.125H180.095V277.183ZM179.278 270.927H175.705L175.267 274.704C175.131 275.851 174.84 276.678 174.392 277.183H179.278V270.927Z" fill="#161C23" fill-opacity="0.9"/>
<path d="M242.113 306.315C242.103 305.887 242.181 305.483 242.346 305.104C242.521 304.715 242.765 304.375 243.076 304.083C243.358 303.831 243.683 303.636 244.053 303.5C244.422 303.354 244.801 303.281 245.19 303.281C245.589 303.281 245.968 303.354 246.328 303.5C246.687 303.646 247.008 303.85 247.29 304.112C247.592 304.404 247.825 304.744 247.99 305.133C248.155 305.512 248.238 305.911 248.238 306.329C248.238 306.796 248.136 307.243 247.932 307.671C247.728 308.099 247.412 308.536 246.984 308.983L243.236 313.169H248.282V314H242.026V313.169L246.43 308.356C247.071 307.656 247.392 306.981 247.392 306.329C247.392 306.018 247.329 305.726 247.203 305.454C247.086 305.172 246.921 304.929 246.707 304.725C246.269 304.307 245.759 304.098 245.176 304.098C244.894 304.098 244.621 304.151 244.359 304.258C244.096 304.365 243.863 304.511 243.659 304.696C243.445 304.91 243.275 305.158 243.149 305.44C243.022 305.722 242.959 306.013 242.959 306.315H242.113ZM259.343 306.971H254.866V314H254.02V306.125H259.343V306.971ZM264.017 314.219C263.453 314.219 262.928 314.112 262.442 313.898C261.956 313.674 261.547 313.353 261.217 312.935C260.643 312.206 260.356 311.244 260.356 310.048C260.356 308.872 260.643 307.914 261.217 307.175C261.538 306.767 261.941 306.456 262.427 306.242C262.923 306.018 263.453 305.906 264.017 305.906C264.591 305.906 265.12 306.013 265.606 306.227C266.093 306.441 266.496 306.757 266.817 307.175C267.4 307.894 267.692 308.852 267.692 310.048C267.692 311.253 267.4 312.216 266.817 312.935C266.486 313.363 266.083 313.684 265.606 313.898C265.13 314.112 264.6 314.219 264.017 314.219ZM266.146 312.425C266.574 311.871 266.788 311.078 266.788 310.048C266.788 309.027 266.574 308.24 266.146 307.685C265.913 307.374 265.606 307.136 265.227 306.971C264.858 306.806 264.454 306.723 264.017 306.723C263.589 306.723 263.186 306.806 262.806 306.971C262.437 307.136 262.141 307.374 261.917 307.685C261.479 308.249 261.261 309.037 261.261 310.048C261.261 311.069 261.479 311.861 261.917 312.425C262.141 312.736 262.437 312.979 262.806 313.154C263.186 313.319 263.589 313.402 264.017 313.402C264.445 313.402 264.848 313.319 265.227 313.154C265.606 312.979 265.913 312.736 266.146 312.425ZM276.126 313.183H276.84V315.123H276.024V314H269.665V315.123H268.849V313.183C269.753 313.183 270.302 312.328 270.497 310.617L271.022 306.125H276.126V313.183ZM275.309 306.927H271.736L271.299 310.704C271.163 311.851 270.871 312.678 270.424 313.183H275.309V306.927Z" fill="#161C23" fill-opacity="0.9"/>
<path d="M342.455 308.269C342.795 308.57 343.048 308.944 343.213 309.392C343.388 309.839 343.476 310.315 343.476 310.821C343.466 311.394 343.354 311.919 343.14 312.396C342.936 312.872 342.63 313.261 342.221 313.562C341.677 313.981 341.001 314.199 340.194 314.219C339.407 314.219 338.726 314.015 338.153 313.606C337.608 313.198 337.224 312.658 337.001 311.987L337.803 311.725C337.978 312.25 338.264 312.658 338.663 312.95C339.081 313.242 339.587 313.387 340.18 313.387C340.792 313.368 341.298 313.208 341.696 312.906C342.289 312.459 342.586 311.764 342.586 310.821C342.586 310.422 342.518 310.048 342.382 309.698C342.255 309.348 342.056 309.056 341.784 308.823C341.356 308.453 340.817 308.269 340.165 308.269C339.961 308.269 339.747 308.298 339.523 308.356C339.3 308.405 339.091 308.478 338.896 308.575L338.444 307.89L342.178 304.317H337.423V303.5H343.359V304.346L340.048 307.51C340.505 307.481 340.943 307.53 341.361 307.656C341.779 307.783 342.144 307.987 342.455 308.269ZM354.514 306.971H350.037V314H349.191V306.125H354.514V306.971ZM359.188 314.219C358.624 314.219 358.099 314.112 357.613 313.898C357.127 313.674 356.718 313.353 356.388 312.935C355.814 312.206 355.527 311.244 355.527 310.048C355.527 308.872 355.814 307.914 356.388 307.175C356.709 306.767 357.112 306.456 357.598 306.242C358.094 306.018 358.624 305.906 359.188 305.906C359.761 305.906 360.291 306.013 360.777 306.227C361.264 306.441 361.667 306.757 361.988 307.175C362.571 307.894 362.863 308.852 362.863 310.048C362.863 311.253 362.571 312.216 361.988 312.935C361.657 313.363 361.254 313.684 360.777 313.898C360.301 314.112 359.771 314.219 359.188 314.219ZM361.317 312.425C361.745 311.871 361.959 311.078 361.959 310.048C361.959 309.027 361.745 308.24 361.317 307.685C361.084 307.374 360.777 307.136 360.398 306.971C360.029 306.806 359.625 306.723 359.188 306.723C358.76 306.723 358.357 306.806 357.977 306.971C357.608 307.136 357.311 307.374 357.088 307.685C356.65 308.249 356.432 309.037 356.432 310.048C356.432 311.069 356.65 311.861 357.088 312.425C357.311 312.736 357.608 312.979 357.977 313.154C358.357 313.319 358.76 313.402 359.188 313.402C359.616 313.402 360.019 313.319 360.398 313.154C360.777 312.979 361.084 312.736 361.317 312.425ZM371.297 313.183H372.011V315.123H371.195V314H364.836V315.123H364.02V313.183C364.924 313.183 365.473 312.328 365.668 310.617L366.193 306.125H371.297V313.183ZM370.48 306.927H366.907L366.47 310.704C366.334 311.851 366.042 312.678 365.595 313.183H370.48V306.927Z" fill="#161C23" fill-opacity="0.9"/>
<path d="M438.637 311.054V311.871H437.441V314H436.595V311.871H431.841V311.054L435.414 303.5H436.304L432.745 311.054H436.595V307.875H437.441V311.054H438.637ZM449.527 306.971H445.05V314H444.204V306.125H449.527V306.971ZM454.201 314.219C453.638 314.219 453.113 314.112 452.626 313.898C452.14 313.674 451.732 313.353 451.401 312.935C450.828 312.206 450.541 311.244 450.541 310.048C450.541 308.872 450.828 307.914 451.401 307.175C451.722 306.767 452.126 306.456 452.612 306.242C453.108 306.018 453.638 305.906 454.201 305.906C454.775 305.906 455.305 306.013 455.791 306.227C456.277 306.441 456.681 306.757 457.001 307.175C457.585 307.894 457.876 308.852 457.876 310.048C457.876 311.253 457.585 312.216 457.001 312.935C456.671 313.363 456.267 313.684 455.791 313.898C455.315 314.112 454.785 314.219 454.201 314.219ZM456.331 312.425C456.758 311.871 456.972 311.078 456.972 310.048C456.972 309.027 456.758 308.24 456.331 307.685C456.097 307.374 455.791 307.136 455.412 306.971C455.042 306.806 454.639 306.723 454.201 306.723C453.774 306.723 453.37 306.806 452.991 306.971C452.622 307.136 452.325 307.374 452.101 307.685C451.664 308.249 451.445 309.037 451.445 310.048C451.445 311.069 451.664 311.861 452.101 312.425C452.325 312.736 452.622 312.979 452.991 313.154C453.37 313.319 453.774 313.402 454.201 313.402C454.629 313.402 455.033 313.319 455.412 313.154C455.791 312.979 456.097 312.736 456.331 312.425ZM466.31 313.183H467.025V315.123H466.208V314H459.85V315.123H459.033V313.183C459.937 313.183 460.487 312.328 460.681 310.617L461.206 306.125H466.31V313.183ZM465.494 306.927H461.921L461.483 310.704C461.347 311.851 461.056 312.678 460.608 313.183H465.494V306.927Z" fill="#161C23" fill-opacity="0.9"/>
<path d="M533.344 303.5V304.317H528.59L528.356 308.123C528.658 307.841 529.008 307.622 529.406 307.467C529.805 307.301 530.223 307.219 530.661 307.219C531.098 307.219 531.516 307.297 531.915 307.452C532.313 307.608 532.668 307.826 532.979 308.108C533.349 308.439 533.631 308.828 533.825 309.275C534.029 309.722 534.131 310.199 534.131 310.704C534.131 311.171 534.039 311.618 533.854 312.046C533.679 312.474 533.431 312.848 533.111 313.169C532.79 313.499 532.411 313.757 531.973 313.942C531.545 314.126 531.088 314.219 530.602 314.219C530.155 314.219 529.727 314.141 529.319 313.985C528.911 313.82 528.541 313.587 528.211 313.285C527.715 312.799 527.379 312.235 527.204 311.594L528.006 311.375C528.133 311.89 528.405 312.333 528.823 312.702C529.066 312.916 529.338 313.081 529.64 313.198C529.951 313.315 530.272 313.373 530.602 313.373C530.962 313.373 531.302 313.305 531.623 313.169C531.954 313.033 532.24 312.848 532.483 312.615C532.736 312.362 532.931 312.075 533.067 311.754C533.213 311.424 533.286 311.074 533.286 310.704C533.286 310.315 533.203 309.946 533.038 309.596C532.882 309.246 532.663 308.944 532.381 308.692C531.856 308.244 531.263 308.021 530.602 308.021C529.97 308.021 529.411 308.22 528.925 308.619C528.663 308.842 528.454 309.09 528.298 309.362L527.481 308.896L527.802 303.5H533.344ZM545.164 306.971H540.687V314H539.841V306.125H545.164V306.971ZM549.838 314.219C549.274 314.219 548.749 314.112 548.263 313.898C547.777 313.674 547.369 313.353 547.038 312.935C546.465 312.206 546.178 311.244 546.178 310.048C546.178 308.872 546.465 307.914 547.038 307.175C547.359 306.767 547.763 306.456 548.249 306.242C548.744 306.018 549.274 305.906 549.838 305.906C550.412 305.906 550.942 306.013 551.428 306.227C551.914 306.441 552.317 306.757 552.638 307.175C553.222 307.894 553.513 308.852 553.513 310.048C553.513 311.253 553.222 312.216 552.638 312.935C552.308 313.363 551.904 313.684 551.428 313.898C550.951 314.112 550.422 314.219 549.838 314.219ZM551.967 312.425C552.395 311.871 552.609 311.078 552.609 310.048C552.609 309.027 552.395 308.24 551.967 307.685C551.734 307.374 551.428 307.136 551.049 306.971C550.679 306.806 550.276 306.723 549.838 306.723C549.41 306.723 549.007 306.806 548.628 306.971C548.258 307.136 547.962 307.374 547.738 307.685C547.301 308.249 547.082 309.037 547.082 310.048C547.082 311.069 547.301 311.861 547.738 312.425C547.962 312.736 548.258 312.979 548.628 313.154C549.007 313.319 549.41 313.402 549.838 313.402C550.266 313.402 550.669 313.319 551.049 313.154C551.428 312.979 551.734 312.736 551.967 312.425ZM561.947 313.183H562.662V315.123H561.845V314H555.487V315.123H554.67V313.183C555.574 313.183 556.123 312.328 556.318 310.617L556.843 306.125H561.947V313.183ZM561.13 306.927H557.558L557.12 310.704C556.984 311.851 556.692 312.678 556.245 313.183H561.13V306.927Z" fill="#161C23" fill-opacity="0.9"/>
<rect x="135" y="291" width="60" height="114" fill="#9DC7D5"/>
<rect width="60" height="138" transform="matrix(1 0 0 -1 230 291)" fill="#6DABBF"/>
<rect width="60" height="144" transform="matrix(1 0 0 -1 325 291)" fill="#3C8FAA"/>
<rect width="60" height="144" transform="matrix(1 0 0 -1 420 291)" fill="#0B7495"/>
<rect width="60" height="144" transform="matrix(1 0 0 -1 515 291)" fill="#0B7495"/>
</svg>
