<svg width="647" height="510" viewBox="0 0 647 510" fill="none" xmlns="http://www.w3.org/2000/svg">
<path opacity="0.7" d="M67 474L67 45" stroke="#161C23" stroke-width="0.7"/>
<path opacity="0.7" d="M62.5 49.5L67 45L71.5 49.5" stroke="#161C23" stroke-width="0.7"/>
<path opacity="0.7" d="M641 469L646 474L641 479" stroke="#161C23" stroke-width="0.7"/>
<path d="M16.238 57.5104C16.238 56.8382 16.3526 56.2271 16.5817 55.6771C16.8262 55.1118 17.1929 54.6306 17.6817 54.2333C18.522 53.5153 19.622 53.1562 20.9817 53.1562C22.3567 53.1562 23.4644 53.5153 24.3047 54.2333C24.7936 54.6 25.1526 55.0736 25.3817 55.6542C25.6262 56.2347 25.7484 56.8535 25.7484 57.5104C25.7484 58.1062 25.6415 58.6639 25.4276 59.1833C25.229 59.6875 24.9311 60.1229 24.5338 60.4896C24.2894 60.7493 23.9991 60.9785 23.663 61.1771C24.1213 61.4368 24.5262 61.75 24.8776 62.1167C25.3054 62.5444 25.6262 63.0562 25.8401 63.6521C26.054 64.2326 26.1609 64.8285 26.1609 65.4396C26.1456 66.1424 26.0158 66.8146 25.7713 67.4562C25.5269 68.0979 25.1526 68.6403 24.6484 69.0833C24.1748 69.5111 23.6172 69.8243 22.9755 70.0229C22.3338 70.2368 21.6692 70.3438 20.9817 70.3438C20.3095 70.3438 19.6526 70.2368 19.0109 70.0229C18.3692 69.8243 17.8116 69.5111 17.338 69.0833C16.8338 68.625 16.4519 68.075 16.1922 67.4333C15.9477 66.7764 15.8331 66.1118 15.8484 65.4396C15.8331 64.8285 15.9324 64.2326 16.1463 63.6521C16.3602 63.0562 16.681 62.5444 17.1088 62.1167C17.4602 61.75 17.8651 61.4368 18.3234 61.1771C17.9873 60.9785 17.697 60.7493 17.4526 60.4896C17.0554 60.1229 16.7498 59.6875 16.5359 59.1833C16.3373 58.6639 16.238 58.1062 16.238 57.5104ZM17.6359 57.6021C17.6359 58.0451 17.7123 58.4576 17.8651 58.8396C18.0179 59.2062 18.247 59.5118 18.5526 59.7562C18.8581 60.016 19.2248 60.2146 19.6526 60.3521C20.0804 60.4896 20.5234 60.5583 20.9817 60.5583C21.9901 60.5583 22.8074 60.291 23.4338 59.7562C23.7394 59.5118 23.9686 59.2062 24.1213 58.8396C24.2741 58.4576 24.3505 58.0451 24.3505 57.6021C24.3505 56.5632 24.0373 55.784 23.4109 55.2646C22.8456 54.7604 22.0359 54.5083 20.9817 54.5083C19.9429 54.5083 19.1408 54.7604 18.5755 55.2646C17.9491 55.784 17.6359 56.5632 17.6359 57.6021ZM23.7317 68.0979C24.0679 67.7771 24.3199 67.3875 24.488 66.9292C24.6561 66.4708 24.7401 65.9743 24.7401 65.4396C24.7401 64.9049 24.6561 64.4083 24.488 63.95C24.3199 63.4917 24.0679 63.1021 23.7317 62.7812C23.3956 62.4604 22.9908 62.2236 22.5172 62.0708C22.0436 61.9181 21.5317 61.8417 20.9817 61.8417C20.447 61.8417 19.9429 61.9181 19.4692 62.0708C18.9956 62.2236 18.5908 62.4604 18.2547 62.7812C17.9185 63.1021 17.6665 63.4917 17.4984 63.95C17.3304 64.4083 17.2463 64.9049 17.2463 65.4396C17.2463 65.9743 17.3304 66.4708 17.4984 66.9292C17.6665 67.3875 17.9185 67.7771 18.2547 68.0979C18.5908 68.4035 18.9956 68.6403 19.4692 68.8083C19.9581 68.9764 20.4623 69.0604 20.9817 69.0604C21.5165 69.0604 22.0206 68.984 22.4942 68.8312C22.9831 68.6632 23.3956 68.4187 23.7317 68.0979ZM33.8727 70.3438C34.6213 70.3438 35.3317 70.1986 36.0039 69.9083C36.6761 69.6028 37.2567 69.1826 37.7456 68.6479C38.6317 67.6396 39.0747 66.4479 39.0747 65.0729V58.4042C39.0747 56.9528 38.5935 55.7306 37.631 54.7375C37.1421 54.2333 36.5768 53.8437 35.9352 53.5687C35.2935 53.2937 34.606 53.1562 33.8727 53.1562C33.1393 53.1562 32.4442 53.2937 31.7872 53.5687C31.1303 53.8437 30.565 54.2333 30.0914 54.7375C29.1442 55.7611 28.6706 56.9833 28.6706 58.4042V65.0729C28.6706 66.4785 29.1213 67.6778 30.0227 68.6708C30.4963 69.2056 31.0692 69.6181 31.7414 69.9083C32.4136 70.1986 33.124 70.3438 33.8727 70.3438ZM33.8727 54.4396C34.5143 54.4396 35.1178 54.5924 35.6831 54.8979C36.2484 55.2035 36.7143 55.616 37.081 56.1354C37.524 56.8076 37.7456 57.5639 37.7456 58.4042V65.0729C37.7456 65.9132 37.5317 66.6618 37.1039 67.3187C36.7372 67.8535 36.2713 68.2812 35.706 68.6021C35.1407 68.9076 34.5296 69.0528 33.8727 69.0375C33.2157 69.0528 32.6046 68.9076 32.0393 68.6021C31.474 68.2812 31.0157 67.8535 30.6643 67.3187C30.2213 66.6771 29.9997 65.9285 29.9997 65.0729V58.4042C29.9997 57.5333 30.2289 56.7771 30.6872 56.1354C31.0386 55.616 31.497 55.2035 32.0622 54.8979C32.6275 54.5924 33.231 54.4396 33.8727 54.4396Z" fill="#161C23" fill-opacity="0.9"/>
<path d="M24.2875 106.729C23.9208 106.118 23.4166 105.629 22.775 105.262C22.1333 104.881 21.4382 104.69 20.6896 104.69C20.0632 104.69 19.475 104.819 18.925 105.079C18.375 105.324 17.9166 105.667 17.55 106.11C17.1833 106.508 16.9007 106.966 16.7021 107.485C16.5034 107.99 16.4041 108.524 16.4041 109.09V111.817C16.9083 111.129 17.5347 110.587 18.2833 110.19C19.0319 109.792 19.834 109.594 20.6896 109.594C21.4229 109.594 22.118 109.731 22.775 110.006C23.4319 110.281 24.0201 110.663 24.5396 111.152C25.059 111.672 25.4562 112.267 25.7312 112.94C26.0215 113.612 26.1666 114.33 26.1666 115.094C26.1666 115.812 26.0291 116.499 25.7541 117.156C25.4791 117.798 25.0972 118.371 24.6083 118.875C24.1041 119.425 23.5007 119.853 22.7979 120.158C22.1104 120.449 21.3847 120.594 20.6208 120.594C19.8264 120.594 19.0778 120.441 18.375 120.135C17.6722 119.815 17.0611 119.372 16.5416 118.806C15.5639 117.767 15.075 116.469 15.075 114.91V109.09C15.075 108.28 15.2125 107.531 15.4875 106.844C15.7778 106.141 16.1903 105.53 16.725 105.01C17.2444 104.491 17.8403 104.094 18.5125 103.819C19.2 103.544 19.9257 103.406 20.6896 103.406C21.6521 103.406 22.5382 103.635 23.3479 104.094C24.1729 104.537 24.8375 105.156 25.3416 105.95L24.2875 106.729ZM20.6666 119.173C21.3083 119.173 21.9041 119.035 22.4541 118.76C23.0041 118.485 23.4625 118.103 23.8291 117.615C24.1041 117.263 24.318 116.874 24.4708 116.446C24.6389 116.003 24.7229 115.56 24.7229 115.117C24.7229 114.475 24.593 113.879 24.3333 113.329C24.0736 112.779 23.7146 112.313 23.2562 111.931C22.5076 111.305 21.6215 110.992 20.5979 110.992C19.9715 110.992 19.3833 111.129 18.8333 111.404C18.2833 111.664 17.8173 112.023 17.4354 112.481C16.8243 113.215 16.5187 114.07 16.5187 115.048C16.5187 115.628 16.6333 116.178 16.8625 116.698C17.1069 117.217 17.4278 117.676 17.825 118.073C18.1916 118.424 18.6194 118.699 19.1083 118.898C19.5972 119.081 20.1166 119.173 20.6666 119.173ZM33.8727 120.594C34.6213 120.594 35.3317 120.449 36.0039 120.158C36.6761 119.853 37.2567 119.433 37.7456 118.898C38.6317 117.89 39.0747 116.698 39.0747 115.323V108.654C39.0747 107.203 38.5935 105.981 37.631 104.987C37.1421 104.483 36.5768 104.094 35.9352 103.819C35.2935 103.544 34.606 103.406 33.8727 103.406C33.1393 103.406 32.4442 103.544 31.7872 103.819C31.1303 104.094 30.565 104.483 30.0914 104.987C29.1442 106.011 28.6706 107.233 28.6706 108.654V115.323C28.6706 116.728 29.1213 117.928 30.0227 118.921C30.4963 119.456 31.0692 119.868 31.7414 120.158C32.4136 120.449 33.124 120.594 33.8727 120.594ZM33.8727 104.69C34.5143 104.69 35.1178 104.842 35.6831 105.148C36.2484 105.453 36.7143 105.866 37.081 106.385C37.524 107.058 37.7456 107.814 37.7456 108.654V115.323C37.7456 116.163 37.5317 116.912 37.1039 117.569C36.7372 118.103 36.2713 118.531 35.706 118.852C35.1407 119.158 34.5296 119.303 33.8727 119.287C33.2157 119.303 32.6046 119.158 32.0393 118.852C31.474 118.531 31.0157 118.103 30.6643 117.569C30.2213 116.927 29.9997 116.178 29.9997 115.323V108.654C29.9997 107.783 30.2289 107.027 30.6872 106.385C31.0386 105.866 31.497 105.453 32.0622 105.148C32.6275 104.842 33.231 104.69 33.8727 104.69Z" fill="#161C23" fill-opacity="0.9"/>
<path d="M26.3987 165.871V167.154H24.5195V170.5H23.1903V167.154H15.7195V165.871L21.3341 154H22.732L17.1403 165.871H23.1903V160.875H24.5195V165.871H26.3987ZM33.8727 170.844C34.6213 170.844 35.3317 170.699 36.0039 170.408C36.6761 170.103 37.2567 169.683 37.7456 169.148C38.6317 168.14 39.0747 166.948 39.0747 165.573V158.904C39.0747 157.453 38.5935 156.231 37.631 155.237C37.1421 154.733 36.5768 154.344 35.9352 154.069C35.2935 153.794 34.606 153.656 33.8727 153.656C33.1393 153.656 32.4442 153.794 31.7872 154.069C31.1303 154.344 30.565 154.733 30.0914 155.237C29.1442 156.261 28.6706 157.483 28.6706 158.904V165.573C28.6706 166.978 29.1213 168.178 30.0227 169.171C30.4963 169.706 31.0692 170.118 31.7414 170.408C32.4136 170.699 33.124 170.844 33.8727 170.844ZM33.8727 154.94C34.5143 154.94 35.1178 155.092 35.6831 155.398C36.2484 155.703 36.7143 156.116 37.081 156.635C37.524 157.308 37.7456 158.064 37.7456 158.904V165.573C37.7456 166.413 37.5317 167.162 37.1039 167.819C36.7372 168.353 36.2713 168.781 35.706 169.102C35.1407 169.408 34.5296 169.553 33.8727 169.537C33.2157 169.553 32.6046 169.408 32.0393 169.102C31.474 168.781 31.0157 168.353 30.6643 167.819C30.2213 167.177 29.9997 166.428 29.9997 165.573V158.904C29.9997 158.033 30.2289 157.277 30.6872 156.635C31.0386 156.116 31.497 155.703 32.0622 155.398C32.6275 155.092 33.231 154.94 33.8727 154.94Z" fill="#161C23" fill-opacity="0.9"/>
<path d="M16.4371 207.673C16.4218 207.001 16.544 206.367 16.8037 205.771C17.0787 205.16 17.4607 204.625 17.9496 204.167C18.3926 203.769 18.9044 203.464 19.485 203.25C20.0656 203.021 20.6614 202.906 21.2725 202.906C21.8989 202.906 22.4947 203.021 23.06 203.25C23.6253 203.479 24.1294 203.8 24.5725 204.212C25.0461 204.671 25.4128 205.206 25.6725 205.817C25.9322 206.412 26.0621 207.039 26.0621 207.696C26.0621 208.429 25.9017 209.132 25.5808 209.804C25.26 210.476 24.7635 211.164 24.0913 211.867L18.2017 218.444H26.1308V219.75H16.2996V218.444L23.2204 210.881C24.2287 209.781 24.7329 208.719 24.7329 207.696C24.7329 207.207 24.6336 206.749 24.435 206.321C24.2517 205.878 23.9919 205.496 23.6558 205.175C22.9683 204.518 22.1662 204.19 21.2496 204.19C20.8065 204.19 20.3787 204.274 19.9662 204.442C19.5537 204.61 19.1871 204.839 18.8662 205.129C18.5301 205.465 18.2628 205.855 18.0642 206.298C17.8656 206.741 17.7662 207.199 17.7662 207.673H16.4371ZM33.8727 220.094C34.6213 220.094 35.3317 219.949 36.0039 219.658C36.6761 219.353 37.2567 218.933 37.7456 218.398C38.6317 217.39 39.0747 216.198 39.0747 214.823V208.154C39.0747 206.703 38.5935 205.481 37.631 204.487C37.1421 203.983 36.5768 203.594 35.9352 203.319C35.2935 203.044 34.606 202.906 33.8727 202.906C33.1393 202.906 32.4442 203.044 31.7872 203.319C31.1303 203.594 30.565 203.983 30.0914 204.487C29.1442 205.511 28.6706 206.733 28.6706 208.154V214.823C28.6706 216.228 29.1213 217.428 30.0227 218.421C30.4963 218.956 31.0692 219.368 31.7414 219.658C32.4136 219.949 33.124 220.094 33.8727 220.094ZM33.8727 204.19C34.5143 204.19 35.1178 204.342 35.6831 204.648C36.2484 204.953 36.7143 205.366 37.081 205.885C37.524 206.558 37.7456 207.314 37.7456 208.154V214.823C37.7456 215.663 37.5317 216.412 37.1039 217.069C36.7372 217.603 36.2713 218.031 35.706 218.352C35.1407 218.658 34.5296 218.803 33.8727 218.787C33.2157 218.803 32.6046 218.658 32.0393 218.352C31.474 218.031 31.0157 217.603 30.6643 217.069C30.2213 216.427 29.9997 215.678 29.9997 214.823V208.154C29.9997 207.283 30.2289 206.527 30.6872 205.885C31.0386 205.366 31.497 204.953 32.0622 204.648C32.6275 204.342 33.231 204.19 33.8727 204.19Z" fill="#161C23" fill-opacity="0.9"/>
<path d="M33.8727 270.344C34.6213 270.344 35.3317 270.199 36.0039 269.908C36.6761 269.603 37.2567 269.183 37.7456 268.648C38.6317 267.64 39.0747 266.448 39.0747 265.073V258.404C39.0747 256.953 38.5935 255.731 37.631 254.737C37.1421 254.233 36.5768 253.844 35.9352 253.569C35.2935 253.294 34.606 253.156 33.8727 253.156C33.1393 253.156 32.4442 253.294 31.7872 253.569C31.1303 253.844 30.565 254.233 30.0914 254.737C29.1442 255.761 28.6706 256.983 28.6706 258.404V265.073C28.6706 266.478 29.1213 267.678 30.0227 268.671C30.4963 269.206 31.0692 269.618 31.7414 269.908C32.4136 270.199 33.124 270.344 33.8727 270.344ZM33.8727 254.44C34.5143 254.44 35.1178 254.592 35.6831 254.898C36.2484 255.203 36.7143 255.616 37.081 256.135C37.524 256.808 37.7456 257.564 37.7456 258.404V265.073C37.7456 265.913 37.5317 266.662 37.1039 267.319C36.7372 267.853 36.2713 268.281 35.706 268.602C35.1407 268.908 34.5296 269.053 33.8727 269.037C33.2157 269.053 32.6046 268.908 32.0393 268.602C31.474 268.281 31.0157 267.853 30.6643 267.319C30.2213 266.677 29.9997 265.928 29.9997 265.073V258.404C29.9997 257.533 30.2289 256.777 30.6872 256.135C31.0386 255.616 31.497 255.203 32.0622 254.898C32.6275 254.592 33.231 254.44 33.8727 254.44Z" fill="#161C23" fill-opacity="0.9"/>
<path d="M13.3387 313.237V314.429H6.46375V313.237H13.3387ZM16.4371 308.173C16.4218 307.501 16.544 306.867 16.8037 306.271C17.0787 305.66 17.4607 305.125 17.9496 304.667C18.3926 304.269 18.9044 303.964 19.485 303.75C20.0656 303.521 20.6614 303.406 21.2725 303.406C21.8989 303.406 22.4947 303.521 23.06 303.75C23.6253 303.979 24.1294 304.3 24.5725 304.712C25.0461 305.171 25.4128 305.706 25.6725 306.317C25.9322 306.912 26.0621 307.539 26.0621 308.196C26.0621 308.929 25.9017 309.632 25.5808 310.304C25.26 310.976 24.7635 311.664 24.0912 312.367L18.2017 318.944H26.1308V320.25H16.2996V318.944L23.2204 311.381C24.2287 310.281 24.7329 309.219 24.7329 308.196C24.7329 307.707 24.6336 307.249 24.435 306.821C24.2517 306.378 23.9919 305.996 23.6558 305.675C22.9683 305.018 22.1662 304.69 21.2496 304.69C20.8065 304.69 20.3787 304.774 19.9662 304.942C19.5537 305.11 19.1871 305.339 18.8662 305.629C18.5301 305.965 18.2628 306.355 18.0642 306.798C17.8656 307.241 17.7662 307.699 17.7662 308.173H16.4371ZM33.8727 320.594C34.6213 320.594 35.3317 320.449 36.0039 320.158C36.6761 319.853 37.2567 319.433 37.7456 318.898C38.6317 317.89 39.0747 316.698 39.0747 315.323V308.654C39.0747 307.203 38.5935 305.981 37.631 304.987C37.1421 304.483 36.5768 304.094 35.9352 303.819C35.2935 303.544 34.606 303.406 33.8727 303.406C33.1393 303.406 32.4442 303.544 31.7872 303.819C31.1303 304.094 30.565 304.483 30.0914 304.987C29.1442 306.011 28.6706 307.233 28.6706 308.654V315.323C28.6706 316.728 29.1213 317.928 30.0227 318.921C30.4963 319.456 31.0692 319.868 31.7414 320.158C32.4136 320.449 33.124 320.594 33.8727 320.594ZM33.8727 304.69C34.5143 304.69 35.1178 304.842 35.6831 305.148C36.2483 305.453 36.7143 305.866 37.081 306.385C37.524 307.058 37.7456 307.814 37.7456 308.654V315.323C37.7456 316.163 37.5317 316.912 37.1039 317.569C36.7372 318.103 36.2713 318.531 35.706 318.852C35.1407 319.158 34.5296 319.303 33.8727 319.287C33.2157 319.303 32.6046 319.158 32.0393 318.852C31.474 318.531 31.0157 318.103 30.6643 317.569C30.2213 316.927 29.9997 316.178 29.9997 315.323V308.654C29.9997 307.783 30.2289 307.027 30.6872 306.385C31.0386 305.866 31.497 305.453 32.0622 305.148C32.6275 304.842 33.231 304.69 33.8727 304.69Z" fill="#161C23" fill-opacity="0.9"/>
<path d="M12.0712 363.487V364.679H5.19617V363.487H12.0712ZM26.3987 365.871V367.154H24.5195V370.5H23.1903V367.154H15.7195V365.871L21.3341 354H22.732L17.1403 365.871H23.1903V360.875H24.5195V365.871H26.3987ZM33.8727 370.844C34.6213 370.844 35.3317 370.699 36.0039 370.408C36.6761 370.103 37.2567 369.683 37.7456 369.148C38.6317 368.14 39.0747 366.948 39.0747 365.573V358.904C39.0747 357.453 38.5935 356.231 37.631 355.237C37.1421 354.733 36.5768 354.344 35.9352 354.069C35.2935 353.794 34.606 353.656 33.8727 353.656C33.1393 353.656 32.4442 353.794 31.7872 354.069C31.1303 354.344 30.565 354.733 30.0914 355.237C29.1442 356.261 28.6706 357.483 28.6706 358.904V365.573C28.6706 366.978 29.1213 368.178 30.0227 369.171C30.4963 369.706 31.0692 370.118 31.7414 370.408C32.4136 370.699 33.124 370.844 33.8727 370.844ZM33.8727 354.94C34.5143 354.94 35.1178 355.092 35.6831 355.398C36.2483 355.703 36.7143 356.116 37.081 356.635C37.524 357.308 37.7456 358.064 37.7456 358.904V365.573C37.7456 366.413 37.5317 367.162 37.1039 367.819C36.7372 368.353 36.2713 368.781 35.706 369.102C35.1407 369.408 34.5296 369.553 33.8727 369.537C33.2157 369.553 32.6046 369.408 32.0393 369.102C31.474 368.781 31.0157 368.353 30.6643 367.819C30.2213 367.177 29.9997 366.428 29.9997 365.573V358.904C29.9997 358.033 30.2289 357.277 30.6872 356.635C31.0386 356.116 31.497 355.703 32.0622 355.398C32.6275 355.092 33.231 354.94 33.8727 354.94Z" fill="#161C23" fill-opacity="0.9"/>
<path d="M12.1141 413.737V414.929H5.23914V413.737H12.1141ZM24.2875 407.229C23.9208 406.618 23.4166 406.129 22.775 405.762C22.1333 405.381 21.4382 405.19 20.6896 405.19C20.0632 405.19 19.475 405.319 18.925 405.579C18.375 405.824 17.9166 406.167 17.55 406.61C17.1833 407.008 16.9007 407.466 16.7021 407.985C16.5034 408.49 16.4041 409.024 16.4041 409.59V412.317C16.9083 411.629 17.5347 411.087 18.2833 410.69C19.0319 410.292 19.834 410.094 20.6896 410.094C21.4229 410.094 22.118 410.231 22.775 410.506C23.4319 410.781 24.0201 411.163 24.5396 411.652C25.059 412.172 25.4562 412.767 25.7312 413.44C26.0215 414.112 26.1666 414.83 26.1666 415.594C26.1666 416.312 26.0291 416.999 25.7541 417.656C25.4791 418.298 25.0972 418.871 24.6083 419.375C24.1041 419.925 23.5007 420.353 22.7979 420.658C22.1104 420.949 21.3847 421.094 20.6208 421.094C19.8264 421.094 19.0778 420.941 18.375 420.635C17.6722 420.315 17.0611 419.872 16.5416 419.306C15.5639 418.267 15.075 416.969 15.075 415.41V409.59C15.075 408.78 15.2125 408.031 15.4875 407.344C15.7778 406.641 16.1903 406.03 16.725 405.51C17.2444 404.991 17.8403 404.594 18.5125 404.319C19.2 404.044 19.9257 403.906 20.6896 403.906C21.6521 403.906 22.5382 404.135 23.3479 404.594C24.1729 405.037 24.8375 405.656 25.3416 406.45L24.2875 407.229ZM20.6666 419.673C21.3083 419.673 21.9041 419.535 22.4541 419.26C23.0041 418.985 23.4625 418.603 23.8291 418.115C24.1041 417.763 24.318 417.374 24.4708 416.946C24.6389 416.503 24.7229 416.06 24.7229 415.617C24.7229 414.975 24.593 414.379 24.3333 413.829C24.0736 413.279 23.7146 412.813 23.2562 412.431C22.5076 411.805 21.6215 411.492 20.5979 411.492C19.9715 411.492 19.3833 411.629 18.8333 411.904C18.2833 412.164 17.8173 412.523 17.4354 412.981C16.8243 413.715 16.5187 414.57 16.5187 415.548C16.5187 416.128 16.6333 416.678 16.8625 417.198C17.1069 417.717 17.4278 418.176 17.825 418.573C18.1916 418.924 18.6194 419.199 19.1083 419.398C19.5972 419.581 20.1166 419.673 20.6666 419.673ZM33.8727 421.094C34.6213 421.094 35.3317 420.949 36.0039 420.658C36.6761 420.353 37.2567 419.933 37.7456 419.398C38.6317 418.39 39.0747 417.198 39.0747 415.823V409.154C39.0747 407.703 38.5935 406.481 37.631 405.487C37.1421 404.983 36.5768 404.594 35.9352 404.319C35.2935 404.044 34.606 403.906 33.8727 403.906C33.1393 403.906 32.4442 404.044 31.7872 404.319C31.1303 404.594 30.565 404.983 30.0914 405.487C29.1442 406.511 28.6706 407.733 28.6706 409.154V415.823C28.6706 417.228 29.1213 418.428 30.0227 419.421C30.4963 419.956 31.0692 420.368 31.7414 420.658C32.4136 420.949 33.124 421.094 33.8727 421.094ZM33.8727 405.19C34.5143 405.19 35.1178 405.342 35.6831 405.648C36.2483 405.953 36.7143 406.366 37.081 406.885C37.524 407.558 37.7456 408.314 37.7456 409.154V415.823C37.7456 416.663 37.5317 417.412 37.1039 418.069C36.7372 418.603 36.2713 419.031 35.706 419.352C35.1407 419.658 34.5296 419.803 33.8727 419.787C33.2157 419.803 32.6046 419.658 32.0393 419.352C31.474 419.031 31.0157 418.603 30.6643 418.069C30.2213 417.427 29.9997 416.678 29.9997 415.823V409.154C29.9997 408.283 30.2289 407.527 30.6872 406.885C31.0386 406.366 31.497 405.953 32.0622 405.648C32.6275 405.342 33.231 405.19 33.8727 405.19Z" fill="#161C23" fill-opacity="0.9"/>
<path d="M12.8876 463.987V465.179H6.01258V463.987H12.8876ZM16.238 458.51C16.238 457.838 16.3526 457.227 16.5817 456.677C16.8262 456.112 17.1929 455.631 17.6817 455.233C18.522 454.515 19.622 454.156 20.9817 454.156C22.3567 454.156 23.4644 454.515 24.3047 455.233C24.7935 455.6 25.1526 456.074 25.3817 456.654C25.6262 457.235 25.7484 457.853 25.7484 458.51C25.7484 459.106 25.6415 459.664 25.4276 460.183C25.229 460.687 24.931 461.123 24.5338 461.49C24.2894 461.749 23.9991 461.978 23.663 462.177C24.1213 462.437 24.5262 462.75 24.8776 463.117C25.3054 463.544 25.6262 464.056 25.8401 464.652C26.054 465.233 26.1609 465.828 26.1609 466.44C26.1456 467.142 26.0158 467.815 25.7713 468.456C25.5269 469.098 25.1526 469.64 24.6484 470.083C24.1748 470.511 23.6172 470.824 22.9755 471.023C22.3338 471.237 21.6692 471.344 20.9817 471.344C20.3095 471.344 19.6526 471.237 19.0109 471.023C18.3692 470.824 17.8116 470.511 17.338 470.083C16.8338 469.625 16.4519 469.075 16.1922 468.433C15.9477 467.776 15.8331 467.112 15.8484 466.44C15.8331 465.828 15.9324 465.233 16.1463 464.652C16.3602 464.056 16.681 463.544 17.1088 463.117C17.4602 462.75 17.8651 462.437 18.3234 462.177C17.9873 461.978 17.697 461.749 17.4526 461.49C17.0554 461.123 16.7498 460.687 16.5359 460.183C16.3373 459.664 16.238 459.106 16.238 458.51ZM17.6359 458.602C17.6359 459.045 17.7123 459.458 17.8651 459.84C18.0179 460.206 18.247 460.512 18.5526 460.756C18.8581 461.016 19.2248 461.215 19.6526 461.352C20.0804 461.49 20.5234 461.558 20.9817 461.558C21.9901 461.558 22.8074 461.291 23.4338 460.756C23.7394 460.512 23.9685 460.206 24.1213 459.84C24.2741 459.458 24.3505 459.045 24.3505 458.602C24.3505 457.563 24.0373 456.784 23.4109 456.265C22.8456 455.76 22.0359 455.508 20.9817 455.508C19.9429 455.508 19.1408 455.76 18.5755 456.265C17.9491 456.784 17.6359 457.563 17.6359 458.602ZM23.7317 469.098C24.0679 468.777 24.3199 468.387 24.488 467.929C24.656 467.471 24.7401 466.974 24.7401 466.44C24.7401 465.905 24.656 465.408 24.488 464.95C24.3199 464.492 24.0679 464.102 23.7317 463.781C23.3956 463.46 22.9908 463.224 22.5172 463.071C22.0435 462.918 21.5317 462.842 20.9817 462.842C20.447 462.842 19.9429 462.918 19.4692 463.071C18.9956 463.224 18.5908 463.46 18.2547 463.781C17.9185 464.102 17.6665 464.492 17.4984 464.95C17.3304 465.408 17.2463 465.905 17.2463 466.44C17.2463 466.974 17.3304 467.471 17.4984 467.929C17.6665 468.387 17.9185 468.777 18.2547 469.098C18.5908 469.403 18.9956 469.64 19.4692 469.808C19.9581 469.976 20.4623 470.06 20.9817 470.06C21.5165 470.06 22.0206 469.984 22.4942 469.831C22.9831 469.663 23.3956 469.419 23.7317 469.098ZM33.8727 471.344C34.6213 471.344 35.3317 471.199 36.0039 470.908C36.6761 470.603 37.2567 470.183 37.7456 469.648C38.6317 468.64 39.0747 467.448 39.0747 466.073V459.404C39.0747 457.953 38.5935 456.731 37.631 455.737C37.1421 455.233 36.5768 454.844 35.9352 454.569C35.2935 454.294 34.606 454.156 33.8727 454.156C33.1393 454.156 32.4442 454.294 31.7872 454.569C31.1303 454.844 30.565 455.233 30.0914 455.737C29.1442 456.761 28.6706 457.983 28.6706 459.404V466.073C28.6706 467.478 29.1213 468.678 30.0227 469.671C30.4963 470.206 31.0692 470.618 31.7414 470.908C32.4136 471.199 33.124 471.344 33.8727 471.344ZM33.8727 455.44C34.5143 455.44 35.1178 455.592 35.6831 455.898C36.2483 456.203 36.7143 456.616 37.081 457.135C37.524 457.808 37.7456 458.564 37.7456 459.404V466.073C37.7456 466.913 37.5317 467.662 37.1039 468.319C36.7372 468.853 36.2713 469.281 35.706 469.602C35.1407 469.908 34.5296 470.053 33.8727 470.037C33.2157 470.053 32.6046 469.908 32.0393 469.602C31.474 469.281 31.0157 468.853 30.6643 468.319C30.2213 467.677 29.9997 466.928 29.9997 466.073V459.404C29.9997 458.533 30.2289 457.777 30.6872 457.135C31.0386 456.616 31.497 456.203 32.0622 455.898C32.6275 455.592 33.231 455.44 33.8727 455.44Z" fill="#161C23" fill-opacity="0.9"/>
<path d="M56.4188 9.875L56.4375 20H55.35V12.35L51.8438 18.65H50.9063L47.4188 12.35V20H46.3125V9.875H47.3625L51.375 17.1125L55.4063 9.875H56.4188ZM67.1041 9.875V20H66.0354V10.9062H61.9104L61.2541 16.2687C61.1666 17.0687 61.0416 17.7375 60.8791 18.275C60.7166 18.8 60.4479 19.225 60.0729 19.55C59.6979 19.875 59.1666 20.025 58.4791 20V18.9687C58.9166 18.9687 59.2479 18.8625 59.4729 18.65C59.6979 18.4375 59.8604 18.1437 59.9604 17.7687C60.0604 17.3812 60.1541 16.8187 60.2416 16.0812L60.9729 9.875H67.1041ZM78.3638 9.875V20H77.2762V15.0687H71.1825V20H70.095V9.875H71.1825V14H77.2762V9.875H78.3638ZM94.6779 7.7375C95.0529 8.1125 95.3466 8.55625 95.5591 9.06875C95.7716 9.56875 95.8841 10.0875 95.8966 10.625C95.8966 11.1125 95.8029 11.5937 95.6154 12.0687C95.4279 12.5312 95.1716 12.95 94.8466 13.325C94.4841 13.7625 94.0216 14.1062 93.4591 14.3562C92.9091 14.6062 92.3404 14.7312 91.7529 14.7312H87.3654V20H86.2779V6.5H91.7529C92.2279 6.5 92.7091 6.5875 93.1966 6.7625C93.7716 6.975 94.2654 7.3 94.6779 7.7375ZM94.0404 12.575C94.2654 12.3 94.4404 12 94.5654 11.675C94.6904 11.35 94.7529 11.025 94.7529 10.7C94.7529 10.2625 94.6716 9.85 94.5091 9.4625C94.3591 9.075 94.1404 8.7375 93.8529 8.45C93.5779 8.175 93.2529 7.95625 92.8779 7.79375C92.5029 7.63125 92.1279 7.55 91.7529 7.55H87.3654V13.6812H91.7529C92.1779 13.6812 92.5904 13.5812 92.9904 13.3812C93.4029 13.1812 93.7529 12.9125 94.0404 12.575Z" fill="#161C23" fill-opacity="0.9"/>
<path d="M347.156 494.962H341.4V504H340.313V493.875H347.156V494.962ZM353.166 504.281C352.441 504.281 351.766 504.144 351.141 503.869C350.516 503.581 349.991 503.169 349.566 502.631C348.828 501.694 348.46 500.456 348.46 498.919C348.46 497.406 348.828 496.175 349.566 495.225C349.978 494.7 350.497 494.3 351.122 494.025C351.76 493.737 352.441 493.594 353.166 493.594C353.903 493.594 354.585 493.731 355.21 494.006C355.835 494.281 356.353 494.687 356.766 495.225C357.516 496.15 357.891 497.381 357.891 498.919C357.891 500.469 357.516 501.706 356.766 502.631C356.341 503.181 355.822 503.594 355.21 503.869C354.597 504.144 353.916 504.281 353.166 504.281ZM355.903 501.975C356.453 501.262 356.728 500.244 356.728 498.919C356.728 497.606 356.453 496.594 355.903 495.881C355.603 495.481 355.21 495.175 354.722 494.962C354.247 494.75 353.728 494.644 353.166 494.644C352.616 494.644 352.097 494.75 351.61 494.962C351.135 495.175 350.753 495.481 350.466 495.881C349.903 496.606 349.622 497.619 349.622 498.919C349.622 500.231 349.903 501.25 350.466 501.975C350.753 502.375 351.135 502.687 351.61 502.912C352.097 503.125 352.616 503.231 353.166 503.231C353.716 503.231 354.235 503.125 354.722 502.912C355.21 502.687 355.603 502.375 355.903 501.975ZM368.734 502.95H369.653V505.444H368.603V504H360.428V505.444H359.378V502.95C360.541 502.95 361.247 501.85 361.497 499.65L362.172 493.875H368.734V502.95ZM367.684 494.906H363.091L362.528 499.762C362.353 501.237 361.978 502.3 361.403 502.95H367.684V494.906Z" fill="#161C23" fill-opacity="0.9"/>
<path opacity="0.8" d="M148.514 429.146V431.021H154.764V429.146H148.514ZM158.414 421L157.956 428.708L160.018 429.875C160.143 429.646 160.331 429.417 160.539 429.229C161.039 428.771 161.706 428.5 162.393 428.5C163.122 428.5 163.81 428.771 164.331 429.271C164.872 429.771 165.206 430.521 165.206 431.271C165.206 432.042 164.893 432.75 164.372 433.25C163.852 433.75 163.143 434.062 162.393 434.062C161.685 434.062 160.997 433.771 160.477 433.292C160.122 432.937 159.852 432.479 159.706 431.979L157.456 432.583C157.706 433.479 158.206 434.292 158.852 434.896C159.789 435.792 161.102 436.312 162.393 436.292C163.727 436.312 165.06 435.792 166.018 434.875C166.956 433.958 167.539 432.625 167.56 431.271C167.602 429.875 167.081 428.562 165.997 427.583C165.102 426.792 163.893 426.375 162.706 426.375C161.893 426.375 160.997 426.625 160.268 427.125L160.497 423.208H166.31V421H158.414ZM171.272 434.625C172.314 435.771 173.731 436.333 175.272 436.312C176.814 436.354 178.293 435.812 179.356 434.604C180.377 433.458 180.689 432.208 180.689 430.604V426.437C180.689 424.729 180.397 423.396 179.168 422.187C178.21 421.229 176.856 420.708 175.522 420.729C174.189 420.708 172.835 421.229 171.897 422.167C170.96 423.062 170.377 424.396 170.356 425.729C170.314 427.187 170.814 428.396 171.856 429.375C172.772 430.208 174.002 430.646 175.189 430.646C176.377 430.646 177.481 430.187 178.314 429.396V430.604C178.314 431.354 178.21 432 177.856 432.562C177.377 433.5 176.356 434.104 175.272 434.104C174.377 434.104 173.522 433.687 172.981 433L171.272 434.625ZM174.272 423.458C174.897 423.146 175.627 423.062 176.293 423.292C176.897 423.458 177.46 423.896 177.793 424.5C178.127 425.083 178.21 425.812 178.022 426.437C177.835 427.104 177.377 427.687 176.752 428.021C176.147 428.333 175.439 428.417 174.793 428.229C174.147 428.042 173.564 427.604 173.252 426.979C172.918 426.396 172.835 425.688 173.002 425.042C173.189 424.354 173.647 423.771 174.272 423.458Z" fill="#161C23" fill-opacity="0.9"/>
<path opacity="0.8" d="M251.187 64H253.583L258.771 51.2292V49H249.646V51.2292H256.396L251.187 64ZM262.417 49L261.958 56.7083L264.021 57.875C264.146 57.6458 264.333 57.4167 264.542 57.2292C265.042 56.7708 265.708 56.5 266.396 56.5C267.125 56.5 267.813 56.7708 268.333 57.2708C268.875 57.7708 269.208 58.5208 269.208 59.2708C269.208 60.0417 268.896 60.75 268.375 61.25C267.854 61.75 267.146 62.0625 266.396 62.0625C265.688 62.0625 265 61.7708 264.479 61.2917C264.125 60.9375 263.854 60.4792 263.708 59.9792L261.458 60.5833C261.708 61.4792 262.208 62.2917 262.854 62.8958C263.792 63.7917 265.104 64.3125 266.396 64.2917C267.729 64.3125 269.063 63.7917 270.021 62.875C270.958 61.9583 271.542 60.625 271.563 59.2708C271.604 57.875 271.083 56.5625 270 55.5833C269.104 54.7917 267.896 54.375 266.708 54.375C265.896 54.375 265 54.625 264.271 55.125L264.5 51.2083H270.313V49H262.417Z" fill="#161C23" fill-opacity="0.9"/>
<path opacity="0.8" d="M345.168 53H347.564L352.751 40.2292V38H343.626V40.2292H350.376L345.168 53ZM355.814 41.8958C355.835 42.5833 356.001 43.3125 356.418 43.9583C356.626 44.3333 356.897 44.6458 357.21 44.9375C356.731 45.3333 356.314 45.8333 356.043 46.3542C355.606 47.0625 355.439 47.875 355.439 48.6042C355.439 49.9375 355.981 51.2917 357.022 52.1458C357.939 52.9375 359.251 53.3125 360.501 53.3125C361.731 53.3125 363.043 52.9792 364.001 52.1458C365.064 51.2708 365.543 49.9792 365.585 48.6042C365.564 47.875 365.418 47.0625 364.981 46.3542C364.71 45.8333 364.293 45.3333 363.814 44.9375C364.126 44.6458 364.397 44.3333 364.585 43.9583C365.022 43.3125 365.189 42.5833 365.189 41.8958C365.189 40.625 364.668 39.3958 363.647 38.625C362.793 37.9583 361.647 37.6875 360.501 37.6875C359.418 37.6875 358.272 37.9375 357.376 38.625C356.335 39.4167 355.876 40.5417 355.814 41.8958ZM358.314 41.8958C358.314 41.2917 358.481 40.7708 358.918 40.4167C359.314 40.0625 359.918 39.9167 360.501 39.8958C361.106 39.9167 361.71 40.0625 362.106 40.4167C362.522 40.7708 362.71 41.2917 362.71 41.8958C362.731 42.4792 362.522 43.0208 362.126 43.375C361.71 43.7292 361.106 43.875 360.501 43.875C359.918 43.875 359.314 43.7292 358.897 43.375C358.481 43.0208 358.293 42.4792 358.314 41.8958ZM362.397 50.4375C361.939 50.875 361.231 51.0833 360.501 51.0833C359.793 51.0833 359.085 50.875 358.606 50.4375C358.126 49.9792 357.918 49.3125 357.918 48.6042C357.918 47.8958 358.126 47.2083 358.606 46.7708C359.085 46.3125 359.793 46.1042 360.501 46.1042C361.231 46.1042 361.939 46.3125 362.397 46.7708C362.897 47.2083 363.106 47.8958 363.106 48.6042C363.106 49.3125 362.897 49.9792 362.397 50.4375Z" fill="#161C23" fill-opacity="0.9"/>
<path opacity="0.8" d="M440.168 53H442.564L447.751 40.2292V38H438.626V40.2292H445.376L440.168 53ZM450.814 41.8958C450.835 42.5833 451.001 43.3125 451.418 43.9583C451.626 44.3333 451.897 44.6458 452.21 44.9375C451.731 45.3333 451.314 45.8333 451.043 46.3542C450.606 47.0625 450.439 47.875 450.439 48.6042C450.439 49.9375 450.981 51.2917 452.022 52.1458C452.939 52.9375 454.251 53.3125 455.501 53.3125C456.731 53.3125 458.043 52.9792 459.001 52.1458C460.064 51.2708 460.543 49.9792 460.585 48.6042C460.564 47.875 460.418 47.0625 459.981 46.3542C459.71 45.8333 459.293 45.3333 458.814 44.9375C459.126 44.6458 459.397 44.3333 459.585 43.9583C460.022 43.3125 460.189 42.5833 460.189 41.8958C460.189 40.625 459.668 39.3958 458.647 38.625C457.793 37.9583 456.647 37.6875 455.501 37.6875C454.418 37.6875 453.272 37.9375 452.376 38.625C451.335 39.4167 450.876 40.5417 450.814 41.8958ZM453.314 41.8958C453.314 41.2917 453.481 40.7708 453.918 40.4167C454.314 40.0625 454.918 39.9167 455.501 39.8958C456.106 39.9167 456.71 40.0625 457.106 40.4167C457.522 40.7708 457.71 41.2917 457.71 41.8958C457.731 42.4792 457.522 43.0208 457.126 43.375C456.71 43.7292 456.106 43.875 455.501 43.875C454.918 43.875 454.314 43.7292 453.897 43.375C453.481 43.0208 453.293 42.4792 453.314 41.8958ZM457.397 50.4375C456.939 50.875 456.231 51.0833 455.501 51.0833C454.793 51.0833 454.085 50.875 453.606 50.4375C453.126 49.9792 452.918 49.3125 452.918 48.6042C452.918 47.8958 453.126 47.2083 453.606 46.7708C454.085 46.3125 454.793 46.1042 455.501 46.1042C456.231 46.1042 456.939 46.3125 457.397 46.7708C457.897 47.2083 458.106 47.8958 458.106 48.6042C458.106 49.3125 457.897 49.9792 457.397 50.4375Z" fill="#161C23" fill-opacity="0.9"/>
<path opacity="0.8" d="M535.168 53H537.564L542.751 40.2292V38H533.626V40.2292H540.376L535.168 53ZM545.814 41.8958C545.835 42.5833 546.001 43.3125 546.418 43.9583C546.626 44.3333 546.897 44.6458 547.21 44.9375C546.731 45.3333 546.314 45.8333 546.043 46.3542C545.606 47.0625 545.439 47.875 545.439 48.6042C545.439 49.9375 545.981 51.2917 547.022 52.1458C547.939 52.9375 549.251 53.3125 550.501 53.3125C551.731 53.3125 553.043 52.9792 554.001 52.1458C555.064 51.2708 555.543 49.9792 555.585 48.6042C555.564 47.875 555.418 47.0625 554.981 46.3542C554.71 45.8333 554.293 45.3333 553.814 44.9375C554.126 44.6458 554.397 44.3333 554.585 43.9583C555.022 43.3125 555.189 42.5833 555.189 41.8958C555.189 40.625 554.668 39.3958 553.647 38.625C552.793 37.9583 551.647 37.6875 550.501 37.6875C549.418 37.6875 548.272 37.9375 547.376 38.625C546.335 39.4167 545.876 40.5417 545.814 41.8958ZM548.314 41.8958C548.314 41.2917 548.481 40.7708 548.918 40.4167C549.314 40.0625 549.918 39.9167 550.501 39.8958C551.106 39.9167 551.71 40.0625 552.106 40.4167C552.522 40.7708 552.71 41.2917 552.71 41.8958C552.731 42.4792 552.522 43.0208 552.126 43.375C551.71 43.7292 551.106 43.875 550.501 43.875C549.918 43.875 549.314 43.7292 548.897 43.375C548.481 43.0208 548.293 42.4792 548.314 41.8958ZM552.397 50.4375C551.939 50.875 551.231 51.0833 550.501 51.0833C549.793 51.0833 549.085 50.875 548.606 50.4375C548.126 49.9792 547.918 49.3125 547.918 48.6042C547.918 47.8958 548.126 47.2083 548.606 46.7708C549.085 46.3125 549.793 46.1042 550.501 46.1042C551.231 46.1042 551.939 46.3125 552.397 46.7708C552.897 47.2083 553.106 47.8958 553.106 48.6042C553.106 49.3125 552.897 49.9792 552.397 50.4375Z" fill="#161C23" fill-opacity="0.9"/>
<line opacity="0.3" x1="68" y1="402.75" x2="642" y2="402.75" stroke="black" stroke-width="0.5" stroke-dasharray="6 6"/>
<line opacity="0.3" x1="67" y1="261.75" x2="641" y2="261.75" stroke="black" stroke-width="0.5" stroke-dasharray="6 6"/>
<line opacity="0.3" x1="67" y1="80.75" x2="641" y2="80.75" stroke="black" stroke-width="0.5" stroke-dasharray="6 6"/>
<line opacity="0.3" x1="67" y1="70.75" x2="641" y2="70.75" stroke="black" stroke-width="0.5" stroke-dasharray="6 6"/>
<line opacity="0.7" x1="67" y1="473.65" x2="644" y2="473.65" stroke="#161C23" stroke-width="0.7"/>
<path d="M151.492 238.5V249H150.646V239.448L148.663 240.644V239.681L150.646 238.5H151.492ZM163.312 241.971H158.834V249H157.989V241.125H163.312V241.971ZM167.986 249.219C167.422 249.219 166.897 249.112 166.411 248.898C165.925 248.674 165.516 248.353 165.186 247.935C164.612 247.206 164.325 246.244 164.325 245.048C164.325 243.872 164.612 242.914 165.186 242.175C165.506 241.767 165.91 241.456 166.396 241.242C166.892 241.018 167.422 240.906 167.986 240.906C168.559 240.906 169.089 241.013 169.575 241.227C170.061 241.441 170.465 241.757 170.786 242.175C171.369 242.894 171.661 243.852 171.661 245.048C171.661 246.253 171.369 247.216 170.786 247.935C170.455 248.363 170.052 248.684 169.575 248.898C169.099 249.112 168.569 249.219 167.986 249.219ZM170.115 247.425C170.543 246.871 170.756 246.078 170.756 245.048C170.756 244.027 170.543 243.24 170.115 242.685C169.881 242.374 169.575 242.136 169.196 241.971C168.827 241.806 168.423 241.723 167.986 241.723C167.558 241.723 167.154 241.806 166.775 241.971C166.406 242.136 166.109 242.374 165.886 242.685C165.448 243.249 165.229 244.037 165.229 245.048C165.229 246.069 165.448 246.861 165.886 247.425C166.109 247.736 166.406 247.979 166.775 248.154C167.154 248.319 167.558 248.402 167.986 248.402C168.413 248.402 168.817 248.319 169.196 248.154C169.575 247.979 169.881 247.736 170.115 247.425ZM180.095 248.183H180.809V250.123H179.992V249H173.634V250.123H172.817V248.183C173.722 248.183 174.271 247.328 174.465 245.617L174.99 241.125H180.095V248.183ZM179.278 241.927H175.705L175.267 245.704C175.131 246.851 174.84 247.678 174.392 248.183H179.278V241.927Z" fill="#161C23" fill-opacity="0.9"/>
<path d="M242.113 277.315C242.103 276.887 242.181 276.483 242.346 276.104C242.521 275.715 242.765 275.375 243.076 275.083C243.358 274.831 243.683 274.636 244.053 274.5C244.422 274.354 244.801 274.281 245.19 274.281C245.589 274.281 245.968 274.354 246.328 274.5C246.687 274.646 247.008 274.85 247.29 275.112C247.592 275.404 247.825 275.744 247.99 276.133C248.155 276.512 248.238 276.911 248.238 277.329C248.238 277.796 248.136 278.243 247.932 278.671C247.728 279.099 247.412 279.536 246.984 279.983L243.236 284.169H248.282V285H242.026V284.169L246.43 279.356C247.071 278.656 247.392 277.981 247.392 277.329C247.392 277.018 247.329 276.726 247.203 276.454C247.086 276.172 246.921 275.929 246.707 275.725C246.269 275.307 245.759 275.098 245.176 275.098C244.894 275.098 244.621 275.151 244.359 275.258C244.096 275.365 243.863 275.511 243.659 275.696C243.445 275.91 243.275 276.158 243.149 276.44C243.022 276.722 242.959 277.013 242.959 277.315H242.113ZM259.343 277.971H254.866V285H254.02V277.125H259.343V277.971ZM264.017 285.219C263.453 285.219 262.928 285.112 262.442 284.898C261.956 284.674 261.547 284.353 261.217 283.935C260.643 283.206 260.356 282.244 260.356 281.048C260.356 279.872 260.643 278.914 261.217 278.175C261.538 277.767 261.941 277.456 262.427 277.242C262.923 277.018 263.453 276.906 264.017 276.906C264.591 276.906 265.12 277.013 265.606 277.227C266.093 277.441 266.496 277.757 266.817 278.175C267.4 278.894 267.692 279.852 267.692 281.048C267.692 282.253 267.4 283.216 266.817 283.935C266.486 284.363 266.083 284.684 265.606 284.898C265.13 285.112 264.6 285.219 264.017 285.219ZM266.146 283.425C266.574 282.871 266.788 282.078 266.788 281.048C266.788 280.027 266.574 279.24 266.146 278.685C265.913 278.374 265.606 278.136 265.227 277.971C264.858 277.806 264.454 277.723 264.017 277.723C263.589 277.723 263.186 277.806 262.806 277.971C262.437 278.136 262.141 278.374 261.917 278.685C261.479 279.249 261.261 280.037 261.261 281.048C261.261 282.069 261.479 282.861 261.917 283.425C262.141 283.736 262.437 283.979 262.806 284.154C263.186 284.319 263.589 284.402 264.017 284.402C264.445 284.402 264.848 284.319 265.227 284.154C265.606 283.979 265.913 283.736 266.146 283.425ZM276.126 284.183H276.84V286.123H276.024V285H269.665V286.123H268.849V284.183C269.753 284.183 270.302 283.328 270.497 281.617L271.022 277.125H276.126V284.183ZM275.309 277.927H271.736L271.299 281.704C271.163 282.851 270.871 283.678 270.424 284.183H275.309V277.927Z" fill="#161C23" fill-opacity="0.9"/>
<path d="M342.455 279.269C342.795 279.57 343.048 279.944 343.213 280.392C343.388 280.839 343.476 281.315 343.476 281.821C343.466 282.394 343.354 282.919 343.14 283.396C342.936 283.872 342.63 284.261 342.221 284.562C341.677 284.981 341.001 285.199 340.194 285.219C339.407 285.219 338.726 285.015 338.153 284.606C337.608 284.198 337.224 283.658 337.001 282.987L337.803 282.725C337.978 283.25 338.264 283.658 338.663 283.95C339.081 284.242 339.587 284.387 340.18 284.387C340.792 284.368 341.298 284.208 341.696 283.906C342.289 283.459 342.586 282.764 342.586 281.821C342.586 281.422 342.518 281.048 342.382 280.698C342.255 280.348 342.056 280.056 341.784 279.823C341.356 279.453 340.817 279.269 340.165 279.269C339.961 279.269 339.747 279.298 339.523 279.356C339.3 279.405 339.091 279.478 338.896 279.575L338.444 278.89L342.178 275.317H337.423V274.5H343.359V275.346L340.048 278.51C340.505 278.481 340.943 278.53 341.361 278.656C341.779 278.783 342.144 278.987 342.455 279.269ZM354.514 277.971H350.037V285H349.191V277.125H354.514V277.971ZM359.188 285.219C358.624 285.219 358.099 285.112 357.613 284.898C357.127 284.674 356.718 284.353 356.388 283.935C355.814 283.206 355.527 282.244 355.527 281.048C355.527 279.872 355.814 278.914 356.388 278.175C356.709 277.767 357.112 277.456 357.598 277.242C358.094 277.018 358.624 276.906 359.188 276.906C359.761 276.906 360.291 277.013 360.777 277.227C361.264 277.441 361.667 277.757 361.988 278.175C362.571 278.894 362.863 279.852 362.863 281.048C362.863 282.253 362.571 283.216 361.988 283.935C361.657 284.363 361.254 284.684 360.777 284.898C360.301 285.112 359.771 285.219 359.188 285.219ZM361.317 283.425C361.745 282.871 361.959 282.078 361.959 281.048C361.959 280.027 361.745 279.24 361.317 278.685C361.084 278.374 360.777 278.136 360.398 277.971C360.029 277.806 359.625 277.723 359.188 277.723C358.76 277.723 358.357 277.806 357.977 277.971C357.608 278.136 357.311 278.374 357.088 278.685C356.65 279.249 356.432 280.037 356.432 281.048C356.432 282.069 356.65 282.861 357.088 283.425C357.311 283.736 357.608 283.979 357.977 284.154C358.357 284.319 358.76 284.402 359.188 284.402C359.616 284.402 360.019 284.319 360.398 284.154C360.777 283.979 361.084 283.736 361.317 283.425ZM371.297 284.183H372.011V286.123H371.195V285H364.836V286.123H364.02V284.183C364.924 284.183 365.473 283.328 365.668 281.617L366.193 277.125H371.297V284.183ZM370.48 277.927H366.907L366.47 281.704C366.334 282.851 366.042 283.678 365.595 284.183H370.48V277.927Z" fill="#161C23" fill-opacity="0.9"/>
<path d="M438.637 282.054V282.871H437.441V285H436.595V282.871H431.841V282.054L435.414 274.5H436.304L432.745 282.054H436.595V278.875H437.441V282.054H438.637ZM449.527 277.971H445.05V285H444.204V277.125H449.527V277.971ZM454.201 285.219C453.638 285.219 453.113 285.112 452.626 284.898C452.14 284.674 451.732 284.353 451.401 283.935C450.828 283.206 450.541 282.244 450.541 281.048C450.541 279.872 450.828 278.914 451.401 278.175C451.722 277.767 452.126 277.456 452.612 277.242C453.108 277.018 453.638 276.906 454.201 276.906C454.775 276.906 455.305 277.013 455.791 277.227C456.277 277.441 456.681 277.757 457.001 278.175C457.585 278.894 457.876 279.852 457.876 281.048C457.876 282.253 457.585 283.216 457.001 283.935C456.671 284.363 456.267 284.684 455.791 284.898C455.315 285.112 454.785 285.219 454.201 285.219ZM456.331 283.425C456.758 282.871 456.972 282.078 456.972 281.048C456.972 280.027 456.758 279.24 456.331 278.685C456.097 278.374 455.791 278.136 455.412 277.971C455.042 277.806 454.639 277.723 454.201 277.723C453.774 277.723 453.37 277.806 452.991 277.971C452.622 278.136 452.325 278.374 452.101 278.685C451.664 279.249 451.445 280.037 451.445 281.048C451.445 282.069 451.664 282.861 452.101 283.425C452.325 283.736 452.622 283.979 452.991 284.154C453.37 284.319 453.774 284.402 454.201 284.402C454.629 284.402 455.033 284.319 455.412 284.154C455.791 283.979 456.097 283.736 456.331 283.425ZM466.31 284.183H467.025V286.123H466.208V285H459.85V286.123H459.033V284.183C459.937 284.183 460.487 283.328 460.681 281.617L461.206 277.125H466.31V284.183ZM465.494 277.927H461.921L461.483 281.704C461.347 282.851 461.056 283.678 460.608 284.183H465.494V277.927Z" fill="#161C23" fill-opacity="0.9"/>
<path d="M533.344 274.5V275.317H528.59L528.356 279.123C528.658 278.841 529.008 278.622 529.406 278.467C529.805 278.301 530.223 278.219 530.661 278.219C531.098 278.219 531.516 278.297 531.915 278.452C532.313 278.608 532.668 278.826 532.979 279.108C533.349 279.439 533.631 279.828 533.825 280.275C534.029 280.722 534.131 281.199 534.131 281.704C534.131 282.171 534.039 282.618 533.854 283.046C533.679 283.474 533.431 283.848 533.111 284.169C532.79 284.499 532.411 284.757 531.973 284.942C531.545 285.126 531.088 285.219 530.602 285.219C530.155 285.219 529.727 285.141 529.319 284.985C528.911 284.82 528.541 284.587 528.211 284.285C527.715 283.799 527.379 283.235 527.204 282.594L528.006 282.375C528.133 282.89 528.405 283.333 528.823 283.702C529.066 283.916 529.338 284.081 529.64 284.198C529.951 284.315 530.272 284.373 530.602 284.373C530.962 284.373 531.302 284.305 531.623 284.169C531.954 284.033 532.24 283.848 532.483 283.615C532.736 283.362 532.931 283.075 533.067 282.754C533.213 282.424 533.286 282.074 533.286 281.704C533.286 281.315 533.203 280.946 533.038 280.596C532.882 280.246 532.663 279.944 532.381 279.692C531.856 279.244 531.263 279.021 530.602 279.021C529.97 279.021 529.411 279.22 528.925 279.619C528.663 279.842 528.454 280.09 528.298 280.362L527.481 279.896L527.802 274.5H533.344ZM545.164 277.971H540.687V285H539.841V277.125H545.164V277.971ZM549.838 285.219C549.274 285.219 548.749 285.112 548.263 284.898C547.777 284.674 547.369 284.353 547.038 283.935C546.465 283.206 546.178 282.244 546.178 281.048C546.178 279.872 546.465 278.914 547.038 278.175C547.359 277.767 547.763 277.456 548.249 277.242C548.744 277.018 549.274 276.906 549.838 276.906C550.412 276.906 550.942 277.013 551.428 277.227C551.914 277.441 552.317 277.757 552.638 278.175C553.222 278.894 553.513 279.852 553.513 281.048C553.513 282.253 553.222 283.216 552.638 283.935C552.308 284.363 551.904 284.684 551.428 284.898C550.951 285.112 550.422 285.219 549.838 285.219ZM551.967 283.425C552.395 282.871 552.609 282.078 552.609 281.048C552.609 280.027 552.395 279.24 551.967 278.685C551.734 278.374 551.428 278.136 551.049 277.971C550.679 277.806 550.276 277.723 549.838 277.723C549.41 277.723 549.007 277.806 548.628 277.971C548.258 278.136 547.962 278.374 547.738 278.685C547.301 279.249 547.082 280.037 547.082 281.048C547.082 282.069 547.301 282.861 547.738 283.425C547.962 283.736 548.258 283.979 548.628 284.154C549.007 284.319 549.41 284.402 549.838 284.402C550.266 284.402 550.669 284.319 551.049 284.154C551.428 283.979 551.734 283.736 551.967 283.425ZM561.947 284.183H562.662V286.123H561.845V285H555.487V286.123H554.67V284.183C555.574 284.183 556.123 283.328 556.318 281.617L556.843 277.125H561.947V284.183ZM561.13 277.927H557.558L557.12 281.704C556.984 282.851 556.692 283.678 556.245 284.183H561.13V277.927Z" fill="#161C23" fill-opacity="0.9"/>
<rect x="135" y="262" width="60" height="141" fill="#9DC7D5"/>
<rect width="60" height="181" transform="matrix(1 0 0 -1 230 262)" fill="#6DABBF"/>
<rect width="60" height="192" transform="matrix(1 0 0 -1 325 262)" fill="#3C8FAA"/>
<rect width="60" height="192" transform="matrix(1 0 0 -1 420 262)" fill="#0B7495"/>
<rect width="60" height="192" transform="matrix(1 0 0 -1 515 262)" fill="#0B7495"/>
</svg>
