<svg width="647" height="560" viewBox="0 0 647 560" fill="none" xmlns="http://www.w3.org/2000/svg">
<path opacity="0.7" d="M67 524L67 41" stroke="#161C23" stroke-width="0.7"/>
<path opacity="0.7" d="M62.5 45.5L67 41L71.5 45.5" stroke="#161C23" stroke-width="0.7"/>
<path opacity="0.7" d="M641 519L646 524L641 529" stroke="#161C23" stroke-width="0.7"/>
<path d="M15.1144 47.5V64H13.7852V48.9896L10.6686 50.8687V49.3562L13.7852 47.5H15.1144ZM28.2875 50.4792C27.9208 49.8681 27.4166 49.3792 26.775 49.0125C26.1333 48.6306 25.4382 48.4396 24.6896 48.4396C24.0632 48.4396 23.475 48.5694 22.925 48.8292C22.375 49.0736 21.9166 49.4174 21.55 49.8604C21.1833 50.2576 20.9007 50.716 20.7021 51.2354C20.5034 51.7396 20.4041 52.2743 20.4041 52.8396V55.5667C20.9083 54.8792 21.5347 54.3368 22.2833 53.9396C23.0319 53.5424 23.834 53.3437 24.6896 53.3437C25.4229 53.3437 26.118 53.4812 26.775 53.7562C27.4319 54.0312 28.0201 54.4132 28.5396 54.9021C29.059 55.4215 29.4562 56.0174 29.7312 56.6896C30.0215 57.3618 30.1666 58.0799 30.1666 58.8437C30.1666 59.5618 30.0291 60.2493 29.7541 60.9062C29.4791 61.5479 29.0972 62.1208 28.6083 62.625C28.1041 63.175 27.5007 63.6028 26.7979 63.9083C26.1104 64.1986 25.3847 64.3438 24.6208 64.3438C23.8264 64.3438 23.0778 64.191 22.375 63.8854C21.6722 63.5646 21.0611 63.1215 20.5416 62.5562C19.5639 61.5174 19.075 60.2187 19.075 58.6604V52.8396C19.075 52.0299 19.2125 51.2812 19.4875 50.5937C19.7778 49.891 20.1903 49.2799 20.725 48.7604C21.2444 48.241 21.8403 47.8437 22.5125 47.5687C23.2 47.2937 23.9257 47.1562 24.6896 47.1562C25.6521 47.1562 26.5382 47.3854 27.3479 47.8437C28.1729 48.2868 28.8375 48.9056 29.3416 49.7L28.2875 50.4792ZM24.6666 62.9229C25.3083 62.9229 25.9041 62.7854 26.4541 62.5104C27.0041 62.2354 27.4625 61.8535 27.8291 61.3646C28.1041 61.0132 28.318 60.6236 28.4708 60.1958C28.6389 59.7528 28.7229 59.3097 28.7229 58.8667C28.7229 58.225 28.593 57.6292 28.3333 57.0792C28.0736 56.5292 27.7146 56.0632 27.2562 55.6812C26.5076 55.0549 25.6215 54.7417 24.5979 54.7417C23.9715 54.7417 23.3833 54.8792 22.8333 55.1542C22.2833 55.4139 21.8173 55.7729 21.4354 56.2312C20.8243 56.9646 20.5187 57.8201 20.5187 58.7979C20.5187 59.3785 20.6333 59.9285 20.8625 60.4479C21.1069 60.9674 21.4278 61.4257 21.825 61.8229C22.1916 62.1743 22.6194 62.4493 23.1083 62.6479C23.5972 62.8312 24.1166 62.9229 24.6666 62.9229ZM37.8727 64.3438C38.6213 64.3438 39.3317 64.1986 40.0039 63.9083C40.6761 63.6028 41.2567 63.1826 41.7456 62.6479C42.6317 61.6396 43.0747 60.4479 43.0747 59.0729V52.4042C43.0747 50.9528 42.5935 49.7306 41.631 48.7375C41.1421 48.2333 40.5768 47.8437 39.9352 47.5687C39.2935 47.2937 38.606 47.1562 37.8727 47.1562C37.1393 47.1562 36.4442 47.2937 35.7872 47.5687C35.1303 47.8437 34.565 48.2333 34.0914 48.7375C33.1442 49.7611 32.6706 50.9833 32.6706 52.4042V59.0729C32.6706 60.4785 33.1213 61.6778 34.0227 62.6708C34.4963 63.2056 35.0692 63.6181 35.7414 63.9083C36.4136 64.1986 37.124 64.3438 37.8727 64.3438ZM37.8727 48.4396C38.5143 48.4396 39.1178 48.5924 39.6831 48.8979C40.2483 49.2035 40.7143 49.616 41.081 50.1354C41.524 50.8076 41.7456 51.5639 41.7456 52.4042V59.0729C41.7456 59.9132 41.5317 60.6618 41.1039 61.3187C40.7372 61.8535 40.2713 62.2812 39.706 62.6021C39.1407 62.9076 38.5296 63.0528 37.8727 63.0375C37.2157 63.0528 36.6046 62.9076 36.0393 62.6021C35.474 62.2812 35.0157 61.8535 34.6643 61.3187C34.2213 60.6771 33.9997 59.9285 33.9997 59.0729V52.4042C33.9997 51.5333 34.2289 50.7771 34.6872 50.1354C35.0386 49.616 35.497 49.2035 36.0622 48.8979C36.6275 48.5924 37.231 48.4396 37.8727 48.4396Z" fill="#161C23" fill-opacity="0.9"/>
<path d="M16.339 112.929V129.429H15.0098V114.418L11.8932 116.297V114.785L15.0098 112.929H16.339ZM20.4371 117.351C20.4218 116.679 20.544 116.045 20.8037 115.449C21.0787 114.838 21.4607 114.304 21.9496 113.845C22.3926 113.448 22.9044 113.142 23.485 112.929C24.0656 112.699 24.6614 112.585 25.2725 112.585C25.8989 112.585 26.4947 112.699 27.06 112.929C27.6253 113.158 28.1294 113.479 28.5725 113.891C29.0461 114.349 29.4128 114.884 29.6725 115.495C29.9322 116.091 30.0621 116.717 30.0621 117.374C30.0621 118.108 29.9017 118.811 29.5808 119.483C29.26 120.155 28.7635 120.842 28.0913 121.545L22.2017 128.122H30.1308V129.429H20.2996V128.122L27.2204 120.56C28.2287 119.46 28.7329 118.398 28.7329 117.374C28.7329 116.886 28.6336 116.427 28.435 115.999C28.2517 115.556 27.9919 115.174 27.6558 114.854C26.9683 114.197 26.1662 113.868 25.2496 113.868C24.8065 113.868 24.3787 113.952 23.9662 114.12C23.5537 114.288 23.1871 114.517 22.8662 114.808C22.5301 115.144 22.2628 115.533 22.0642 115.976C21.8656 116.42 21.7662 116.878 21.7662 117.351H20.4371ZM37.8727 129.772C38.6213 129.772 39.3317 129.627 40.0039 129.337C40.6761 129.031 41.2567 128.611 41.7456 128.076C42.6317 127.068 43.0747 125.876 43.0747 124.501V117.833C43.0747 116.381 42.5935 115.159 41.631 114.166C41.1421 113.662 40.5768 113.272 39.9352 112.997C39.2935 112.722 38.606 112.585 37.8727 112.585C37.1393 112.585 36.4442 112.722 35.7872 112.997C35.1303 113.272 34.565 113.662 34.0914 114.166C33.1442 115.19 32.6706 116.412 32.6706 117.833V124.501C32.6706 125.907 33.1213 127.106 34.0227 128.099C34.4963 128.634 35.0692 129.047 35.7414 129.337C36.4136 129.627 37.124 129.772 37.8727 129.772ZM37.8727 113.868C38.5143 113.868 39.1178 114.021 39.6831 114.326C40.2483 114.632 40.7143 115.045 41.081 115.564C41.524 116.236 41.7456 116.992 41.7456 117.833V124.501C41.7456 125.342 41.5317 126.09 41.1039 126.747C40.7372 127.282 40.2713 127.71 39.706 128.031C39.1407 128.336 38.5296 128.481 37.8727 128.466C37.2157 128.481 36.6046 128.336 36.0393 128.031C35.474 127.71 35.0157 127.282 34.6643 126.747C34.2213 126.106 33.9997 125.357 33.9997 124.501V117.833C33.9997 116.962 34.2289 116.206 34.6872 115.564C35.0386 115.045 35.497 114.632 36.0622 114.326C36.6275 114.021 37.231 113.868 37.8727 113.868Z" fill="#161C23" fill-opacity="0.9"/>
<path d="M20.238 182.368C20.238 181.695 20.3526 181.084 20.5817 180.534C20.8262 179.969 21.1929 179.488 21.6817 179.09C22.522 178.372 23.622 178.013 24.9817 178.013C26.3567 178.013 27.4644 178.372 28.3047 179.09C28.7936 179.457 29.1526 179.931 29.3817 180.511C29.6262 181.092 29.7484 181.711 29.7484 182.368C29.7484 182.963 29.6415 183.521 29.4276 184.04C29.229 184.545 28.9311 184.98 28.5338 185.347C28.2894 185.606 27.9991 185.836 27.663 186.034C28.1213 186.294 28.5262 186.607 28.8776 186.974C29.3054 187.402 29.6262 187.913 29.8401 188.509C30.054 189.09 30.1609 189.686 30.1609 190.297C30.1456 191 30.0158 191.672 29.7713 192.313C29.5269 192.955 29.1526 193.497 28.6484 193.94C28.1748 194.368 27.6172 194.681 26.9755 194.88C26.3338 195.094 25.6692 195.201 24.9817 195.201C24.3095 195.201 23.6526 195.094 23.0109 194.88C22.3692 194.681 21.8116 194.368 21.338 193.94C20.8338 193.482 20.4519 192.932 20.1922 192.29C19.9477 191.634 19.8331 190.969 19.8484 190.297C19.8331 189.686 19.9324 189.09 20.1463 188.509C20.3602 187.913 20.681 187.402 21.1088 186.974C21.4602 186.607 21.8651 186.294 22.3234 186.034C21.9873 185.836 21.697 185.606 21.4526 185.347C21.0554 184.98 20.7498 184.545 20.5359 184.04C20.3373 183.521 20.238 182.963 20.238 182.368ZM21.6359 182.459C21.6359 182.902 21.7123 183.315 21.8651 183.697C22.0179 184.063 22.247 184.369 22.5526 184.613C22.8581 184.873 23.2248 185.072 23.6526 185.209C24.0804 185.347 24.5234 185.415 24.9817 185.415C25.9901 185.415 26.8074 185.148 27.4338 184.613C27.7394 184.369 27.9686 184.063 28.1213 183.697C28.2741 183.315 28.3505 182.902 28.3505 182.459C28.3505 181.42 28.0373 180.641 27.4109 180.122C26.8456 179.618 26.0359 179.365 24.9817 179.365C23.9429 179.365 23.1408 179.618 22.5755 180.122C21.9491 180.641 21.6359 181.42 21.6359 182.459ZM27.7317 192.955C28.0679 192.634 28.3199 192.245 28.488 191.786C28.6561 191.328 28.7401 190.831 28.7401 190.297C28.7401 189.762 28.6561 189.265 28.488 188.807C28.3199 188.349 28.0679 187.959 27.7317 187.638C27.3956 187.318 26.9908 187.081 26.5172 186.928C26.0436 186.775 25.5317 186.699 24.9817 186.699C24.447 186.699 23.9429 186.775 23.4692 186.928C22.9956 187.081 22.5908 187.318 22.2547 187.638C21.9185 187.959 21.6665 188.349 21.4984 188.807C21.3304 189.265 21.2463 189.762 21.2463 190.297C21.2463 190.831 21.3304 191.328 21.4984 191.786C21.6665 192.245 21.9185 192.634 22.2547 192.955C22.5908 193.261 22.9956 193.497 23.4692 193.665C23.9581 193.834 24.4623 193.918 24.9817 193.918C25.5165 193.918 26.0206 193.841 26.4942 193.688C26.9831 193.52 27.3956 193.276 27.7317 192.955ZM37.8727 195.201C38.6213 195.201 39.3317 195.056 40.0039 194.765C40.6761 194.46 41.2567 194.04 41.7456 193.505C42.6317 192.497 43.0747 191.305 43.0747 189.93V183.261C43.0747 181.81 42.5935 180.588 41.631 179.595C41.1421 179.09 40.5768 178.701 39.9352 178.426C39.2935 178.151 38.606 178.013 37.8727 178.013C37.1393 178.013 36.4442 178.151 35.7872 178.426C35.1303 178.701 34.565 179.09 34.0914 179.595C33.1442 180.618 32.6706 181.84 32.6706 183.261V189.93C32.6706 191.336 33.1213 192.535 34.0227 193.528C34.4963 194.063 35.0692 194.475 35.7414 194.765C36.4136 195.056 37.124 195.201 37.8727 195.201ZM37.8727 179.297C38.5143 179.297 39.1178 179.45 39.6831 179.755C40.2484 180.061 40.7143 180.473 41.081 180.993C41.524 181.665 41.7456 182.421 41.7456 183.261V189.93C41.7456 190.77 41.5317 191.519 41.1039 192.176C40.7372 192.711 40.2713 193.138 39.706 193.459C39.1407 193.765 38.5296 193.91 37.8727 193.895C37.2157 193.91 36.6046 193.765 36.0393 193.459C35.474 193.138 35.0157 192.711 34.6643 192.176C34.2213 191.534 33.9997 190.786 33.9997 189.93V183.261C33.9997 182.39 34.2289 181.634 34.6872 180.993C35.0386 180.473 35.497 180.061 36.0622 179.755C36.6275 179.45 37.231 179.297 37.8727 179.297Z" fill="#161C23" fill-opacity="0.9"/>
<path d="M30.3987 254.657V255.94H28.5195V259.286H27.1903V255.94H19.7195V254.657L25.3341 242.786H26.732L21.1403 254.657H27.1903V249.661H28.5195V254.657H30.3987ZM37.8727 259.629C38.6213 259.629 39.3317 259.484 40.0039 259.194C40.6761 258.888 41.2567 258.468 41.7456 257.934C42.6317 256.925 43.0747 255.734 43.0747 254.359V247.69C43.0747 246.238 42.5935 245.016 41.631 244.023C41.1421 243.519 40.5768 243.129 39.9352 242.854C39.2935 242.579 38.606 242.442 37.8727 242.442C37.1393 242.442 36.4442 242.579 35.7872 242.854C35.1303 243.129 34.565 243.519 34.0914 244.023C33.1442 245.047 32.6706 246.269 32.6706 247.69V254.359C32.6706 255.764 33.1213 256.963 34.0227 257.957C34.4963 258.491 35.0692 258.904 35.7414 259.194C36.4136 259.484 37.124 259.629 37.8727 259.629ZM37.8727 243.725C38.5143 243.725 39.1178 243.878 39.6831 244.184C40.2484 244.489 40.7143 244.902 41.081 245.421C41.524 246.093 41.7456 246.85 41.7456 247.69V254.359C41.7456 255.199 41.5317 255.948 41.1039 256.604C40.7372 257.139 40.2713 257.567 39.706 257.888C39.1407 258.193 38.5296 258.338 37.8727 258.323C37.2157 258.338 36.6046 258.193 36.0393 257.888C35.474 257.567 35.0157 257.139 34.6643 256.604C34.2213 255.963 33.9997 255.214 33.9997 254.359V247.69C33.9997 246.819 34.2289 246.063 34.6872 245.421C35.0386 244.902 35.497 244.489 36.0622 244.184C36.6275 243.878 37.231 243.725 37.8727 243.725Z" fill="#161C23" fill-opacity="0.9"/>
<path d="M37.8727 325.058C38.6213 325.058 39.3317 324.913 40.0039 324.623C40.6761 324.317 41.2567 323.897 41.7456 323.362C42.6317 322.354 43.0747 321.162 43.0747 319.787V313.118C43.0747 311.667 42.5935 310.445 41.631 309.452C41.1421 308.948 40.5768 308.558 39.9352 308.283C39.2935 308.008 38.606 307.871 37.8727 307.871C37.1393 307.871 36.4442 308.008 35.7872 308.283C35.1303 308.558 34.565 308.948 34.0914 309.452C33.1442 310.475 32.6706 311.698 32.6706 313.118V319.787C32.6706 321.193 33.1213 322.392 34.0227 323.385C34.4963 323.92 35.0692 324.332 35.7414 324.623C36.4136 324.913 37.124 325.058 37.8727 325.058ZM37.8727 309.154C38.5143 309.154 39.1178 309.307 39.6831 309.612C40.2484 309.918 40.7143 310.33 41.081 310.85C41.524 311.522 41.7456 312.278 41.7456 313.118V319.787C41.7456 320.627 41.5317 321.376 41.1039 322.033C40.7372 322.568 40.2713 322.996 39.706 323.316C39.1407 323.622 38.5296 323.767 37.8727 323.752C37.2157 323.767 36.6046 323.622 36.0393 323.316C35.474 322.996 35.0157 322.568 34.6643 322.033C34.2213 321.391 33.9997 320.643 33.9997 319.787V313.118C33.9997 312.248 34.2289 311.491 34.6872 310.85C35.0386 310.33 35.497 309.918 36.0622 309.612C36.6275 309.307 37.231 309.154 37.8727 309.154Z" fill="#161C23" fill-opacity="0.9"/>
<path d="M16.0712 383.13V384.322H9.19617V383.13H16.0712ZM30.3987 385.514V386.797H28.5195V390.143H27.1903V386.797H19.7195V385.514L25.3341 373.643H26.732L21.1403 385.514H27.1903V380.518H28.5195V385.514H30.3987ZM37.8727 390.487C38.6213 390.487 39.3317 390.341 40.0039 390.051C40.6761 389.746 41.2567 389.325 41.7456 388.791C42.6317 387.782 43.0747 386.591 43.0747 385.216V378.547C43.0747 377.096 42.5935 375.873 41.631 374.88C41.1421 374.376 40.5768 373.987 39.9352 373.712C39.2935 373.437 38.606 373.299 37.8727 373.299C37.1393 373.299 36.4442 373.437 35.7872 373.712C35.1303 373.987 34.565 374.376 34.0914 374.88C33.1442 375.904 32.6706 377.126 32.6706 378.547V385.216C32.6706 386.621 33.1213 387.821 34.0227 388.814C34.4963 389.348 35.0692 389.761 35.7414 390.051C36.4136 390.341 37.124 390.487 37.8727 390.487ZM37.8727 374.582C38.5143 374.582 39.1178 374.735 39.6831 375.041C40.2483 375.346 40.7143 375.759 41.081 376.278C41.524 376.95 41.7456 377.707 41.7456 378.547V385.216C41.7456 386.056 41.5317 386.805 41.1039 387.462C40.7372 387.996 40.2713 388.424 39.706 388.745C39.1407 389.05 38.5296 389.196 37.8727 389.18C37.2157 389.196 36.6046 389.05 36.0393 388.745C35.474 388.424 35.0157 387.996 34.6643 387.462C34.2213 386.82 33.9997 386.071 33.9997 385.216V378.547C33.9997 377.676 34.2289 376.92 34.6872 376.278C35.0386 375.759 35.497 375.346 36.0622 375.041C36.6275 374.735 37.231 374.582 37.8727 374.582Z" fill="#161C23" fill-opacity="0.9"/>
<path d="M16.8876 448.559V449.751H10.0126V448.559H16.8876ZM20.238 443.082C20.238 442.41 20.3526 441.798 20.5817 441.248C20.8262 440.683 21.1929 440.202 21.6817 439.805C22.522 439.087 23.622 438.728 24.9817 438.728C26.3567 438.728 27.4644 439.087 28.3047 439.805C28.7935 440.171 29.1526 440.645 29.3817 441.226C29.6262 441.806 29.7484 442.425 29.7484 443.082C29.7484 443.678 29.6415 444.235 29.4276 444.755C29.229 445.259 28.931 445.694 28.5338 446.061C28.2894 446.321 27.9991 446.55 27.663 446.748C28.1213 447.008 28.5262 447.321 28.8776 447.688C29.3054 448.116 29.6262 448.628 29.8401 449.223C30.054 449.804 30.1609 450.4 30.1609 451.011C30.1456 451.714 30.0158 452.386 29.7713 453.028C29.5269 453.669 29.1526 454.212 28.6484 454.655C28.1748 455.083 27.6172 455.396 26.9755 455.594C26.3338 455.808 25.6692 455.915 24.9817 455.915C24.3095 455.915 23.6526 455.808 23.0109 455.594C22.3692 455.396 21.8116 455.083 21.338 454.655C20.8338 454.196 20.4519 453.646 20.1922 453.005C19.9477 452.348 19.8331 451.683 19.8484 451.011C19.8331 450.4 19.9324 449.804 20.1463 449.223C20.3602 448.628 20.681 448.116 21.1088 447.688C21.4602 447.321 21.8651 447.008 22.3234 446.748C21.9873 446.55 21.697 446.321 21.4526 446.061C21.0554 445.694 20.7498 445.259 20.5359 444.755C20.3373 444.235 20.238 443.678 20.238 443.082ZM21.6359 443.173C21.6359 443.617 21.7123 444.029 21.8651 444.411C22.0179 444.778 22.247 445.083 22.5526 445.328C22.8581 445.587 23.2248 445.786 23.6526 445.923C24.0804 446.061 24.5234 446.13 24.9817 446.13C25.9901 446.13 26.8074 445.862 27.4338 445.328C27.7394 445.083 27.9685 444.778 28.1213 444.411C28.2741 444.029 28.3505 443.617 28.3505 443.173C28.3505 442.135 28.0373 441.355 27.4109 440.836C26.8456 440.332 26.0359 440.08 24.9817 440.08C23.9429 440.08 23.1408 440.332 22.5755 440.836C21.9491 441.355 21.6359 442.135 21.6359 443.173ZM27.7317 453.669C28.0679 453.348 28.3199 452.959 28.488 452.501C28.656 452.042 28.7401 451.546 28.7401 451.011C28.7401 450.476 28.656 449.98 28.488 449.521C28.3199 449.063 28.0679 448.673 27.7317 448.353C27.3956 448.032 26.9908 447.795 26.5172 447.642C26.0435 447.489 25.5317 447.413 24.9817 447.413C24.447 447.413 23.9429 447.489 23.4692 447.642C22.9956 447.795 22.5908 448.032 22.2547 448.353C21.9185 448.673 21.6665 449.063 21.4984 449.521C21.3304 449.98 21.2463 450.476 21.2463 451.011C21.2463 451.546 21.3304 452.042 21.4984 452.501C21.6665 452.959 21.9185 453.348 22.2547 453.669C22.5908 453.975 22.9956 454.212 23.4692 454.38C23.9581 454.548 24.4623 454.632 24.9817 454.632C25.5165 454.632 26.0206 454.555 26.4942 454.403C26.9831 454.235 27.3956 453.99 27.7317 453.669ZM37.8727 455.915C38.6213 455.915 39.3317 455.77 40.0039 455.48C40.6761 455.174 41.2567 454.754 41.7456 454.219C42.6317 453.211 43.0747 452.019 43.0747 450.644V443.976C43.0747 442.524 42.5935 441.302 41.631 440.309C41.1421 439.805 40.5768 439.415 39.9352 439.14C39.2935 438.865 38.606 438.728 37.8727 438.728C37.1393 438.728 36.4442 438.865 35.7872 439.14C35.1303 439.415 34.565 439.805 34.0914 440.309C33.1442 441.333 32.6706 442.555 32.6706 443.976V450.644C32.6706 452.05 33.1213 453.249 34.0227 454.242C34.4963 454.777 35.0692 455.189 35.7414 455.48C36.4136 455.77 37.124 455.915 37.8727 455.915ZM37.8727 440.011C38.5143 440.011 39.1178 440.164 39.6831 440.469C40.2483 440.775 40.7143 441.187 41.081 441.707C41.524 442.379 41.7456 443.135 41.7456 443.976V450.644C41.7456 451.485 41.5317 452.233 41.1039 452.89C40.7372 453.425 40.2713 453.853 39.706 454.173C39.1407 454.479 38.5296 454.624 37.8727 454.609C37.2157 454.624 36.6046 454.479 36.0393 454.173C35.474 453.853 35.0157 453.425 34.6643 452.89C34.2213 452.248 33.9997 451.5 33.9997 450.644V443.976C33.9997 443.105 34.2289 442.348 34.6872 441.707C35.0386 441.187 35.497 440.775 36.0622 440.469C36.6275 440.164 37.231 440.011 37.8727 440.011Z" fill="#161C23" fill-opacity="0.9"/>
<path d="M9.55109 513.987V515.179H2.67609V513.987H9.55109ZM16.339 504.5V521H15.0098V505.99L11.8932 507.869V506.356L15.0098 504.5H16.339ZM20.4371 508.923C20.4218 508.251 20.544 507.617 20.8037 507.021C21.0787 506.41 21.4607 505.875 21.9496 505.417C22.3926 505.019 22.9044 504.714 23.485 504.5C24.0656 504.271 24.6614 504.156 25.2725 504.156C25.8989 504.156 26.4947 504.271 27.06 504.5C27.6253 504.729 28.1294 505.05 28.5725 505.462C29.0461 505.921 29.4128 506.455 29.6725 507.067C29.9322 507.662 30.0621 508.289 30.0621 508.946C30.0621 509.679 29.9017 510.382 29.5808 511.054C29.26 511.726 28.7635 512.414 28.0913 513.117L22.2017 519.694H30.1308V521H20.2996V519.694L27.2204 512.131C28.2287 511.031 28.7329 509.969 28.7329 508.946C28.7329 508.457 28.6336 507.999 28.435 507.571C28.2517 507.128 27.9919 506.746 27.6558 506.425C26.9683 505.768 26.1662 505.44 25.2496 505.44C24.8065 505.44 24.3787 505.524 23.9662 505.692C23.5537 505.86 23.1871 506.089 22.8662 506.379C22.5301 506.715 22.2628 507.105 22.0642 507.548C21.8656 507.991 21.7662 508.449 21.7662 508.923H20.4371ZM37.8727 521.344C38.6213 521.344 39.3317 521.199 40.0039 520.908C40.6761 520.603 41.2567 520.183 41.7456 519.648C42.6317 518.64 43.0747 517.448 43.0747 516.073V509.404C43.0747 507.953 42.5935 506.73 41.631 505.737C41.1421 505.233 40.5768 504.844 39.9352 504.569C39.2935 504.294 38.606 504.156 37.8727 504.156C37.1393 504.156 36.4442 504.294 35.7872 504.569C35.1303 504.844 34.565 505.233 34.0914 505.737C33.1442 506.761 32.6706 507.983 32.6706 509.404V516.073C32.6706 517.478 33.1213 518.678 34.0227 519.671C34.4963 520.205 35.0692 520.618 35.7414 520.908C36.4136 521.199 37.124 521.344 37.8727 521.344ZM37.8727 505.44C38.5143 505.44 39.1178 505.592 39.6831 505.898C40.2484 506.203 40.7143 506.616 41.081 507.135C41.524 507.808 41.7456 508.564 41.7456 509.404V516.073C41.7456 516.913 41.5317 517.662 41.1039 518.319C40.7372 518.853 40.2713 519.281 39.706 519.602C39.1407 519.908 38.5296 520.053 37.8727 520.037C37.2157 520.053 36.6046 519.908 36.0393 519.602C35.474 519.281 35.0157 518.853 34.6643 518.319C34.2213 517.677 33.9997 516.928 33.9997 516.073V509.404C33.9997 508.533 34.2289 507.777 34.6872 507.135C35.0386 506.616 35.497 506.203 36.0622 505.898C36.6275 505.592 37.231 505.44 37.8727 505.44Z" fill="#161C23" fill-opacity="0.9"/>
<path d="M56.4188 9.875L56.4375 20H55.35V12.35L51.8438 18.65H50.9063L47.4188 12.35V20H46.3125V9.875H47.3625L51.375 17.1125L55.4063 9.875H56.4188ZM67.1041 9.875V20H66.0354V10.9062H61.9104L61.2541 16.2687C61.1666 17.0687 61.0416 17.7375 60.8791 18.275C60.7166 18.8 60.4479 19.225 60.0729 19.55C59.6979 19.875 59.1666 20.025 58.4791 20V18.9687C58.9166 18.9687 59.2479 18.8625 59.4729 18.65C59.6979 18.4375 59.8604 18.1437 59.9604 17.7687C60.0604 17.3812 60.1541 16.8187 60.2416 16.0812L60.9729 9.875H67.1041ZM78.3638 9.875V20H77.2762V15.0687H71.1825V20H70.095V9.875H71.1825V14H77.2762V9.875H78.3638ZM94.6779 7.7375C95.0529 8.1125 95.3466 8.55625 95.5591 9.06875C95.7716 9.56875 95.8841 10.0875 95.8966 10.625C95.8966 11.1125 95.8029 11.5937 95.6154 12.0687C95.4279 12.5312 95.1716 12.95 94.8466 13.325C94.4841 13.7625 94.0216 14.1062 93.4591 14.3562C92.9091 14.6062 92.3404 14.7312 91.7529 14.7312H87.3654V20H86.2779V6.5H91.7529C92.2279 6.5 92.7091 6.5875 93.1966 6.7625C93.7716 6.975 94.2654 7.3 94.6779 7.7375ZM94.0404 12.575C94.2654 12.3 94.4404 12 94.5654 11.675C94.6904 11.35 94.7529 11.025 94.7529 10.7C94.7529 10.2625 94.6716 9.85 94.5091 9.4625C94.3591 9.075 94.1404 8.7375 93.8529 8.45C93.5779 8.175 93.2529 7.95625 92.8779 7.79375C92.5029 7.63125 92.1279 7.55 91.7529 7.55H87.3654V13.6812H91.7529C92.1779 13.6812 92.5904 13.5812 92.9904 13.3812C93.4029 13.1812 93.7529 12.9125 94.0404 12.575Z" fill="#161C23" fill-opacity="0.9"/>
<path d="M348.156 544.962H342.4V554H341.313V543.875H348.156V544.962ZM354.166 554.281C353.441 554.281 352.766 554.144 352.141 553.869C351.516 553.581 350.991 553.169 350.566 552.631C349.828 551.694 349.46 550.456 349.46 548.919C349.46 547.406 349.828 546.175 350.566 545.225C350.978 544.7 351.497 544.3 352.122 544.025C352.76 543.737 353.441 543.594 354.166 543.594C354.903 543.594 355.585 543.731 356.21 544.006C356.835 544.281 357.353 544.687 357.766 545.225C358.516 546.15 358.891 547.381 358.891 548.919C358.891 550.469 358.516 551.706 357.766 552.631C357.341 553.181 356.822 553.594 356.21 553.869C355.597 554.144 354.916 554.281 354.166 554.281ZM356.903 551.975C357.453 551.262 357.728 550.244 357.728 548.919C357.728 547.606 357.453 546.594 356.903 545.881C356.603 545.481 356.21 545.175 355.722 544.962C355.247 544.75 354.728 544.644 354.166 544.644C353.616 544.644 353.097 544.75 352.61 544.962C352.135 545.175 351.753 545.481 351.466 545.881C350.903 546.606 350.622 547.619 350.622 548.919C350.622 550.231 350.903 551.25 351.466 551.975C351.753 552.375 352.135 552.687 352.61 552.912C353.097 553.125 353.616 553.231 354.166 553.231C354.716 553.231 355.235 553.125 355.722 552.912C356.21 552.687 356.603 552.375 356.903 551.975ZM369.734 552.95H370.653V555.444H369.603V554H361.428V555.444H360.378V552.95C361.541 552.95 362.247 551.85 362.497 549.65L363.172 543.875H369.734V552.95ZM368.684 544.906H364.091L363.528 549.762C363.353 551.237 362.978 552.3 362.403 552.95H368.684V544.906Z" fill="#161C23" fill-opacity="0.9"/>
<path opacity="0.8" d="M150.648 485.146V487.021H156.898V485.146H150.648ZM159.565 480.896C159.586 481.583 159.753 482.312 160.169 482.958C160.378 483.333 160.648 483.646 160.961 483.937C160.482 484.333 160.065 484.833 159.794 485.354C159.357 486.062 159.19 486.875 159.19 487.604C159.19 488.937 159.732 490.292 160.773 491.146C161.69 491.937 163.003 492.312 164.253 492.312C165.482 492.312 166.794 491.979 167.753 491.146C168.815 490.271 169.294 488.979 169.336 487.604C169.315 486.875 169.169 486.062 168.732 485.354C168.461 484.833 168.044 484.333 167.565 483.937C167.878 483.646 168.148 483.333 168.336 482.958C168.773 482.312 168.94 481.583 168.94 480.896C168.94 479.625 168.419 478.396 167.398 477.625C166.544 476.958 165.398 476.687 164.253 476.687C163.169 476.687 162.023 476.937 161.128 477.625C160.086 478.417 159.628 479.542 159.565 480.896ZM162.065 480.896C162.065 480.292 162.232 479.771 162.669 479.417C163.065 479.062 163.669 478.917 164.253 478.896C164.857 478.917 165.461 479.062 165.857 479.417C166.273 479.771 166.461 480.292 166.461 480.896C166.482 481.479 166.273 482.021 165.878 482.375C165.461 482.729 164.857 482.875 164.253 482.875C163.669 482.875 163.065 482.729 162.648 482.375C162.232 482.021 162.044 481.479 162.065 480.896ZM166.148 489.437C165.69 489.875 164.982 490.083 164.253 490.083C163.544 490.083 162.836 489.875 162.357 489.437C161.878 488.979 161.669 488.312 161.669 487.604C161.669 486.896 161.878 486.208 162.357 485.771C162.836 485.312 163.544 485.104 164.253 485.104C164.982 485.104 165.69 485.312 166.148 485.771C166.648 486.208 166.857 486.896 166.857 487.604C166.857 488.312 166.648 488.979 166.148 489.437ZM180.313 487.25V483.271H177.938V487.25H173.854L178.708 477H176.25L171.417 487.25V489.458H177.938V492H180.313V489.458H181.771V487.25H180.313Z" fill="#161C23" fill-opacity="0.9"/>
<path opacity="0.8" d="M247.989 81L245.177 82.6875V85.2917L247.989 83.5625V96H250.385V81H247.989ZM254.313 85.5H256.708C256.708 84.7708 257.021 84.0833 257.521 83.6042C257.979 83.1667 258.604 82.8958 259.271 82.8958C260.042 82.8958 260.729 83.2083 261.229 83.7708C261.646 84.25 261.875 84.875 261.875 85.5208C261.875 86.25 261.521 87.0625 260.563 87.9375L254.229 93.7708V95.9792H264.083V93.7708H257.896L261.833 89.9792C263.417 88.5 264.292 87.4375 264.292 85.5417C264.292 84.3333 263.854 83.1458 263.042 82.25C262.167 81.1875 260.813 80.6875 259.396 80.6875C258.167 80.6875 256.854 81.0208 255.917 81.8542C254.917 82.75 254.271 84.1042 254.313 85.5ZM275.492 88.1667C274.784 87.375 273.867 86.8333 272.722 86.6458L276.284 83.2917V81H267.159V83.2083H273.138L268.992 87.1042L270.076 88.9375C270.492 88.7292 270.972 88.5833 271.43 88.5833C272.117 88.5833 272.784 88.7917 273.305 89.2708C273.867 89.8125 274.117 90.5625 274.117 91.3333C274.117 92.1042 273.847 92.8542 273.263 93.375C272.763 93.8125 272.117 94.0625 271.451 94.0625C270.763 94.0625 270.117 93.8333 269.617 93.3958C269.242 93.0625 268.992 92.625 268.847 92.1458L266.576 92.75C266.847 93.6458 267.347 94.4375 268.034 95.0417C268.972 95.875 270.222 96.3125 271.451 96.2917C272.659 96.3125 273.909 95.875 274.847 95.0417C275.909 94.125 276.472 92.75 276.513 91.3333C276.534 90.1875 276.201 89.0625 275.492 88.1667Z" fill="#161C23" fill-opacity="0.9"/>
<path opacity="0.8" d="M342.784 68L339.972 69.6875V72.2917L342.784 70.5625V83H345.18V68H342.784ZM358.149 75.1667C357.441 74.375 356.524 73.8333 355.378 73.6458L358.941 70.2917V68H349.816V70.2083H355.795L351.649 74.1042L352.732 75.9375C353.149 75.7292 353.628 75.5833 354.087 75.5833C354.774 75.5833 355.441 75.7917 355.962 76.2708C356.524 76.8125 356.774 77.5625 356.774 78.3333C356.774 79.1042 356.503 79.8542 355.92 80.375C355.42 80.8125 354.774 81.0625 354.107 81.0625C353.42 81.0625 352.774 80.8333 352.274 80.3958C351.899 80.0625 351.649 79.625 351.503 79.1458L349.232 79.75C349.503 80.6458 350.003 81.4375 350.691 82.0417C351.628 82.875 352.878 83.3125 354.107 83.2917C355.316 83.3125 356.566 82.875 357.503 82.0417C358.566 81.125 359.128 79.75 359.17 78.3333C359.191 77.1875 358.857 76.0625 358.149 75.1667ZM361.734 72.5H364.13C364.13 71.7708 364.442 71.0833 364.942 70.6042C365.401 70.1667 366.026 69.8958 366.692 69.8958C367.463 69.8958 368.151 70.2083 368.651 70.7708C369.067 71.25 369.296 71.875 369.296 72.5208C369.296 73.25 368.942 74.0625 367.984 74.9375L361.651 80.7708V82.9792H371.505V80.7708H365.317L369.255 76.9792C370.838 75.5 371.713 74.4375 371.713 72.5417C371.713 71.3333 371.276 70.1458 370.463 69.25C369.588 68.1875 368.234 67.6875 366.817 67.6875C365.588 67.6875 364.276 68.0208 363.338 68.8542C362.338 69.75 361.692 71.1042 361.734 72.5Z" fill="#161C23" fill-opacity="0.9"/>
<path opacity="0.8" d="M437.784 68L434.972 69.6875V72.2917L437.784 70.5625V83H440.18V68H437.784ZM453.149 75.1667C452.441 74.375 451.524 73.8333 450.378 73.6458L453.941 70.2917V68H444.816V70.2083H450.795L446.649 74.1042L447.732 75.9375C448.149 75.7292 448.628 75.5833 449.087 75.5833C449.774 75.5833 450.441 75.7917 450.962 76.2708C451.524 76.8125 451.774 77.5625 451.774 78.3333C451.774 79.1042 451.503 79.8542 450.92 80.375C450.42 80.8125 449.774 81.0625 449.107 81.0625C448.42 81.0625 447.774 80.8333 447.274 80.3958C446.899 80.0625 446.649 79.625 446.503 79.1458L444.232 79.75C444.503 80.6458 445.003 81.4375 445.691 82.0417C446.628 82.875 447.878 83.3125 449.107 83.2917C450.316 83.3125 451.566 82.875 452.503 82.0417C453.566 81.125 454.128 79.75 454.17 78.3333C454.191 77.1875 453.857 76.0625 453.149 75.1667ZM456.734 72.5H459.13C459.13 71.7708 459.442 71.0833 459.942 70.6042C460.401 70.1667 461.026 69.8958 461.692 69.8958C462.463 69.8958 463.151 70.2083 463.651 70.7708C464.067 71.25 464.296 71.875 464.296 72.5208C464.296 73.25 463.942 74.0625 462.984 74.9375L456.651 80.7708V82.9792H466.505V80.7708H460.317L464.255 76.9792C465.838 75.5 466.713 74.4375 466.713 72.5417C466.713 71.3333 466.276 70.1458 465.463 69.25C464.588 68.1875 463.234 67.6875 461.817 67.6875C460.588 67.6875 459.276 68.0208 458.338 68.8542C457.338 69.75 456.692 71.1042 456.734 72.5Z" fill="#161C23" fill-opacity="0.9"/>
<path opacity="0.8" d="M532.784 68L529.972 69.6875V72.2917L532.784 70.5625V83H535.18V68H532.784ZM548.149 75.1667C547.441 74.375 546.524 73.8333 545.378 73.6458L548.941 70.2917V68H539.816V70.2083H545.795L541.649 74.1042L542.732 75.9375C543.149 75.7292 543.628 75.5833 544.087 75.5833C544.774 75.5833 545.441 75.7917 545.962 76.2708C546.524 76.8125 546.774 77.5625 546.774 78.3333C546.774 79.1042 546.503 79.8542 545.92 80.375C545.42 80.8125 544.774 81.0625 544.107 81.0625C543.42 81.0625 542.774 80.8333 542.274 80.3958C541.899 80.0625 541.649 79.625 541.503 79.1458L539.232 79.75C539.503 80.6458 540.003 81.4375 540.691 82.0417C541.628 82.875 542.878 83.3125 544.107 83.2917C545.316 83.3125 546.566 82.875 547.503 82.0417C548.566 81.125 549.128 79.75 549.17 78.3333C549.191 77.1875 548.857 76.0625 548.149 75.1667ZM551.734 72.5H554.13C554.13 71.7708 554.442 71.0833 554.942 70.6042C555.401 70.1667 556.026 69.8958 556.692 69.8958C557.463 69.8958 558.151 70.2083 558.651 70.7708C559.067 71.25 559.296 71.875 559.296 72.5208C559.296 73.25 558.942 74.0625 557.984 74.9375L551.651 80.7708V82.9792H561.505V80.7708H555.317L559.255 76.9792C560.838 75.5 561.713 74.4375 561.713 72.5417C561.713 71.3333 561.276 70.1458 560.463 69.25C559.588 68.1875 558.234 67.6875 556.817 67.6875C555.588 67.6875 554.276 68.0208 553.338 68.8542C552.338 69.75 551.692 71.1042 551.734 72.5Z" fill="#161C23" fill-opacity="0.9"/>
<line opacity="0.3" x1="67" y1="315.75" x2="641" y2="315.75" stroke="black" stroke-width="0.5" stroke-dasharray="6 6"/>
<line opacity="0.3" x1="67" y1="458.75" x2="641" y2="458.75" stroke="black" stroke-width="0.5" stroke-dasharray="6 6"/>
<line opacity="0.3" x1="67" y1="114.75" x2="641" y2="114.75" stroke="black" stroke-width="0.5" stroke-dasharray="6 6"/>
<line opacity="0.3" x1="67" y1="99.75" x2="641" y2="99.75" stroke="black" stroke-width="0.5" stroke-dasharray="6 6"/>
<line opacity="0.7" x1="67" y1="523.65" x2="644" y2="523.65" stroke="#161C23" stroke-width="0.7"/>
<path d="M152.492 266.5V277H151.646V267.448L149.663 268.644V267.681L151.646 266.5H152.492ZM164.312 269.971H159.834V277H158.989V269.125H164.312V269.971ZM168.986 277.219C168.422 277.219 167.897 277.112 167.411 276.898C166.925 276.674 166.516 276.353 166.186 275.935C165.612 275.206 165.325 274.244 165.325 273.048C165.325 271.872 165.612 270.914 166.186 270.175C166.506 269.767 166.91 269.456 167.396 269.242C167.892 269.018 168.422 268.906 168.986 268.906C169.559 268.906 170.089 269.013 170.575 269.227C171.061 269.441 171.465 269.757 171.786 270.175C172.369 270.894 172.661 271.852 172.661 273.048C172.661 274.253 172.369 275.216 171.786 275.935C171.455 276.363 171.052 276.684 170.575 276.898C170.099 277.112 169.569 277.219 168.986 277.219ZM171.115 275.425C171.543 274.871 171.756 274.078 171.756 273.048C171.756 272.027 171.543 271.24 171.115 270.685C170.881 270.374 170.575 270.136 170.196 269.971C169.827 269.806 169.423 269.723 168.986 269.723C168.558 269.723 168.154 269.806 167.775 269.971C167.406 270.136 167.109 270.374 166.886 270.685C166.448 271.249 166.229 272.037 166.229 273.048C166.229 274.069 166.448 274.861 166.886 275.425C167.109 275.736 167.406 275.979 167.775 276.154C168.154 276.319 168.558 276.402 168.986 276.402C169.413 276.402 169.817 276.319 170.196 276.154C170.575 275.979 170.881 275.736 171.115 275.425ZM181.095 276.183H181.809V278.123H180.992V277H174.634V278.123H173.817V276.183C174.722 276.183 175.271 275.328 175.465 273.617L175.99 269.125H181.095V276.183ZM180.278 269.927H176.705L176.267 273.704C176.131 274.851 175.84 275.678 175.392 276.183H180.278V269.927Z" fill="#161C23" fill-opacity="0.9"/>
<path d="M243.113 331.315C243.103 330.887 243.181 330.483 243.346 330.104C243.521 329.715 243.765 329.375 244.076 329.083C244.358 328.831 244.683 328.636 245.053 328.5C245.422 328.354 245.801 328.281 246.19 328.281C246.589 328.281 246.968 328.354 247.328 328.5C247.687 328.646 248.008 328.85 248.29 329.112C248.592 329.404 248.825 329.744 248.99 330.133C249.155 330.512 249.238 330.911 249.238 331.329C249.238 331.796 249.136 332.243 248.932 332.671C248.728 333.099 248.412 333.536 247.984 333.983L244.236 338.169H249.282V339H243.026V338.169L247.43 333.356C248.071 332.656 248.392 331.981 248.392 331.329C248.392 331.018 248.329 330.726 248.203 330.454C248.086 330.172 247.921 329.929 247.707 329.725C247.269 329.307 246.759 329.098 246.176 329.098C245.894 329.098 245.621 329.151 245.359 329.258C245.096 329.365 244.863 329.511 244.659 329.696C244.445 329.91 244.275 330.158 244.149 330.44C244.022 330.722 243.959 331.013 243.959 331.315H243.113ZM260.343 331.971H255.866V339H255.02V331.125H260.343V331.971ZM265.017 339.219C264.453 339.219 263.928 339.112 263.442 338.898C262.956 338.674 262.547 338.353 262.217 337.935C261.643 337.206 261.356 336.244 261.356 335.048C261.356 333.872 261.643 332.914 262.217 332.175C262.538 331.767 262.941 331.456 263.427 331.242C263.923 331.018 264.453 330.906 265.017 330.906C265.591 330.906 266.12 331.013 266.606 331.227C267.093 331.441 267.496 331.757 267.817 332.175C268.4 332.894 268.692 333.852 268.692 335.048C268.692 336.253 268.4 337.216 267.817 337.935C267.486 338.363 267.083 338.684 266.606 338.898C266.13 339.112 265.6 339.219 265.017 339.219ZM267.146 337.425C267.574 336.871 267.788 336.078 267.788 335.048C267.788 334.027 267.574 333.24 267.146 332.685C266.913 332.374 266.606 332.136 266.227 331.971C265.858 331.806 265.454 331.723 265.017 331.723C264.589 331.723 264.186 331.806 263.806 331.971C263.437 332.136 263.141 332.374 262.917 332.685C262.479 333.249 262.261 334.037 262.261 335.048C262.261 336.069 262.479 336.861 262.917 337.425C263.141 337.736 263.437 337.979 263.806 338.154C264.186 338.319 264.589 338.402 265.017 338.402C265.445 338.402 265.848 338.319 266.227 338.154C266.606 337.979 266.913 337.736 267.146 337.425ZM277.126 338.183H277.84V340.123H277.024V339H270.665V340.123H269.849V338.183C270.753 338.183 271.302 337.328 271.497 335.617L272.022 331.125H277.126V338.183ZM276.309 331.927H272.736L272.299 335.704C272.163 336.851 271.871 337.678 271.424 338.183H276.309V331.927Z" fill="#161C23" fill-opacity="0.9"/>
<path d="M343.455 333.269C343.795 333.57 344.048 333.944 344.213 334.392C344.388 334.839 344.476 335.315 344.476 335.821C344.466 336.394 344.354 336.919 344.14 337.396C343.936 337.872 343.63 338.261 343.221 338.562C342.677 338.981 342.001 339.199 341.194 339.219C340.407 339.219 339.726 339.015 339.153 338.606C338.608 338.198 338.224 337.658 338.001 336.987L338.803 336.725C338.978 337.25 339.264 337.658 339.663 337.95C340.081 338.242 340.587 338.387 341.18 338.387C341.792 338.368 342.298 338.208 342.696 337.906C343.289 337.459 343.586 336.764 343.586 335.821C343.586 335.422 343.518 335.048 343.382 334.698C343.255 334.348 343.056 334.056 342.784 333.823C342.356 333.453 341.817 333.269 341.165 333.269C340.961 333.269 340.747 333.298 340.523 333.356C340.3 333.405 340.091 333.478 339.896 333.575L339.444 332.89L343.178 329.317H338.423V328.5H344.359V329.346L341.048 332.51C341.505 332.481 341.943 332.53 342.361 332.656C342.779 332.783 343.144 332.987 343.455 333.269ZM355.514 331.971H351.037V339H350.191V331.125H355.514V331.971ZM360.188 339.219C359.624 339.219 359.099 339.112 358.613 338.898C358.127 338.674 357.718 338.353 357.388 337.935C356.814 337.206 356.527 336.244 356.527 335.048C356.527 333.872 356.814 332.914 357.388 332.175C357.709 331.767 358.112 331.456 358.598 331.242C359.094 331.018 359.624 330.906 360.188 330.906C360.761 330.906 361.291 331.013 361.777 331.227C362.264 331.441 362.667 331.757 362.988 332.175C363.571 332.894 363.863 333.852 363.863 335.048C363.863 336.253 363.571 337.216 362.988 337.935C362.657 338.363 362.254 338.684 361.777 338.898C361.301 339.112 360.771 339.219 360.188 339.219ZM362.317 337.425C362.745 336.871 362.959 336.078 362.959 335.048C362.959 334.027 362.745 333.24 362.317 332.685C362.084 332.374 361.777 332.136 361.398 331.971C361.029 331.806 360.625 331.723 360.188 331.723C359.76 331.723 359.357 331.806 358.977 331.971C358.608 332.136 358.311 332.374 358.088 332.685C357.65 333.249 357.432 334.037 357.432 335.048C357.432 336.069 357.65 336.861 358.088 337.425C358.311 337.736 358.608 337.979 358.977 338.154C359.357 338.319 359.76 338.402 360.188 338.402C360.616 338.402 361.019 338.319 361.398 338.154C361.777 337.979 362.084 337.736 362.317 337.425ZM372.297 338.183H373.011V340.123H372.195V339H365.836V340.123H365.02V338.183C365.924 338.183 366.473 337.328 366.668 335.617L367.193 331.125H372.297V338.183ZM371.48 331.927H367.907L367.47 335.704C367.334 336.851 367.042 337.678 366.595 338.183H371.48V331.927Z" fill="#161C23" fill-opacity="0.9"/>
<path d="M439.637 336.054V336.871H438.441V339H437.595V336.871H432.841V336.054L436.414 328.5H437.304L433.745 336.054H437.595V332.875H438.441V336.054H439.637ZM450.527 331.971H446.05V339H445.204V331.125H450.527V331.971ZM455.201 339.219C454.638 339.219 454.113 339.112 453.626 338.898C453.14 338.674 452.732 338.353 452.401 337.935C451.828 337.206 451.541 336.244 451.541 335.048C451.541 333.872 451.828 332.914 452.401 332.175C452.722 331.767 453.126 331.456 453.612 331.242C454.108 331.018 454.638 330.906 455.201 330.906C455.775 330.906 456.305 331.013 456.791 331.227C457.277 331.441 457.681 331.757 458.001 332.175C458.585 332.894 458.876 333.852 458.876 335.048C458.876 336.253 458.585 337.216 458.001 337.935C457.671 338.363 457.267 338.684 456.791 338.898C456.315 339.112 455.785 339.219 455.201 339.219ZM457.331 337.425C457.758 336.871 457.972 336.078 457.972 335.048C457.972 334.027 457.758 333.24 457.331 332.685C457.097 332.374 456.791 332.136 456.412 331.971C456.042 331.806 455.639 331.723 455.201 331.723C454.774 331.723 454.37 331.806 453.991 331.971C453.622 332.136 453.325 332.374 453.101 332.685C452.664 333.249 452.445 334.037 452.445 335.048C452.445 336.069 452.664 336.861 453.101 337.425C453.325 337.736 453.622 337.979 453.991 338.154C454.37 338.319 454.774 338.402 455.201 338.402C455.629 338.402 456.033 338.319 456.412 338.154C456.791 337.979 457.097 337.736 457.331 337.425ZM467.31 338.183H468.025V340.123H467.208V339H460.85V340.123H460.033V338.183C460.937 338.183 461.487 337.328 461.681 335.617L462.206 331.125H467.31V338.183ZM466.494 331.927H462.921L462.483 335.704C462.347 336.851 462.056 337.678 461.608 338.183H466.494V331.927Z" fill="#161C23" fill-opacity="0.9"/>
<path d="M534.344 328.5V329.317H529.59L529.356 333.123C529.658 332.841 530.008 332.622 530.406 332.467C530.805 332.301 531.223 332.219 531.661 332.219C532.098 332.219 532.516 332.297 532.915 332.452C533.313 332.608 533.668 332.826 533.979 333.108C534.349 333.439 534.631 333.828 534.825 334.275C535.029 334.722 535.131 335.199 535.131 335.704C535.131 336.171 535.039 336.618 534.854 337.046C534.679 337.474 534.431 337.848 534.111 338.169C533.79 338.499 533.411 338.757 532.973 338.942C532.545 339.126 532.088 339.219 531.602 339.219C531.155 339.219 530.727 339.141 530.319 338.985C529.911 338.82 529.541 338.587 529.211 338.285C528.715 337.799 528.379 337.235 528.204 336.594L529.006 336.375C529.133 336.89 529.405 337.333 529.823 337.702C530.066 337.916 530.338 338.081 530.64 338.198C530.951 338.315 531.272 338.373 531.602 338.373C531.962 338.373 532.302 338.305 532.623 338.169C532.954 338.033 533.24 337.848 533.483 337.615C533.736 337.362 533.931 337.075 534.067 336.754C534.213 336.424 534.286 336.074 534.286 335.704C534.286 335.315 534.203 334.946 534.038 334.596C533.882 334.246 533.663 333.944 533.381 333.692C532.856 333.244 532.263 333.021 531.602 333.021C530.97 333.021 530.411 333.22 529.925 333.619C529.663 333.842 529.454 334.09 529.298 334.362L528.481 333.896L528.802 328.5H534.344ZM546.164 331.971H541.687V339H540.841V331.125H546.164V331.971ZM550.838 339.219C550.274 339.219 549.749 339.112 549.263 338.898C548.777 338.674 548.369 338.353 548.038 337.935C547.465 337.206 547.178 336.244 547.178 335.048C547.178 333.872 547.465 332.914 548.038 332.175C548.359 331.767 548.763 331.456 549.249 331.242C549.744 331.018 550.274 330.906 550.838 330.906C551.412 330.906 551.942 331.013 552.428 331.227C552.914 331.441 553.317 331.757 553.638 332.175C554.222 332.894 554.513 333.852 554.513 335.048C554.513 336.253 554.222 337.216 553.638 337.935C553.308 338.363 552.904 338.684 552.428 338.898C551.951 339.112 551.422 339.219 550.838 339.219ZM552.967 337.425C553.395 336.871 553.609 336.078 553.609 335.048C553.609 334.027 553.395 333.24 552.967 332.685C552.734 332.374 552.428 332.136 552.049 331.971C551.679 331.806 551.276 331.723 550.838 331.723C550.41 331.723 550.007 331.806 549.628 331.971C549.258 332.136 548.962 332.374 548.738 332.685C548.301 333.249 548.082 334.037 548.082 335.048C548.082 336.069 548.301 336.861 548.738 337.425C548.962 337.736 549.258 337.979 549.628 338.154C550.007 338.319 550.41 338.402 550.838 338.402C551.266 338.402 551.669 338.319 552.049 338.154C552.428 337.979 552.734 337.736 552.967 337.425ZM562.947 338.183H563.662V340.123H562.845V339H556.487V340.123H555.67V338.183C556.574 338.183 557.123 337.328 557.318 335.617L557.843 331.125H562.947V338.183ZM562.13 331.927H558.558L558.12 335.704C557.984 336.851 557.692 337.678 557.245 338.183H562.13V331.927Z" fill="#161C23" fill-opacity="0.9"/>
<rect x="136" y="316" width="60" height="143" fill="#9DC7D5"/>
<rect width="60" height="201" transform="matrix(1 0 0 -1 231 316)" fill="#6DABBF"/>
<rect width="60" height="216" transform="matrix(1 0 0 -1 326 316)" fill="#3C8FAA"/>
<rect width="60" height="216" transform="matrix(1 0 0 -1 421 316)" fill="#0B7495"/>
<rect width="60" height="216" transform="matrix(1 0 0 -1 516 316)" fill="#0B7495"/>
</svg>
