<svg width="647" height="510" viewBox="0 0 647 510" fill="none" xmlns="http://www.w3.org/2000/svg">
<path opacity="0.7" d="M67 474L67 45" stroke="#161C23" stroke-width="0.7"/>
<path opacity="0.7" d="M62.5 49.5L67 45L71.5 49.5" stroke="#161C23" stroke-width="0.7"/>
<path opacity="0.7" d="M641 469L646 474L641 479" stroke="#161C23" stroke-width="0.7"/>
<path d="M26.3987 61.3708V62.6542H24.5195V66H23.1903V62.6542H15.7195V61.3708L21.3341 49.5H22.732L17.1403 61.3708H23.1903V56.375H24.5195V61.3708H26.3987ZM33.8727 66.3438C34.6213 66.3438 35.3317 66.1986 36.0039 65.9083C36.6761 65.6028 37.2567 65.1826 37.7456 64.6479C38.6317 63.6396 39.0747 62.4479 39.0747 61.0729V54.4042C39.0747 52.9528 38.5935 51.7306 37.631 50.7375C37.1421 50.2333 36.5768 49.8437 35.9352 49.5687C35.2935 49.2937 34.606 49.1562 33.8727 49.1562C33.1393 49.1562 32.4442 49.2937 31.7872 49.5687C31.1303 49.8437 30.565 50.2333 30.0914 50.7375C29.1442 51.7611 28.6706 52.9833 28.6706 54.4042V61.0729C28.6706 62.4785 29.1213 63.6778 30.0227 64.6708C30.4963 65.2056 31.0692 65.6181 31.7414 65.9083C32.4136 66.1986 33.124 66.3438 33.8727 66.3438ZM33.8727 50.4396C34.5143 50.4396 35.1178 50.5924 35.6831 50.8979C36.2484 51.2035 36.7143 51.616 37.081 52.1354C37.524 52.8076 37.7456 53.5639 37.7456 54.4042V61.0729C37.7456 61.9132 37.5317 62.6618 37.1039 63.3187C36.7372 63.8535 36.2713 64.2812 35.706 64.6021C35.1407 64.9076 34.5296 65.0528 33.8727 65.0375C33.2157 65.0528 32.6046 64.9076 32.0393 64.6021C31.474 64.2812 31.0157 63.8535 30.6643 63.3187C30.2213 62.6771 29.9997 61.9285 29.9997 61.0729V54.4042C29.9997 53.5333 30.2289 52.7771 30.6872 52.1354C31.0386 51.616 31.497 51.2035 32.0622 50.8979C32.6275 50.5924 33.231 50.4396 33.8727 50.4396Z" fill="#161C23" fill-opacity="0.9"/>
<path d="M24.5625 114.994C25.0972 115.467 25.4944 116.056 25.7541 116.758C26.0291 117.461 26.1666 118.21 26.1666 119.004C26.1514 119.906 25.9757 120.731 25.6396 121.479C25.3187 122.228 24.8375 122.839 24.1958 123.312C23.3403 123.969 22.2784 124.313 21.0104 124.344C19.7729 124.344 18.7034 124.023 17.8021 123.381C16.9465 122.74 16.343 121.892 15.9916 120.837L17.2521 120.425C17.5271 121.25 17.9778 121.892 18.6041 122.35C19.2611 122.808 20.0555 123.037 20.9875 123.037C21.95 123.007 22.7444 122.755 23.3708 122.281C24.3028 121.578 24.7687 120.486 24.7687 119.004C24.7687 118.378 24.6618 117.79 24.4479 117.24C24.2493 116.69 23.9361 116.231 23.5083 115.865C22.8361 115.284 21.9882 114.994 20.9646 114.994C20.6437 114.994 20.3076 115.04 19.9562 115.131C19.6048 115.208 19.2764 115.322 18.9708 115.475L18.2604 114.398L24.1271 108.783H16.6562V107.5H25.9833V108.829L20.7812 113.802C21.4993 113.756 22.1868 113.833 22.8437 114.031C23.5007 114.23 24.0736 114.551 24.5625 114.994ZM33.8727 124.344C34.6213 124.344 35.3317 124.199 36.0039 123.908C36.6761 123.603 37.2567 123.183 37.7456 122.648C38.6317 121.64 39.0747 120.448 39.0747 119.073V112.404C39.0747 110.953 38.5935 109.731 37.631 108.737C37.1421 108.233 36.5768 107.844 35.9352 107.569C35.2935 107.294 34.606 107.156 33.8727 107.156C33.1393 107.156 32.4442 107.294 31.7872 107.569C31.1303 107.844 30.565 108.233 30.0914 108.737C29.1442 109.761 28.6706 110.983 28.6706 112.404V119.073C28.6706 120.478 29.1213 121.678 30.0227 122.671C30.4963 123.206 31.0692 123.618 31.7414 123.908C32.4136 124.199 33.124 124.344 33.8727 124.344ZM33.8727 108.44C34.5143 108.44 35.1178 108.592 35.6831 108.898C36.2484 109.203 36.7143 109.616 37.081 110.135C37.524 110.808 37.7456 111.564 37.7456 112.404V119.073C37.7456 119.913 37.5317 120.662 37.1039 121.319C36.7372 121.853 36.2713 122.281 35.706 122.602C35.1407 122.908 34.5296 123.053 33.8727 123.037C33.2157 123.053 32.6046 122.908 32.0393 122.602C31.474 122.281 31.0157 121.853 30.6643 121.319C30.2213 120.677 29.9997 119.928 29.9997 119.073V112.404C29.9997 111.533 30.2289 110.777 30.6872 110.135C31.0386 109.616 31.497 109.203 32.0622 108.898C32.6275 108.592 33.231 108.44 33.8727 108.44Z" fill="#161C23" fill-opacity="0.9"/>
<path d="M16.4371 169.923C16.4218 169.251 16.544 168.617 16.8037 168.021C17.0787 167.41 17.4607 166.875 17.9496 166.417C18.3926 166.019 18.9044 165.714 19.485 165.5C20.0656 165.271 20.6614 165.156 21.2725 165.156C21.8989 165.156 22.4947 165.271 23.06 165.5C23.6253 165.729 24.1294 166.05 24.5725 166.462C25.0461 166.921 25.4128 167.456 25.6725 168.067C25.9322 168.662 26.0621 169.289 26.0621 169.946C26.0621 170.679 25.9017 171.382 25.5808 172.054C25.26 172.726 24.7635 173.414 24.0913 174.117L18.2017 180.694H26.1308V182H16.2996V180.694L23.2204 173.131C24.2287 172.031 24.7329 170.969 24.7329 169.946C24.7329 169.457 24.6336 168.999 24.435 168.571C24.2517 168.128 23.9919 167.746 23.6558 167.425C22.9683 166.768 22.1662 166.44 21.2496 166.44C20.8065 166.44 20.3787 166.524 19.9662 166.692C19.5537 166.86 19.1871 167.089 18.8662 167.379C18.5301 167.715 18.2628 168.105 18.0642 168.548C17.8656 168.991 17.7662 169.449 17.7662 169.923H16.4371ZM33.8727 182.344C34.6213 182.344 35.3317 182.199 36.0039 181.908C36.6761 181.603 37.2567 181.183 37.7456 180.648C38.6317 179.64 39.0747 178.448 39.0747 177.073V170.404C39.0747 168.953 38.5935 167.731 37.631 166.737C37.1421 166.233 36.5768 165.844 35.9352 165.569C35.2935 165.294 34.606 165.156 33.8727 165.156C33.1393 165.156 32.4442 165.294 31.7872 165.569C31.1303 165.844 30.565 166.233 30.0914 166.737C29.1442 167.761 28.6706 168.983 28.6706 170.404V177.073C28.6706 178.478 29.1213 179.678 30.0227 180.671C30.4963 181.206 31.0692 181.618 31.7414 181.908C32.4136 182.199 33.124 182.344 33.8727 182.344ZM33.8727 166.44C34.5143 166.44 35.1178 166.592 35.6831 166.898C36.2484 167.203 36.7143 167.616 37.081 168.135C37.524 168.808 37.7456 169.564 37.7456 170.404V177.073C37.7456 177.913 37.5317 178.662 37.1039 179.319C36.7372 179.853 36.2713 180.281 35.706 180.602C35.1407 180.908 34.5296 181.053 33.8727 181.037C33.2157 181.053 32.6046 180.908 32.0393 180.602C31.474 180.281 31.0157 179.853 30.6643 179.319C30.2213 178.677 29.9997 177.928 29.9997 177.073V170.404C29.9997 169.533 30.2289 168.777 30.6872 168.135C31.0386 167.616 31.497 167.203 32.0622 166.898C32.6275 166.592 33.231 166.44 33.8727 166.44Z" fill="#161C23" fill-opacity="0.9"/>
<path d="M24.9392 222.5V239H23.61V223.99L20.4933 225.869V224.356L23.61 222.5H24.9392ZM33.8727 239.344C34.6213 239.344 35.3317 239.199 36.0039 238.908C36.6761 238.603 37.2567 238.183 37.7456 237.648C38.6317 236.64 39.0747 235.448 39.0747 234.073V227.404C39.0747 225.953 38.5935 224.731 37.631 223.737C37.1421 223.233 36.5768 222.844 35.9352 222.569C35.2935 222.294 34.606 222.156 33.8727 222.156C33.1393 222.156 32.4442 222.294 31.7872 222.569C31.1303 222.844 30.565 223.233 30.0914 223.737C29.1442 224.761 28.6706 225.983 28.6706 227.404V234.073C28.6706 235.478 29.1213 236.678 30.0227 237.671C30.4963 238.206 31.0692 238.618 31.7414 238.908C32.4136 239.199 33.124 239.344 33.8727 239.344ZM33.8727 223.44C34.5143 223.44 35.1178 223.592 35.6831 223.898C36.2484 224.203 36.7143 224.616 37.081 225.135C37.524 225.808 37.7456 226.564 37.7456 227.404V234.073C37.7456 234.913 37.5317 235.662 37.1039 236.319C36.7372 236.853 36.2713 237.281 35.706 237.602C35.1407 237.908 34.5296 238.053 33.8727 238.037C33.2157 238.053 32.6046 237.908 32.0393 237.602C31.474 237.281 31.0157 236.853 30.6643 236.319C30.2213 235.677 29.9997 234.928 29.9997 234.073V227.404C29.9997 226.533 30.2289 225.777 30.6872 225.135C31.0386 224.616 31.497 224.203 32.0622 223.898C32.6275 223.592 33.231 223.44 33.8727 223.44Z" fill="#161C23" fill-opacity="0.9"/>
<path d="M33.8727 297.344C34.6213 297.344 35.3317 297.199 36.0039 296.908C36.6761 296.603 37.2567 296.183 37.7456 295.648C38.6317 294.64 39.0747 293.448 39.0747 292.073V285.404C39.0747 283.953 38.5935 282.731 37.631 281.737C37.1421 281.233 36.5768 280.844 35.9352 280.569C35.2935 280.294 34.606 280.156 33.8727 280.156C33.1393 280.156 32.4442 280.294 31.7872 280.569C31.1303 280.844 30.565 281.233 30.0914 281.737C29.1442 282.761 28.6706 283.983 28.6706 285.404V292.073C28.6706 293.478 29.1213 294.678 30.0227 295.671C30.4963 296.206 31.0692 296.618 31.7414 296.908C32.4136 297.199 33.124 297.344 33.8727 297.344ZM33.8727 281.44C34.5143 281.44 35.1178 281.592 35.6831 281.898C36.2484 282.203 36.7143 282.616 37.081 283.135C37.524 283.808 37.7456 284.564 37.7456 285.404V292.073C37.7456 292.913 37.5317 293.662 37.1039 294.319C36.7372 294.853 36.2713 295.281 35.706 295.602C35.1407 295.908 34.5296 296.053 33.8727 296.037C33.2157 296.053 32.6046 295.908 32.0393 295.602C31.474 295.281 31.0157 294.853 30.6643 294.319C30.2213 293.677 29.9997 292.928 29.9997 292.073V285.404C29.9997 284.533 30.2289 283.777 30.6872 283.135C31.0386 282.616 31.497 282.203 32.0622 281.898C32.6275 281.592 33.231 281.44 33.8727 281.44Z" fill="#161C23" fill-opacity="0.9"/>
<path d="M18.1513 347.987V349.179H11.2763V347.987H18.1513ZM24.9392 338.5V355H23.61V339.99L20.4933 341.869V340.356L23.61 338.5H24.9392ZM33.8727 355.344C34.6213 355.344 35.3317 355.199 36.0039 354.908C36.6761 354.603 37.2567 354.183 37.7456 353.648C38.6317 352.64 39.0747 351.448 39.0747 350.073V343.404C39.0747 341.953 38.5935 340.731 37.631 339.737C37.1421 339.233 36.5768 338.844 35.9352 338.569C35.2935 338.294 34.606 338.156 33.8727 338.156C33.1393 338.156 32.4442 338.294 31.7872 338.569C31.1303 338.844 30.565 339.233 30.0914 339.737C29.1442 340.761 28.6706 341.983 28.6706 343.404V350.073C28.6706 351.478 29.1213 352.678 30.0227 353.671C30.4963 354.206 31.0692 354.618 31.7414 354.908C32.4136 355.199 33.124 355.344 33.8727 355.344ZM33.8727 339.44C34.5143 339.44 35.1178 339.592 35.6831 339.898C36.2484 340.203 36.7143 340.616 37.081 341.135C37.524 341.808 37.7456 342.564 37.7456 343.404V350.073C37.7456 350.913 37.5317 351.662 37.1039 352.319C36.7372 352.853 36.2713 353.281 35.706 353.602C35.1407 353.908 34.5296 354.053 33.8727 354.037C33.2157 354.053 32.6046 353.908 32.0393 353.602C31.474 353.281 31.0157 352.853 30.6643 352.319C30.2213 351.677 29.9997 350.928 29.9997 350.073V343.404C29.9997 342.533 30.2289 341.777 30.6872 341.135C31.0386 340.616 31.497 340.203 32.0622 339.898C32.6275 339.592 33.231 339.44 33.8727 339.44Z" fill="#161C23" fill-opacity="0.9"/>
<path d="M13.3387 405.987V407.179H6.46375V405.987H13.3387ZM16.4371 400.923C16.4218 400.251 16.544 399.617 16.8037 399.021C17.0787 398.41 17.4607 397.875 17.9496 397.417C18.3926 397.019 18.9044 396.714 19.485 396.5C20.0656 396.271 20.6614 396.156 21.2725 396.156C21.8989 396.156 22.4947 396.271 23.06 396.5C23.6253 396.729 24.1294 397.05 24.5725 397.462C25.0461 397.921 25.4128 398.456 25.6725 399.067C25.9322 399.662 26.0621 400.289 26.0621 400.946C26.0621 401.679 25.9017 402.382 25.5808 403.054C25.26 403.726 24.7635 404.414 24.0912 405.117L18.2017 411.694H26.1308V413H16.2996V411.694L23.2204 404.131C24.2287 403.031 24.7329 401.969 24.7329 400.946C24.7329 400.457 24.6336 399.999 24.435 399.571C24.2517 399.128 23.9919 398.746 23.6558 398.425C22.9683 397.768 22.1662 397.44 21.2496 397.44C20.8065 397.44 20.3787 397.524 19.9662 397.692C19.5537 397.86 19.1871 398.089 18.8662 398.379C18.5301 398.715 18.2628 399.105 18.0642 399.548C17.8656 399.991 17.7662 400.449 17.7662 400.923H16.4371ZM33.8727 413.344C34.6213 413.344 35.3317 413.199 36.0039 412.908C36.6761 412.603 37.2567 412.183 37.7456 411.648C38.6317 410.64 39.0747 409.448 39.0747 408.073V401.404C39.0747 399.953 38.5935 398.731 37.631 397.737C37.1421 397.233 36.5768 396.844 35.9352 396.569C35.2935 396.294 34.606 396.156 33.8727 396.156C33.1393 396.156 32.4442 396.294 31.7872 396.569C31.1303 396.844 30.565 397.233 30.0914 397.737C29.1442 398.761 28.6706 399.983 28.6706 401.404V408.073C28.6706 409.478 29.1213 410.678 30.0227 411.671C30.4963 412.206 31.0692 412.618 31.7414 412.908C32.4136 413.199 33.124 413.344 33.8727 413.344ZM33.8727 397.44C34.5143 397.44 35.1178 397.592 35.6831 397.898C36.2483 398.203 36.7143 398.616 37.081 399.135C37.524 399.808 37.7456 400.564 37.7456 401.404V408.073C37.7456 408.913 37.5317 409.662 37.1039 410.319C36.7372 410.853 36.2713 411.281 35.706 411.602C35.1407 411.908 34.5296 412.053 33.8727 412.037C33.2157 412.053 32.6046 411.908 32.0393 411.602C31.474 411.281 31.0157 410.853 30.6643 410.319C30.2213 409.677 29.9997 408.928 29.9997 408.073V401.404C29.9997 400.533 30.2289 399.777 30.6872 399.135C31.0386 398.616 31.497 398.203 32.0622 397.898C32.6275 397.592 33.231 397.44 33.8727 397.44Z" fill="#161C23" fill-opacity="0.9"/>
<path d="M12.0712 463.987V465.179H5.19617V463.987H12.0712ZM26.3987 466.371V467.654H24.5195V471H23.1903V467.654H15.7195V466.371L21.3341 454.5H22.732L17.1403 466.371H23.1903V461.375H24.5195V466.371H26.3987ZM33.8727 471.344C34.6213 471.344 35.3317 471.199 36.0039 470.908C36.6761 470.603 37.2567 470.183 37.7456 469.648C38.6317 468.64 39.0747 467.448 39.0747 466.073V459.404C39.0747 457.953 38.5935 456.731 37.631 455.737C37.1421 455.233 36.5768 454.844 35.9352 454.569C35.2935 454.294 34.606 454.156 33.8727 454.156C33.1393 454.156 32.4442 454.294 31.7872 454.569C31.1303 454.844 30.565 455.233 30.0914 455.737C29.1442 456.761 28.6706 457.983 28.6706 459.404V466.073C28.6706 467.478 29.1213 468.678 30.0227 469.671C30.4963 470.206 31.0692 470.618 31.7414 470.908C32.4136 471.199 33.124 471.344 33.8727 471.344ZM33.8727 455.44C34.5143 455.44 35.1178 455.592 35.6831 455.898C36.2483 456.203 36.7143 456.616 37.081 457.135C37.524 457.808 37.7456 458.564 37.7456 459.404V466.073C37.7456 466.913 37.5317 467.662 37.1039 468.319C36.7372 468.853 36.2713 469.281 35.706 469.602C35.1407 469.908 34.5296 470.053 33.8727 470.037C33.2157 470.053 32.6046 469.908 32.0393 469.602C31.474 469.281 31.0157 468.853 30.6643 468.319C30.2213 467.677 29.9997 466.928 29.9997 466.073V459.404C29.9997 458.533 30.2289 457.777 30.6872 457.135C31.0386 456.616 31.497 456.203 32.0622 455.898C32.6275 455.592 33.231 455.44 33.8727 455.44Z" fill="#161C23" fill-opacity="0.9"/>
<path d="M56.4188 9.875L56.4375 20H55.35V12.35L51.8438 18.65H50.9063L47.4188 12.35V20H46.3125V9.875H47.3625L51.375 17.1125L55.4063 9.875H56.4188ZM67.1041 9.875V20H66.0354V10.9062H61.9104L61.2541 16.2687C61.1666 17.0687 61.0416 17.7375 60.8791 18.275C60.7166 18.8 60.4479 19.225 60.0729 19.55C59.6979 19.875 59.1666 20.025 58.4791 20V18.9687C58.9166 18.9687 59.2479 18.8625 59.4729 18.65C59.6979 18.4375 59.8604 18.1437 59.9604 17.7687C60.0604 17.3812 60.1541 16.8187 60.2416 16.0812L60.9729 9.875H67.1041ZM78.3638 9.875V20H77.2762V15.0687H71.1825V20H70.095V9.875H71.1825V14H77.2762V9.875H78.3638ZM94.6779 7.7375C95.0529 8.1125 95.3466 8.55625 95.5591 9.06875C95.7716 9.56875 95.8841 10.0875 95.8966 10.625C95.8966 11.1125 95.8029 11.5937 95.6154 12.0687C95.4279 12.5312 95.1716 12.95 94.8466 13.325C94.4841 13.7625 94.0216 14.1062 93.4591 14.3562C92.9091 14.6062 92.3404 14.7312 91.7529 14.7312H87.3654V20H86.2779V6.5H91.7529C92.2279 6.5 92.7091 6.5875 93.1966 6.7625C93.7716 6.975 94.2654 7.3 94.6779 7.7375ZM94.0404 12.575C94.2654 12.3 94.4404 12 94.5654 11.675C94.6904 11.35 94.7529 11.025 94.7529 10.7C94.7529 10.2625 94.6716 9.85 94.5091 9.4625C94.3591 9.075 94.1404 8.7375 93.8529 8.45C93.5779 8.175 93.2529 7.95625 92.8779 7.79375C92.5029 7.63125 92.1279 7.55 91.7529 7.55H87.3654V13.6812H91.7529C92.1779 13.6812 92.5904 13.5812 92.9904 13.3812C93.4029 13.1812 93.7529 12.9125 94.0404 12.575Z" fill="#161C23" fill-opacity="0.9"/>
<path d="M347.156 494.962H341.4V504H340.313V493.875H347.156V494.962ZM353.166 504.281C352.441 504.281 351.766 504.144 351.141 503.869C350.516 503.581 349.991 503.169 349.566 502.631C348.828 501.694 348.46 500.456 348.46 498.919C348.46 497.406 348.828 496.175 349.566 495.225C349.978 494.7 350.497 494.3 351.122 494.025C351.76 493.737 352.441 493.594 353.166 493.594C353.903 493.594 354.585 493.731 355.21 494.006C355.835 494.281 356.353 494.687 356.766 495.225C357.516 496.15 357.891 497.381 357.891 498.919C357.891 500.469 357.516 501.706 356.766 502.631C356.341 503.181 355.822 503.594 355.21 503.869C354.597 504.144 353.916 504.281 353.166 504.281ZM355.903 501.975C356.453 501.262 356.728 500.244 356.728 498.919C356.728 497.606 356.453 496.594 355.903 495.881C355.603 495.481 355.21 495.175 354.722 494.962C354.247 494.75 353.728 494.644 353.166 494.644C352.616 494.644 352.097 494.75 351.61 494.962C351.135 495.175 350.753 495.481 350.466 495.881C349.903 496.606 349.622 497.619 349.622 498.919C349.622 500.231 349.903 501.25 350.466 501.975C350.753 502.375 351.135 502.687 351.61 502.912C352.097 503.125 352.616 503.231 353.166 503.231C353.716 503.231 354.235 503.125 354.722 502.912C355.21 502.687 355.603 502.375 355.903 501.975ZM368.734 502.95H369.653V505.444H368.603V504H360.428V505.444H359.378V502.95C360.541 502.95 361.247 501.85 361.497 499.65L362.172 493.875H368.734V502.95ZM367.684 494.906H363.091L362.528 499.762C362.353 501.237 361.978 502.3 361.403 502.95H367.684V494.906Z" fill="#161C23" fill-opacity="0.9"/>
<path opacity="0.8" d="M148.288 449.146V451.021H154.538V449.146H148.288ZM157.313 445.5H159.708C159.708 444.771 160.021 444.083 160.521 443.604C160.979 443.167 161.604 442.896 162.271 442.896C163.042 442.896 163.729 443.208 164.229 443.771C164.646 444.25 164.875 444.875 164.875 445.521C164.875 446.25 164.521 447.062 163.563 447.937L157.229 453.771V455.979H167.083V453.771H160.896L164.833 449.979C166.417 448.5 167.292 447.437 167.292 445.542C167.292 444.333 166.854 443.146 166.042 442.25C165.167 441.187 163.813 440.687 162.396 440.687C161.167 440.687 159.854 441.021 158.917 441.854C157.917 442.75 157.271 444.104 157.313 445.5ZM178.673 451.25V447.271H176.298V451.25H172.215L177.069 441H174.611L169.778 451.25V453.458H176.298V456H178.673V453.458H180.132V451.25H178.673Z" fill="#161C23" fill-opacity="0.9"/>
<path opacity="0.8" d="M248.238 98.5H250.633C250.633 97.7708 250.946 97.0833 251.446 96.6042C251.904 96.1667 252.529 95.8958 253.196 95.8958C253.967 95.8958 254.654 96.2083 255.154 96.7708C255.571 97.25 255.8 97.875 255.8 98.5208C255.8 99.25 255.446 100.062 254.488 100.937L248.154 106.771V108.979H258.008V106.771H251.821L255.758 102.979C257.342 101.5 258.217 100.437 258.217 98.5417C258.217 97.3333 257.779 96.1458 256.967 95.25C256.092 94.1875 254.738 93.6875 253.321 93.6875C252.092 93.6875 250.779 94.0208 249.842 94.8542C248.842 95.75 248.196 97.1042 248.238 98.5ZM261.078 97.8958C261.098 98.5833 261.265 99.3125 261.682 99.9583C261.89 100.333 262.161 100.646 262.473 100.937C261.994 101.333 261.578 101.833 261.307 102.354C260.869 103.062 260.703 103.875 260.703 104.604C260.703 105.937 261.244 107.292 262.286 108.146C263.203 108.937 264.515 109.312 265.765 109.312C266.994 109.312 268.307 108.979 269.265 108.146C270.328 107.271 270.807 105.979 270.848 104.604C270.828 103.875 270.682 103.062 270.244 102.354C269.973 101.833 269.557 101.333 269.078 100.937C269.39 100.646 269.661 100.333 269.848 99.9583C270.286 99.3125 270.453 98.5833 270.453 97.8958C270.453 96.625 269.932 95.3958 268.911 94.625C268.057 93.9583 266.911 93.6875 265.765 93.6875C264.682 93.6875 263.536 93.9375 262.64 94.625C261.598 95.4167 261.14 96.5417 261.078 97.8958ZM263.578 97.8958C263.578 97.2917 263.744 96.7708 264.182 96.4167C264.578 96.0625 265.182 95.9167 265.765 95.8958C266.369 95.9167 266.973 96.0625 267.369 96.4167C267.786 96.7708 267.973 97.2917 267.973 97.8958C267.994 98.4792 267.786 99.0208 267.39 99.375C266.973 99.7292 266.369 99.875 265.765 99.875C265.182 99.875 264.578 99.7292 264.161 99.375C263.744 99.0208 263.557 98.4792 263.578 97.8958ZM267.661 106.437C267.203 106.875 266.494 107.083 265.765 107.083C265.057 107.083 264.348 106.875 263.869 106.437C263.39 105.979 263.182 105.312 263.182 104.604C263.182 103.896 263.39 103.208 263.869 102.771C264.348 102.312 265.057 102.104 265.765 102.104C266.494 102.104 267.203 102.312 267.661 102.771C268.161 103.208 268.369 103.896 268.369 104.604C268.369 105.312 268.161 105.979 267.661 106.437Z" fill="#161C23" fill-opacity="0.9"/>
<path opacity="0.8" d="M352.211 91.1667C351.502 90.375 350.586 89.8333 349.44 89.6458L353.002 86.2917V84H343.877V86.2083H349.857L345.711 90.1042L346.794 91.9375C347.211 91.7292 347.69 91.5833 348.148 91.5833C348.836 91.5833 349.502 91.7917 350.023 92.2708C350.586 92.8125 350.836 93.5625 350.836 94.3333C350.836 95.1042 350.565 95.8542 349.982 96.375C349.482 96.8125 348.836 97.0625 348.169 97.0625C347.482 97.0625 346.836 96.8333 346.336 96.3958C345.961 96.0625 345.711 95.625 345.565 95.1458L343.294 95.75C343.565 96.6458 344.065 97.4375 344.752 98.0417C345.69 98.875 346.94 99.3125 348.169 99.2917C349.377 99.3125 350.627 98.875 351.565 98.0417C352.627 97.125 353.19 95.75 353.232 94.3333C353.252 93.1875 352.919 92.0625 352.211 91.1667ZM360.817 99.2917C359.296 99.2917 357.775 98.7292 356.775 97.5625C355.775 96.375 355.504 95.2708 355.504 93.6875V89.2917C355.504 87.7292 355.754 86.625 356.775 85.3958C357.733 84.2917 359.233 83.6458 360.817 83.6875C362.317 83.6458 363.837 84.2292 364.858 85.3958C365.858 86.5417 366.129 87.7083 366.129 89.2917V93.6875C366.129 95.2083 365.879 96.3958 364.879 97.5625C363.879 98.7083 362.421 99.2917 360.817 99.2917ZM360.817 85.8958C359.796 85.8958 358.837 86.4583 358.337 87.3125C357.983 87.875 357.9 88.5 357.9 89.2917V93.6875C357.9 94.3958 357.942 95.1042 358.358 95.75C358.9 96.5625 359.837 97.0833 360.817 97.0833C361.817 97.0833 362.754 96.5625 363.296 95.7292C363.692 95.125 363.733 94.5417 363.733 93.6875V89.2917C363.733 88.5208 363.712 88 363.337 87.3333C362.817 86.4583 361.837 85.8958 360.817 85.8958Z" fill="#161C23" fill-opacity="0.9"/>
<path opacity="0.8" d="M447.211 91.1667C446.502 90.375 445.586 89.8333 444.44 89.6458L448.002 86.2917V84H438.877V86.2083H444.857L440.711 90.1042L441.794 91.9375C442.211 91.7292 442.69 91.5833 443.148 91.5833C443.836 91.5833 444.502 91.7917 445.023 92.2708C445.586 92.8125 445.836 93.5625 445.836 94.3333C445.836 95.1042 445.565 95.8542 444.982 96.375C444.482 96.8125 443.836 97.0625 443.169 97.0625C442.482 97.0625 441.836 96.8333 441.336 96.3958C440.961 96.0625 440.711 95.625 440.565 95.1458L438.294 95.75C438.565 96.6458 439.065 97.4375 439.752 98.0417C440.69 98.875 441.94 99.3125 443.169 99.2917C444.377 99.3125 445.627 98.875 446.565 98.0417C447.627 97.125 448.19 95.75 448.232 94.3333C448.252 93.1875 447.919 92.0625 447.211 91.1667ZM455.817 99.2917C454.296 99.2917 452.775 98.7292 451.775 97.5625C450.775 96.375 450.504 95.2708 450.504 93.6875V89.2917C450.504 87.7292 450.754 86.625 451.775 85.3958C452.733 84.2917 454.233 83.6458 455.817 83.6875C457.317 83.6458 458.837 84.2292 459.858 85.3958C460.858 86.5417 461.129 87.7083 461.129 89.2917V93.6875C461.129 95.2083 460.879 96.3958 459.879 97.5625C458.879 98.7083 457.421 99.2917 455.817 99.2917ZM455.817 85.8958C454.796 85.8958 453.837 86.4583 453.337 87.3125C452.983 87.875 452.9 88.5 452.9 89.2917V93.6875C452.9 94.3958 452.942 95.1042 453.358 95.75C453.9 96.5625 454.837 97.0833 455.817 97.0833C456.817 97.0833 457.754 96.5625 458.296 95.7292C458.692 95.125 458.733 94.5417 458.733 93.6875V89.2917C458.733 88.5208 458.712 88 458.337 87.3333C457.817 86.4583 456.837 85.8958 455.817 85.8958Z" fill="#161C23" fill-opacity="0.9"/>
<path opacity="0.8" d="M542.211 91.1667C541.502 90.375 540.586 89.8333 539.44 89.6458L543.002 86.2917V84H533.877V86.2083H539.857L535.711 90.1042L536.794 91.9375C537.211 91.7292 537.69 91.5833 538.148 91.5833C538.836 91.5833 539.502 91.7917 540.023 92.2708C540.586 92.8125 540.836 93.5625 540.836 94.3333C540.836 95.1042 540.565 95.8542 539.982 96.375C539.482 96.8125 538.836 97.0625 538.169 97.0625C537.482 97.0625 536.836 96.8333 536.336 96.3958C535.961 96.0625 535.711 95.625 535.565 95.1458L533.294 95.75C533.565 96.6458 534.065 97.4375 534.752 98.0417C535.69 98.875 536.94 99.3125 538.169 99.2917C539.377 99.3125 540.627 98.875 541.565 98.0417C542.627 97.125 543.19 95.75 543.232 94.3333C543.252 93.1875 542.919 92.0625 542.211 91.1667ZM550.817 99.2917C549.296 99.2917 547.775 98.7292 546.775 97.5625C545.775 96.375 545.504 95.2708 545.504 93.6875V89.2917C545.504 87.7292 545.754 86.625 546.775 85.3958C547.733 84.2917 549.233 83.6458 550.817 83.6875C552.317 83.6458 553.837 84.2292 554.858 85.3958C555.858 86.5417 556.129 87.7083 556.129 89.2917V93.6875C556.129 95.2083 555.879 96.3958 554.879 97.5625C553.879 98.7083 552.421 99.2917 550.817 99.2917ZM550.817 85.8958C549.796 85.8958 548.837 86.4583 548.337 87.3125C547.983 87.875 547.9 88.5 547.9 89.2917V93.6875C547.9 94.3958 547.942 95.1042 548.358 95.75C548.9 96.5625 549.837 97.0833 550.817 97.0833C551.817 97.0833 552.754 96.5625 553.296 95.7292C553.692 95.125 553.733 94.5417 553.733 93.6875V89.2917C553.733 88.5208 553.712 88 553.337 87.3333C552.817 86.4583 551.837 85.8958 550.817 85.8958Z" fill="#161C23" fill-opacity="0.9"/>
<line opacity="0.3" x1="67" y1="422.75" x2="646" y2="422.75" stroke="black" stroke-width="0.5" stroke-dasharray="6 6"/>
<line opacity="0.3" x1="67" y1="289.75" x2="646" y2="289.75" stroke="black" stroke-width="0.5" stroke-dasharray="6 6"/>
<line opacity="0.3" x1="67" y1="126.75" x2="646" y2="126.75" stroke="black" stroke-width="0.5" stroke-dasharray="6 6"/>
<line opacity="0.3" x1="67" y1="116.75" x2="646" y2="116.75" stroke="black" stroke-width="0.5" stroke-dasharray="6 6"/>
<line opacity="0.7" x1="67" y1="473.65" x2="644" y2="473.65" stroke="#161C23" stroke-width="0.7"/>
<path d="M151.492 265.5V276H150.646V266.448L148.663 267.644V266.681L150.646 265.5H151.492ZM163.312 268.971H158.834V276H157.989V268.125H163.312V268.971ZM167.986 276.219C167.422 276.219 166.897 276.112 166.411 275.898C165.925 275.674 165.516 275.353 165.186 274.935C164.612 274.206 164.325 273.244 164.325 272.048C164.325 270.872 164.612 269.914 165.186 269.175C165.506 268.767 165.91 268.456 166.396 268.242C166.892 268.018 167.422 267.906 167.986 267.906C168.559 267.906 169.089 268.013 169.575 268.227C170.061 268.441 170.465 268.757 170.786 269.175C171.369 269.894 171.661 270.852 171.661 272.048C171.661 273.253 171.369 274.216 170.786 274.935C170.455 275.363 170.052 275.684 169.575 275.898C169.099 276.112 168.569 276.219 167.986 276.219ZM170.115 274.425C170.543 273.871 170.756 273.078 170.756 272.048C170.756 271.027 170.543 270.24 170.115 269.685C169.881 269.374 169.575 269.136 169.196 268.971C168.827 268.806 168.423 268.723 167.986 268.723C167.558 268.723 167.154 268.806 166.775 268.971C166.406 269.136 166.109 269.374 165.886 269.685C165.448 270.249 165.229 271.037 165.229 272.048C165.229 273.069 165.448 273.861 165.886 274.425C166.109 274.736 166.406 274.979 166.775 275.154C167.154 275.319 167.558 275.402 167.986 275.402C168.413 275.402 168.817 275.319 169.196 275.154C169.575 274.979 169.881 274.736 170.115 274.425ZM180.095 275.183H180.809V277.123H179.992V276H173.634V277.123H172.817V275.183C173.722 275.183 174.271 274.328 174.465 272.617L174.99 268.125H180.095V275.183ZM179.278 268.927H175.705L175.267 272.704C175.131 273.851 174.84 274.678 174.392 275.183H179.278V268.927Z" fill="#161C23" fill-opacity="0.9"/>
<path d="M242.113 305.315C242.103 304.887 242.181 304.483 242.346 304.104C242.521 303.715 242.765 303.375 243.076 303.083C243.358 302.831 243.683 302.636 244.053 302.5C244.422 302.354 244.801 302.281 245.19 302.281C245.589 302.281 245.968 302.354 246.328 302.5C246.687 302.646 247.008 302.85 247.29 303.112C247.592 303.404 247.825 303.744 247.99 304.133C248.155 304.512 248.238 304.911 248.238 305.329C248.238 305.796 248.136 306.243 247.932 306.671C247.728 307.099 247.412 307.536 246.984 307.983L243.236 312.169H248.282V313H242.026V312.169L246.43 307.356C247.071 306.656 247.392 305.981 247.392 305.329C247.392 305.018 247.329 304.726 247.203 304.454C247.086 304.172 246.921 303.929 246.707 303.725C246.269 303.307 245.759 303.098 245.176 303.098C244.894 303.098 244.621 303.151 244.359 303.258C244.096 303.365 243.863 303.511 243.659 303.696C243.445 303.91 243.275 304.158 243.149 304.44C243.022 304.722 242.959 305.013 242.959 305.315H242.113ZM259.343 305.971H254.866V313H254.02V305.125H259.343V305.971ZM264.017 313.219C263.453 313.219 262.928 313.112 262.442 312.898C261.956 312.674 261.547 312.353 261.217 311.935C260.643 311.206 260.356 310.244 260.356 309.048C260.356 307.872 260.643 306.914 261.217 306.175C261.538 305.767 261.941 305.456 262.427 305.242C262.923 305.018 263.453 304.906 264.017 304.906C264.591 304.906 265.12 305.013 265.606 305.227C266.093 305.441 266.496 305.757 266.817 306.175C267.4 306.894 267.692 307.852 267.692 309.048C267.692 310.253 267.4 311.216 266.817 311.935C266.486 312.363 266.083 312.684 265.606 312.898C265.13 313.112 264.6 313.219 264.017 313.219ZM266.146 311.425C266.574 310.871 266.788 310.078 266.788 309.048C266.788 308.027 266.574 307.24 266.146 306.685C265.913 306.374 265.606 306.136 265.227 305.971C264.858 305.806 264.454 305.723 264.017 305.723C263.589 305.723 263.186 305.806 262.806 305.971C262.437 306.136 262.141 306.374 261.917 306.685C261.479 307.249 261.261 308.037 261.261 309.048C261.261 310.069 261.479 310.861 261.917 311.425C262.141 311.736 262.437 311.979 262.806 312.154C263.186 312.319 263.589 312.402 264.017 312.402C264.445 312.402 264.848 312.319 265.227 312.154C265.606 311.979 265.913 311.736 266.146 311.425ZM276.126 312.183H276.84V314.123H276.024V313H269.665V314.123H268.849V312.183C269.753 312.183 270.302 311.328 270.497 309.617L271.022 305.125H276.126V312.183ZM275.309 305.927H271.736L271.299 309.704C271.163 310.851 270.871 311.678 270.424 312.183H275.309V305.927Z" fill="#161C23" fill-opacity="0.9"/>
<path d="M342.455 307.269C342.795 307.57 343.048 307.944 343.213 308.392C343.388 308.839 343.476 309.315 343.476 309.821C343.466 310.394 343.354 310.919 343.14 311.396C342.936 311.872 342.63 312.261 342.221 312.562C341.677 312.981 341.001 313.199 340.194 313.219C339.407 313.219 338.726 313.015 338.153 312.606C337.608 312.198 337.224 311.658 337.001 310.987L337.803 310.725C337.978 311.25 338.264 311.658 338.663 311.95C339.081 312.242 339.587 312.387 340.18 312.387C340.792 312.368 341.298 312.208 341.696 311.906C342.289 311.459 342.586 310.764 342.586 309.821C342.586 309.422 342.518 309.048 342.382 308.698C342.255 308.348 342.056 308.056 341.784 307.823C341.356 307.453 340.817 307.269 340.165 307.269C339.961 307.269 339.747 307.298 339.523 307.356C339.3 307.405 339.091 307.478 338.896 307.575L338.444 306.89L342.178 303.317H337.423V302.5H343.359V303.346L340.048 306.51C340.505 306.481 340.943 306.53 341.361 306.656C341.779 306.783 342.144 306.987 342.455 307.269ZM354.514 305.971H350.037V313H349.191V305.125H354.514V305.971ZM359.188 313.219C358.624 313.219 358.099 313.112 357.613 312.898C357.127 312.674 356.718 312.353 356.388 311.935C355.814 311.206 355.527 310.244 355.527 309.048C355.527 307.872 355.814 306.914 356.388 306.175C356.709 305.767 357.112 305.456 357.598 305.242C358.094 305.018 358.624 304.906 359.188 304.906C359.761 304.906 360.291 305.013 360.777 305.227C361.264 305.441 361.667 305.757 361.988 306.175C362.571 306.894 362.863 307.852 362.863 309.048C362.863 310.253 362.571 311.216 361.988 311.935C361.657 312.363 361.254 312.684 360.777 312.898C360.301 313.112 359.771 313.219 359.188 313.219ZM361.317 311.425C361.745 310.871 361.959 310.078 361.959 309.048C361.959 308.027 361.745 307.24 361.317 306.685C361.084 306.374 360.777 306.136 360.398 305.971C360.029 305.806 359.625 305.723 359.188 305.723C358.76 305.723 358.357 305.806 357.977 305.971C357.608 306.136 357.311 306.374 357.088 306.685C356.65 307.249 356.432 308.037 356.432 309.048C356.432 310.069 356.65 310.861 357.088 311.425C357.311 311.736 357.608 311.979 357.977 312.154C358.357 312.319 358.76 312.402 359.188 312.402C359.616 312.402 360.019 312.319 360.398 312.154C360.777 311.979 361.084 311.736 361.317 311.425ZM371.297 312.183H372.011V314.123H371.195V313H364.836V314.123H364.02V312.183C364.924 312.183 365.473 311.328 365.668 309.617L366.193 305.125H371.297V312.183ZM370.48 305.927H366.907L366.47 309.704C366.334 310.851 366.042 311.678 365.595 312.183H370.48V305.927Z" fill="#161C23" fill-opacity="0.9"/>
<path d="M438.637 310.054V310.871H437.441V313H436.595V310.871H431.841V310.054L435.414 302.5H436.304L432.745 310.054H436.595V306.875H437.441V310.054H438.637ZM449.527 305.971H445.05V313H444.204V305.125H449.527V305.971ZM454.201 313.219C453.638 313.219 453.113 313.112 452.626 312.898C452.14 312.674 451.732 312.353 451.401 311.935C450.828 311.206 450.541 310.244 450.541 309.048C450.541 307.872 450.828 306.914 451.401 306.175C451.722 305.767 452.126 305.456 452.612 305.242C453.108 305.018 453.638 304.906 454.201 304.906C454.775 304.906 455.305 305.013 455.791 305.227C456.277 305.441 456.681 305.757 457.001 306.175C457.585 306.894 457.876 307.852 457.876 309.048C457.876 310.253 457.585 311.216 457.001 311.935C456.671 312.363 456.267 312.684 455.791 312.898C455.315 313.112 454.785 313.219 454.201 313.219ZM456.331 311.425C456.758 310.871 456.972 310.078 456.972 309.048C456.972 308.027 456.758 307.24 456.331 306.685C456.097 306.374 455.791 306.136 455.412 305.971C455.042 305.806 454.639 305.723 454.201 305.723C453.774 305.723 453.37 305.806 452.991 305.971C452.622 306.136 452.325 306.374 452.101 306.685C451.664 307.249 451.445 308.037 451.445 309.048C451.445 310.069 451.664 310.861 452.101 311.425C452.325 311.736 452.622 311.979 452.991 312.154C453.37 312.319 453.774 312.402 454.201 312.402C454.629 312.402 455.033 312.319 455.412 312.154C455.791 311.979 456.097 311.736 456.331 311.425ZM466.31 312.183H467.025V314.123H466.208V313H459.85V314.123H459.033V312.183C459.937 312.183 460.487 311.328 460.681 309.617L461.206 305.125H466.31V312.183ZM465.494 305.927H461.921L461.483 309.704C461.347 310.851 461.056 311.678 460.608 312.183H465.494V305.927Z" fill="#161C23" fill-opacity="0.9"/>
<path d="M533.344 302.5V303.317H528.59L528.356 307.123C528.658 306.841 529.008 306.622 529.406 306.467C529.805 306.301 530.223 306.219 530.661 306.219C531.098 306.219 531.516 306.297 531.915 306.452C532.313 306.608 532.668 306.826 532.979 307.108C533.349 307.439 533.631 307.828 533.825 308.275C534.029 308.722 534.131 309.199 534.131 309.704C534.131 310.171 534.039 310.618 533.854 311.046C533.679 311.474 533.431 311.848 533.111 312.169C532.79 312.499 532.411 312.757 531.973 312.942C531.545 313.126 531.088 313.219 530.602 313.219C530.155 313.219 529.727 313.141 529.319 312.985C528.911 312.82 528.541 312.587 528.211 312.285C527.715 311.799 527.379 311.235 527.204 310.594L528.006 310.375C528.133 310.89 528.405 311.333 528.823 311.702C529.066 311.916 529.338 312.081 529.64 312.198C529.951 312.315 530.272 312.373 530.602 312.373C530.962 312.373 531.302 312.305 531.623 312.169C531.954 312.033 532.24 311.848 532.483 311.615C532.736 311.362 532.931 311.075 533.067 310.754C533.213 310.424 533.286 310.074 533.286 309.704C533.286 309.315 533.203 308.946 533.038 308.596C532.882 308.246 532.663 307.944 532.381 307.692C531.856 307.244 531.263 307.021 530.602 307.021C529.97 307.021 529.411 307.22 528.925 307.619C528.663 307.842 528.454 308.09 528.298 308.362L527.481 307.896L527.802 302.5H533.344ZM545.164 305.971H540.687V313H539.841V305.125H545.164V305.971ZM549.838 313.219C549.274 313.219 548.749 313.112 548.263 312.898C547.777 312.674 547.369 312.353 547.038 311.935C546.465 311.206 546.178 310.244 546.178 309.048C546.178 307.872 546.465 306.914 547.038 306.175C547.359 305.767 547.763 305.456 548.249 305.242C548.744 305.018 549.274 304.906 549.838 304.906C550.412 304.906 550.942 305.013 551.428 305.227C551.914 305.441 552.317 305.757 552.638 306.175C553.222 306.894 553.513 307.852 553.513 309.048C553.513 310.253 553.222 311.216 552.638 311.935C552.308 312.363 551.904 312.684 551.428 312.898C550.951 313.112 550.422 313.219 549.838 313.219ZM551.967 311.425C552.395 310.871 552.609 310.078 552.609 309.048C552.609 308.027 552.395 307.24 551.967 306.685C551.734 306.374 551.428 306.136 551.049 305.971C550.679 305.806 550.276 305.723 549.838 305.723C549.41 305.723 549.007 305.806 548.628 305.971C548.258 306.136 547.962 306.374 547.738 306.685C547.301 307.249 547.082 308.037 547.082 309.048C547.082 310.069 547.301 310.861 547.738 311.425C547.962 311.736 548.258 311.979 548.628 312.154C549.007 312.319 549.41 312.402 549.838 312.402C550.266 312.402 550.669 312.319 551.049 312.154C551.428 311.979 551.734 311.736 551.967 311.425ZM561.947 312.183H562.662V314.123H561.845V313H555.487V314.123H554.67V312.183C555.574 312.183 556.123 311.328 556.318 309.617L556.843 305.125H561.947V312.183ZM561.13 305.927H557.558L557.12 309.704C556.984 310.851 556.692 311.678 556.245 312.183H561.13V305.927Z" fill="#161C23" fill-opacity="0.9"/>
<rect x="135" y="289" width="60" height="134" fill="#9DC7D5"/>
<rect width="60" height="166" transform="matrix(1 0 0 -1 230 290)" fill="#6DABBF"/>
<rect width="60" height="174" transform="matrix(1 0 0 -1 325 290)" fill="#3C8FAA"/>
<rect width="60" height="174" transform="matrix(1 0 0 -1 420 290)" fill="#0B7495"/>
<rect width="60" height="174" transform="matrix(1 0 0 -1 515 290)" fill="#0B7495"/>
</svg>
